G04 #@! TF.GenerationSoftware,KiCad,Pcbnew,7.0.6*
G04 #@! TF.CreationDate,2023-08-16T01:55:37+02:00*
G04 #@! TF.ProjectId,EPROM-programmer,4550524f-4d2d-4707-926f-6772616d6d65,rev?*
G04 #@! TF.SameCoordinates,Original*
G04 #@! TF.FileFunction,Legend,Top*
G04 #@! TF.FilePolarity,Positive*
%FSLAX46Y46*%
G04 Gerber Fmt 4.6, Leading zero omitted, Abs format (unit mm)*
G04 Created by KiCad (PCBNEW 7.0.6) date 2023-08-16 01:55:37*
%MOMM*%
%LPD*%
G01*
G04 APERTURE LIST*
G04 Aperture macros list*
%AMRoundRect*
0 Rectangle with rounded corners*
0 $1 Rounding radius*
0 $2 $3 $4 $5 $6 $7 $8 $9 X,Y pos of 4 corners*
0 Add a 4 corners polygon primitive as box body*
4,1,4,$2,$3,$4,$5,$6,$7,$8,$9,$2,$3,0*
0 Add four circle primitives for the rounded corners*
1,1,$1+$1,$2,$3*
1,1,$1+$1,$4,$5*
1,1,$1+$1,$6,$7*
1,1,$1+$1,$8,$9*
0 Add four rect primitives between the rounded corners*
20,1,$1+$1,$2,$3,$4,$5,0*
20,1,$1+$1,$4,$5,$6,$7,0*
20,1,$1+$1,$6,$7,$8,$9,0*
20,1,$1+$1,$8,$9,$2,$3,0*%
G04 Aperture macros list end*
%ADD10C,0.150000*%
%ADD11C,0.120000*%
%ADD12C,1.600000*%
%ADD13O,1.600000X1.600000*%
%ADD14R,2.000000X2.000000*%
%ADD15R,1.600000X1.600000*%
%ADD16R,1.500000X1.500000*%
%ADD17C,1.500000*%
%ADD18R,1.700000X1.700000*%
%ADD19C,1.400000*%
%ADD20R,3.200000X3.200000*%
%ADD21O,3.200000X3.200000*%
%ADD22R,2.000000X1.440000*%
%ADD23O,2.000000X1.440000*%
%ADD24O,1.700000X1.700000*%
%ADD25RoundRect,0.250000X0.600000X-0.600000X0.600000X0.600000X-0.600000X0.600000X-0.600000X-0.600000X0*%
%ADD26C,1.700000*%
%ADD27C,2.000000*%
%ADD28R,3.500000X3.500000*%
%ADD29RoundRect,0.750000X-0.750000X-1.000000X0.750000X-1.000000X0.750000X1.000000X-0.750000X1.000000X0*%
%ADD30RoundRect,0.875000X-0.875000X-0.875000X0.875000X-0.875000X0.875000X0.875000X-0.875000X0.875000X0*%
%ADD31R,1.800000X1.800000*%
%ADD32C,1.800000*%
%ADD33C,0.700000*%
%ADD34O,0.900000X2.400000*%
%ADD35O,0.900000X1.700000*%
%ADD36R,2.000000X1.905000*%
%ADD37O,2.000000X1.905000*%
G04 APERTURE END LIST*
D10*
X107889874Y-154909819D02*
X108556541Y-154909819D01*
X108842255Y-155957438D02*
X107889874Y-155957438D01*
X107889874Y-155957438D02*
X107889874Y-153957438D01*
X107889874Y-153957438D02*
X108842255Y-153957438D01*
X109699398Y-155957438D02*
X109699398Y-153957438D01*
X109699398Y-153957438D02*
X110461303Y-153957438D01*
X110461303Y-153957438D02*
X110651779Y-154052676D01*
X110651779Y-154052676D02*
X110747017Y-154147914D01*
X110747017Y-154147914D02*
X110842255Y-154338390D01*
X110842255Y-154338390D02*
X110842255Y-154624104D01*
X110842255Y-154624104D02*
X110747017Y-154814580D01*
X110747017Y-154814580D02*
X110651779Y-154909819D01*
X110651779Y-154909819D02*
X110461303Y-155005057D01*
X110461303Y-155005057D02*
X109699398Y-155005057D01*
X112842255Y-155957438D02*
X112175588Y-155005057D01*
X111699398Y-155957438D02*
X111699398Y-153957438D01*
X111699398Y-153957438D02*
X112461303Y-153957438D01*
X112461303Y-153957438D02*
X112651779Y-154052676D01*
X112651779Y-154052676D02*
X112747017Y-154147914D01*
X112747017Y-154147914D02*
X112842255Y-154338390D01*
X112842255Y-154338390D02*
X112842255Y-154624104D01*
X112842255Y-154624104D02*
X112747017Y-154814580D01*
X112747017Y-154814580D02*
X112651779Y-154909819D01*
X112651779Y-154909819D02*
X112461303Y-155005057D01*
X112461303Y-155005057D02*
X111699398Y-155005057D01*
X114080350Y-153957438D02*
X114461303Y-153957438D01*
X114461303Y-153957438D02*
X114651779Y-154052676D01*
X114651779Y-154052676D02*
X114842255Y-154243152D01*
X114842255Y-154243152D02*
X114937493Y-154624104D01*
X114937493Y-154624104D02*
X114937493Y-155290771D01*
X114937493Y-155290771D02*
X114842255Y-155671723D01*
X114842255Y-155671723D02*
X114651779Y-155862200D01*
X114651779Y-155862200D02*
X114461303Y-155957438D01*
X114461303Y-155957438D02*
X114080350Y-155957438D01*
X114080350Y-155957438D02*
X113889874Y-155862200D01*
X113889874Y-155862200D02*
X113699398Y-155671723D01*
X113699398Y-155671723D02*
X113604160Y-155290771D01*
X113604160Y-155290771D02*
X113604160Y-154624104D01*
X113604160Y-154624104D02*
X113699398Y-154243152D01*
X113699398Y-154243152D02*
X113889874Y-154052676D01*
X113889874Y-154052676D02*
X114080350Y-153957438D01*
X115794636Y-155957438D02*
X115794636Y-153957438D01*
X115794636Y-153957438D02*
X116461303Y-155386009D01*
X116461303Y-155386009D02*
X117127969Y-153957438D01*
X117127969Y-153957438D02*
X117127969Y-155957438D01*
X118080350Y-155195533D02*
X119604160Y-155195533D01*
X120556540Y-155957438D02*
X120556540Y-154624104D01*
X120556540Y-155005057D02*
X120651778Y-154814580D01*
X120651778Y-154814580D02*
X120747016Y-154719342D01*
X120747016Y-154719342D02*
X120937492Y-154624104D01*
X120937492Y-154624104D02*
X121127969Y-154624104D01*
X122556540Y-155862200D02*
X122366064Y-155957438D01*
X122366064Y-155957438D02*
X121985111Y-155957438D01*
X121985111Y-155957438D02*
X121794635Y-155862200D01*
X121794635Y-155862200D02*
X121699397Y-155671723D01*
X121699397Y-155671723D02*
X121699397Y-154909819D01*
X121699397Y-154909819D02*
X121794635Y-154719342D01*
X121794635Y-154719342D02*
X121985111Y-154624104D01*
X121985111Y-154624104D02*
X122366064Y-154624104D01*
X122366064Y-154624104D02*
X122556540Y-154719342D01*
X122556540Y-154719342D02*
X122651778Y-154909819D01*
X122651778Y-154909819D02*
X122651778Y-155100295D01*
X122651778Y-155100295D02*
X121699397Y-155290771D01*
X124366064Y-155957438D02*
X124366064Y-154909819D01*
X124366064Y-154909819D02*
X124270826Y-154719342D01*
X124270826Y-154719342D02*
X124080350Y-154624104D01*
X124080350Y-154624104D02*
X123699397Y-154624104D01*
X123699397Y-154624104D02*
X123508921Y-154719342D01*
X124366064Y-155862200D02*
X124175588Y-155957438D01*
X124175588Y-155957438D02*
X123699397Y-155957438D01*
X123699397Y-155957438D02*
X123508921Y-155862200D01*
X123508921Y-155862200D02*
X123413683Y-155671723D01*
X123413683Y-155671723D02*
X123413683Y-155481247D01*
X123413683Y-155481247D02*
X123508921Y-155290771D01*
X123508921Y-155290771D02*
X123699397Y-155195533D01*
X123699397Y-155195533D02*
X124175588Y-155195533D01*
X124175588Y-155195533D02*
X124366064Y-155100295D01*
X126175588Y-155957438D02*
X126175588Y-153957438D01*
X126175588Y-155862200D02*
X125985112Y-155957438D01*
X125985112Y-155957438D02*
X125604159Y-155957438D01*
X125604159Y-155957438D02*
X125413683Y-155862200D01*
X125413683Y-155862200D02*
X125318445Y-155766961D01*
X125318445Y-155766961D02*
X125223207Y-155576485D01*
X125223207Y-155576485D02*
X125223207Y-155005057D01*
X125223207Y-155005057D02*
X125318445Y-154814580D01*
X125318445Y-154814580D02*
X125413683Y-154719342D01*
X125413683Y-154719342D02*
X125604159Y-154624104D01*
X125604159Y-154624104D02*
X125985112Y-154624104D01*
X125985112Y-154624104D02*
X126175588Y-154719342D01*
X127889874Y-155862200D02*
X127699398Y-155957438D01*
X127699398Y-155957438D02*
X127318445Y-155957438D01*
X127318445Y-155957438D02*
X127127969Y-155862200D01*
X127127969Y-155862200D02*
X127032731Y-155671723D01*
X127032731Y-155671723D02*
X127032731Y-154909819D01*
X127032731Y-154909819D02*
X127127969Y-154719342D01*
X127127969Y-154719342D02*
X127318445Y-154624104D01*
X127318445Y-154624104D02*
X127699398Y-154624104D01*
X127699398Y-154624104D02*
X127889874Y-154719342D01*
X127889874Y-154719342D02*
X127985112Y-154909819D01*
X127985112Y-154909819D02*
X127985112Y-155100295D01*
X127985112Y-155100295D02*
X127032731Y-155290771D01*
X128842255Y-155957438D02*
X128842255Y-154624104D01*
X128842255Y-155005057D02*
X128937493Y-154814580D01*
X128937493Y-154814580D02*
X129032731Y-154719342D01*
X129032731Y-154719342D02*
X129223207Y-154624104D01*
X129223207Y-154624104D02*
X129413684Y-154624104D01*
X131318446Y-153957438D02*
X131985112Y-155957438D01*
X131985112Y-155957438D02*
X132651779Y-153957438D01*
X134366065Y-155957438D02*
X133223208Y-155957438D01*
X133794636Y-155957438D02*
X133794636Y-153957438D01*
X133794636Y-153957438D02*
X133604160Y-154243152D01*
X133604160Y-154243152D02*
X133413684Y-154433628D01*
X133413684Y-154433628D02*
X133223208Y-154528866D01*
X135223208Y-155766961D02*
X135318446Y-155862200D01*
X135318446Y-155862200D02*
X135223208Y-155957438D01*
X135223208Y-155957438D02*
X135127970Y-155862200D01*
X135127970Y-155862200D02*
X135223208Y-155766961D01*
X135223208Y-155766961D02*
X135223208Y-155957438D01*
X137223208Y-155957438D02*
X136080351Y-155957438D01*
X136651779Y-155957438D02*
X136651779Y-153957438D01*
X136651779Y-153957438D02*
X136461303Y-154243152D01*
X136461303Y-154243152D02*
X136270827Y-154433628D01*
X136270827Y-154433628D02*
X136080351Y-154528866D01*
X70477142Y-133804819D02*
X70143809Y-133328628D01*
X69905714Y-133804819D02*
X69905714Y-132804819D01*
X69905714Y-132804819D02*
X70286666Y-132804819D01*
X70286666Y-132804819D02*
X70381904Y-132852438D01*
X70381904Y-132852438D02*
X70429523Y-132900057D01*
X70429523Y-132900057D02*
X70477142Y-132995295D01*
X70477142Y-132995295D02*
X70477142Y-133138152D01*
X70477142Y-133138152D02*
X70429523Y-133233390D01*
X70429523Y-133233390D02*
X70381904Y-133281009D01*
X70381904Y-133281009D02*
X70286666Y-133328628D01*
X70286666Y-133328628D02*
X69905714Y-133328628D01*
X71429523Y-133804819D02*
X70858095Y-133804819D01*
X71143809Y-133804819D02*
X71143809Y-132804819D01*
X71143809Y-132804819D02*
X71048571Y-132947676D01*
X71048571Y-132947676D02*
X70953333Y-133042914D01*
X70953333Y-133042914D02*
X70858095Y-133090533D01*
X72286666Y-133138152D02*
X72286666Y-133804819D01*
X72048571Y-132757200D02*
X71810476Y-133471485D01*
X71810476Y-133471485D02*
X72429523Y-133471485D01*
X88892142Y-147944819D02*
X88558809Y-147468628D01*
X88320714Y-147944819D02*
X88320714Y-146944819D01*
X88320714Y-146944819D02*
X88701666Y-146944819D01*
X88701666Y-146944819D02*
X88796904Y-146992438D01*
X88796904Y-146992438D02*
X88844523Y-147040057D01*
X88844523Y-147040057D02*
X88892142Y-147135295D01*
X88892142Y-147135295D02*
X88892142Y-147278152D01*
X88892142Y-147278152D02*
X88844523Y-147373390D01*
X88844523Y-147373390D02*
X88796904Y-147421009D01*
X88796904Y-147421009D02*
X88701666Y-147468628D01*
X88701666Y-147468628D02*
X88320714Y-147468628D01*
X89844523Y-147944819D02*
X89273095Y-147944819D01*
X89558809Y-147944819D02*
X89558809Y-146944819D01*
X89558809Y-146944819D02*
X89463571Y-147087676D01*
X89463571Y-147087676D02*
X89368333Y-147182914D01*
X89368333Y-147182914D02*
X89273095Y-147230533D01*
X90796904Y-147944819D02*
X90225476Y-147944819D01*
X90511190Y-147944819D02*
X90511190Y-146944819D01*
X90511190Y-146944819D02*
X90415952Y-147087676D01*
X90415952Y-147087676D02*
X90320714Y-147182914D01*
X90320714Y-147182914D02*
X90225476Y-147230533D01*
X94511905Y-116659819D02*
X94511905Y-115659819D01*
X94511905Y-115659819D02*
X94750000Y-115659819D01*
X94750000Y-115659819D02*
X94892857Y-115707438D01*
X94892857Y-115707438D02*
X94988095Y-115802676D01*
X94988095Y-115802676D02*
X95035714Y-115897914D01*
X95035714Y-115897914D02*
X95083333Y-116088390D01*
X95083333Y-116088390D02*
X95083333Y-116231247D01*
X95083333Y-116231247D02*
X95035714Y-116421723D01*
X95035714Y-116421723D02*
X94988095Y-116516961D01*
X94988095Y-116516961D02*
X94892857Y-116612200D01*
X94892857Y-116612200D02*
X94750000Y-116659819D01*
X94750000Y-116659819D02*
X94511905Y-116659819D01*
X95940476Y-115993152D02*
X95940476Y-116659819D01*
X95702381Y-115612200D02*
X95464286Y-116326485D01*
X95464286Y-116326485D02*
X96083333Y-116326485D01*
X105148095Y-118459819D02*
X105148095Y-117459819D01*
X105719523Y-118459819D02*
X105290952Y-117888390D01*
X105719523Y-117459819D02*
X105148095Y-118031247D01*
X74813095Y-153124819D02*
X74813095Y-153934342D01*
X74813095Y-153934342D02*
X74860714Y-154029580D01*
X74860714Y-154029580D02*
X74908333Y-154077200D01*
X74908333Y-154077200D02*
X75003571Y-154124819D01*
X75003571Y-154124819D02*
X75194047Y-154124819D01*
X75194047Y-154124819D02*
X75289285Y-154077200D01*
X75289285Y-154077200D02*
X75336904Y-154029580D01*
X75336904Y-154029580D02*
X75384523Y-153934342D01*
X75384523Y-153934342D02*
X75384523Y-153124819D01*
X76289285Y-153458152D02*
X76289285Y-154124819D01*
X76051190Y-153077200D02*
X75813095Y-153791485D01*
X75813095Y-153791485D02*
X76432142Y-153791485D01*
X73493333Y-67764819D02*
X73160000Y-67288628D01*
X72921905Y-67764819D02*
X72921905Y-66764819D01*
X72921905Y-66764819D02*
X73302857Y-66764819D01*
X73302857Y-66764819D02*
X73398095Y-66812438D01*
X73398095Y-66812438D02*
X73445714Y-66860057D01*
X73445714Y-66860057D02*
X73493333Y-66955295D01*
X73493333Y-66955295D02*
X73493333Y-67098152D01*
X73493333Y-67098152D02*
X73445714Y-67193390D01*
X73445714Y-67193390D02*
X73398095Y-67241009D01*
X73398095Y-67241009D02*
X73302857Y-67288628D01*
X73302857Y-67288628D02*
X72921905Y-67288628D01*
X73874286Y-66860057D02*
X73921905Y-66812438D01*
X73921905Y-66812438D02*
X74017143Y-66764819D01*
X74017143Y-66764819D02*
X74255238Y-66764819D01*
X74255238Y-66764819D02*
X74350476Y-66812438D01*
X74350476Y-66812438D02*
X74398095Y-66860057D01*
X74398095Y-66860057D02*
X74445714Y-66955295D01*
X74445714Y-66955295D02*
X74445714Y-67050533D01*
X74445714Y-67050533D02*
X74398095Y-67193390D01*
X74398095Y-67193390D02*
X73826667Y-67764819D01*
X73826667Y-67764819D02*
X74445714Y-67764819D01*
X106584761Y-130725057D02*
X106489523Y-130677438D01*
X106489523Y-130677438D02*
X106394285Y-130582200D01*
X106394285Y-130582200D02*
X106251428Y-130439342D01*
X106251428Y-130439342D02*
X106156190Y-130391723D01*
X106156190Y-130391723D02*
X106060952Y-130391723D01*
X106108571Y-130629819D02*
X106013333Y-130582200D01*
X106013333Y-130582200D02*
X105918095Y-130486961D01*
X105918095Y-130486961D02*
X105870476Y-130296485D01*
X105870476Y-130296485D02*
X105870476Y-129963152D01*
X105870476Y-129963152D02*
X105918095Y-129772676D01*
X105918095Y-129772676D02*
X106013333Y-129677438D01*
X106013333Y-129677438D02*
X106108571Y-129629819D01*
X106108571Y-129629819D02*
X106299047Y-129629819D01*
X106299047Y-129629819D02*
X106394285Y-129677438D01*
X106394285Y-129677438D02*
X106489523Y-129772676D01*
X106489523Y-129772676D02*
X106537142Y-129963152D01*
X106537142Y-129963152D02*
X106537142Y-130296485D01*
X106537142Y-130296485D02*
X106489523Y-130486961D01*
X106489523Y-130486961D02*
X106394285Y-130582200D01*
X106394285Y-130582200D02*
X106299047Y-130629819D01*
X106299047Y-130629819D02*
X106108571Y-130629819D01*
X106870476Y-129629819D02*
X107489523Y-129629819D01*
X107489523Y-129629819D02*
X107156190Y-130010771D01*
X107156190Y-130010771D02*
X107299047Y-130010771D01*
X107299047Y-130010771D02*
X107394285Y-130058390D01*
X107394285Y-130058390D02*
X107441904Y-130106009D01*
X107441904Y-130106009D02*
X107489523Y-130201247D01*
X107489523Y-130201247D02*
X107489523Y-130439342D01*
X107489523Y-130439342D02*
X107441904Y-130534580D01*
X107441904Y-130534580D02*
X107394285Y-130582200D01*
X107394285Y-130582200D02*
X107299047Y-130629819D01*
X107299047Y-130629819D02*
X107013333Y-130629819D01*
X107013333Y-130629819D02*
X106918095Y-130582200D01*
X106918095Y-130582200D02*
X106870476Y-130534580D01*
X54150000Y-118564819D02*
X54150000Y-117564819D01*
X54150000Y-117564819D02*
X54388095Y-117564819D01*
X54388095Y-117564819D02*
X54530952Y-117612438D01*
X54530952Y-117612438D02*
X54626190Y-117707676D01*
X54626190Y-117707676D02*
X54673809Y-117802914D01*
X54673809Y-117802914D02*
X54721428Y-117993390D01*
X54721428Y-117993390D02*
X54721428Y-118136247D01*
X54721428Y-118136247D02*
X54673809Y-118326723D01*
X54673809Y-118326723D02*
X54626190Y-118421961D01*
X54626190Y-118421961D02*
X54530952Y-118517200D01*
X54530952Y-118517200D02*
X54388095Y-118564819D01*
X54388095Y-118564819D02*
X54150000Y-118564819D01*
X55102381Y-118279104D02*
X55578571Y-118279104D01*
X55007143Y-118564819D02*
X55340476Y-117564819D01*
X55340476Y-117564819D02*
X55673809Y-118564819D01*
X56578571Y-118469580D02*
X56530952Y-118517200D01*
X56530952Y-118517200D02*
X56388095Y-118564819D01*
X56388095Y-118564819D02*
X56292857Y-118564819D01*
X56292857Y-118564819D02*
X56150000Y-118517200D01*
X56150000Y-118517200D02*
X56054762Y-118421961D01*
X56054762Y-118421961D02*
X56007143Y-118326723D01*
X56007143Y-118326723D02*
X55959524Y-118136247D01*
X55959524Y-118136247D02*
X55959524Y-117993390D01*
X55959524Y-117993390D02*
X56007143Y-117802914D01*
X56007143Y-117802914D02*
X56054762Y-117707676D01*
X56054762Y-117707676D02*
X56150000Y-117612438D01*
X56150000Y-117612438D02*
X56292857Y-117564819D01*
X56292857Y-117564819D02*
X56388095Y-117564819D01*
X56388095Y-117564819D02*
X56530952Y-117612438D01*
X56530952Y-117612438D02*
X56578571Y-117660057D01*
X56769048Y-118660057D02*
X57530952Y-118660057D01*
X57626191Y-117564819D02*
X57959524Y-118564819D01*
X57959524Y-118564819D02*
X58292857Y-117564819D01*
X59197619Y-118469580D02*
X59150000Y-118517200D01*
X59150000Y-118517200D02*
X59007143Y-118564819D01*
X59007143Y-118564819D02*
X58911905Y-118564819D01*
X58911905Y-118564819D02*
X58769048Y-118517200D01*
X58769048Y-118517200D02*
X58673810Y-118421961D01*
X58673810Y-118421961D02*
X58626191Y-118326723D01*
X58626191Y-118326723D02*
X58578572Y-118136247D01*
X58578572Y-118136247D02*
X58578572Y-117993390D01*
X58578572Y-117993390D02*
X58626191Y-117802914D01*
X58626191Y-117802914D02*
X58673810Y-117707676D01*
X58673810Y-117707676D02*
X58769048Y-117612438D01*
X58769048Y-117612438D02*
X58911905Y-117564819D01*
X58911905Y-117564819D02*
X59007143Y-117564819D01*
X59007143Y-117564819D02*
X59150000Y-117612438D01*
X59150000Y-117612438D02*
X59197619Y-117660057D01*
X60197619Y-118469580D02*
X60150000Y-118517200D01*
X60150000Y-118517200D02*
X60007143Y-118564819D01*
X60007143Y-118564819D02*
X59911905Y-118564819D01*
X59911905Y-118564819D02*
X59769048Y-118517200D01*
X59769048Y-118517200D02*
X59673810Y-118421961D01*
X59673810Y-118421961D02*
X59626191Y-118326723D01*
X59626191Y-118326723D02*
X59578572Y-118136247D01*
X59578572Y-118136247D02*
X59578572Y-117993390D01*
X59578572Y-117993390D02*
X59626191Y-117802914D01*
X59626191Y-117802914D02*
X59673810Y-117707676D01*
X59673810Y-117707676D02*
X59769048Y-117612438D01*
X59769048Y-117612438D02*
X59911905Y-117564819D01*
X59911905Y-117564819D02*
X60007143Y-117564819D01*
X60007143Y-117564819D02*
X60150000Y-117612438D01*
X60150000Y-117612438D02*
X60197619Y-117660057D01*
X94511905Y-123009819D02*
X94511905Y-122009819D01*
X94511905Y-122009819D02*
X94750000Y-122009819D01*
X94750000Y-122009819D02*
X94892857Y-122057438D01*
X94892857Y-122057438D02*
X94988095Y-122152676D01*
X94988095Y-122152676D02*
X95035714Y-122247914D01*
X95035714Y-122247914D02*
X95083333Y-122438390D01*
X95083333Y-122438390D02*
X95083333Y-122581247D01*
X95083333Y-122581247D02*
X95035714Y-122771723D01*
X95035714Y-122771723D02*
X94988095Y-122866961D01*
X94988095Y-122866961D02*
X94892857Y-122962200D01*
X94892857Y-122962200D02*
X94750000Y-123009819D01*
X94750000Y-123009819D02*
X94511905Y-123009819D01*
X95940476Y-122009819D02*
X95750000Y-122009819D01*
X95750000Y-122009819D02*
X95654762Y-122057438D01*
X95654762Y-122057438D02*
X95607143Y-122105057D01*
X95607143Y-122105057D02*
X95511905Y-122247914D01*
X95511905Y-122247914D02*
X95464286Y-122438390D01*
X95464286Y-122438390D02*
X95464286Y-122819342D01*
X95464286Y-122819342D02*
X95511905Y-122914580D01*
X95511905Y-122914580D02*
X95559524Y-122962200D01*
X95559524Y-122962200D02*
X95654762Y-123009819D01*
X95654762Y-123009819D02*
X95845238Y-123009819D01*
X95845238Y-123009819D02*
X95940476Y-122962200D01*
X95940476Y-122962200D02*
X95988095Y-122914580D01*
X95988095Y-122914580D02*
X96035714Y-122819342D01*
X96035714Y-122819342D02*
X96035714Y-122581247D01*
X96035714Y-122581247D02*
X95988095Y-122486009D01*
X95988095Y-122486009D02*
X95940476Y-122438390D01*
X95940476Y-122438390D02*
X95845238Y-122390771D01*
X95845238Y-122390771D02*
X95654762Y-122390771D01*
X95654762Y-122390771D02*
X95559524Y-122438390D01*
X95559524Y-122438390D02*
X95511905Y-122486009D01*
X95511905Y-122486009D02*
X95464286Y-122581247D01*
X105148095Y-124809819D02*
X105148095Y-123809819D01*
X105719523Y-124809819D02*
X105290952Y-124238390D01*
X105719523Y-123809819D02*
X105148095Y-124381247D01*
X52538333Y-95704819D02*
X52205000Y-95228628D01*
X51966905Y-95704819D02*
X51966905Y-94704819D01*
X51966905Y-94704819D02*
X52347857Y-94704819D01*
X52347857Y-94704819D02*
X52443095Y-94752438D01*
X52443095Y-94752438D02*
X52490714Y-94800057D01*
X52490714Y-94800057D02*
X52538333Y-94895295D01*
X52538333Y-94895295D02*
X52538333Y-95038152D01*
X52538333Y-95038152D02*
X52490714Y-95133390D01*
X52490714Y-95133390D02*
X52443095Y-95181009D01*
X52443095Y-95181009D02*
X52347857Y-95228628D01*
X52347857Y-95228628D02*
X51966905Y-95228628D01*
X52871667Y-94704819D02*
X53490714Y-94704819D01*
X53490714Y-94704819D02*
X53157381Y-95085771D01*
X53157381Y-95085771D02*
X53300238Y-95085771D01*
X53300238Y-95085771D02*
X53395476Y-95133390D01*
X53395476Y-95133390D02*
X53443095Y-95181009D01*
X53443095Y-95181009D02*
X53490714Y-95276247D01*
X53490714Y-95276247D02*
X53490714Y-95514342D01*
X53490714Y-95514342D02*
X53443095Y-95609580D01*
X53443095Y-95609580D02*
X53395476Y-95657200D01*
X53395476Y-95657200D02*
X53300238Y-95704819D01*
X53300238Y-95704819D02*
X53014524Y-95704819D01*
X53014524Y-95704819D02*
X52919286Y-95657200D01*
X52919286Y-95657200D02*
X52871667Y-95609580D01*
X125563333Y-81004580D02*
X125515714Y-81052200D01*
X125515714Y-81052200D02*
X125372857Y-81099819D01*
X125372857Y-81099819D02*
X125277619Y-81099819D01*
X125277619Y-81099819D02*
X125134762Y-81052200D01*
X125134762Y-81052200D02*
X125039524Y-80956961D01*
X125039524Y-80956961D02*
X124991905Y-80861723D01*
X124991905Y-80861723D02*
X124944286Y-80671247D01*
X124944286Y-80671247D02*
X124944286Y-80528390D01*
X124944286Y-80528390D02*
X124991905Y-80337914D01*
X124991905Y-80337914D02*
X125039524Y-80242676D01*
X125039524Y-80242676D02*
X125134762Y-80147438D01*
X125134762Y-80147438D02*
X125277619Y-80099819D01*
X125277619Y-80099819D02*
X125372857Y-80099819D01*
X125372857Y-80099819D02*
X125515714Y-80147438D01*
X125515714Y-80147438D02*
X125563333Y-80195057D01*
X126420476Y-80099819D02*
X126230000Y-80099819D01*
X126230000Y-80099819D02*
X126134762Y-80147438D01*
X126134762Y-80147438D02*
X126087143Y-80195057D01*
X126087143Y-80195057D02*
X125991905Y-80337914D01*
X125991905Y-80337914D02*
X125944286Y-80528390D01*
X125944286Y-80528390D02*
X125944286Y-80909342D01*
X125944286Y-80909342D02*
X125991905Y-81004580D01*
X125991905Y-81004580D02*
X126039524Y-81052200D01*
X126039524Y-81052200D02*
X126134762Y-81099819D01*
X126134762Y-81099819D02*
X126325238Y-81099819D01*
X126325238Y-81099819D02*
X126420476Y-81052200D01*
X126420476Y-81052200D02*
X126468095Y-81004580D01*
X126468095Y-81004580D02*
X126515714Y-80909342D01*
X126515714Y-80909342D02*
X126515714Y-80671247D01*
X126515714Y-80671247D02*
X126468095Y-80576009D01*
X126468095Y-80576009D02*
X126420476Y-80528390D01*
X126420476Y-80528390D02*
X126325238Y-80480771D01*
X126325238Y-80480771D02*
X126134762Y-80480771D01*
X126134762Y-80480771D02*
X126039524Y-80528390D01*
X126039524Y-80528390D02*
X125991905Y-80576009D01*
X125991905Y-80576009D02*
X125944286Y-80671247D01*
X50061905Y-144509819D02*
X50061905Y-143509819D01*
X50061905Y-143509819D02*
X50300000Y-143509819D01*
X50300000Y-143509819D02*
X50442857Y-143557438D01*
X50442857Y-143557438D02*
X50538095Y-143652676D01*
X50538095Y-143652676D02*
X50585714Y-143747914D01*
X50585714Y-143747914D02*
X50633333Y-143938390D01*
X50633333Y-143938390D02*
X50633333Y-144081247D01*
X50633333Y-144081247D02*
X50585714Y-144271723D01*
X50585714Y-144271723D02*
X50538095Y-144366961D01*
X50538095Y-144366961D02*
X50442857Y-144462200D01*
X50442857Y-144462200D02*
X50300000Y-144509819D01*
X50300000Y-144509819D02*
X50061905Y-144509819D01*
X50966667Y-143509819D02*
X51633333Y-143509819D01*
X51633333Y-143509819D02*
X51204762Y-144509819D01*
X58158095Y-143389819D02*
X58158095Y-142389819D01*
X58729523Y-143389819D02*
X58300952Y-142818390D01*
X58729523Y-142389819D02*
X58158095Y-142961247D01*
X111426666Y-63459819D02*
X111426666Y-64174104D01*
X111426666Y-64174104D02*
X111379047Y-64316961D01*
X111379047Y-64316961D02*
X111283809Y-64412200D01*
X111283809Y-64412200D02*
X111140952Y-64459819D01*
X111140952Y-64459819D02*
X111045714Y-64459819D01*
X112426666Y-64459819D02*
X111855238Y-64459819D01*
X112140952Y-64459819D02*
X112140952Y-63459819D01*
X112140952Y-63459819D02*
X112045714Y-63602676D01*
X112045714Y-63602676D02*
X111950476Y-63697914D01*
X111950476Y-63697914D02*
X111855238Y-63745533D01*
X135723333Y-74114819D02*
X135390000Y-73638628D01*
X135151905Y-74114819D02*
X135151905Y-73114819D01*
X135151905Y-73114819D02*
X135532857Y-73114819D01*
X135532857Y-73114819D02*
X135628095Y-73162438D01*
X135628095Y-73162438D02*
X135675714Y-73210057D01*
X135675714Y-73210057D02*
X135723333Y-73305295D01*
X135723333Y-73305295D02*
X135723333Y-73448152D01*
X135723333Y-73448152D02*
X135675714Y-73543390D01*
X135675714Y-73543390D02*
X135628095Y-73591009D01*
X135628095Y-73591009D02*
X135532857Y-73638628D01*
X135532857Y-73638628D02*
X135151905Y-73638628D01*
X136628095Y-73114819D02*
X136151905Y-73114819D01*
X136151905Y-73114819D02*
X136104286Y-73591009D01*
X136104286Y-73591009D02*
X136151905Y-73543390D01*
X136151905Y-73543390D02*
X136247143Y-73495771D01*
X136247143Y-73495771D02*
X136485238Y-73495771D01*
X136485238Y-73495771D02*
X136580476Y-73543390D01*
X136580476Y-73543390D02*
X136628095Y-73591009D01*
X136628095Y-73591009D02*
X136675714Y-73686247D01*
X136675714Y-73686247D02*
X136675714Y-73924342D01*
X136675714Y-73924342D02*
X136628095Y-74019580D01*
X136628095Y-74019580D02*
X136580476Y-74067200D01*
X136580476Y-74067200D02*
X136485238Y-74114819D01*
X136485238Y-74114819D02*
X136247143Y-74114819D01*
X136247143Y-74114819D02*
X136151905Y-74067200D01*
X136151905Y-74067200D02*
X136104286Y-74019580D01*
X122388333Y-123644819D02*
X122055000Y-123168628D01*
X121816905Y-123644819D02*
X121816905Y-122644819D01*
X121816905Y-122644819D02*
X122197857Y-122644819D01*
X122197857Y-122644819D02*
X122293095Y-122692438D01*
X122293095Y-122692438D02*
X122340714Y-122740057D01*
X122340714Y-122740057D02*
X122388333Y-122835295D01*
X122388333Y-122835295D02*
X122388333Y-122978152D01*
X122388333Y-122978152D02*
X122340714Y-123073390D01*
X122340714Y-123073390D02*
X122293095Y-123121009D01*
X122293095Y-123121009D02*
X122197857Y-123168628D01*
X122197857Y-123168628D02*
X121816905Y-123168628D01*
X123245476Y-122644819D02*
X123055000Y-122644819D01*
X123055000Y-122644819D02*
X122959762Y-122692438D01*
X122959762Y-122692438D02*
X122912143Y-122740057D01*
X122912143Y-122740057D02*
X122816905Y-122882914D01*
X122816905Y-122882914D02*
X122769286Y-123073390D01*
X122769286Y-123073390D02*
X122769286Y-123454342D01*
X122769286Y-123454342D02*
X122816905Y-123549580D01*
X122816905Y-123549580D02*
X122864524Y-123597200D01*
X122864524Y-123597200D02*
X122959762Y-123644819D01*
X122959762Y-123644819D02*
X123150238Y-123644819D01*
X123150238Y-123644819D02*
X123245476Y-123597200D01*
X123245476Y-123597200D02*
X123293095Y-123549580D01*
X123293095Y-123549580D02*
X123340714Y-123454342D01*
X123340714Y-123454342D02*
X123340714Y-123216247D01*
X123340714Y-123216247D02*
X123293095Y-123121009D01*
X123293095Y-123121009D02*
X123245476Y-123073390D01*
X123245476Y-123073390D02*
X123150238Y-123025771D01*
X123150238Y-123025771D02*
X122959762Y-123025771D01*
X122959762Y-123025771D02*
X122864524Y-123073390D01*
X122864524Y-123073390D02*
X122816905Y-123121009D01*
X122816905Y-123121009D02*
X122769286Y-123216247D01*
X41743095Y-122229819D02*
X41743095Y-123039342D01*
X41743095Y-123039342D02*
X41790714Y-123134580D01*
X41790714Y-123134580D02*
X41838333Y-123182200D01*
X41838333Y-123182200D02*
X41933571Y-123229819D01*
X41933571Y-123229819D02*
X42124047Y-123229819D01*
X42124047Y-123229819D02*
X42219285Y-123182200D01*
X42219285Y-123182200D02*
X42266904Y-123134580D01*
X42266904Y-123134580D02*
X42314523Y-123039342D01*
X42314523Y-123039342D02*
X42314523Y-122229819D01*
X42695476Y-122229819D02*
X43314523Y-122229819D01*
X43314523Y-122229819D02*
X42981190Y-122610771D01*
X42981190Y-122610771D02*
X43124047Y-122610771D01*
X43124047Y-122610771D02*
X43219285Y-122658390D01*
X43219285Y-122658390D02*
X43266904Y-122706009D01*
X43266904Y-122706009D02*
X43314523Y-122801247D01*
X43314523Y-122801247D02*
X43314523Y-123039342D01*
X43314523Y-123039342D02*
X43266904Y-123134580D01*
X43266904Y-123134580D02*
X43219285Y-123182200D01*
X43219285Y-123182200D02*
X43124047Y-123229819D01*
X43124047Y-123229819D02*
X42838333Y-123229819D01*
X42838333Y-123229819D02*
X42743095Y-123182200D01*
X42743095Y-123182200D02*
X42695476Y-123134580D01*
X53808333Y-108944580D02*
X53760714Y-108992200D01*
X53760714Y-108992200D02*
X53617857Y-109039819D01*
X53617857Y-109039819D02*
X53522619Y-109039819D01*
X53522619Y-109039819D02*
X53379762Y-108992200D01*
X53379762Y-108992200D02*
X53284524Y-108896961D01*
X53284524Y-108896961D02*
X53236905Y-108801723D01*
X53236905Y-108801723D02*
X53189286Y-108611247D01*
X53189286Y-108611247D02*
X53189286Y-108468390D01*
X53189286Y-108468390D02*
X53236905Y-108277914D01*
X53236905Y-108277914D02*
X53284524Y-108182676D01*
X53284524Y-108182676D02*
X53379762Y-108087438D01*
X53379762Y-108087438D02*
X53522619Y-108039819D01*
X53522619Y-108039819D02*
X53617857Y-108039819D01*
X53617857Y-108039819D02*
X53760714Y-108087438D01*
X53760714Y-108087438D02*
X53808333Y-108135057D01*
X54760714Y-109039819D02*
X54189286Y-109039819D01*
X54475000Y-109039819D02*
X54475000Y-108039819D01*
X54475000Y-108039819D02*
X54379762Y-108182676D01*
X54379762Y-108182676D02*
X54284524Y-108277914D01*
X54284524Y-108277914D02*
X54189286Y-108325533D01*
X106513333Y-62049819D02*
X106180000Y-61573628D01*
X105941905Y-62049819D02*
X105941905Y-61049819D01*
X105941905Y-61049819D02*
X106322857Y-61049819D01*
X106322857Y-61049819D02*
X106418095Y-61097438D01*
X106418095Y-61097438D02*
X106465714Y-61145057D01*
X106465714Y-61145057D02*
X106513333Y-61240295D01*
X106513333Y-61240295D02*
X106513333Y-61383152D01*
X106513333Y-61383152D02*
X106465714Y-61478390D01*
X106465714Y-61478390D02*
X106418095Y-61526009D01*
X106418095Y-61526009D02*
X106322857Y-61573628D01*
X106322857Y-61573628D02*
X105941905Y-61573628D01*
X107370476Y-61383152D02*
X107370476Y-62049819D01*
X107132381Y-61002200D02*
X106894286Y-61716485D01*
X106894286Y-61716485D02*
X107513333Y-61716485D01*
X74942142Y-137519580D02*
X74894523Y-137567200D01*
X74894523Y-137567200D02*
X74751666Y-137614819D01*
X74751666Y-137614819D02*
X74656428Y-137614819D01*
X74656428Y-137614819D02*
X74513571Y-137567200D01*
X74513571Y-137567200D02*
X74418333Y-137471961D01*
X74418333Y-137471961D02*
X74370714Y-137376723D01*
X74370714Y-137376723D02*
X74323095Y-137186247D01*
X74323095Y-137186247D02*
X74323095Y-137043390D01*
X74323095Y-137043390D02*
X74370714Y-136852914D01*
X74370714Y-136852914D02*
X74418333Y-136757676D01*
X74418333Y-136757676D02*
X74513571Y-136662438D01*
X74513571Y-136662438D02*
X74656428Y-136614819D01*
X74656428Y-136614819D02*
X74751666Y-136614819D01*
X74751666Y-136614819D02*
X74894523Y-136662438D01*
X74894523Y-136662438D02*
X74942142Y-136710057D01*
X75894523Y-137614819D02*
X75323095Y-137614819D01*
X75608809Y-137614819D02*
X75608809Y-136614819D01*
X75608809Y-136614819D02*
X75513571Y-136757676D01*
X75513571Y-136757676D02*
X75418333Y-136852914D01*
X75418333Y-136852914D02*
X75323095Y-136900533D01*
X76275476Y-136710057D02*
X76323095Y-136662438D01*
X76323095Y-136662438D02*
X76418333Y-136614819D01*
X76418333Y-136614819D02*
X76656428Y-136614819D01*
X76656428Y-136614819D02*
X76751666Y-136662438D01*
X76751666Y-136662438D02*
X76799285Y-136710057D01*
X76799285Y-136710057D02*
X76846904Y-136805295D01*
X76846904Y-136805295D02*
X76846904Y-136900533D01*
X76846904Y-136900533D02*
X76799285Y-137043390D01*
X76799285Y-137043390D02*
X76227857Y-137614819D01*
X76227857Y-137614819D02*
X76846904Y-137614819D01*
X136993333Y-65859819D02*
X136660000Y-65383628D01*
X136421905Y-65859819D02*
X136421905Y-64859819D01*
X136421905Y-64859819D02*
X136802857Y-64859819D01*
X136802857Y-64859819D02*
X136898095Y-64907438D01*
X136898095Y-64907438D02*
X136945714Y-64955057D01*
X136945714Y-64955057D02*
X136993333Y-65050295D01*
X136993333Y-65050295D02*
X136993333Y-65193152D01*
X136993333Y-65193152D02*
X136945714Y-65288390D01*
X136945714Y-65288390D02*
X136898095Y-65336009D01*
X136898095Y-65336009D02*
X136802857Y-65383628D01*
X136802857Y-65383628D02*
X136421905Y-65383628D01*
X137326667Y-64859819D02*
X137993333Y-64859819D01*
X137993333Y-64859819D02*
X137564762Y-65859819D01*
X88892142Y-156494819D02*
X88558809Y-156018628D01*
X88320714Y-156494819D02*
X88320714Y-155494819D01*
X88320714Y-155494819D02*
X88701666Y-155494819D01*
X88701666Y-155494819D02*
X88796904Y-155542438D01*
X88796904Y-155542438D02*
X88844523Y-155590057D01*
X88844523Y-155590057D02*
X88892142Y-155685295D01*
X88892142Y-155685295D02*
X88892142Y-155828152D01*
X88892142Y-155828152D02*
X88844523Y-155923390D01*
X88844523Y-155923390D02*
X88796904Y-155971009D01*
X88796904Y-155971009D02*
X88701666Y-156018628D01*
X88701666Y-156018628D02*
X88320714Y-156018628D01*
X89844523Y-156494819D02*
X89273095Y-156494819D01*
X89558809Y-156494819D02*
X89558809Y-155494819D01*
X89558809Y-155494819D02*
X89463571Y-155637676D01*
X89463571Y-155637676D02*
X89368333Y-155732914D01*
X89368333Y-155732914D02*
X89273095Y-155780533D01*
X90225476Y-155590057D02*
X90273095Y-155542438D01*
X90273095Y-155542438D02*
X90368333Y-155494819D01*
X90368333Y-155494819D02*
X90606428Y-155494819D01*
X90606428Y-155494819D02*
X90701666Y-155542438D01*
X90701666Y-155542438D02*
X90749285Y-155590057D01*
X90749285Y-155590057D02*
X90796904Y-155685295D01*
X90796904Y-155685295D02*
X90796904Y-155780533D01*
X90796904Y-155780533D02*
X90749285Y-155923390D01*
X90749285Y-155923390D02*
X90177857Y-156494819D01*
X90177857Y-156494819D02*
X90796904Y-156494819D01*
X122388333Y-119834819D02*
X122055000Y-119358628D01*
X121816905Y-119834819D02*
X121816905Y-118834819D01*
X121816905Y-118834819D02*
X122197857Y-118834819D01*
X122197857Y-118834819D02*
X122293095Y-118882438D01*
X122293095Y-118882438D02*
X122340714Y-118930057D01*
X122340714Y-118930057D02*
X122388333Y-119025295D01*
X122388333Y-119025295D02*
X122388333Y-119168152D01*
X122388333Y-119168152D02*
X122340714Y-119263390D01*
X122340714Y-119263390D02*
X122293095Y-119311009D01*
X122293095Y-119311009D02*
X122197857Y-119358628D01*
X122197857Y-119358628D02*
X121816905Y-119358628D01*
X122864524Y-119834819D02*
X123055000Y-119834819D01*
X123055000Y-119834819D02*
X123150238Y-119787200D01*
X123150238Y-119787200D02*
X123197857Y-119739580D01*
X123197857Y-119739580D02*
X123293095Y-119596723D01*
X123293095Y-119596723D02*
X123340714Y-119406247D01*
X123340714Y-119406247D02*
X123340714Y-119025295D01*
X123340714Y-119025295D02*
X123293095Y-118930057D01*
X123293095Y-118930057D02*
X123245476Y-118882438D01*
X123245476Y-118882438D02*
X123150238Y-118834819D01*
X123150238Y-118834819D02*
X122959762Y-118834819D01*
X122959762Y-118834819D02*
X122864524Y-118882438D01*
X122864524Y-118882438D02*
X122816905Y-118930057D01*
X122816905Y-118930057D02*
X122769286Y-119025295D01*
X122769286Y-119025295D02*
X122769286Y-119263390D01*
X122769286Y-119263390D02*
X122816905Y-119358628D01*
X122816905Y-119358628D02*
X122864524Y-119406247D01*
X122864524Y-119406247D02*
X122959762Y-119453866D01*
X122959762Y-119453866D02*
X123150238Y-119453866D01*
X123150238Y-119453866D02*
X123245476Y-119406247D01*
X123245476Y-119406247D02*
X123293095Y-119358628D01*
X123293095Y-119358628D02*
X123340714Y-119263390D01*
X126664819Y-87963333D02*
X127379104Y-87963333D01*
X127379104Y-87963333D02*
X127521961Y-88010952D01*
X127521961Y-88010952D02*
X127617200Y-88106190D01*
X127617200Y-88106190D02*
X127664819Y-88249047D01*
X127664819Y-88249047D02*
X127664819Y-88344285D01*
X126664819Y-87582380D02*
X126664819Y-86915714D01*
X126664819Y-86915714D02*
X127664819Y-87344285D01*
X112387142Y-150314819D02*
X112053809Y-149838628D01*
X111815714Y-150314819D02*
X111815714Y-149314819D01*
X111815714Y-149314819D02*
X112196666Y-149314819D01*
X112196666Y-149314819D02*
X112291904Y-149362438D01*
X112291904Y-149362438D02*
X112339523Y-149410057D01*
X112339523Y-149410057D02*
X112387142Y-149505295D01*
X112387142Y-149505295D02*
X112387142Y-149648152D01*
X112387142Y-149648152D02*
X112339523Y-149743390D01*
X112339523Y-149743390D02*
X112291904Y-149791009D01*
X112291904Y-149791009D02*
X112196666Y-149838628D01*
X112196666Y-149838628D02*
X111815714Y-149838628D01*
X113339523Y-150314819D02*
X112768095Y-150314819D01*
X113053809Y-150314819D02*
X113053809Y-149314819D01*
X113053809Y-149314819D02*
X112958571Y-149457676D01*
X112958571Y-149457676D02*
X112863333Y-149552914D01*
X112863333Y-149552914D02*
X112768095Y-149600533D01*
X114196666Y-149314819D02*
X114006190Y-149314819D01*
X114006190Y-149314819D02*
X113910952Y-149362438D01*
X113910952Y-149362438D02*
X113863333Y-149410057D01*
X113863333Y-149410057D02*
X113768095Y-149552914D01*
X113768095Y-149552914D02*
X113720476Y-149743390D01*
X113720476Y-149743390D02*
X113720476Y-150124342D01*
X113720476Y-150124342D02*
X113768095Y-150219580D01*
X113768095Y-150219580D02*
X113815714Y-150267200D01*
X113815714Y-150267200D02*
X113910952Y-150314819D01*
X113910952Y-150314819D02*
X114101428Y-150314819D01*
X114101428Y-150314819D02*
X114196666Y-150267200D01*
X114196666Y-150267200D02*
X114244285Y-150219580D01*
X114244285Y-150219580D02*
X114291904Y-150124342D01*
X114291904Y-150124342D02*
X114291904Y-149886247D01*
X114291904Y-149886247D02*
X114244285Y-149791009D01*
X114244285Y-149791009D02*
X114196666Y-149743390D01*
X114196666Y-149743390D02*
X114101428Y-149695771D01*
X114101428Y-149695771D02*
X113910952Y-149695771D01*
X113910952Y-149695771D02*
X113815714Y-149743390D01*
X113815714Y-149743390D02*
X113768095Y-149791009D01*
X113768095Y-149791009D02*
X113720476Y-149886247D01*
X53808333Y-101324580D02*
X53760714Y-101372200D01*
X53760714Y-101372200D02*
X53617857Y-101419819D01*
X53617857Y-101419819D02*
X53522619Y-101419819D01*
X53522619Y-101419819D02*
X53379762Y-101372200D01*
X53379762Y-101372200D02*
X53284524Y-101276961D01*
X53284524Y-101276961D02*
X53236905Y-101181723D01*
X53236905Y-101181723D02*
X53189286Y-100991247D01*
X53189286Y-100991247D02*
X53189286Y-100848390D01*
X53189286Y-100848390D02*
X53236905Y-100657914D01*
X53236905Y-100657914D02*
X53284524Y-100562676D01*
X53284524Y-100562676D02*
X53379762Y-100467438D01*
X53379762Y-100467438D02*
X53522619Y-100419819D01*
X53522619Y-100419819D02*
X53617857Y-100419819D01*
X53617857Y-100419819D02*
X53760714Y-100467438D01*
X53760714Y-100467438D02*
X53808333Y-100515057D01*
X54189286Y-100515057D02*
X54236905Y-100467438D01*
X54236905Y-100467438D02*
X54332143Y-100419819D01*
X54332143Y-100419819D02*
X54570238Y-100419819D01*
X54570238Y-100419819D02*
X54665476Y-100467438D01*
X54665476Y-100467438D02*
X54713095Y-100515057D01*
X54713095Y-100515057D02*
X54760714Y-100610295D01*
X54760714Y-100610295D02*
X54760714Y-100705533D01*
X54760714Y-100705533D02*
X54713095Y-100848390D01*
X54713095Y-100848390D02*
X54141667Y-101419819D01*
X54141667Y-101419819D02*
X54760714Y-101419819D01*
X92702142Y-96244580D02*
X92654523Y-96292200D01*
X92654523Y-96292200D02*
X92511666Y-96339819D01*
X92511666Y-96339819D02*
X92416428Y-96339819D01*
X92416428Y-96339819D02*
X92273571Y-96292200D01*
X92273571Y-96292200D02*
X92178333Y-96196961D01*
X92178333Y-96196961D02*
X92130714Y-96101723D01*
X92130714Y-96101723D02*
X92083095Y-95911247D01*
X92083095Y-95911247D02*
X92083095Y-95768390D01*
X92083095Y-95768390D02*
X92130714Y-95577914D01*
X92130714Y-95577914D02*
X92178333Y-95482676D01*
X92178333Y-95482676D02*
X92273571Y-95387438D01*
X92273571Y-95387438D02*
X92416428Y-95339819D01*
X92416428Y-95339819D02*
X92511666Y-95339819D01*
X92511666Y-95339819D02*
X92654523Y-95387438D01*
X92654523Y-95387438D02*
X92702142Y-95435057D01*
X93654523Y-96339819D02*
X93083095Y-96339819D01*
X93368809Y-96339819D02*
X93368809Y-95339819D01*
X93368809Y-95339819D02*
X93273571Y-95482676D01*
X93273571Y-95482676D02*
X93178333Y-95577914D01*
X93178333Y-95577914D02*
X93083095Y-95625533D01*
X94273571Y-95339819D02*
X94368809Y-95339819D01*
X94368809Y-95339819D02*
X94464047Y-95387438D01*
X94464047Y-95387438D02*
X94511666Y-95435057D01*
X94511666Y-95435057D02*
X94559285Y-95530295D01*
X94559285Y-95530295D02*
X94606904Y-95720771D01*
X94606904Y-95720771D02*
X94606904Y-95958866D01*
X94606904Y-95958866D02*
X94559285Y-96149342D01*
X94559285Y-96149342D02*
X94511666Y-96244580D01*
X94511666Y-96244580D02*
X94464047Y-96292200D01*
X94464047Y-96292200D02*
X94368809Y-96339819D01*
X94368809Y-96339819D02*
X94273571Y-96339819D01*
X94273571Y-96339819D02*
X94178333Y-96292200D01*
X94178333Y-96292200D02*
X94130714Y-96244580D01*
X94130714Y-96244580D02*
X94083095Y-96149342D01*
X94083095Y-96149342D02*
X94035476Y-95958866D01*
X94035476Y-95958866D02*
X94035476Y-95720771D01*
X94035476Y-95720771D02*
X94083095Y-95530295D01*
X94083095Y-95530295D02*
X94130714Y-95435057D01*
X94130714Y-95435057D02*
X94178333Y-95387438D01*
X94178333Y-95387438D02*
X94273571Y-95339819D01*
X55713333Y-82909580D02*
X55665714Y-82957200D01*
X55665714Y-82957200D02*
X55522857Y-83004819D01*
X55522857Y-83004819D02*
X55427619Y-83004819D01*
X55427619Y-83004819D02*
X55284762Y-82957200D01*
X55284762Y-82957200D02*
X55189524Y-82861961D01*
X55189524Y-82861961D02*
X55141905Y-82766723D01*
X55141905Y-82766723D02*
X55094286Y-82576247D01*
X55094286Y-82576247D02*
X55094286Y-82433390D01*
X55094286Y-82433390D02*
X55141905Y-82242914D01*
X55141905Y-82242914D02*
X55189524Y-82147676D01*
X55189524Y-82147676D02*
X55284762Y-82052438D01*
X55284762Y-82052438D02*
X55427619Y-82004819D01*
X55427619Y-82004819D02*
X55522857Y-82004819D01*
X55522857Y-82004819D02*
X55665714Y-82052438D01*
X55665714Y-82052438D02*
X55713333Y-82100057D01*
X56046667Y-82004819D02*
X56665714Y-82004819D01*
X56665714Y-82004819D02*
X56332381Y-82385771D01*
X56332381Y-82385771D02*
X56475238Y-82385771D01*
X56475238Y-82385771D02*
X56570476Y-82433390D01*
X56570476Y-82433390D02*
X56618095Y-82481009D01*
X56618095Y-82481009D02*
X56665714Y-82576247D01*
X56665714Y-82576247D02*
X56665714Y-82814342D01*
X56665714Y-82814342D02*
X56618095Y-82909580D01*
X56618095Y-82909580D02*
X56570476Y-82957200D01*
X56570476Y-82957200D02*
X56475238Y-83004819D01*
X56475238Y-83004819D02*
X56189524Y-83004819D01*
X56189524Y-83004819D02*
X56094286Y-82957200D01*
X56094286Y-82957200D02*
X56046667Y-82909580D01*
X77136666Y-64224819D02*
X77136666Y-64939104D01*
X77136666Y-64939104D02*
X77089047Y-65081961D01*
X77089047Y-65081961D02*
X76993809Y-65177200D01*
X76993809Y-65177200D02*
X76850952Y-65224819D01*
X76850952Y-65224819D02*
X76755714Y-65224819D01*
X77565238Y-64320057D02*
X77612857Y-64272438D01*
X77612857Y-64272438D02*
X77708095Y-64224819D01*
X77708095Y-64224819D02*
X77946190Y-64224819D01*
X77946190Y-64224819D02*
X78041428Y-64272438D01*
X78041428Y-64272438D02*
X78089047Y-64320057D01*
X78089047Y-64320057D02*
X78136666Y-64415295D01*
X78136666Y-64415295D02*
X78136666Y-64510533D01*
X78136666Y-64510533D02*
X78089047Y-64653390D01*
X78089047Y-64653390D02*
X77517619Y-65224819D01*
X77517619Y-65224819D02*
X78136666Y-65224819D01*
X40473333Y-107769819D02*
X40140000Y-107293628D01*
X39901905Y-107769819D02*
X39901905Y-106769819D01*
X39901905Y-106769819D02*
X40282857Y-106769819D01*
X40282857Y-106769819D02*
X40378095Y-106817438D01*
X40378095Y-106817438D02*
X40425714Y-106865057D01*
X40425714Y-106865057D02*
X40473333Y-106960295D01*
X40473333Y-106960295D02*
X40473333Y-107103152D01*
X40473333Y-107103152D02*
X40425714Y-107198390D01*
X40425714Y-107198390D02*
X40378095Y-107246009D01*
X40378095Y-107246009D02*
X40282857Y-107293628D01*
X40282857Y-107293628D02*
X39901905Y-107293628D01*
X41044762Y-107198390D02*
X40949524Y-107150771D01*
X40949524Y-107150771D02*
X40901905Y-107103152D01*
X40901905Y-107103152D02*
X40854286Y-107007914D01*
X40854286Y-107007914D02*
X40854286Y-106960295D01*
X40854286Y-106960295D02*
X40901905Y-106865057D01*
X40901905Y-106865057D02*
X40949524Y-106817438D01*
X40949524Y-106817438D02*
X41044762Y-106769819D01*
X41044762Y-106769819D02*
X41235238Y-106769819D01*
X41235238Y-106769819D02*
X41330476Y-106817438D01*
X41330476Y-106817438D02*
X41378095Y-106865057D01*
X41378095Y-106865057D02*
X41425714Y-106960295D01*
X41425714Y-106960295D02*
X41425714Y-107007914D01*
X41425714Y-107007914D02*
X41378095Y-107103152D01*
X41378095Y-107103152D02*
X41330476Y-107150771D01*
X41330476Y-107150771D02*
X41235238Y-107198390D01*
X41235238Y-107198390D02*
X41044762Y-107198390D01*
X41044762Y-107198390D02*
X40949524Y-107246009D01*
X40949524Y-107246009D02*
X40901905Y-107293628D01*
X40901905Y-107293628D02*
X40854286Y-107388866D01*
X40854286Y-107388866D02*
X40854286Y-107579342D01*
X40854286Y-107579342D02*
X40901905Y-107674580D01*
X40901905Y-107674580D02*
X40949524Y-107722200D01*
X40949524Y-107722200D02*
X41044762Y-107769819D01*
X41044762Y-107769819D02*
X41235238Y-107769819D01*
X41235238Y-107769819D02*
X41330476Y-107722200D01*
X41330476Y-107722200D02*
X41378095Y-107674580D01*
X41378095Y-107674580D02*
X41425714Y-107579342D01*
X41425714Y-107579342D02*
X41425714Y-107388866D01*
X41425714Y-107388866D02*
X41378095Y-107293628D01*
X41378095Y-107293628D02*
X41330476Y-107246009D01*
X41330476Y-107246009D02*
X41235238Y-107198390D01*
X122293142Y-116024819D02*
X121959809Y-115548628D01*
X121721714Y-116024819D02*
X121721714Y-115024819D01*
X121721714Y-115024819D02*
X122102666Y-115024819D01*
X122102666Y-115024819D02*
X122197904Y-115072438D01*
X122197904Y-115072438D02*
X122245523Y-115120057D01*
X122245523Y-115120057D02*
X122293142Y-115215295D01*
X122293142Y-115215295D02*
X122293142Y-115358152D01*
X122293142Y-115358152D02*
X122245523Y-115453390D01*
X122245523Y-115453390D02*
X122197904Y-115501009D01*
X122197904Y-115501009D02*
X122102666Y-115548628D01*
X122102666Y-115548628D02*
X121721714Y-115548628D01*
X123245523Y-116024819D02*
X122674095Y-116024819D01*
X122959809Y-116024819D02*
X122959809Y-115024819D01*
X122959809Y-115024819D02*
X122864571Y-115167676D01*
X122864571Y-115167676D02*
X122769333Y-115262914D01*
X122769333Y-115262914D02*
X122674095Y-115310533D01*
X123864571Y-115024819D02*
X123959809Y-115024819D01*
X123959809Y-115024819D02*
X124055047Y-115072438D01*
X124055047Y-115072438D02*
X124102666Y-115120057D01*
X124102666Y-115120057D02*
X124150285Y-115215295D01*
X124150285Y-115215295D02*
X124197904Y-115405771D01*
X124197904Y-115405771D02*
X124197904Y-115643866D01*
X124197904Y-115643866D02*
X124150285Y-115834342D01*
X124150285Y-115834342D02*
X124102666Y-115929580D01*
X124102666Y-115929580D02*
X124055047Y-115977200D01*
X124055047Y-115977200D02*
X123959809Y-116024819D01*
X123959809Y-116024819D02*
X123864571Y-116024819D01*
X123864571Y-116024819D02*
X123769333Y-115977200D01*
X123769333Y-115977200D02*
X123721714Y-115929580D01*
X123721714Y-115929580D02*
X123674095Y-115834342D01*
X123674095Y-115834342D02*
X123626476Y-115643866D01*
X123626476Y-115643866D02*
X123626476Y-115405771D01*
X123626476Y-115405771D02*
X123674095Y-115215295D01*
X123674095Y-115215295D02*
X123721714Y-115120057D01*
X123721714Y-115120057D02*
X123769333Y-115072438D01*
X123769333Y-115072438D02*
X123864571Y-115024819D01*
X76033333Y-60144819D02*
X75700000Y-59668628D01*
X75461905Y-60144819D02*
X75461905Y-59144819D01*
X75461905Y-59144819D02*
X75842857Y-59144819D01*
X75842857Y-59144819D02*
X75938095Y-59192438D01*
X75938095Y-59192438D02*
X75985714Y-59240057D01*
X75985714Y-59240057D02*
X76033333Y-59335295D01*
X76033333Y-59335295D02*
X76033333Y-59478152D01*
X76033333Y-59478152D02*
X75985714Y-59573390D01*
X75985714Y-59573390D02*
X75938095Y-59621009D01*
X75938095Y-59621009D02*
X75842857Y-59668628D01*
X75842857Y-59668628D02*
X75461905Y-59668628D01*
X76985714Y-60144819D02*
X76414286Y-60144819D01*
X76700000Y-60144819D02*
X76700000Y-59144819D01*
X76700000Y-59144819D02*
X76604762Y-59287676D01*
X76604762Y-59287676D02*
X76509524Y-59382914D01*
X76509524Y-59382914D02*
X76414286Y-59430533D01*
X70318333Y-96224580D02*
X70270714Y-96272200D01*
X70270714Y-96272200D02*
X70127857Y-96319819D01*
X70127857Y-96319819D02*
X70032619Y-96319819D01*
X70032619Y-96319819D02*
X69889762Y-96272200D01*
X69889762Y-96272200D02*
X69794524Y-96176961D01*
X69794524Y-96176961D02*
X69746905Y-96081723D01*
X69746905Y-96081723D02*
X69699286Y-95891247D01*
X69699286Y-95891247D02*
X69699286Y-95748390D01*
X69699286Y-95748390D02*
X69746905Y-95557914D01*
X69746905Y-95557914D02*
X69794524Y-95462676D01*
X69794524Y-95462676D02*
X69889762Y-95367438D01*
X69889762Y-95367438D02*
X70032619Y-95319819D01*
X70032619Y-95319819D02*
X70127857Y-95319819D01*
X70127857Y-95319819D02*
X70270714Y-95367438D01*
X70270714Y-95367438D02*
X70318333Y-95415057D01*
X71175476Y-95653152D02*
X71175476Y-96319819D01*
X70937381Y-95272200D02*
X70699286Y-95986485D01*
X70699286Y-95986485D02*
X71318333Y-95986485D01*
X134493095Y-151267438D02*
X134397857Y-151219819D01*
X134397857Y-151219819D02*
X134255000Y-151219819D01*
X134255000Y-151219819D02*
X134112143Y-151267438D01*
X134112143Y-151267438D02*
X134016905Y-151362676D01*
X134016905Y-151362676D02*
X133969286Y-151457914D01*
X133969286Y-151457914D02*
X133921667Y-151648390D01*
X133921667Y-151648390D02*
X133921667Y-151791247D01*
X133921667Y-151791247D02*
X133969286Y-151981723D01*
X133969286Y-151981723D02*
X134016905Y-152076961D01*
X134016905Y-152076961D02*
X134112143Y-152172200D01*
X134112143Y-152172200D02*
X134255000Y-152219819D01*
X134255000Y-152219819D02*
X134350238Y-152219819D01*
X134350238Y-152219819D02*
X134493095Y-152172200D01*
X134493095Y-152172200D02*
X134540714Y-152124580D01*
X134540714Y-152124580D02*
X134540714Y-151791247D01*
X134540714Y-151791247D02*
X134350238Y-151791247D01*
X134969286Y-152219819D02*
X134969286Y-151219819D01*
X134969286Y-151219819D02*
X135540714Y-152219819D01*
X135540714Y-152219819D02*
X135540714Y-151219819D01*
X136016905Y-152219819D02*
X136016905Y-151219819D01*
X136016905Y-151219819D02*
X136255000Y-151219819D01*
X136255000Y-151219819D02*
X136397857Y-151267438D01*
X136397857Y-151267438D02*
X136493095Y-151362676D01*
X136493095Y-151362676D02*
X136540714Y-151457914D01*
X136540714Y-151457914D02*
X136588333Y-151648390D01*
X136588333Y-151648390D02*
X136588333Y-151791247D01*
X136588333Y-151791247D02*
X136540714Y-151981723D01*
X136540714Y-151981723D02*
X136493095Y-152076961D01*
X136493095Y-152076961D02*
X136397857Y-152172200D01*
X136397857Y-152172200D02*
X136255000Y-152219819D01*
X136255000Y-152219819D02*
X136016905Y-152219819D01*
X89527142Y-129994819D02*
X89193809Y-129518628D01*
X88955714Y-129994819D02*
X88955714Y-128994819D01*
X88955714Y-128994819D02*
X89336666Y-128994819D01*
X89336666Y-128994819D02*
X89431904Y-129042438D01*
X89431904Y-129042438D02*
X89479523Y-129090057D01*
X89479523Y-129090057D02*
X89527142Y-129185295D01*
X89527142Y-129185295D02*
X89527142Y-129328152D01*
X89527142Y-129328152D02*
X89479523Y-129423390D01*
X89479523Y-129423390D02*
X89431904Y-129471009D01*
X89431904Y-129471009D02*
X89336666Y-129518628D01*
X89336666Y-129518628D02*
X88955714Y-129518628D01*
X90479523Y-129994819D02*
X89908095Y-129994819D01*
X90193809Y-129994819D02*
X90193809Y-128994819D01*
X90193809Y-128994819D02*
X90098571Y-129137676D01*
X90098571Y-129137676D02*
X90003333Y-129232914D01*
X90003333Y-129232914D02*
X89908095Y-129280533D01*
X90812857Y-128994819D02*
X91479523Y-128994819D01*
X91479523Y-128994819D02*
X91050952Y-129994819D01*
X56816666Y-131744819D02*
X56816666Y-132459104D01*
X56816666Y-132459104D02*
X56769047Y-132601961D01*
X56769047Y-132601961D02*
X56673809Y-132697200D01*
X56673809Y-132697200D02*
X56530952Y-132744819D01*
X56530952Y-132744819D02*
X56435714Y-132744819D01*
X57721428Y-132078152D02*
X57721428Y-132744819D01*
X57483333Y-131697200D02*
X57245238Y-132411485D01*
X57245238Y-132411485D02*
X57864285Y-132411485D01*
X58356667Y-85057200D02*
X58499524Y-85104819D01*
X58499524Y-85104819D02*
X58737619Y-85104819D01*
X58737619Y-85104819D02*
X58832857Y-85057200D01*
X58832857Y-85057200D02*
X58880476Y-85009580D01*
X58880476Y-85009580D02*
X58928095Y-84914342D01*
X58928095Y-84914342D02*
X58928095Y-84819104D01*
X58928095Y-84819104D02*
X58880476Y-84723866D01*
X58880476Y-84723866D02*
X58832857Y-84676247D01*
X58832857Y-84676247D02*
X58737619Y-84628628D01*
X58737619Y-84628628D02*
X58547143Y-84581009D01*
X58547143Y-84581009D02*
X58451905Y-84533390D01*
X58451905Y-84533390D02*
X58404286Y-84485771D01*
X58404286Y-84485771D02*
X58356667Y-84390533D01*
X58356667Y-84390533D02*
X58356667Y-84295295D01*
X58356667Y-84295295D02*
X58404286Y-84200057D01*
X58404286Y-84200057D02*
X58451905Y-84152438D01*
X58451905Y-84152438D02*
X58547143Y-84104819D01*
X58547143Y-84104819D02*
X58785238Y-84104819D01*
X58785238Y-84104819D02*
X58928095Y-84152438D01*
X59261429Y-84104819D02*
X59499524Y-85104819D01*
X59499524Y-85104819D02*
X59690000Y-84390533D01*
X59690000Y-84390533D02*
X59880476Y-85104819D01*
X59880476Y-85104819D02*
X60118572Y-84104819D01*
X61023333Y-85104819D02*
X60451905Y-85104819D01*
X60737619Y-85104819D02*
X60737619Y-84104819D01*
X60737619Y-84104819D02*
X60642381Y-84247676D01*
X60642381Y-84247676D02*
X60547143Y-84342914D01*
X60547143Y-84342914D02*
X60451905Y-84390533D01*
X40777666Y-155064819D02*
X40777666Y-155779104D01*
X40777666Y-155779104D02*
X40730047Y-155921961D01*
X40730047Y-155921961D02*
X40634809Y-156017200D01*
X40634809Y-156017200D02*
X40491952Y-156064819D01*
X40491952Y-156064819D02*
X40396714Y-156064819D01*
X41682428Y-155064819D02*
X41491952Y-155064819D01*
X41491952Y-155064819D02*
X41396714Y-155112438D01*
X41396714Y-155112438D02*
X41349095Y-155160057D01*
X41349095Y-155160057D02*
X41253857Y-155302914D01*
X41253857Y-155302914D02*
X41206238Y-155493390D01*
X41206238Y-155493390D02*
X41206238Y-155874342D01*
X41206238Y-155874342D02*
X41253857Y-155969580D01*
X41253857Y-155969580D02*
X41301476Y-156017200D01*
X41301476Y-156017200D02*
X41396714Y-156064819D01*
X41396714Y-156064819D02*
X41587190Y-156064819D01*
X41587190Y-156064819D02*
X41682428Y-156017200D01*
X41682428Y-156017200D02*
X41730047Y-155969580D01*
X41730047Y-155969580D02*
X41777666Y-155874342D01*
X41777666Y-155874342D02*
X41777666Y-155636247D01*
X41777666Y-155636247D02*
X41730047Y-155541009D01*
X41730047Y-155541009D02*
X41682428Y-155493390D01*
X41682428Y-155493390D02*
X41587190Y-155445771D01*
X41587190Y-155445771D02*
X41396714Y-155445771D01*
X41396714Y-155445771D02*
X41301476Y-155493390D01*
X41301476Y-155493390D02*
X41253857Y-155541009D01*
X41253857Y-155541009D02*
X41206238Y-155636247D01*
X64762142Y-131804580D02*
X64714523Y-131852200D01*
X64714523Y-131852200D02*
X64571666Y-131899819D01*
X64571666Y-131899819D02*
X64476428Y-131899819D01*
X64476428Y-131899819D02*
X64333571Y-131852200D01*
X64333571Y-131852200D02*
X64238333Y-131756961D01*
X64238333Y-131756961D02*
X64190714Y-131661723D01*
X64190714Y-131661723D02*
X64143095Y-131471247D01*
X64143095Y-131471247D02*
X64143095Y-131328390D01*
X64143095Y-131328390D02*
X64190714Y-131137914D01*
X64190714Y-131137914D02*
X64238333Y-131042676D01*
X64238333Y-131042676D02*
X64333571Y-130947438D01*
X64333571Y-130947438D02*
X64476428Y-130899819D01*
X64476428Y-130899819D02*
X64571666Y-130899819D01*
X64571666Y-130899819D02*
X64714523Y-130947438D01*
X64714523Y-130947438D02*
X64762142Y-130995057D01*
X65714523Y-131899819D02*
X65143095Y-131899819D01*
X65428809Y-131899819D02*
X65428809Y-130899819D01*
X65428809Y-130899819D02*
X65333571Y-131042676D01*
X65333571Y-131042676D02*
X65238333Y-131137914D01*
X65238333Y-131137914D02*
X65143095Y-131185533D01*
X66047857Y-130899819D02*
X66666904Y-130899819D01*
X66666904Y-130899819D02*
X66333571Y-131280771D01*
X66333571Y-131280771D02*
X66476428Y-131280771D01*
X66476428Y-131280771D02*
X66571666Y-131328390D01*
X66571666Y-131328390D02*
X66619285Y-131376009D01*
X66619285Y-131376009D02*
X66666904Y-131471247D01*
X66666904Y-131471247D02*
X66666904Y-131709342D01*
X66666904Y-131709342D02*
X66619285Y-131804580D01*
X66619285Y-131804580D02*
X66571666Y-131852200D01*
X66571666Y-131852200D02*
X66476428Y-131899819D01*
X66476428Y-131899819D02*
X66190714Y-131899819D01*
X66190714Y-131899819D02*
X66095476Y-131852200D01*
X66095476Y-131852200D02*
X66047857Y-131804580D01*
X50633333Y-118469580D02*
X50585714Y-118517200D01*
X50585714Y-118517200D02*
X50442857Y-118564819D01*
X50442857Y-118564819D02*
X50347619Y-118564819D01*
X50347619Y-118564819D02*
X50204762Y-118517200D01*
X50204762Y-118517200D02*
X50109524Y-118421961D01*
X50109524Y-118421961D02*
X50061905Y-118326723D01*
X50061905Y-118326723D02*
X50014286Y-118136247D01*
X50014286Y-118136247D02*
X50014286Y-117993390D01*
X50014286Y-117993390D02*
X50061905Y-117802914D01*
X50061905Y-117802914D02*
X50109524Y-117707676D01*
X50109524Y-117707676D02*
X50204762Y-117612438D01*
X50204762Y-117612438D02*
X50347619Y-117564819D01*
X50347619Y-117564819D02*
X50442857Y-117564819D01*
X50442857Y-117564819D02*
X50585714Y-117612438D01*
X50585714Y-117612438D02*
X50633333Y-117660057D01*
X51109524Y-118564819D02*
X51300000Y-118564819D01*
X51300000Y-118564819D02*
X51395238Y-118517200D01*
X51395238Y-118517200D02*
X51442857Y-118469580D01*
X51442857Y-118469580D02*
X51538095Y-118326723D01*
X51538095Y-118326723D02*
X51585714Y-118136247D01*
X51585714Y-118136247D02*
X51585714Y-117755295D01*
X51585714Y-117755295D02*
X51538095Y-117660057D01*
X51538095Y-117660057D02*
X51490476Y-117612438D01*
X51490476Y-117612438D02*
X51395238Y-117564819D01*
X51395238Y-117564819D02*
X51204762Y-117564819D01*
X51204762Y-117564819D02*
X51109524Y-117612438D01*
X51109524Y-117612438D02*
X51061905Y-117660057D01*
X51061905Y-117660057D02*
X51014286Y-117755295D01*
X51014286Y-117755295D02*
X51014286Y-117993390D01*
X51014286Y-117993390D02*
X51061905Y-118088628D01*
X51061905Y-118088628D02*
X51109524Y-118136247D01*
X51109524Y-118136247D02*
X51204762Y-118183866D01*
X51204762Y-118183866D02*
X51395238Y-118183866D01*
X51395238Y-118183866D02*
X51490476Y-118136247D01*
X51490476Y-118136247D02*
X51538095Y-118088628D01*
X51538095Y-118088628D02*
X51585714Y-117993390D01*
X66032142Y-147679580D02*
X65984523Y-147727200D01*
X65984523Y-147727200D02*
X65841666Y-147774819D01*
X65841666Y-147774819D02*
X65746428Y-147774819D01*
X65746428Y-147774819D02*
X65603571Y-147727200D01*
X65603571Y-147727200D02*
X65508333Y-147631961D01*
X65508333Y-147631961D02*
X65460714Y-147536723D01*
X65460714Y-147536723D02*
X65413095Y-147346247D01*
X65413095Y-147346247D02*
X65413095Y-147203390D01*
X65413095Y-147203390D02*
X65460714Y-147012914D01*
X65460714Y-147012914D02*
X65508333Y-146917676D01*
X65508333Y-146917676D02*
X65603571Y-146822438D01*
X65603571Y-146822438D02*
X65746428Y-146774819D01*
X65746428Y-146774819D02*
X65841666Y-146774819D01*
X65841666Y-146774819D02*
X65984523Y-146822438D01*
X65984523Y-146822438D02*
X66032142Y-146870057D01*
X66984523Y-147774819D02*
X66413095Y-147774819D01*
X66698809Y-147774819D02*
X66698809Y-146774819D01*
X66698809Y-146774819D02*
X66603571Y-146917676D01*
X66603571Y-146917676D02*
X66508333Y-147012914D01*
X66508333Y-147012914D02*
X66413095Y-147060533D01*
X67936904Y-147774819D02*
X67365476Y-147774819D01*
X67651190Y-147774819D02*
X67651190Y-146774819D01*
X67651190Y-146774819D02*
X67555952Y-146917676D01*
X67555952Y-146917676D02*
X67460714Y-147012914D01*
X67460714Y-147012914D02*
X67365476Y-147060533D01*
X50533333Y-121898580D02*
X50485714Y-121946200D01*
X50485714Y-121946200D02*
X50342857Y-121993819D01*
X50342857Y-121993819D02*
X50247619Y-121993819D01*
X50247619Y-121993819D02*
X50104762Y-121946200D01*
X50104762Y-121946200D02*
X50009524Y-121850961D01*
X50009524Y-121850961D02*
X49961905Y-121755723D01*
X49961905Y-121755723D02*
X49914286Y-121565247D01*
X49914286Y-121565247D02*
X49914286Y-121422390D01*
X49914286Y-121422390D02*
X49961905Y-121231914D01*
X49961905Y-121231914D02*
X50009524Y-121136676D01*
X50009524Y-121136676D02*
X50104762Y-121041438D01*
X50104762Y-121041438D02*
X50247619Y-120993819D01*
X50247619Y-120993819D02*
X50342857Y-120993819D01*
X50342857Y-120993819D02*
X50485714Y-121041438D01*
X50485714Y-121041438D02*
X50533333Y-121089057D01*
X51104762Y-121422390D02*
X51009524Y-121374771D01*
X51009524Y-121374771D02*
X50961905Y-121327152D01*
X50961905Y-121327152D02*
X50914286Y-121231914D01*
X50914286Y-121231914D02*
X50914286Y-121184295D01*
X50914286Y-121184295D02*
X50961905Y-121089057D01*
X50961905Y-121089057D02*
X51009524Y-121041438D01*
X51009524Y-121041438D02*
X51104762Y-120993819D01*
X51104762Y-120993819D02*
X51295238Y-120993819D01*
X51295238Y-120993819D02*
X51390476Y-121041438D01*
X51390476Y-121041438D02*
X51438095Y-121089057D01*
X51438095Y-121089057D02*
X51485714Y-121184295D01*
X51485714Y-121184295D02*
X51485714Y-121231914D01*
X51485714Y-121231914D02*
X51438095Y-121327152D01*
X51438095Y-121327152D02*
X51390476Y-121374771D01*
X51390476Y-121374771D02*
X51295238Y-121422390D01*
X51295238Y-121422390D02*
X51104762Y-121422390D01*
X51104762Y-121422390D02*
X51009524Y-121470009D01*
X51009524Y-121470009D02*
X50961905Y-121517628D01*
X50961905Y-121517628D02*
X50914286Y-121612866D01*
X50914286Y-121612866D02*
X50914286Y-121803342D01*
X50914286Y-121803342D02*
X50961905Y-121898580D01*
X50961905Y-121898580D02*
X51009524Y-121946200D01*
X51009524Y-121946200D02*
X51104762Y-121993819D01*
X51104762Y-121993819D02*
X51295238Y-121993819D01*
X51295238Y-121993819D02*
X51390476Y-121946200D01*
X51390476Y-121946200D02*
X51438095Y-121898580D01*
X51438095Y-121898580D02*
X51485714Y-121803342D01*
X51485714Y-121803342D02*
X51485714Y-121612866D01*
X51485714Y-121612866D02*
X51438095Y-121517628D01*
X51438095Y-121517628D02*
X51390476Y-121470009D01*
X51390476Y-121470009D02*
X51295238Y-121422390D01*
X62515809Y-112373628D02*
X62515809Y-112849819D01*
X62182476Y-111849819D02*
X62515809Y-112373628D01*
X62515809Y-112373628D02*
X62849142Y-111849819D01*
X63706285Y-112849819D02*
X63134857Y-112849819D01*
X63420571Y-112849819D02*
X63420571Y-111849819D01*
X63420571Y-111849819D02*
X63325333Y-111992676D01*
X63325333Y-111992676D02*
X63230095Y-112087914D01*
X63230095Y-112087914D02*
X63134857Y-112135533D01*
X129436905Y-65224819D02*
X129436905Y-64224819D01*
X129436905Y-64224819D02*
X129675000Y-64224819D01*
X129675000Y-64224819D02*
X129817857Y-64272438D01*
X129817857Y-64272438D02*
X129913095Y-64367676D01*
X129913095Y-64367676D02*
X129960714Y-64462914D01*
X129960714Y-64462914D02*
X130008333Y-64653390D01*
X130008333Y-64653390D02*
X130008333Y-64796247D01*
X130008333Y-64796247D02*
X129960714Y-64986723D01*
X129960714Y-64986723D02*
X129913095Y-65081961D01*
X129913095Y-65081961D02*
X129817857Y-65177200D01*
X129817857Y-65177200D02*
X129675000Y-65224819D01*
X129675000Y-65224819D02*
X129436905Y-65224819D01*
X130389286Y-64320057D02*
X130436905Y-64272438D01*
X130436905Y-64272438D02*
X130532143Y-64224819D01*
X130532143Y-64224819D02*
X130770238Y-64224819D01*
X130770238Y-64224819D02*
X130865476Y-64272438D01*
X130865476Y-64272438D02*
X130913095Y-64320057D01*
X130913095Y-64320057D02*
X130960714Y-64415295D01*
X130960714Y-64415295D02*
X130960714Y-64510533D01*
X130960714Y-64510533D02*
X130913095Y-64653390D01*
X130913095Y-64653390D02*
X130341667Y-65224819D01*
X130341667Y-65224819D02*
X130960714Y-65224819D01*
X81153095Y-72689819D02*
X81153095Y-73499342D01*
X81153095Y-73499342D02*
X81200714Y-73594580D01*
X81200714Y-73594580D02*
X81248333Y-73642200D01*
X81248333Y-73642200D02*
X81343571Y-73689819D01*
X81343571Y-73689819D02*
X81534047Y-73689819D01*
X81534047Y-73689819D02*
X81629285Y-73642200D01*
X81629285Y-73642200D02*
X81676904Y-73594580D01*
X81676904Y-73594580D02*
X81724523Y-73499342D01*
X81724523Y-73499342D02*
X81724523Y-72689819D01*
X82724523Y-73689819D02*
X82153095Y-73689819D01*
X82438809Y-73689819D02*
X82438809Y-72689819D01*
X82438809Y-72689819D02*
X82343571Y-72832676D01*
X82343571Y-72832676D02*
X82248333Y-72927914D01*
X82248333Y-72927914D02*
X82153095Y-72975533D01*
X60813333Y-68349580D02*
X60765714Y-68397200D01*
X60765714Y-68397200D02*
X60622857Y-68444819D01*
X60622857Y-68444819D02*
X60527619Y-68444819D01*
X60527619Y-68444819D02*
X60384762Y-68397200D01*
X60384762Y-68397200D02*
X60289524Y-68301961D01*
X60289524Y-68301961D02*
X60241905Y-68206723D01*
X60241905Y-68206723D02*
X60194286Y-68016247D01*
X60194286Y-68016247D02*
X60194286Y-67873390D01*
X60194286Y-67873390D02*
X60241905Y-67682914D01*
X60241905Y-67682914D02*
X60289524Y-67587676D01*
X60289524Y-67587676D02*
X60384762Y-67492438D01*
X60384762Y-67492438D02*
X60527619Y-67444819D01*
X60527619Y-67444819D02*
X60622857Y-67444819D01*
X60622857Y-67444819D02*
X60765714Y-67492438D01*
X60765714Y-67492438D02*
X60813333Y-67540057D01*
X61146667Y-67444819D02*
X61813333Y-67444819D01*
X61813333Y-67444819D02*
X61384762Y-68444819D01*
X43688095Y-69304819D02*
X43688095Y-70114342D01*
X43688095Y-70114342D02*
X43735714Y-70209580D01*
X43735714Y-70209580D02*
X43783333Y-70257200D01*
X43783333Y-70257200D02*
X43878571Y-70304819D01*
X43878571Y-70304819D02*
X44069047Y-70304819D01*
X44069047Y-70304819D02*
X44164285Y-70257200D01*
X44164285Y-70257200D02*
X44211904Y-70209580D01*
X44211904Y-70209580D02*
X44259523Y-70114342D01*
X44259523Y-70114342D02*
X44259523Y-69304819D01*
X44688095Y-69400057D02*
X44735714Y-69352438D01*
X44735714Y-69352438D02*
X44830952Y-69304819D01*
X44830952Y-69304819D02*
X45069047Y-69304819D01*
X45069047Y-69304819D02*
X45164285Y-69352438D01*
X45164285Y-69352438D02*
X45211904Y-69400057D01*
X45211904Y-69400057D02*
X45259523Y-69495295D01*
X45259523Y-69495295D02*
X45259523Y-69590533D01*
X45259523Y-69590533D02*
X45211904Y-69733390D01*
X45211904Y-69733390D02*
X44640476Y-70304819D01*
X44640476Y-70304819D02*
X45259523Y-70304819D01*
X64762142Y-124184580D02*
X64714523Y-124232200D01*
X64714523Y-124232200D02*
X64571666Y-124279819D01*
X64571666Y-124279819D02*
X64476428Y-124279819D01*
X64476428Y-124279819D02*
X64333571Y-124232200D01*
X64333571Y-124232200D02*
X64238333Y-124136961D01*
X64238333Y-124136961D02*
X64190714Y-124041723D01*
X64190714Y-124041723D02*
X64143095Y-123851247D01*
X64143095Y-123851247D02*
X64143095Y-123708390D01*
X64143095Y-123708390D02*
X64190714Y-123517914D01*
X64190714Y-123517914D02*
X64238333Y-123422676D01*
X64238333Y-123422676D02*
X64333571Y-123327438D01*
X64333571Y-123327438D02*
X64476428Y-123279819D01*
X64476428Y-123279819D02*
X64571666Y-123279819D01*
X64571666Y-123279819D02*
X64714523Y-123327438D01*
X64714523Y-123327438D02*
X64762142Y-123375057D01*
X65714523Y-124279819D02*
X65143095Y-124279819D01*
X65428809Y-124279819D02*
X65428809Y-123279819D01*
X65428809Y-123279819D02*
X65333571Y-123422676D01*
X65333571Y-123422676D02*
X65238333Y-123517914D01*
X65238333Y-123517914D02*
X65143095Y-123565533D01*
X66571666Y-123613152D02*
X66571666Y-124279819D01*
X66333571Y-123232200D02*
X66095476Y-123946485D01*
X66095476Y-123946485D02*
X66714523Y-123946485D01*
X70477142Y-129994819D02*
X70143809Y-129518628D01*
X69905714Y-129994819D02*
X69905714Y-128994819D01*
X69905714Y-128994819D02*
X70286666Y-128994819D01*
X70286666Y-128994819D02*
X70381904Y-129042438D01*
X70381904Y-129042438D02*
X70429523Y-129090057D01*
X70429523Y-129090057D02*
X70477142Y-129185295D01*
X70477142Y-129185295D02*
X70477142Y-129328152D01*
X70477142Y-129328152D02*
X70429523Y-129423390D01*
X70429523Y-129423390D02*
X70381904Y-129471009D01*
X70381904Y-129471009D02*
X70286666Y-129518628D01*
X70286666Y-129518628D02*
X69905714Y-129518628D01*
X71429523Y-129994819D02*
X70858095Y-129994819D01*
X71143809Y-129994819D02*
X71143809Y-128994819D01*
X71143809Y-128994819D02*
X71048571Y-129137676D01*
X71048571Y-129137676D02*
X70953333Y-129232914D01*
X70953333Y-129232914D02*
X70858095Y-129280533D01*
X71762857Y-128994819D02*
X72381904Y-128994819D01*
X72381904Y-128994819D02*
X72048571Y-129375771D01*
X72048571Y-129375771D02*
X72191428Y-129375771D01*
X72191428Y-129375771D02*
X72286666Y-129423390D01*
X72286666Y-129423390D02*
X72334285Y-129471009D01*
X72334285Y-129471009D02*
X72381904Y-129566247D01*
X72381904Y-129566247D02*
X72381904Y-129804342D01*
X72381904Y-129804342D02*
X72334285Y-129899580D01*
X72334285Y-129899580D02*
X72286666Y-129947200D01*
X72286666Y-129947200D02*
X72191428Y-129994819D01*
X72191428Y-129994819D02*
X71905714Y-129994819D01*
X71905714Y-129994819D02*
X71810476Y-129947200D01*
X71810476Y-129947200D02*
X71762857Y-129899580D01*
X52673095Y-128359819D02*
X53244523Y-128359819D01*
X52958809Y-129359819D02*
X52958809Y-128359819D01*
X53577857Y-129359819D02*
X53577857Y-128359819D01*
X53577857Y-128359819D02*
X53958809Y-128359819D01*
X53958809Y-128359819D02*
X54054047Y-128407438D01*
X54054047Y-128407438D02*
X54101666Y-128455057D01*
X54101666Y-128455057D02*
X54149285Y-128550295D01*
X54149285Y-128550295D02*
X54149285Y-128693152D01*
X54149285Y-128693152D02*
X54101666Y-128788390D01*
X54101666Y-128788390D02*
X54054047Y-128836009D01*
X54054047Y-128836009D02*
X53958809Y-128883628D01*
X53958809Y-128883628D02*
X53577857Y-128883628D01*
X54530238Y-128455057D02*
X54577857Y-128407438D01*
X54577857Y-128407438D02*
X54673095Y-128359819D01*
X54673095Y-128359819D02*
X54911190Y-128359819D01*
X54911190Y-128359819D02*
X55006428Y-128407438D01*
X55006428Y-128407438D02*
X55054047Y-128455057D01*
X55054047Y-128455057D02*
X55101666Y-128550295D01*
X55101666Y-128550295D02*
X55101666Y-128645533D01*
X55101666Y-128645533D02*
X55054047Y-128788390D01*
X55054047Y-128788390D02*
X54482619Y-129359819D01*
X54482619Y-129359819D02*
X55101666Y-129359819D01*
X64643095Y-153807438D02*
X64547857Y-153759819D01*
X64547857Y-153759819D02*
X64405000Y-153759819D01*
X64405000Y-153759819D02*
X64262143Y-153807438D01*
X64262143Y-153807438D02*
X64166905Y-153902676D01*
X64166905Y-153902676D02*
X64119286Y-153997914D01*
X64119286Y-153997914D02*
X64071667Y-154188390D01*
X64071667Y-154188390D02*
X64071667Y-154331247D01*
X64071667Y-154331247D02*
X64119286Y-154521723D01*
X64119286Y-154521723D02*
X64166905Y-154616961D01*
X64166905Y-154616961D02*
X64262143Y-154712200D01*
X64262143Y-154712200D02*
X64405000Y-154759819D01*
X64405000Y-154759819D02*
X64500238Y-154759819D01*
X64500238Y-154759819D02*
X64643095Y-154712200D01*
X64643095Y-154712200D02*
X64690714Y-154664580D01*
X64690714Y-154664580D02*
X64690714Y-154331247D01*
X64690714Y-154331247D02*
X64500238Y-154331247D01*
X65119286Y-154759819D02*
X65119286Y-153759819D01*
X65119286Y-153759819D02*
X65690714Y-154759819D01*
X65690714Y-154759819D02*
X65690714Y-153759819D01*
X66166905Y-154759819D02*
X66166905Y-153759819D01*
X66166905Y-153759819D02*
X66405000Y-153759819D01*
X66405000Y-153759819D02*
X66547857Y-153807438D01*
X66547857Y-153807438D02*
X66643095Y-153902676D01*
X66643095Y-153902676D02*
X66690714Y-153997914D01*
X66690714Y-153997914D02*
X66738333Y-154188390D01*
X66738333Y-154188390D02*
X66738333Y-154331247D01*
X66738333Y-154331247D02*
X66690714Y-154521723D01*
X66690714Y-154521723D02*
X66643095Y-154616961D01*
X66643095Y-154616961D02*
X66547857Y-154712200D01*
X66547857Y-154712200D02*
X66405000Y-154759819D01*
X66405000Y-154759819D02*
X66166905Y-154759819D01*
X94511905Y-119834819D02*
X94511905Y-118834819D01*
X94511905Y-118834819D02*
X94750000Y-118834819D01*
X94750000Y-118834819D02*
X94892857Y-118882438D01*
X94892857Y-118882438D02*
X94988095Y-118977676D01*
X94988095Y-118977676D02*
X95035714Y-119072914D01*
X95035714Y-119072914D02*
X95083333Y-119263390D01*
X95083333Y-119263390D02*
X95083333Y-119406247D01*
X95083333Y-119406247D02*
X95035714Y-119596723D01*
X95035714Y-119596723D02*
X94988095Y-119691961D01*
X94988095Y-119691961D02*
X94892857Y-119787200D01*
X94892857Y-119787200D02*
X94750000Y-119834819D01*
X94750000Y-119834819D02*
X94511905Y-119834819D01*
X95988095Y-118834819D02*
X95511905Y-118834819D01*
X95511905Y-118834819D02*
X95464286Y-119311009D01*
X95464286Y-119311009D02*
X95511905Y-119263390D01*
X95511905Y-119263390D02*
X95607143Y-119215771D01*
X95607143Y-119215771D02*
X95845238Y-119215771D01*
X95845238Y-119215771D02*
X95940476Y-119263390D01*
X95940476Y-119263390D02*
X95988095Y-119311009D01*
X95988095Y-119311009D02*
X96035714Y-119406247D01*
X96035714Y-119406247D02*
X96035714Y-119644342D01*
X96035714Y-119644342D02*
X95988095Y-119739580D01*
X95988095Y-119739580D02*
X95940476Y-119787200D01*
X95940476Y-119787200D02*
X95845238Y-119834819D01*
X95845238Y-119834819D02*
X95607143Y-119834819D01*
X95607143Y-119834819D02*
X95511905Y-119787200D01*
X95511905Y-119787200D02*
X95464286Y-119739580D01*
X105148095Y-121634819D02*
X105148095Y-120634819D01*
X105719523Y-121634819D02*
X105290952Y-121063390D01*
X105719523Y-120634819D02*
X105148095Y-121206247D01*
X48063333Y-66194580D02*
X48015714Y-66242200D01*
X48015714Y-66242200D02*
X47872857Y-66289819D01*
X47872857Y-66289819D02*
X47777619Y-66289819D01*
X47777619Y-66289819D02*
X47634762Y-66242200D01*
X47634762Y-66242200D02*
X47539524Y-66146961D01*
X47539524Y-66146961D02*
X47491905Y-66051723D01*
X47491905Y-66051723D02*
X47444286Y-65861247D01*
X47444286Y-65861247D02*
X47444286Y-65718390D01*
X47444286Y-65718390D02*
X47491905Y-65527914D01*
X47491905Y-65527914D02*
X47539524Y-65432676D01*
X47539524Y-65432676D02*
X47634762Y-65337438D01*
X47634762Y-65337438D02*
X47777619Y-65289819D01*
X47777619Y-65289819D02*
X47872857Y-65289819D01*
X47872857Y-65289819D02*
X48015714Y-65337438D01*
X48015714Y-65337438D02*
X48063333Y-65385057D01*
X48968095Y-65289819D02*
X48491905Y-65289819D01*
X48491905Y-65289819D02*
X48444286Y-65766009D01*
X48444286Y-65766009D02*
X48491905Y-65718390D01*
X48491905Y-65718390D02*
X48587143Y-65670771D01*
X48587143Y-65670771D02*
X48825238Y-65670771D01*
X48825238Y-65670771D02*
X48920476Y-65718390D01*
X48920476Y-65718390D02*
X48968095Y-65766009D01*
X48968095Y-65766009D02*
X49015714Y-65861247D01*
X49015714Y-65861247D02*
X49015714Y-66099342D01*
X49015714Y-66099342D02*
X48968095Y-66194580D01*
X48968095Y-66194580D02*
X48920476Y-66242200D01*
X48920476Y-66242200D02*
X48825238Y-66289819D01*
X48825238Y-66289819D02*
X48587143Y-66289819D01*
X48587143Y-66289819D02*
X48491905Y-66242200D01*
X48491905Y-66242200D02*
X48444286Y-66194580D01*
X124356905Y-65224819D02*
X124356905Y-64224819D01*
X124356905Y-64224819D02*
X124595000Y-64224819D01*
X124595000Y-64224819D02*
X124737857Y-64272438D01*
X124737857Y-64272438D02*
X124833095Y-64367676D01*
X124833095Y-64367676D02*
X124880714Y-64462914D01*
X124880714Y-64462914D02*
X124928333Y-64653390D01*
X124928333Y-64653390D02*
X124928333Y-64796247D01*
X124928333Y-64796247D02*
X124880714Y-64986723D01*
X124880714Y-64986723D02*
X124833095Y-65081961D01*
X124833095Y-65081961D02*
X124737857Y-65177200D01*
X124737857Y-65177200D02*
X124595000Y-65224819D01*
X124595000Y-65224819D02*
X124356905Y-65224819D01*
X125880714Y-65224819D02*
X125309286Y-65224819D01*
X125595000Y-65224819D02*
X125595000Y-64224819D01*
X125595000Y-64224819D02*
X125499762Y-64367676D01*
X125499762Y-64367676D02*
X125404524Y-64462914D01*
X125404524Y-64462914D02*
X125309286Y-64510533D01*
X55141905Y-66731819D02*
X55141905Y-65731819D01*
X55141905Y-65731819D02*
X55522857Y-65731819D01*
X55522857Y-65731819D02*
X55618095Y-65779438D01*
X55618095Y-65779438D02*
X55665714Y-65827057D01*
X55665714Y-65827057D02*
X55713333Y-65922295D01*
X55713333Y-65922295D02*
X55713333Y-66065152D01*
X55713333Y-66065152D02*
X55665714Y-66160390D01*
X55665714Y-66160390D02*
X55618095Y-66208009D01*
X55618095Y-66208009D02*
X55522857Y-66255628D01*
X55522857Y-66255628D02*
X55141905Y-66255628D01*
X56665714Y-66731819D02*
X56094286Y-66731819D01*
X56380000Y-66731819D02*
X56380000Y-65731819D01*
X56380000Y-65731819D02*
X56284762Y-65874676D01*
X56284762Y-65874676D02*
X56189524Y-65969914D01*
X56189524Y-65969914D02*
X56094286Y-66017533D01*
X109759761Y-145965057D02*
X109664523Y-145917438D01*
X109664523Y-145917438D02*
X109569285Y-145822200D01*
X109569285Y-145822200D02*
X109426428Y-145679342D01*
X109426428Y-145679342D02*
X109331190Y-145631723D01*
X109331190Y-145631723D02*
X109235952Y-145631723D01*
X109283571Y-145869819D02*
X109188333Y-145822200D01*
X109188333Y-145822200D02*
X109093095Y-145726961D01*
X109093095Y-145726961D02*
X109045476Y-145536485D01*
X109045476Y-145536485D02*
X109045476Y-145203152D01*
X109045476Y-145203152D02*
X109093095Y-145012676D01*
X109093095Y-145012676D02*
X109188333Y-144917438D01*
X109188333Y-144917438D02*
X109283571Y-144869819D01*
X109283571Y-144869819D02*
X109474047Y-144869819D01*
X109474047Y-144869819D02*
X109569285Y-144917438D01*
X109569285Y-144917438D02*
X109664523Y-145012676D01*
X109664523Y-145012676D02*
X109712142Y-145203152D01*
X109712142Y-145203152D02*
X109712142Y-145536485D01*
X109712142Y-145536485D02*
X109664523Y-145726961D01*
X109664523Y-145726961D02*
X109569285Y-145822200D01*
X109569285Y-145822200D02*
X109474047Y-145869819D01*
X109474047Y-145869819D02*
X109283571Y-145869819D01*
X110093095Y-144965057D02*
X110140714Y-144917438D01*
X110140714Y-144917438D02*
X110235952Y-144869819D01*
X110235952Y-144869819D02*
X110474047Y-144869819D01*
X110474047Y-144869819D02*
X110569285Y-144917438D01*
X110569285Y-144917438D02*
X110616904Y-144965057D01*
X110616904Y-144965057D02*
X110664523Y-145060295D01*
X110664523Y-145060295D02*
X110664523Y-145155533D01*
X110664523Y-145155533D02*
X110616904Y-145298390D01*
X110616904Y-145298390D02*
X110045476Y-145869819D01*
X110045476Y-145869819D02*
X110664523Y-145869819D01*
X92614761Y-141520057D02*
X92519523Y-141472438D01*
X92519523Y-141472438D02*
X92424285Y-141377200D01*
X92424285Y-141377200D02*
X92281428Y-141234342D01*
X92281428Y-141234342D02*
X92186190Y-141186723D01*
X92186190Y-141186723D02*
X92090952Y-141186723D01*
X92138571Y-141424819D02*
X92043333Y-141377200D01*
X92043333Y-141377200D02*
X91948095Y-141281961D01*
X91948095Y-141281961D02*
X91900476Y-141091485D01*
X91900476Y-141091485D02*
X91900476Y-140758152D01*
X91900476Y-140758152D02*
X91948095Y-140567676D01*
X91948095Y-140567676D02*
X92043333Y-140472438D01*
X92043333Y-140472438D02*
X92138571Y-140424819D01*
X92138571Y-140424819D02*
X92329047Y-140424819D01*
X92329047Y-140424819D02*
X92424285Y-140472438D01*
X92424285Y-140472438D02*
X92519523Y-140567676D01*
X92519523Y-140567676D02*
X92567142Y-140758152D01*
X92567142Y-140758152D02*
X92567142Y-141091485D01*
X92567142Y-141091485D02*
X92519523Y-141281961D01*
X92519523Y-141281961D02*
X92424285Y-141377200D01*
X92424285Y-141377200D02*
X92329047Y-141424819D01*
X92329047Y-141424819D02*
X92138571Y-141424819D01*
X93519523Y-141424819D02*
X92948095Y-141424819D01*
X93233809Y-141424819D02*
X93233809Y-140424819D01*
X93233809Y-140424819D02*
X93138571Y-140567676D01*
X93138571Y-140567676D02*
X93043333Y-140662914D01*
X93043333Y-140662914D02*
X92948095Y-140710533D01*
X108577142Y-136979819D02*
X108243809Y-136503628D01*
X108005714Y-136979819D02*
X108005714Y-135979819D01*
X108005714Y-135979819D02*
X108386666Y-135979819D01*
X108386666Y-135979819D02*
X108481904Y-136027438D01*
X108481904Y-136027438D02*
X108529523Y-136075057D01*
X108529523Y-136075057D02*
X108577142Y-136170295D01*
X108577142Y-136170295D02*
X108577142Y-136313152D01*
X108577142Y-136313152D02*
X108529523Y-136408390D01*
X108529523Y-136408390D02*
X108481904Y-136456009D01*
X108481904Y-136456009D02*
X108386666Y-136503628D01*
X108386666Y-136503628D02*
X108005714Y-136503628D01*
X109529523Y-136979819D02*
X108958095Y-136979819D01*
X109243809Y-136979819D02*
X109243809Y-135979819D01*
X109243809Y-135979819D02*
X109148571Y-136122676D01*
X109148571Y-136122676D02*
X109053333Y-136217914D01*
X109053333Y-136217914D02*
X108958095Y-136265533D01*
X110434285Y-135979819D02*
X109958095Y-135979819D01*
X109958095Y-135979819D02*
X109910476Y-136456009D01*
X109910476Y-136456009D02*
X109958095Y-136408390D01*
X109958095Y-136408390D02*
X110053333Y-136360771D01*
X110053333Y-136360771D02*
X110291428Y-136360771D01*
X110291428Y-136360771D02*
X110386666Y-136408390D01*
X110386666Y-136408390D02*
X110434285Y-136456009D01*
X110434285Y-136456009D02*
X110481904Y-136551247D01*
X110481904Y-136551247D02*
X110481904Y-136789342D01*
X110481904Y-136789342D02*
X110434285Y-136884580D01*
X110434285Y-136884580D02*
X110386666Y-136932200D01*
X110386666Y-136932200D02*
X110291428Y-136979819D01*
X110291428Y-136979819D02*
X110053333Y-136979819D01*
X110053333Y-136979819D02*
X109958095Y-136932200D01*
X109958095Y-136932200D02*
X109910476Y-136884580D01*
X98480952Y-157014104D02*
X98957142Y-157014104D01*
X98385714Y-157299819D02*
X98719047Y-156299819D01*
X98719047Y-156299819D02*
X99052380Y-157299819D01*
X99385714Y-157299819D02*
X99385714Y-156299819D01*
X99385714Y-156299819D02*
X99719047Y-157014104D01*
X99719047Y-157014104D02*
X100052380Y-156299819D01*
X100052380Y-156299819D02*
X100052380Y-157299819D01*
X100528571Y-157299819D02*
X100528571Y-156299819D01*
X100528571Y-156299819D02*
X100909523Y-156299819D01*
X100909523Y-156299819D02*
X101004761Y-156347438D01*
X101004761Y-156347438D02*
X101052380Y-156395057D01*
X101052380Y-156395057D02*
X101099999Y-156490295D01*
X101099999Y-156490295D02*
X101099999Y-156633152D01*
X101099999Y-156633152D02*
X101052380Y-156728390D01*
X101052380Y-156728390D02*
X101004761Y-156776009D01*
X101004761Y-156776009D02*
X100909523Y-156823628D01*
X100909523Y-156823628D02*
X100528571Y-156823628D01*
X101290476Y-157395057D02*
X102052380Y-157395057D01*
X102147619Y-156299819D02*
X102480952Y-157299819D01*
X102480952Y-157299819D02*
X102814285Y-156299819D01*
X103719047Y-157204580D02*
X103671428Y-157252200D01*
X103671428Y-157252200D02*
X103528571Y-157299819D01*
X103528571Y-157299819D02*
X103433333Y-157299819D01*
X103433333Y-157299819D02*
X103290476Y-157252200D01*
X103290476Y-157252200D02*
X103195238Y-157156961D01*
X103195238Y-157156961D02*
X103147619Y-157061723D01*
X103147619Y-157061723D02*
X103100000Y-156871247D01*
X103100000Y-156871247D02*
X103100000Y-156728390D01*
X103100000Y-156728390D02*
X103147619Y-156537914D01*
X103147619Y-156537914D02*
X103195238Y-156442676D01*
X103195238Y-156442676D02*
X103290476Y-156347438D01*
X103290476Y-156347438D02*
X103433333Y-156299819D01*
X103433333Y-156299819D02*
X103528571Y-156299819D01*
X103528571Y-156299819D02*
X103671428Y-156347438D01*
X103671428Y-156347438D02*
X103719047Y-156395057D01*
X104719047Y-157204580D02*
X104671428Y-157252200D01*
X104671428Y-157252200D02*
X104528571Y-157299819D01*
X104528571Y-157299819D02*
X104433333Y-157299819D01*
X104433333Y-157299819D02*
X104290476Y-157252200D01*
X104290476Y-157252200D02*
X104195238Y-157156961D01*
X104195238Y-157156961D02*
X104147619Y-157061723D01*
X104147619Y-157061723D02*
X104100000Y-156871247D01*
X104100000Y-156871247D02*
X104100000Y-156728390D01*
X104100000Y-156728390D02*
X104147619Y-156537914D01*
X104147619Y-156537914D02*
X104195238Y-156442676D01*
X104195238Y-156442676D02*
X104290476Y-156347438D01*
X104290476Y-156347438D02*
X104433333Y-156299819D01*
X104433333Y-156299819D02*
X104528571Y-156299819D01*
X104528571Y-156299819D02*
X104671428Y-156347438D01*
X104671428Y-156347438D02*
X104719047Y-156395057D01*
X100322142Y-129994819D02*
X99988809Y-129518628D01*
X99750714Y-129994819D02*
X99750714Y-128994819D01*
X99750714Y-128994819D02*
X100131666Y-128994819D01*
X100131666Y-128994819D02*
X100226904Y-129042438D01*
X100226904Y-129042438D02*
X100274523Y-129090057D01*
X100274523Y-129090057D02*
X100322142Y-129185295D01*
X100322142Y-129185295D02*
X100322142Y-129328152D01*
X100322142Y-129328152D02*
X100274523Y-129423390D01*
X100274523Y-129423390D02*
X100226904Y-129471009D01*
X100226904Y-129471009D02*
X100131666Y-129518628D01*
X100131666Y-129518628D02*
X99750714Y-129518628D01*
X101274523Y-129994819D02*
X100703095Y-129994819D01*
X100988809Y-129994819D02*
X100988809Y-128994819D01*
X100988809Y-128994819D02*
X100893571Y-129137676D01*
X100893571Y-129137676D02*
X100798333Y-129232914D01*
X100798333Y-129232914D02*
X100703095Y-129280533D01*
X101845952Y-129423390D02*
X101750714Y-129375771D01*
X101750714Y-129375771D02*
X101703095Y-129328152D01*
X101703095Y-129328152D02*
X101655476Y-129232914D01*
X101655476Y-129232914D02*
X101655476Y-129185295D01*
X101655476Y-129185295D02*
X101703095Y-129090057D01*
X101703095Y-129090057D02*
X101750714Y-129042438D01*
X101750714Y-129042438D02*
X101845952Y-128994819D01*
X101845952Y-128994819D02*
X102036428Y-128994819D01*
X102036428Y-128994819D02*
X102131666Y-129042438D01*
X102131666Y-129042438D02*
X102179285Y-129090057D01*
X102179285Y-129090057D02*
X102226904Y-129185295D01*
X102226904Y-129185295D02*
X102226904Y-129232914D01*
X102226904Y-129232914D02*
X102179285Y-129328152D01*
X102179285Y-129328152D02*
X102131666Y-129375771D01*
X102131666Y-129375771D02*
X102036428Y-129423390D01*
X102036428Y-129423390D02*
X101845952Y-129423390D01*
X101845952Y-129423390D02*
X101750714Y-129471009D01*
X101750714Y-129471009D02*
X101703095Y-129518628D01*
X101703095Y-129518628D02*
X101655476Y-129613866D01*
X101655476Y-129613866D02*
X101655476Y-129804342D01*
X101655476Y-129804342D02*
X101703095Y-129899580D01*
X101703095Y-129899580D02*
X101750714Y-129947200D01*
X101750714Y-129947200D02*
X101845952Y-129994819D01*
X101845952Y-129994819D02*
X102036428Y-129994819D01*
X102036428Y-129994819D02*
X102131666Y-129947200D01*
X102131666Y-129947200D02*
X102179285Y-129899580D01*
X102179285Y-129899580D02*
X102226904Y-129804342D01*
X102226904Y-129804342D02*
X102226904Y-129613866D01*
X102226904Y-129613866D02*
X102179285Y-129518628D01*
X102179285Y-129518628D02*
X102131666Y-129471009D01*
X102131666Y-129471009D02*
X102036428Y-129423390D01*
X134516905Y-65224819D02*
X134516905Y-64224819D01*
X134516905Y-64224819D02*
X134755000Y-64224819D01*
X134755000Y-64224819D02*
X134897857Y-64272438D01*
X134897857Y-64272438D02*
X134993095Y-64367676D01*
X134993095Y-64367676D02*
X135040714Y-64462914D01*
X135040714Y-64462914D02*
X135088333Y-64653390D01*
X135088333Y-64653390D02*
X135088333Y-64796247D01*
X135088333Y-64796247D02*
X135040714Y-64986723D01*
X135040714Y-64986723D02*
X134993095Y-65081961D01*
X134993095Y-65081961D02*
X134897857Y-65177200D01*
X134897857Y-65177200D02*
X134755000Y-65224819D01*
X134755000Y-65224819D02*
X134516905Y-65224819D01*
X135421667Y-64224819D02*
X136040714Y-64224819D01*
X136040714Y-64224819D02*
X135707381Y-64605771D01*
X135707381Y-64605771D02*
X135850238Y-64605771D01*
X135850238Y-64605771D02*
X135945476Y-64653390D01*
X135945476Y-64653390D02*
X135993095Y-64701009D01*
X135993095Y-64701009D02*
X136040714Y-64796247D01*
X136040714Y-64796247D02*
X136040714Y-65034342D01*
X136040714Y-65034342D02*
X135993095Y-65129580D01*
X135993095Y-65129580D02*
X135945476Y-65177200D01*
X135945476Y-65177200D02*
X135850238Y-65224819D01*
X135850238Y-65224819D02*
X135564524Y-65224819D01*
X135564524Y-65224819D02*
X135469286Y-65177200D01*
X135469286Y-65177200D02*
X135421667Y-65129580D01*
D11*
X75335000Y-133350000D02*
X76105000Y-133350000D01*
X76105000Y-131980000D02*
X76105000Y-134720000D01*
X76105000Y-134720000D02*
X82645000Y-134720000D01*
X82645000Y-131980000D02*
X76105000Y-131980000D01*
X82645000Y-134720000D02*
X82645000Y-131980000D01*
X83415000Y-133350000D02*
X82645000Y-133350000D01*
X55950000Y-155505000D02*
X55950000Y-153105000D01*
X58350000Y-155505000D02*
X55950000Y-155505000D01*
X55950000Y-153105000D02*
X58350000Y-153105000D01*
X58350000Y-153105000D02*
X58350000Y-155505000D01*
X85495000Y-149860000D02*
X86265000Y-149860000D01*
X86265000Y-148490000D02*
X86265000Y-151230000D01*
X86265000Y-151230000D02*
X92805000Y-151230000D01*
X92805000Y-148490000D02*
X86265000Y-148490000D01*
X92805000Y-151230000D02*
X92805000Y-148490000D01*
X93575000Y-149860000D02*
X92805000Y-149860000D01*
X104370000Y-116205000D02*
X103720000Y-116205000D01*
X103720000Y-117325000D02*
X103720000Y-115085000D01*
X103720000Y-115085000D02*
X99480000Y-115085000D01*
X103120000Y-117325000D02*
X103120000Y-115085000D01*
X103000000Y-117325000D02*
X103000000Y-115085000D01*
X102880000Y-117325000D02*
X102880000Y-115085000D01*
X99480000Y-117325000D02*
X103720000Y-117325000D01*
X99480000Y-115085000D02*
X99480000Y-117325000D01*
X98830000Y-116205000D02*
X99480000Y-116205000D01*
X70435000Y-142130000D02*
X70435000Y-152530000D01*
X70435000Y-152530000D02*
X80715000Y-152530000D01*
X72925000Y-142190000D02*
X72925000Y-152470000D01*
X72925000Y-152470000D02*
X78225000Y-152470000D01*
X74575000Y-142190000D02*
X72925000Y-142190000D01*
X78225000Y-142190000D02*
X76575000Y-142190000D01*
X78225000Y-152470000D02*
X78225000Y-142190000D01*
X80715000Y-142130000D02*
X70435000Y-142130000D01*
X80715000Y-152530000D02*
X80715000Y-142130000D01*
X74575000Y-142190000D02*
G75*
G03*
X76575000Y-142190000I1000000J0D01*
G01*
X64540000Y-64770000D02*
X65310000Y-64770000D01*
X65310000Y-63400000D02*
X65310000Y-66140000D01*
X65310000Y-66140000D02*
X71850000Y-66140000D01*
X71850000Y-63400000D02*
X65310000Y-63400000D01*
X71850000Y-66140000D02*
X71850000Y-63400000D01*
X72620000Y-64770000D02*
X71850000Y-64770000D01*
X105940000Y-131500000D02*
X102340000Y-131500000D01*
X104140000Y-135949999D02*
G75*
G03*
X106496399Y-134448807I0J2599999D01*
G01*
X106464183Y-132227205D02*
G75*
G03*
X105939999Y-131500001I-2324183J-1122795D01*
G01*
X101783600Y-134448807D02*
G75*
G03*
X104140000Y-135950000I2356400J1098807D01*
G01*
X102340001Y-131500001D02*
G75*
G03*
X101815817Y-132227205I1799999J-1849999D01*
G01*
X58480000Y-121980000D02*
X57150000Y-121980000D01*
X58480000Y-120650000D02*
X58480000Y-121980000D01*
X58480000Y-119380000D02*
X58480000Y-119320000D01*
X58480000Y-119380000D02*
X55820000Y-119380000D01*
X58480000Y-119320000D02*
X55820000Y-119320000D01*
X55820000Y-119380000D02*
X55820000Y-119320000D01*
X104370000Y-122555000D02*
X103720000Y-122555000D01*
X103720000Y-123675000D02*
X103720000Y-121435000D01*
X103720000Y-121435000D02*
X99480000Y-121435000D01*
X103120000Y-123675000D02*
X103120000Y-121435000D01*
X103000000Y-123675000D02*
X103000000Y-121435000D01*
X102880000Y-123675000D02*
X102880000Y-121435000D01*
X99480000Y-123675000D02*
X103720000Y-123675000D01*
X99480000Y-121435000D02*
X99480000Y-123675000D01*
X98830000Y-122555000D02*
X99480000Y-122555000D01*
X56285000Y-95250000D02*
X57055000Y-95250000D01*
X57055000Y-93880000D02*
X57055000Y-96620000D01*
X57055000Y-96620000D02*
X63595000Y-96620000D01*
X63595000Y-93880000D02*
X57055000Y-93880000D01*
X63595000Y-96620000D02*
X63595000Y-93880000D01*
X64365000Y-95250000D02*
X63595000Y-95250000D01*
X127511500Y-74355000D02*
X124271500Y-74355000D01*
X127511500Y-74355000D02*
X127511500Y-79195000D01*
X124271500Y-74355000D02*
X124271500Y-79195000D01*
X127511500Y-79195000D02*
X124271500Y-79195000D01*
X56580000Y-140335000D02*
X55670000Y-140335000D01*
X55670000Y-143055000D02*
X55670000Y-137615000D01*
X55670000Y-137615000D02*
X45930000Y-137615000D01*
X54245000Y-143055000D02*
X54245000Y-137615000D01*
X54125000Y-143055000D02*
X54125000Y-137615000D01*
X54005000Y-143055000D02*
X54005000Y-137615000D01*
X45930000Y-143055000D02*
X55670000Y-143055000D01*
X45930000Y-137615000D02*
X45930000Y-143055000D01*
X45020000Y-140335000D02*
X45930000Y-140335000D01*
X99190000Y-76835000D02*
X99190000Y-74295000D01*
X100210000Y-64905000D02*
X100210000Y-66765000D01*
X100210000Y-71665000D02*
X100210000Y-110405000D01*
X100210000Y-110405000D02*
X123310000Y-110405000D01*
X102490000Y-64905000D02*
X102490000Y-67165000D01*
X123310000Y-64905000D02*
X100210000Y-64905000D01*
X123310000Y-110405000D02*
X123310000Y-64905000D01*
X101840000Y-69215000D02*
G75*
G03*
X101840000Y-69215000I-900000J0D01*
G01*
X103490000Y-69215000D02*
G75*
G03*
X103490000Y-69215000I-2550000J0D01*
G01*
X134850000Y-71120000D02*
X134080000Y-71120000D01*
X134080000Y-72490000D02*
X134080000Y-69750000D01*
X134080000Y-69750000D02*
X127540000Y-69750000D01*
X127540000Y-72490000D02*
X134080000Y-72490000D01*
X127540000Y-69750000D02*
X127540000Y-72490000D01*
X126770000Y-71120000D02*
X127540000Y-71120000D01*
X110260000Y-123190000D02*
X111030000Y-123190000D01*
X111030000Y-121820000D02*
X111030000Y-124560000D01*
X111030000Y-124560000D02*
X117570000Y-124560000D01*
X117570000Y-121820000D02*
X111030000Y-121820000D01*
X117570000Y-124560000D02*
X117570000Y-121820000D01*
X118340000Y-123190000D02*
X117570000Y-123190000D01*
X41860000Y-123715000D02*
X41860000Y-134115000D01*
X41860000Y-134115000D02*
X52140000Y-134115000D01*
X44350000Y-123775000D02*
X44350000Y-134055000D01*
X44350000Y-134055000D02*
X49650000Y-134055000D01*
X46000000Y-123775000D02*
X44350000Y-123775000D01*
X49650000Y-123775000D02*
X48000000Y-123775000D01*
X49650000Y-134055000D02*
X49650000Y-123775000D01*
X52140000Y-123715000D02*
X41860000Y-123715000D01*
X52140000Y-134115000D02*
X52140000Y-123715000D01*
X46000000Y-123775000D02*
G75*
G03*
X48000000Y-123775000I1000000J0D01*
G01*
X58897000Y-106165000D02*
X55657000Y-106165000D01*
X58897000Y-106165000D02*
X58897000Y-111005000D01*
X55657000Y-106165000D02*
X55657000Y-111005000D01*
X58897000Y-111005000D02*
X55657000Y-111005000D01*
X118975000Y-61595000D02*
X118205000Y-61595000D01*
X118205000Y-62965000D02*
X118205000Y-60225000D01*
X118205000Y-60225000D02*
X111665000Y-60225000D01*
X111665000Y-62965000D02*
X118205000Y-62965000D01*
X111665000Y-60225000D02*
X111665000Y-62965000D01*
X110895000Y-61595000D02*
X111665000Y-61595000D01*
X78005000Y-141320000D02*
X78005000Y-138080000D01*
X78005000Y-141320000D02*
X73165000Y-141320000D01*
X78005000Y-138080000D02*
X73165000Y-138080000D01*
X73165000Y-141320000D02*
X73165000Y-138080000D01*
X134850000Y-67310000D02*
X134080000Y-67310000D01*
X134080000Y-68680000D02*
X134080000Y-65940000D01*
X134080000Y-65940000D02*
X127540000Y-65940000D01*
X127540000Y-68680000D02*
X134080000Y-68680000D01*
X127540000Y-65940000D02*
X127540000Y-68680000D01*
X126770000Y-67310000D02*
X127540000Y-67310000D01*
X98495000Y-155505000D02*
X98495000Y-153105000D01*
X100895000Y-155505000D02*
X98495000Y-155505000D01*
X98495000Y-153105000D02*
X100895000Y-153105000D01*
X100895000Y-153105000D02*
X100895000Y-155505000D01*
X93575000Y-153670000D02*
X92805000Y-153670000D01*
X92805000Y-155040000D02*
X92805000Y-152300000D01*
X92805000Y-152300000D02*
X86265000Y-152300000D01*
X86265000Y-155040000D02*
X92805000Y-155040000D01*
X86265000Y-152300000D02*
X86265000Y-155040000D01*
X85495000Y-153670000D02*
X86265000Y-153670000D01*
X110260000Y-119380000D02*
X111030000Y-119380000D01*
X111030000Y-118010000D02*
X111030000Y-120750000D01*
X111030000Y-120750000D02*
X117570000Y-120750000D01*
X117570000Y-118010000D02*
X111030000Y-118010000D01*
X117570000Y-120750000D02*
X117570000Y-118010000D01*
X118340000Y-119380000D02*
X117570000Y-119380000D01*
X128210000Y-88960000D02*
X128210000Y-87630000D01*
X129540000Y-88960000D02*
X128210000Y-88960000D01*
X130810000Y-88960000D02*
X135950000Y-88960000D01*
X130810000Y-88960000D02*
X130810000Y-86300000D01*
X135950000Y-88960000D02*
X135950000Y-86300000D01*
X130810000Y-86300000D02*
X135950000Y-86300000D01*
X58350000Y-126295000D02*
X55950000Y-126295000D01*
X58350000Y-123895000D02*
X58350000Y-126295000D01*
X55950000Y-126295000D02*
X55950000Y-123895000D01*
X55950000Y-123895000D02*
X58350000Y-123895000D01*
X100735000Y-149860000D02*
X101505000Y-149860000D01*
X101505000Y-148490000D02*
X101505000Y-151230000D01*
X101505000Y-151230000D02*
X108045000Y-151230000D01*
X108045000Y-148490000D02*
X101505000Y-148490000D01*
X108045000Y-151230000D02*
X108045000Y-148490000D01*
X108815000Y-149860000D02*
X108045000Y-149860000D01*
X55657000Y-103455000D02*
X58897000Y-103455000D01*
X55657000Y-103455000D02*
X55657000Y-98615000D01*
X58897000Y-103455000D02*
X58897000Y-98615000D01*
X55657000Y-98615000D02*
X58897000Y-98615000D01*
X134055000Y-143580000D02*
X136455000Y-143580000D01*
X134055000Y-145980000D02*
X134055000Y-143580000D01*
X136455000Y-143580000D02*
X136455000Y-145980000D01*
X136455000Y-145980000D02*
X134055000Y-145980000D01*
X91725000Y-102115000D02*
X94965000Y-102115000D01*
X91725000Y-102115000D02*
X91725000Y-97275000D01*
X94965000Y-102115000D02*
X94965000Y-97275000D01*
X91725000Y-97275000D02*
X94965000Y-97275000D01*
X54260000Y-81220000D02*
X57500000Y-81220000D01*
X54260000Y-81220000D02*
X54260000Y-76380000D01*
X57500000Y-81220000D02*
X57500000Y-76380000D01*
X54260000Y-76380000D02*
X57500000Y-76380000D01*
X83320000Y-70720000D02*
X84320000Y-70720000D01*
X84320000Y-70720000D02*
X83820000Y-69720000D01*
X83820000Y-69720000D02*
X83320000Y-70720000D01*
X78610000Y-69330000D02*
X78610000Y-60210000D01*
X84310000Y-69330000D02*
X84310000Y-68020000D01*
X94110000Y-69330000D02*
X78610000Y-69330000D01*
X79910000Y-68020000D02*
X79910000Y-61520000D01*
X84310000Y-68020000D02*
X79910000Y-68020000D01*
X88410000Y-68020000D02*
X88410000Y-69330000D01*
X88410000Y-68020000D02*
X88410000Y-68020000D01*
X92810000Y-68020000D02*
X88410000Y-68020000D01*
X79910000Y-61520000D02*
X92810000Y-61520000D01*
X92810000Y-61520000D02*
X92810000Y-68020000D01*
X78610000Y-60210000D02*
X94110000Y-60210000D01*
X94110000Y-60210000D02*
X94110000Y-69330000D01*
X43180000Y-103275000D02*
X43180000Y-104045000D01*
X44550000Y-104045000D02*
X41810000Y-104045000D01*
X41810000Y-104045000D02*
X41810000Y-110585000D01*
X44550000Y-110585000D02*
X44550000Y-104045000D01*
X41810000Y-110585000D02*
X44550000Y-110585000D01*
X43180000Y-111355000D02*
X43180000Y-110585000D01*
X110260000Y-115570000D02*
X111030000Y-115570000D01*
X111030000Y-114200000D02*
X111030000Y-116940000D01*
X111030000Y-116940000D02*
X117570000Y-116940000D01*
X117570000Y-114200000D02*
X111030000Y-114200000D01*
X117570000Y-116940000D02*
X117570000Y-114200000D01*
X118340000Y-115570000D02*
X117570000Y-115570000D01*
X64540000Y-60960000D02*
X65310000Y-60960000D01*
X65310000Y-59590000D02*
X65310000Y-62330000D01*
X65310000Y-62330000D02*
X71850000Y-62330000D01*
X71850000Y-59590000D02*
X65310000Y-59590000D01*
X71850000Y-62330000D02*
X71850000Y-59590000D01*
X72620000Y-60960000D02*
X71850000Y-60960000D01*
X72105000Y-97275000D02*
X68865000Y-97275000D01*
X72105000Y-97275000D02*
X72105000Y-102115000D01*
X68865000Y-97275000D02*
X68865000Y-102115000D01*
X72105000Y-102115000D02*
X68865000Y-102115000D01*
X133925000Y-147895000D02*
X135255000Y-147895000D01*
X133925000Y-149225000D02*
X133925000Y-147895000D01*
X133925000Y-150495000D02*
X133925000Y-150555000D01*
X133925000Y-150495000D02*
X136585000Y-150495000D01*
X133925000Y-150555000D02*
X136585000Y-150555000D01*
X136585000Y-150495000D02*
X136585000Y-150555000D01*
X93345000Y-126770000D02*
X93345000Y-127540000D01*
X94715000Y-127540000D02*
X91975000Y-127540000D01*
X91975000Y-127540000D02*
X91975000Y-134080000D01*
X94715000Y-134080000D02*
X94715000Y-127540000D01*
X91975000Y-134080000D02*
X94715000Y-134080000D01*
X93345000Y-134850000D02*
X93345000Y-134080000D01*
X55820000Y-133290000D02*
X57150000Y-133290000D01*
X55820000Y-134620000D02*
X55820000Y-133290000D01*
X55820000Y-135890000D02*
X55820000Y-135950000D01*
X55820000Y-135890000D02*
X58480000Y-135890000D01*
X55820000Y-135950000D02*
X58480000Y-135950000D01*
X58480000Y-135890000D02*
X58480000Y-135950000D01*
X56190000Y-88150000D02*
X56190000Y-89650000D01*
X57440000Y-92150000D02*
X61940000Y-92150000D01*
X61940000Y-85650000D02*
X57440000Y-85650000D01*
X63190000Y-89650000D02*
X63190000Y-88150000D01*
X35761000Y-145260000D02*
X50461000Y-145260000D01*
X35761000Y-154460000D02*
X35761000Y-145260000D01*
X44561000Y-154460000D02*
X35761000Y-154460000D01*
X49611000Y-145060000D02*
X50661000Y-145060000D01*
X50461000Y-145260000D02*
X50461000Y-147860000D01*
X50461000Y-151760000D02*
X50461000Y-154460000D01*
X50461000Y-154460000D02*
X48561000Y-154460000D01*
X50661000Y-146110000D02*
X50661000Y-145060000D01*
X63215000Y-129025000D02*
X59975000Y-129025000D01*
X63215000Y-129025000D02*
X63215000Y-133865000D01*
X59975000Y-129025000D02*
X59975000Y-133865000D01*
X63215000Y-133865000D02*
X59975000Y-133865000D01*
X43971000Y-115855500D02*
X44421000Y-115855500D01*
X44196000Y-115630500D02*
X44196000Y-116080500D01*
X44550000Y-116238500D02*
X44550000Y-119478500D01*
X44550000Y-116238500D02*
X49390000Y-116238500D01*
X44550000Y-119478500D02*
X49390000Y-119478500D01*
X49390000Y-116238500D02*
X49390000Y-119478500D01*
X63434000Y-143887380D02*
X63434000Y-144517380D01*
X63749000Y-144202380D02*
X63119000Y-144202380D01*
X64825000Y-147387621D02*
X58365000Y-147387621D01*
X64825000Y-147427621D02*
X58365000Y-147427621D01*
X64825000Y-147467621D02*
X58365000Y-147467621D01*
X64823000Y-147507621D02*
X58367000Y-147507621D01*
X64822000Y-147547621D02*
X58368000Y-147547621D01*
X64819000Y-147587621D02*
X58371000Y-147587621D01*
X64817000Y-147627621D02*
X62635000Y-147627621D01*
X60555000Y-147627621D02*
X58373000Y-147627621D01*
X64813000Y-147667621D02*
X62635000Y-147667621D01*
X60555000Y-147667621D02*
X58377000Y-147667621D01*
X64810000Y-147707621D02*
X62635000Y-147707621D01*
X60555000Y-147707621D02*
X58380000Y-147707621D01*
X64806000Y-147747621D02*
X62635000Y-147747621D01*
X60555000Y-147747621D02*
X58384000Y-147747621D01*
X64801000Y-147787621D02*
X62635000Y-147787621D01*
X60555000Y-147787621D02*
X58389000Y-147787621D01*
X64796000Y-147827621D02*
X62635000Y-147827621D01*
X60555000Y-147827621D02*
X58394000Y-147827621D01*
X64790000Y-147867621D02*
X62635000Y-147867621D01*
X60555000Y-147867621D02*
X58400000Y-147867621D01*
X64784000Y-147907621D02*
X62635000Y-147907621D01*
X60555000Y-147907621D02*
X58406000Y-147907621D01*
X64777000Y-147947621D02*
X62635000Y-147947621D01*
X60555000Y-147947621D02*
X58413000Y-147947621D01*
X64770000Y-147987621D02*
X62635000Y-147987621D01*
X60555000Y-147987621D02*
X58420000Y-147987621D01*
X64762000Y-148027621D02*
X62635000Y-148027621D01*
X60555000Y-148027621D02*
X58428000Y-148027621D01*
X64754000Y-148067621D02*
X62635000Y-148067621D01*
X60555000Y-148067621D02*
X58436000Y-148067621D01*
X64745000Y-148108621D02*
X62635000Y-148108621D01*
X60555000Y-148108621D02*
X58445000Y-148108621D01*
X64736000Y-148148621D02*
X62635000Y-148148621D01*
X60555000Y-148148621D02*
X58454000Y-148148621D01*
X64726000Y-148188621D02*
X62635000Y-148188621D01*
X60555000Y-148188621D02*
X58464000Y-148188621D01*
X64716000Y-148228621D02*
X62635000Y-148228621D01*
X60555000Y-148228621D02*
X58474000Y-148228621D01*
X64705000Y-148268621D02*
X62635000Y-148268621D01*
X60555000Y-148268621D02*
X58485000Y-148268621D01*
X64693000Y-148308621D02*
X62635000Y-148308621D01*
X60555000Y-148308621D02*
X58497000Y-148308621D01*
X64681000Y-148348621D02*
X62635000Y-148348621D01*
X60555000Y-148348621D02*
X58509000Y-148348621D01*
X64669000Y-148388621D02*
X62635000Y-148388621D01*
X60555000Y-148388621D02*
X58521000Y-148388621D01*
X64656000Y-148428621D02*
X62635000Y-148428621D01*
X60555000Y-148428621D02*
X58534000Y-148428621D01*
X64642000Y-148468621D02*
X62635000Y-148468621D01*
X60555000Y-148468621D02*
X58548000Y-148468621D01*
X64628000Y-148508621D02*
X62635000Y-148508621D01*
X60555000Y-148508621D02*
X58562000Y-148508621D01*
X64613000Y-148548621D02*
X62635000Y-148548621D01*
X60555000Y-148548621D02*
X58577000Y-148548621D01*
X64597000Y-148588621D02*
X62635000Y-148588621D01*
X60555000Y-148588621D02*
X58593000Y-148588621D01*
X64581000Y-148628621D02*
X62635000Y-148628621D01*
X60555000Y-148628621D02*
X58609000Y-148628621D01*
X64565000Y-148668621D02*
X62635000Y-148668621D01*
X60555000Y-148668621D02*
X58625000Y-148668621D01*
X64547000Y-148708621D02*
X62635000Y-148708621D01*
X60555000Y-148708621D02*
X58643000Y-148708621D01*
X64529000Y-148748621D02*
X62635000Y-148748621D01*
X60555000Y-148748621D02*
X58661000Y-148748621D01*
X64511000Y-148788621D02*
X62635000Y-148788621D01*
X60555000Y-148788621D02*
X58679000Y-148788621D01*
X64491000Y-148828621D02*
X62635000Y-148828621D01*
X60555000Y-148828621D02*
X58699000Y-148828621D01*
X64471000Y-148868621D02*
X62635000Y-148868621D01*
X60555000Y-148868621D02*
X58719000Y-148868621D01*
X64451000Y-148908621D02*
X62635000Y-148908621D01*
X60555000Y-148908621D02*
X58739000Y-148908621D01*
X64429000Y-148948621D02*
X62635000Y-148948621D01*
X60555000Y-148948621D02*
X58761000Y-148948621D01*
X64407000Y-148988621D02*
X62635000Y-148988621D01*
X60555000Y-148988621D02*
X58783000Y-148988621D01*
X64385000Y-149028621D02*
X62635000Y-149028621D01*
X60555000Y-149028621D02*
X58805000Y-149028621D01*
X64361000Y-149068621D02*
X62635000Y-149068621D01*
X60555000Y-149068621D02*
X58829000Y-149068621D01*
X64337000Y-149108621D02*
X62635000Y-149108621D01*
X60555000Y-149108621D02*
X58853000Y-149108621D01*
X64311000Y-149148621D02*
X62635000Y-149148621D01*
X60555000Y-149148621D02*
X58879000Y-149148621D01*
X64285000Y-149188621D02*
X62635000Y-149188621D01*
X60555000Y-149188621D02*
X58905000Y-149188621D01*
X64259000Y-149228621D02*
X62635000Y-149228621D01*
X60555000Y-149228621D02*
X58931000Y-149228621D01*
X64231000Y-149268621D02*
X62635000Y-149268621D01*
X60555000Y-149268621D02*
X58959000Y-149268621D01*
X64202000Y-149308621D02*
X62635000Y-149308621D01*
X60555000Y-149308621D02*
X58988000Y-149308621D01*
X64173000Y-149348621D02*
X62635000Y-149348621D01*
X60555000Y-149348621D02*
X59017000Y-149348621D01*
X64143000Y-149388621D02*
X62635000Y-149388621D01*
X60555000Y-149388621D02*
X59047000Y-149388621D01*
X64111000Y-149428621D02*
X62635000Y-149428621D01*
X60555000Y-149428621D02*
X59079000Y-149428621D01*
X64079000Y-149468621D02*
X62635000Y-149468621D01*
X60555000Y-149468621D02*
X59111000Y-149468621D01*
X64045000Y-149508621D02*
X62635000Y-149508621D01*
X60555000Y-149508621D02*
X59145000Y-149508621D01*
X64011000Y-149548621D02*
X62635000Y-149548621D01*
X60555000Y-149548621D02*
X59179000Y-149548621D01*
X63975000Y-149588621D02*
X62635000Y-149588621D01*
X60555000Y-149588621D02*
X59215000Y-149588621D01*
X63938000Y-149628621D02*
X62635000Y-149628621D01*
X60555000Y-149628621D02*
X59252000Y-149628621D01*
X63900000Y-149668621D02*
X62635000Y-149668621D01*
X60555000Y-149668621D02*
X59290000Y-149668621D01*
X63860000Y-149708621D02*
X59330000Y-149708621D01*
X63819000Y-149748621D02*
X59371000Y-149748621D01*
X63777000Y-149788621D02*
X59413000Y-149788621D01*
X63732000Y-149828621D02*
X59458000Y-149828621D01*
X63687000Y-149868621D02*
X59503000Y-149868621D01*
X63639000Y-149908621D02*
X59551000Y-149908621D01*
X63590000Y-149948621D02*
X59600000Y-149948621D01*
X63539000Y-149988621D02*
X59651000Y-149988621D01*
X63485000Y-150028621D02*
X59705000Y-150028621D01*
X63429000Y-150068621D02*
X59761000Y-150068621D01*
X63371000Y-150108621D02*
X59819000Y-150108621D01*
X63309000Y-150148621D02*
X59881000Y-150148621D01*
X63245000Y-150188621D02*
X59945000Y-150188621D01*
X63176000Y-150228621D02*
X60014000Y-150228621D01*
X63104000Y-150268621D02*
X60086000Y-150268621D01*
X63027000Y-150308621D02*
X60163000Y-150308621D01*
X62945000Y-150348621D02*
X60245000Y-150348621D01*
X62857000Y-150388621D02*
X60333000Y-150388621D01*
X62760000Y-150428621D02*
X60430000Y-150428621D01*
X62654000Y-150468621D02*
X60536000Y-150468621D01*
X62535000Y-150508621D02*
X60655000Y-150508621D01*
X62397000Y-150548621D02*
X60793000Y-150548621D01*
X62228000Y-150588621D02*
X60962000Y-150588621D01*
X61997000Y-150628621D02*
X61193000Y-150628621D01*
X64865000Y-147387621D02*
G75*
G03*
X64865000Y-147387621I-3270000J0D01*
G01*
X44530000Y-119919000D02*
X44530000Y-123159000D01*
X44530000Y-119919000D02*
X49370000Y-119919000D01*
X44530000Y-123159000D02*
X49370000Y-123159000D01*
X49370000Y-119919000D02*
X49370000Y-123159000D01*
X60340000Y-107910000D02*
X60340000Y-101660000D01*
X65390000Y-107910000D02*
X65390000Y-101660000D01*
X60340000Y-107910000D02*
G75*
G03*
X65390000Y-107910000I2525000J0D01*
G01*
X65390000Y-101660000D02*
G75*
G03*
X60340000Y-101660000I-2525000J0D01*
G01*
X128615000Y-60359000D02*
X128615000Y-60515000D01*
X128615000Y-62675000D02*
X128615000Y-62831000D01*
X131847334Y-60516392D02*
G75*
G03*
X128615001Y-60359485I-1672334J-1078608D01*
G01*
X131216129Y-60515164D02*
G75*
G03*
X129134040Y-60515001I-1041129J-1079836D01*
G01*
X129134040Y-62674999D02*
G75*
G03*
X131216129Y-62674836I1040960J1079999D01*
G01*
X128615001Y-62830515D02*
G75*
G03*
X131847334Y-62673608I1559999J1235515D01*
G01*
X72965000Y-74175000D02*
X72965000Y-125215000D01*
X72965000Y-125215000D02*
X90865000Y-125215000D01*
X75455000Y-74235000D02*
X75455000Y-125155000D01*
X75455000Y-125155000D02*
X88375000Y-125155000D01*
X80915000Y-74235000D02*
X75455000Y-74235000D01*
X88375000Y-74235000D02*
X82915000Y-74235000D01*
X88375000Y-125155000D02*
X88375000Y-74235000D01*
X90865000Y-74175000D02*
X72965000Y-74175000D01*
X90865000Y-125215000D02*
X90865000Y-74175000D01*
X80915000Y-74235000D02*
G75*
G03*
X82915000Y-74235000I1000000J0D01*
G01*
X57479759Y-70551000D02*
X58109759Y-70551000D01*
X57794759Y-70236000D02*
X57794759Y-70866000D01*
X60980000Y-69160000D02*
X60980000Y-75620000D01*
X61020000Y-69160000D02*
X61020000Y-75620000D01*
X61060000Y-69160000D02*
X61060000Y-75620000D01*
X61100000Y-69162000D02*
X61100000Y-75618000D01*
X61140000Y-69163000D02*
X61140000Y-75617000D01*
X61180000Y-69166000D02*
X61180000Y-75614000D01*
X61220000Y-69168000D02*
X61220000Y-71350000D01*
X61220000Y-73430000D02*
X61220000Y-75612000D01*
X61260000Y-69172000D02*
X61260000Y-71350000D01*
X61260000Y-73430000D02*
X61260000Y-75608000D01*
X61300000Y-69175000D02*
X61300000Y-71350000D01*
X61300000Y-73430000D02*
X61300000Y-75605000D01*
X61340000Y-69179000D02*
X61340000Y-71350000D01*
X61340000Y-73430000D02*
X61340000Y-75601000D01*
X61380000Y-69184000D02*
X61380000Y-71350000D01*
X61380000Y-73430000D02*
X61380000Y-75596000D01*
X61420000Y-69189000D02*
X61420000Y-71350000D01*
X61420000Y-73430000D02*
X61420000Y-75591000D01*
X61460000Y-69195000D02*
X61460000Y-71350000D01*
X61460000Y-73430000D02*
X61460000Y-75585000D01*
X61500000Y-69201000D02*
X61500000Y-71350000D01*
X61500000Y-73430000D02*
X61500000Y-75579000D01*
X61540000Y-69208000D02*
X61540000Y-71350000D01*
X61540000Y-73430000D02*
X61540000Y-75572000D01*
X61580000Y-69215000D02*
X61580000Y-71350000D01*
X61580000Y-73430000D02*
X61580000Y-75565000D01*
X61620000Y-69223000D02*
X61620000Y-71350000D01*
X61620000Y-73430000D02*
X61620000Y-75557000D01*
X61660000Y-69231000D02*
X61660000Y-71350000D01*
X61660000Y-73430000D02*
X61660000Y-75549000D01*
X61701000Y-69240000D02*
X61701000Y-71350000D01*
X61701000Y-73430000D02*
X61701000Y-75540000D01*
X61741000Y-69249000D02*
X61741000Y-71350000D01*
X61741000Y-73430000D02*
X61741000Y-75531000D01*
X61781000Y-69259000D02*
X61781000Y-71350000D01*
X61781000Y-73430000D02*
X61781000Y-75521000D01*
X61821000Y-69269000D02*
X61821000Y-71350000D01*
X61821000Y-73430000D02*
X61821000Y-75511000D01*
X61861000Y-69280000D02*
X61861000Y-71350000D01*
X61861000Y-73430000D02*
X61861000Y-75500000D01*
X61901000Y-69292000D02*
X61901000Y-71350000D01*
X61901000Y-73430000D02*
X61901000Y-75488000D01*
X61941000Y-69304000D02*
X61941000Y-71350000D01*
X61941000Y-73430000D02*
X61941000Y-75476000D01*
X61981000Y-69316000D02*
X61981000Y-71350000D01*
X61981000Y-73430000D02*
X61981000Y-75464000D01*
X62021000Y-69329000D02*
X62021000Y-71350000D01*
X62021000Y-73430000D02*
X62021000Y-75451000D01*
X62061000Y-69343000D02*
X62061000Y-71350000D01*
X62061000Y-73430000D02*
X62061000Y-75437000D01*
X62101000Y-69357000D02*
X62101000Y-71350000D01*
X62101000Y-73430000D02*
X62101000Y-75423000D01*
X62141000Y-69372000D02*
X62141000Y-71350000D01*
X62141000Y-73430000D02*
X62141000Y-75408000D01*
X62181000Y-69388000D02*
X62181000Y-71350000D01*
X62181000Y-73430000D02*
X62181000Y-75392000D01*
X62221000Y-69404000D02*
X62221000Y-71350000D01*
X62221000Y-73430000D02*
X62221000Y-75376000D01*
X62261000Y-69420000D02*
X62261000Y-71350000D01*
X62261000Y-73430000D02*
X62261000Y-75360000D01*
X62301000Y-69438000D02*
X62301000Y-71350000D01*
X62301000Y-73430000D02*
X62301000Y-75342000D01*
X62341000Y-69456000D02*
X62341000Y-71350000D01*
X62341000Y-73430000D02*
X62341000Y-75324000D01*
X62381000Y-69474000D02*
X62381000Y-71350000D01*
X62381000Y-73430000D02*
X62381000Y-75306000D01*
X62421000Y-69494000D02*
X62421000Y-71350000D01*
X62421000Y-73430000D02*
X62421000Y-75286000D01*
X62461000Y-69514000D02*
X62461000Y-71350000D01*
X62461000Y-73430000D02*
X62461000Y-75266000D01*
X62501000Y-69534000D02*
X62501000Y-71350000D01*
X62501000Y-73430000D02*
X62501000Y-75246000D01*
X62541000Y-69556000D02*
X62541000Y-71350000D01*
X62541000Y-73430000D02*
X62541000Y-75224000D01*
X62581000Y-69578000D02*
X62581000Y-71350000D01*
X62581000Y-73430000D02*
X62581000Y-75202000D01*
X62621000Y-69600000D02*
X62621000Y-71350000D01*
X62621000Y-73430000D02*
X62621000Y-75180000D01*
X62661000Y-69624000D02*
X62661000Y-71350000D01*
X62661000Y-73430000D02*
X62661000Y-75156000D01*
X62701000Y-69648000D02*
X62701000Y-71350000D01*
X62701000Y-73430000D02*
X62701000Y-75132000D01*
X62741000Y-69674000D02*
X62741000Y-71350000D01*
X62741000Y-73430000D02*
X62741000Y-75106000D01*
X62781000Y-69700000D02*
X62781000Y-71350000D01*
X62781000Y-73430000D02*
X62781000Y-75080000D01*
X62821000Y-69726000D02*
X62821000Y-71350000D01*
X62821000Y-73430000D02*
X62821000Y-75054000D01*
X62861000Y-69754000D02*
X62861000Y-71350000D01*
X62861000Y-73430000D02*
X62861000Y-75026000D01*
X62901000Y-69783000D02*
X62901000Y-71350000D01*
X62901000Y-73430000D02*
X62901000Y-74997000D01*
X62941000Y-69812000D02*
X62941000Y-71350000D01*
X62941000Y-73430000D02*
X62941000Y-74968000D01*
X62981000Y-69842000D02*
X62981000Y-71350000D01*
X62981000Y-73430000D02*
X62981000Y-74938000D01*
X63021000Y-69874000D02*
X63021000Y-71350000D01*
X63021000Y-73430000D02*
X63021000Y-74906000D01*
X63061000Y-69906000D02*
X63061000Y-71350000D01*
X63061000Y-73430000D02*
X63061000Y-74874000D01*
X63101000Y-69940000D02*
X63101000Y-71350000D01*
X63101000Y-73430000D02*
X63101000Y-74840000D01*
X63141000Y-69974000D02*
X63141000Y-71350000D01*
X63141000Y-73430000D02*
X63141000Y-74806000D01*
X63181000Y-70010000D02*
X63181000Y-71350000D01*
X63181000Y-73430000D02*
X63181000Y-74770000D01*
X63221000Y-70047000D02*
X63221000Y-71350000D01*
X63221000Y-73430000D02*
X63221000Y-74733000D01*
X63261000Y-70085000D02*
X63261000Y-71350000D01*
X63261000Y-73430000D02*
X63261000Y-74695000D01*
X63301000Y-70125000D02*
X63301000Y-74655000D01*
X63341000Y-70166000D02*
X63341000Y-74614000D01*
X63381000Y-70208000D02*
X63381000Y-74572000D01*
X63421000Y-70253000D02*
X63421000Y-74527000D01*
X63461000Y-70298000D02*
X63461000Y-74482000D01*
X63501000Y-70346000D02*
X63501000Y-74434000D01*
X63541000Y-70395000D02*
X63541000Y-74385000D01*
X63581000Y-70446000D02*
X63581000Y-74334000D01*
X63621000Y-70500000D02*
X63621000Y-74280000D01*
X63661000Y-70556000D02*
X63661000Y-74224000D01*
X63701000Y-70614000D02*
X63701000Y-74166000D01*
X63741000Y-70676000D02*
X63741000Y-74104000D01*
X63781000Y-70740000D02*
X63781000Y-74040000D01*
X63821000Y-70809000D02*
X63821000Y-73971000D01*
X63861000Y-70881000D02*
X63861000Y-73899000D01*
X63901000Y-70958000D02*
X63901000Y-73822000D01*
X63941000Y-71040000D02*
X63941000Y-73740000D01*
X63981000Y-71128000D02*
X63981000Y-73652000D01*
X64021000Y-71225000D02*
X64021000Y-73555000D01*
X64061000Y-71331000D02*
X64061000Y-73449000D01*
X64101000Y-71450000D02*
X64101000Y-73330000D01*
X64141000Y-71588000D02*
X64141000Y-73192000D01*
X64181000Y-71757000D02*
X64181000Y-73023000D01*
X64221000Y-71988000D02*
X64221000Y-72792000D01*
X64250000Y-72390000D02*
G75*
G03*
X64250000Y-72390000I-3270000J0D01*
G01*
X43120000Y-71000000D02*
X43120000Y-89020000D01*
X43120000Y-89020000D02*
X53400000Y-89020000D01*
X45610000Y-71060000D02*
X45610000Y-88960000D01*
X45610000Y-88960000D02*
X50910000Y-88960000D01*
X47260000Y-71060000D02*
X45610000Y-71060000D01*
X50910000Y-71060000D02*
X49260000Y-71060000D01*
X50910000Y-88960000D02*
X50910000Y-71060000D01*
X53400000Y-71000000D02*
X43120000Y-71000000D01*
X53400000Y-89020000D02*
X53400000Y-71000000D01*
X47260000Y-71060000D02*
G75*
G03*
X49260000Y-71060000I1000000J0D01*
G01*
X59995000Y-126225000D02*
X63235000Y-126225000D01*
X59995000Y-126225000D02*
X59995000Y-121385000D01*
X63235000Y-126225000D02*
X63235000Y-121385000D01*
X59995000Y-121385000D02*
X63235000Y-121385000D01*
X83415000Y-129540000D02*
X82645000Y-129540000D01*
X82645000Y-130910000D02*
X82645000Y-128170000D01*
X82645000Y-128170000D02*
X76105000Y-128170000D01*
X76105000Y-130910000D02*
X82645000Y-130910000D01*
X76105000Y-128170000D02*
X76105000Y-130910000D01*
X75335000Y-129540000D02*
X76105000Y-129540000D01*
X55950000Y-128975000D02*
X58350000Y-128975000D01*
X55950000Y-131375000D02*
X55950000Y-128975000D01*
X58350000Y-128975000D02*
X58350000Y-131375000D01*
X58350000Y-131375000D02*
X55950000Y-131375000D01*
X60265000Y-155635000D02*
X60265000Y-154305000D01*
X61595000Y-155635000D02*
X60265000Y-155635000D01*
X62865000Y-155635000D02*
X62925000Y-155635000D01*
X62865000Y-155635000D02*
X62865000Y-152975000D01*
X62925000Y-155635000D02*
X62925000Y-152975000D01*
X62865000Y-152975000D02*
X62925000Y-152975000D01*
X104370000Y-119380000D02*
X103720000Y-119380000D01*
X103720000Y-120500000D02*
X103720000Y-118260000D01*
X103720000Y-118260000D02*
X99480000Y-118260000D01*
X103120000Y-120500000D02*
X103120000Y-118260000D01*
X103000000Y-120500000D02*
X103000000Y-118260000D01*
X102880000Y-120500000D02*
X102880000Y-118260000D01*
X99480000Y-120500000D02*
X103720000Y-120500000D01*
X99480000Y-118260000D02*
X99480000Y-120500000D01*
X98830000Y-119380000D02*
X99480000Y-119380000D01*
X45810000Y-66965000D02*
X45810000Y-70205000D01*
X45810000Y-66965000D02*
X50650000Y-66965000D01*
X45810000Y-70205000D02*
X50650000Y-70205000D01*
X50650000Y-66965000D02*
X50650000Y-70205000D01*
X123535000Y-60359000D02*
X123535000Y-60515000D01*
X123535000Y-62675000D02*
X123535000Y-62831000D01*
X126767334Y-60516392D02*
G75*
G03*
X123535001Y-60359485I-1672334J-1078608D01*
G01*
X126136129Y-60515164D02*
G75*
G03*
X124054040Y-60515001I-1041129J-1079836D01*
G01*
X124054040Y-62674999D02*
G75*
G03*
X126136129Y-62674836I1040960J1079999D01*
G01*
X123535001Y-62830515D02*
G75*
G03*
X126767334Y-62673608I1559999J1235515D01*
G01*
X60475000Y-62077000D02*
X60475000Y-61177000D01*
X60475000Y-58477000D02*
X60475000Y-55747000D01*
X60475000Y-55747000D02*
X51285000Y-55747000D01*
X60355000Y-65157000D02*
X51405000Y-65157000D01*
X51285000Y-62077000D02*
X51285000Y-61177000D01*
X51285000Y-58477000D02*
X51285000Y-55747000D01*
X106575000Y-141660000D02*
X102975000Y-141660000D01*
X104775000Y-146109999D02*
G75*
G03*
X107131399Y-144608807I0J2599999D01*
G01*
X107099183Y-142387205D02*
G75*
G03*
X106574999Y-141660001I-2324183J-1122795D01*
G01*
X102418600Y-144608807D02*
G75*
G03*
X104775000Y-146110000I2356400J1098807D01*
G01*
X102975001Y-141660001D02*
G75*
G03*
X102450817Y-142387205I1799999J-1849999D01*
G01*
X91225000Y-135850000D02*
X86584000Y-135850000D01*
X91225000Y-135850000D02*
X91225000Y-146090000D01*
X89715000Y-135850000D02*
X89715000Y-146090000D01*
X86584000Y-135850000D02*
X86584000Y-146090000D01*
X91225000Y-139120000D02*
X89715000Y-139120000D01*
X91225000Y-142821000D02*
X89715000Y-142821000D01*
X91225000Y-146090000D02*
X86584000Y-146090000D01*
X108815000Y-139065000D02*
X108045000Y-139065000D01*
X108045000Y-140435000D02*
X108045000Y-137695000D01*
X108045000Y-137695000D02*
X101505000Y-137695000D01*
X101505000Y-140435000D02*
X108045000Y-140435000D01*
X101505000Y-137695000D02*
X101505000Y-140435000D01*
X100735000Y-139065000D02*
X101505000Y-139065000D01*
X102810000Y-155635000D02*
X102810000Y-154305000D01*
X104140000Y-155635000D02*
X102810000Y-155635000D01*
X105410000Y-155635000D02*
X105470000Y-155635000D01*
X105410000Y-155635000D02*
X105410000Y-152975000D01*
X105470000Y-155635000D02*
X105470000Y-152975000D01*
X105410000Y-152975000D02*
X105470000Y-152975000D01*
X97790000Y-126770000D02*
X97790000Y-127540000D01*
X99160000Y-127540000D02*
X96420000Y-127540000D01*
X96420000Y-127540000D02*
X96420000Y-134080000D01*
X99160000Y-134080000D02*
X99160000Y-127540000D01*
X96420000Y-134080000D02*
X99160000Y-134080000D01*
X97790000Y-134850000D02*
X97790000Y-134080000D01*
X133690000Y-60359000D02*
X133690000Y-60515000D01*
X133690000Y-62675000D02*
X133690000Y-62831000D01*
X136922334Y-60516392D02*
G75*
G03*
X133690001Y-60359485I-1672334J-1078608D01*
G01*
X136291129Y-60515164D02*
G75*
G03*
X134209040Y-60515001I-1041129J-1079836D01*
G01*
X134209040Y-62674999D02*
G75*
G03*
X136291129Y-62674836I1040960J1079999D01*
G01*
X133690001Y-62830515D02*
G75*
G03*
X136922334Y-62673608I1559999J1235515D01*
G01*
%LPC*%
D12*
X74295000Y-133350000D03*
D13*
X84455000Y-133350000D03*
D14*
X57150000Y-154305000D03*
D12*
X84455000Y-149860000D03*
D13*
X94615000Y-149860000D03*
D15*
X105410000Y-116205000D03*
D13*
X97790000Y-116205000D03*
D15*
X71765000Y-143520000D03*
D13*
X71765000Y-146060000D03*
X71765000Y-148600000D03*
X71765000Y-151140000D03*
X79385000Y-151140000D03*
X79385000Y-148600000D03*
X79385000Y-146060000D03*
X79385000Y-143520000D03*
D12*
X63500000Y-64770000D03*
D13*
X73660000Y-64770000D03*
D16*
X106680000Y-133350000D03*
D17*
X104140000Y-133350000D03*
X101600000Y-133350000D03*
D18*
X57150000Y-120650000D03*
D15*
X105410000Y-122555000D03*
D13*
X97790000Y-122555000D03*
D12*
X55245000Y-95250000D03*
D13*
X65405000Y-95250000D03*
D19*
X125891500Y-75525000D03*
X125891500Y-78025000D03*
D20*
X58420000Y-140335000D03*
D21*
X43180000Y-140335000D03*
D22*
X104140000Y-75565000D03*
D23*
X104140000Y-78105000D03*
X104140000Y-80645000D03*
X104140000Y-83185000D03*
X104140000Y-85725000D03*
X104140000Y-88265000D03*
X104140000Y-90805000D03*
X104140000Y-93345000D03*
X104140000Y-95885000D03*
X104140000Y-98425000D03*
X104140000Y-100965000D03*
X104140000Y-103505000D03*
X119380000Y-103505000D03*
X119380000Y-100965000D03*
X119380000Y-98425000D03*
X119380000Y-95885000D03*
X119380000Y-93345000D03*
X119380000Y-90805000D03*
X119380000Y-88265000D03*
X119380000Y-85725000D03*
X119380000Y-83185000D03*
X119380000Y-80645000D03*
X119380000Y-78105000D03*
X119380000Y-75565000D03*
D12*
X135890000Y-71120000D03*
D13*
X125730000Y-71120000D03*
D12*
X109220000Y-123190000D03*
D13*
X119380000Y-123190000D03*
D15*
X43190000Y-125105000D03*
D13*
X43190000Y-127645000D03*
X43190000Y-130185000D03*
X43190000Y-132725000D03*
X50810000Y-132725000D03*
X50810000Y-130185000D03*
X50810000Y-127645000D03*
X50810000Y-125105000D03*
D19*
X57277000Y-107335000D03*
X57277000Y-109835000D03*
D12*
X120015000Y-61595000D03*
D13*
X109855000Y-61595000D03*
D19*
X76835000Y-139700000D03*
X74335000Y-139700000D03*
D12*
X135890000Y-67310000D03*
D13*
X125730000Y-67310000D03*
D14*
X99695000Y-154305000D03*
D12*
X94615000Y-153670000D03*
D13*
X84455000Y-153670000D03*
D12*
X109220000Y-119380000D03*
D13*
X119380000Y-119380000D03*
D18*
X129540000Y-87630000D03*
D24*
X132080000Y-87630000D03*
X134620000Y-87630000D03*
D14*
X57150000Y-125095000D03*
D12*
X99695000Y-149860000D03*
D13*
X109855000Y-149860000D03*
D19*
X57277000Y-102285000D03*
X57277000Y-99785000D03*
D14*
X135255000Y-144780000D03*
D19*
X93345000Y-100945000D03*
X93345000Y-98445000D03*
X55880000Y-80050000D03*
X55880000Y-77550000D03*
D25*
X83820000Y-66040000D03*
D26*
X83820000Y-63500000D03*
X86360000Y-66040000D03*
X86360000Y-63500000D03*
X88900000Y-66040000D03*
X88900000Y-63500000D03*
D12*
X43180000Y-102235000D03*
D13*
X43180000Y-112395000D03*
D12*
X109220000Y-115570000D03*
D13*
X119380000Y-115570000D03*
D12*
X63500000Y-60960000D03*
D13*
X73660000Y-60960000D03*
D19*
X70485000Y-98445000D03*
X70485000Y-100945000D03*
D18*
X135255000Y-149225000D03*
D12*
X93345000Y-125730000D03*
D13*
X93345000Y-135890000D03*
D18*
X57150000Y-134620000D03*
D27*
X56440000Y-86650000D03*
X62940000Y-86650000D03*
X56440000Y-91150000D03*
X62940000Y-91150000D03*
D28*
X49561000Y-149860000D03*
D29*
X43561000Y-149860000D03*
D30*
X46561000Y-154560000D03*
D19*
X61595000Y-130195000D03*
X61595000Y-132695000D03*
X45720000Y-117858500D03*
X48220000Y-117858500D03*
D15*
X61595000Y-146137621D03*
D12*
X61595000Y-148637621D03*
D19*
X45700000Y-121539000D03*
X48200000Y-121539000D03*
D17*
X62865000Y-107225000D03*
X62865000Y-102345000D03*
D31*
X128905000Y-61595000D03*
D32*
X131445000Y-61595000D03*
D15*
X74295000Y-75565000D03*
D13*
X74295000Y-78105000D03*
X74295000Y-80645000D03*
X74295000Y-83185000D03*
X74295000Y-85725000D03*
X74295000Y-88265000D03*
X74295000Y-90805000D03*
X74295000Y-93345000D03*
X74295000Y-95885000D03*
X74295000Y-98425000D03*
X74295000Y-100965000D03*
X74295000Y-103505000D03*
X74295000Y-106045000D03*
X74295000Y-108585000D03*
X74295000Y-111125000D03*
X74295000Y-113665000D03*
X74295000Y-116205000D03*
X74295000Y-118745000D03*
X74295000Y-121285000D03*
X74295000Y-123825000D03*
X89535000Y-123825000D03*
X89535000Y-121285000D03*
X89535000Y-118745000D03*
X89535000Y-116205000D03*
X89535000Y-113665000D03*
X89535000Y-111125000D03*
X89535000Y-108585000D03*
X89535000Y-106045000D03*
X89535000Y-103505000D03*
X89535000Y-100965000D03*
X89535000Y-98425000D03*
X89535000Y-95885000D03*
X89535000Y-93345000D03*
X89535000Y-90805000D03*
X89535000Y-88265000D03*
X89535000Y-85725000D03*
X89535000Y-83185000D03*
X89535000Y-80645000D03*
X89535000Y-78105000D03*
X89535000Y-75565000D03*
D15*
X59730000Y-72390000D03*
D12*
X62230000Y-72390000D03*
D15*
X44450000Y-72390000D03*
D13*
X44450000Y-74930000D03*
X44450000Y-77470000D03*
X44450000Y-80010000D03*
X44450000Y-82550000D03*
X44450000Y-85090000D03*
X44450000Y-87630000D03*
X52070000Y-87630000D03*
X52070000Y-85090000D03*
X52070000Y-82550000D03*
X52070000Y-80010000D03*
X52070000Y-77470000D03*
X52070000Y-74930000D03*
X52070000Y-72390000D03*
D19*
X61615000Y-125055000D03*
X61615000Y-122555000D03*
D12*
X84455000Y-129540000D03*
D13*
X74295000Y-129540000D03*
D14*
X57150000Y-130175000D03*
D18*
X61595000Y-154305000D03*
D15*
X105410000Y-119380000D03*
D13*
X97790000Y-119380000D03*
D19*
X46980000Y-68585000D03*
X49480000Y-68585000D03*
D31*
X123825000Y-61595000D03*
D32*
X126365000Y-61595000D03*
D33*
X58855000Y-64477000D03*
X58005000Y-64477000D03*
X57155000Y-64477000D03*
X56305000Y-64477000D03*
X55455000Y-64477000D03*
X54605000Y-64477000D03*
X53755000Y-64477000D03*
X52905000Y-64477000D03*
X52905000Y-63127000D03*
X53755000Y-63127000D03*
X54605000Y-63127000D03*
X55455000Y-63127000D03*
X56305000Y-63127000D03*
X57155000Y-63127000D03*
X58005000Y-63127000D03*
X58855000Y-63127000D03*
D34*
X60205000Y-63497000D03*
D35*
X60205000Y-60117000D03*
D34*
X51555000Y-63497000D03*
D35*
X51555000Y-60117000D03*
D16*
X107315000Y-143510000D03*
D17*
X104775000Y-143510000D03*
X102235000Y-143510000D03*
D36*
X87955000Y-138430000D03*
D37*
X87955000Y-140970000D03*
X87955000Y-143510000D03*
D12*
X109855000Y-139065000D03*
D13*
X99695000Y-139065000D03*
D18*
X104140000Y-154305000D03*
D12*
X97790000Y-125730000D03*
D13*
X97790000Y-135890000D03*
D31*
X133980000Y-61595000D03*
D32*
X136520000Y-61595000D03*
%LPD*%
M02*
