%TF.GenerationSoftware,KiCad,Pcbnew,8.0.3*%
%TF.CreationDate,2024-07-22T04:31:29+02:00*%
%TF.ProjectId,EPROM-programmer,4550524f-4d2d-4707-926f-6772616d6d65,rev?*%
%TF.SameCoordinates,Original*%
%TF.FileFunction,Drillmap*%
%TF.FilePolarity,Positive*%
%FSLAX45Y45*%
G04 Gerber Fmt 4.5, Leading zero omitted, Abs format (unit mm)*
G04 Created by KiCad (PCBNEW 8.0.3) date 2024-07-22 04:31:29*
%MOMM*%
%LPD*%
G01*
G04 APERTURE LIST*
%ADD10C,0.100000*%
%ADD11C,0.200000*%
%ADD12C,0.350000*%
G04 APERTURE END LIST*
D10*
X15875000Y-3810000D02*
X15875000Y-17780000D01*
X15875000Y-17780000D02*
X1905000Y-17780000D01*
X1905000Y-17780000D02*
X1905000Y-3810000D01*
X1905000Y-3810000D02*
X15875000Y-3810000D01*
D11*
D12*
X7210000Y-4498600D02*
X7560000Y-4848600D01*
X7560000Y-4498600D02*
X7210000Y-4848600D01*
D11*
X2160777Y-18096484D02*
X2160777Y-17896484D01*
X2160777Y-17896484D02*
X2208396Y-17896484D01*
X2208396Y-17896484D02*
X2236967Y-17906008D01*
X2236967Y-17906008D02*
X2256015Y-17925055D01*
X2256015Y-17925055D02*
X2265539Y-17944103D01*
X2265539Y-17944103D02*
X2275063Y-17982198D01*
X2275063Y-17982198D02*
X2275063Y-18010770D01*
X2275063Y-18010770D02*
X2265539Y-18048865D01*
X2265539Y-18048865D02*
X2256015Y-18067912D01*
X2256015Y-18067912D02*
X2236967Y-18086960D01*
X2236967Y-18086960D02*
X2208396Y-18096484D01*
X2208396Y-18096484D02*
X2160777Y-18096484D01*
X2360777Y-18096484D02*
X2360777Y-17963150D01*
X2360777Y-18001246D02*
X2370301Y-17982198D01*
X2370301Y-17982198D02*
X2379824Y-17972674D01*
X2379824Y-17972674D02*
X2398872Y-17963150D01*
X2398872Y-17963150D02*
X2417920Y-17963150D01*
X2484586Y-18096484D02*
X2484586Y-17963150D01*
X2484586Y-17896484D02*
X2475063Y-17906008D01*
X2475063Y-17906008D02*
X2484586Y-17915531D01*
X2484586Y-17915531D02*
X2494110Y-17906008D01*
X2494110Y-17906008D02*
X2484586Y-17896484D01*
X2484586Y-17896484D02*
X2484586Y-17915531D01*
X2608396Y-18096484D02*
X2589348Y-18086960D01*
X2589348Y-18086960D02*
X2579824Y-18067912D01*
X2579824Y-18067912D02*
X2579824Y-17896484D01*
X2713158Y-18096484D02*
X2694110Y-18086960D01*
X2694110Y-18086960D02*
X2684586Y-18067912D01*
X2684586Y-18067912D02*
X2684586Y-17896484D01*
X2941729Y-18096484D02*
X2941729Y-17896484D01*
X2941729Y-17896484D02*
X3008396Y-18039341D01*
X3008396Y-18039341D02*
X3075062Y-17896484D01*
X3075062Y-17896484D02*
X3075062Y-18096484D01*
X3256015Y-18096484D02*
X3256015Y-17991722D01*
X3256015Y-17991722D02*
X3246491Y-17972674D01*
X3246491Y-17972674D02*
X3227443Y-17963150D01*
X3227443Y-17963150D02*
X3189348Y-17963150D01*
X3189348Y-17963150D02*
X3170301Y-17972674D01*
X3256015Y-18086960D02*
X3236967Y-18096484D01*
X3236967Y-18096484D02*
X3189348Y-18096484D01*
X3189348Y-18096484D02*
X3170301Y-18086960D01*
X3170301Y-18086960D02*
X3160777Y-18067912D01*
X3160777Y-18067912D02*
X3160777Y-18048865D01*
X3160777Y-18048865D02*
X3170301Y-18029817D01*
X3170301Y-18029817D02*
X3189348Y-18020293D01*
X3189348Y-18020293D02*
X3236967Y-18020293D01*
X3236967Y-18020293D02*
X3256015Y-18010770D01*
X3351253Y-17963150D02*
X3351253Y-18163150D01*
X3351253Y-17972674D02*
X3370301Y-17963150D01*
X3370301Y-17963150D02*
X3408396Y-17963150D01*
X3408396Y-17963150D02*
X3427443Y-17972674D01*
X3427443Y-17972674D02*
X3436967Y-17982198D01*
X3436967Y-17982198D02*
X3446491Y-18001246D01*
X3446491Y-18001246D02*
X3446491Y-18058389D01*
X3446491Y-18058389D02*
X3436967Y-18077436D01*
X3436967Y-18077436D02*
X3427443Y-18086960D01*
X3427443Y-18086960D02*
X3408396Y-18096484D01*
X3408396Y-18096484D02*
X3370301Y-18096484D01*
X3370301Y-18096484D02*
X3351253Y-18086960D01*
X3532205Y-18077436D02*
X3541729Y-18086960D01*
X3541729Y-18086960D02*
X3532205Y-18096484D01*
X3532205Y-18096484D02*
X3522682Y-18086960D01*
X3522682Y-18086960D02*
X3532205Y-18077436D01*
X3532205Y-18077436D02*
X3532205Y-18096484D01*
X3532205Y-17972674D02*
X3541729Y-17982198D01*
X3541729Y-17982198D02*
X3532205Y-17991722D01*
X3532205Y-17991722D02*
X3522682Y-17982198D01*
X3522682Y-17982198D02*
X3532205Y-17972674D01*
X3532205Y-17972674D02*
X3532205Y-17991722D01*
X1700000Y-18325000D02*
X1900000Y-18525000D01*
X1900000Y-18325000D02*
X1700000Y-18525000D01*
X2141729Y-18316484D02*
X2265539Y-18316484D01*
X2265539Y-18316484D02*
X2198872Y-18392674D01*
X2198872Y-18392674D02*
X2227444Y-18392674D01*
X2227444Y-18392674D02*
X2246491Y-18402198D01*
X2246491Y-18402198D02*
X2256015Y-18411722D01*
X2256015Y-18411722D02*
X2265539Y-18430770D01*
X2265539Y-18430770D02*
X2265539Y-18478389D01*
X2265539Y-18478389D02*
X2256015Y-18497436D01*
X2256015Y-18497436D02*
X2246491Y-18506960D01*
X2246491Y-18506960D02*
X2227444Y-18516484D01*
X2227444Y-18516484D02*
X2170301Y-18516484D01*
X2170301Y-18516484D02*
X2151253Y-18506960D01*
X2151253Y-18506960D02*
X2141729Y-18497436D01*
X2351253Y-18497436D02*
X2360777Y-18506960D01*
X2360777Y-18506960D02*
X2351253Y-18516484D01*
X2351253Y-18516484D02*
X2341729Y-18506960D01*
X2341729Y-18506960D02*
X2351253Y-18497436D01*
X2351253Y-18497436D02*
X2351253Y-18516484D01*
X2541729Y-18316484D02*
X2446491Y-18316484D01*
X2446491Y-18316484D02*
X2436967Y-18411722D01*
X2436967Y-18411722D02*
X2446491Y-18402198D01*
X2446491Y-18402198D02*
X2465539Y-18392674D01*
X2465539Y-18392674D02*
X2513158Y-18392674D01*
X2513158Y-18392674D02*
X2532205Y-18402198D01*
X2532205Y-18402198D02*
X2541729Y-18411722D01*
X2541729Y-18411722D02*
X2551253Y-18430770D01*
X2551253Y-18430770D02*
X2551253Y-18478389D01*
X2551253Y-18478389D02*
X2541729Y-18497436D01*
X2541729Y-18497436D02*
X2532205Y-18506960D01*
X2532205Y-18506960D02*
X2513158Y-18516484D01*
X2513158Y-18516484D02*
X2465539Y-18516484D01*
X2465539Y-18516484D02*
X2446491Y-18506960D01*
X2446491Y-18506960D02*
X2436967Y-18497436D01*
X2675063Y-18316484D02*
X2694110Y-18316484D01*
X2694110Y-18316484D02*
X2713158Y-18326008D01*
X2713158Y-18326008D02*
X2722682Y-18335531D01*
X2722682Y-18335531D02*
X2732205Y-18354579D01*
X2732205Y-18354579D02*
X2741729Y-18392674D01*
X2741729Y-18392674D02*
X2741729Y-18440293D01*
X2741729Y-18440293D02*
X2732205Y-18478389D01*
X2732205Y-18478389D02*
X2722682Y-18497436D01*
X2722682Y-18497436D02*
X2713158Y-18506960D01*
X2713158Y-18506960D02*
X2694110Y-18516484D01*
X2694110Y-18516484D02*
X2675063Y-18516484D01*
X2675063Y-18516484D02*
X2656015Y-18506960D01*
X2656015Y-18506960D02*
X2646491Y-18497436D01*
X2646491Y-18497436D02*
X2636967Y-18478389D01*
X2636967Y-18478389D02*
X2627444Y-18440293D01*
X2627444Y-18440293D02*
X2627444Y-18392674D01*
X2627444Y-18392674D02*
X2636967Y-18354579D01*
X2636967Y-18354579D02*
X2646491Y-18335531D01*
X2646491Y-18335531D02*
X2656015Y-18326008D01*
X2656015Y-18326008D02*
X2675063Y-18316484D01*
X2865539Y-18316484D02*
X2884586Y-18316484D01*
X2884586Y-18316484D02*
X2903634Y-18326008D01*
X2903634Y-18326008D02*
X2913158Y-18335531D01*
X2913158Y-18335531D02*
X2922682Y-18354579D01*
X2922682Y-18354579D02*
X2932205Y-18392674D01*
X2932205Y-18392674D02*
X2932205Y-18440293D01*
X2932205Y-18440293D02*
X2922682Y-18478389D01*
X2922682Y-18478389D02*
X2913158Y-18497436D01*
X2913158Y-18497436D02*
X2903634Y-18506960D01*
X2903634Y-18506960D02*
X2884586Y-18516484D01*
X2884586Y-18516484D02*
X2865539Y-18516484D01*
X2865539Y-18516484D02*
X2846491Y-18506960D01*
X2846491Y-18506960D02*
X2836967Y-18497436D01*
X2836967Y-18497436D02*
X2827443Y-18478389D01*
X2827443Y-18478389D02*
X2817920Y-18440293D01*
X2817920Y-18440293D02*
X2817920Y-18392674D01*
X2817920Y-18392674D02*
X2827443Y-18354579D01*
X2827443Y-18354579D02*
X2836967Y-18335531D01*
X2836967Y-18335531D02*
X2846491Y-18326008D01*
X2846491Y-18326008D02*
X2865539Y-18316484D01*
X3017920Y-18516484D02*
X3017920Y-18383150D01*
X3017920Y-18402198D02*
X3027443Y-18392674D01*
X3027443Y-18392674D02*
X3046491Y-18383150D01*
X3046491Y-18383150D02*
X3075063Y-18383150D01*
X3075063Y-18383150D02*
X3094110Y-18392674D01*
X3094110Y-18392674D02*
X3103634Y-18411722D01*
X3103634Y-18411722D02*
X3103634Y-18516484D01*
X3103634Y-18411722D02*
X3113158Y-18392674D01*
X3113158Y-18392674D02*
X3132205Y-18383150D01*
X3132205Y-18383150D02*
X3160777Y-18383150D01*
X3160777Y-18383150D02*
X3179824Y-18392674D01*
X3179824Y-18392674D02*
X3189348Y-18411722D01*
X3189348Y-18411722D02*
X3189348Y-18516484D01*
X3284586Y-18516484D02*
X3284586Y-18383150D01*
X3284586Y-18402198D02*
X3294110Y-18392674D01*
X3294110Y-18392674D02*
X3313158Y-18383150D01*
X3313158Y-18383150D02*
X3341729Y-18383150D01*
X3341729Y-18383150D02*
X3360777Y-18392674D01*
X3360777Y-18392674D02*
X3370301Y-18411722D01*
X3370301Y-18411722D02*
X3370301Y-18516484D01*
X3370301Y-18411722D02*
X3379824Y-18392674D01*
X3379824Y-18392674D02*
X3398872Y-18383150D01*
X3398872Y-18383150D02*
X3427443Y-18383150D01*
X3427443Y-18383150D02*
X3446491Y-18392674D01*
X3446491Y-18392674D02*
X3456015Y-18411722D01*
X3456015Y-18411722D02*
X3456015Y-18516484D01*
X3846491Y-18306960D02*
X3675063Y-18564103D01*
X4103634Y-18316484D02*
X4122682Y-18316484D01*
X4122682Y-18316484D02*
X4141729Y-18326008D01*
X4141729Y-18326008D02*
X4151253Y-18335531D01*
X4151253Y-18335531D02*
X4160777Y-18354579D01*
X4160777Y-18354579D02*
X4170301Y-18392674D01*
X4170301Y-18392674D02*
X4170301Y-18440293D01*
X4170301Y-18440293D02*
X4160777Y-18478389D01*
X4160777Y-18478389D02*
X4151253Y-18497436D01*
X4151253Y-18497436D02*
X4141729Y-18506960D01*
X4141729Y-18506960D02*
X4122682Y-18516484D01*
X4122682Y-18516484D02*
X4103634Y-18516484D01*
X4103634Y-18516484D02*
X4084586Y-18506960D01*
X4084586Y-18506960D02*
X4075063Y-18497436D01*
X4075063Y-18497436D02*
X4065539Y-18478389D01*
X4065539Y-18478389D02*
X4056015Y-18440293D01*
X4056015Y-18440293D02*
X4056015Y-18392674D01*
X4056015Y-18392674D02*
X4065539Y-18354579D01*
X4065539Y-18354579D02*
X4075063Y-18335531D01*
X4075063Y-18335531D02*
X4084586Y-18326008D01*
X4084586Y-18326008D02*
X4103634Y-18316484D01*
X4256015Y-18497436D02*
X4265539Y-18506960D01*
X4265539Y-18506960D02*
X4256015Y-18516484D01*
X4256015Y-18516484D02*
X4246491Y-18506960D01*
X4246491Y-18506960D02*
X4256015Y-18497436D01*
X4256015Y-18497436D02*
X4256015Y-18516484D01*
X4456015Y-18516484D02*
X4341729Y-18516484D01*
X4398872Y-18516484D02*
X4398872Y-18316484D01*
X4398872Y-18316484D02*
X4379825Y-18345055D01*
X4379825Y-18345055D02*
X4360777Y-18364103D01*
X4360777Y-18364103D02*
X4341729Y-18373627D01*
X4522682Y-18316484D02*
X4646491Y-18316484D01*
X4646491Y-18316484D02*
X4579825Y-18392674D01*
X4579825Y-18392674D02*
X4608396Y-18392674D01*
X4608396Y-18392674D02*
X4627444Y-18402198D01*
X4627444Y-18402198D02*
X4636968Y-18411722D01*
X4636968Y-18411722D02*
X4646491Y-18430770D01*
X4646491Y-18430770D02*
X4646491Y-18478389D01*
X4646491Y-18478389D02*
X4636968Y-18497436D01*
X4636968Y-18497436D02*
X4627444Y-18506960D01*
X4627444Y-18506960D02*
X4608396Y-18516484D01*
X4608396Y-18516484D02*
X4551253Y-18516484D01*
X4551253Y-18516484D02*
X4532206Y-18506960D01*
X4532206Y-18506960D02*
X4522682Y-18497436D01*
X4713158Y-18316484D02*
X4846491Y-18316484D01*
X4846491Y-18316484D02*
X4760777Y-18516484D01*
X4951253Y-18402198D02*
X4932206Y-18392674D01*
X4932206Y-18392674D02*
X4922682Y-18383150D01*
X4922682Y-18383150D02*
X4913158Y-18364103D01*
X4913158Y-18364103D02*
X4913158Y-18354579D01*
X4913158Y-18354579D02*
X4922682Y-18335531D01*
X4922682Y-18335531D02*
X4932206Y-18326008D01*
X4932206Y-18326008D02*
X4951253Y-18316484D01*
X4951253Y-18316484D02*
X4989349Y-18316484D01*
X4989349Y-18316484D02*
X5008396Y-18326008D01*
X5008396Y-18326008D02*
X5017920Y-18335531D01*
X5017920Y-18335531D02*
X5027444Y-18354579D01*
X5027444Y-18354579D02*
X5027444Y-18364103D01*
X5027444Y-18364103D02*
X5017920Y-18383150D01*
X5017920Y-18383150D02*
X5008396Y-18392674D01*
X5008396Y-18392674D02*
X4989349Y-18402198D01*
X4989349Y-18402198D02*
X4951253Y-18402198D01*
X4951253Y-18402198D02*
X4932206Y-18411722D01*
X4932206Y-18411722D02*
X4922682Y-18421246D01*
X4922682Y-18421246D02*
X4913158Y-18440293D01*
X4913158Y-18440293D02*
X4913158Y-18478389D01*
X4913158Y-18478389D02*
X4922682Y-18497436D01*
X4922682Y-18497436D02*
X4932206Y-18506960D01*
X4932206Y-18506960D02*
X4951253Y-18516484D01*
X4951253Y-18516484D02*
X4989349Y-18516484D01*
X4989349Y-18516484D02*
X5008396Y-18506960D01*
X5008396Y-18506960D02*
X5017920Y-18497436D01*
X5017920Y-18497436D02*
X5027444Y-18478389D01*
X5027444Y-18478389D02*
X5027444Y-18440293D01*
X5027444Y-18440293D02*
X5017920Y-18421246D01*
X5017920Y-18421246D02*
X5008396Y-18411722D01*
X5008396Y-18411722D02*
X4989349Y-18402198D01*
X5103634Y-18316484D02*
X5103634Y-18354579D01*
X5179825Y-18316484D02*
X5179825Y-18354579D01*
X5475063Y-18592674D02*
X5465539Y-18583150D01*
X5465539Y-18583150D02*
X5446491Y-18554579D01*
X5446491Y-18554579D02*
X5436968Y-18535531D01*
X5436968Y-18535531D02*
X5427444Y-18506960D01*
X5427444Y-18506960D02*
X5417920Y-18459341D01*
X5417920Y-18459341D02*
X5417920Y-18421246D01*
X5417920Y-18421246D02*
X5427444Y-18373627D01*
X5427444Y-18373627D02*
X5436968Y-18345055D01*
X5436968Y-18345055D02*
X5446491Y-18326008D01*
X5446491Y-18326008D02*
X5465539Y-18297436D01*
X5465539Y-18297436D02*
X5475063Y-18287912D01*
X5656015Y-18516484D02*
X5541730Y-18516484D01*
X5598872Y-18516484D02*
X5598872Y-18316484D01*
X5598872Y-18316484D02*
X5579825Y-18345055D01*
X5579825Y-18345055D02*
X5560777Y-18364103D01*
X5560777Y-18364103D02*
X5541730Y-18373627D01*
X5894110Y-18516484D02*
X5894110Y-18316484D01*
X5979825Y-18516484D02*
X5979825Y-18411722D01*
X5979825Y-18411722D02*
X5970301Y-18392674D01*
X5970301Y-18392674D02*
X5951253Y-18383150D01*
X5951253Y-18383150D02*
X5922682Y-18383150D01*
X5922682Y-18383150D02*
X5903634Y-18392674D01*
X5903634Y-18392674D02*
X5894110Y-18402198D01*
X6103634Y-18516484D02*
X6084587Y-18506960D01*
X6084587Y-18506960D02*
X6075063Y-18497436D01*
X6075063Y-18497436D02*
X6065539Y-18478389D01*
X6065539Y-18478389D02*
X6065539Y-18421246D01*
X6065539Y-18421246D02*
X6075063Y-18402198D01*
X6075063Y-18402198D02*
X6084587Y-18392674D01*
X6084587Y-18392674D02*
X6103634Y-18383150D01*
X6103634Y-18383150D02*
X6132206Y-18383150D01*
X6132206Y-18383150D02*
X6151253Y-18392674D01*
X6151253Y-18392674D02*
X6160777Y-18402198D01*
X6160777Y-18402198D02*
X6170301Y-18421246D01*
X6170301Y-18421246D02*
X6170301Y-18478389D01*
X6170301Y-18478389D02*
X6160777Y-18497436D01*
X6160777Y-18497436D02*
X6151253Y-18506960D01*
X6151253Y-18506960D02*
X6132206Y-18516484D01*
X6132206Y-18516484D02*
X6103634Y-18516484D01*
X6284587Y-18516484D02*
X6265539Y-18506960D01*
X6265539Y-18506960D02*
X6256015Y-18487912D01*
X6256015Y-18487912D02*
X6256015Y-18316484D01*
X6436968Y-18506960D02*
X6417920Y-18516484D01*
X6417920Y-18516484D02*
X6379825Y-18516484D01*
X6379825Y-18516484D02*
X6360777Y-18506960D01*
X6360777Y-18506960D02*
X6351253Y-18487912D01*
X6351253Y-18487912D02*
X6351253Y-18411722D01*
X6351253Y-18411722D02*
X6360777Y-18392674D01*
X6360777Y-18392674D02*
X6379825Y-18383150D01*
X6379825Y-18383150D02*
X6417920Y-18383150D01*
X6417920Y-18383150D02*
X6436968Y-18392674D01*
X6436968Y-18392674D02*
X6446491Y-18411722D01*
X6446491Y-18411722D02*
X6446491Y-18430770D01*
X6446491Y-18430770D02*
X6351253Y-18449817D01*
X6513158Y-18592674D02*
X6522682Y-18583150D01*
X6522682Y-18583150D02*
X6541730Y-18554579D01*
X6541730Y-18554579D02*
X6551253Y-18535531D01*
X6551253Y-18535531D02*
X6560777Y-18506960D01*
X6560777Y-18506960D02*
X6570301Y-18459341D01*
X6570301Y-18459341D02*
X6570301Y-18421246D01*
X6570301Y-18421246D02*
X6560777Y-18373627D01*
X6560777Y-18373627D02*
X6551253Y-18345055D01*
X6551253Y-18345055D02*
X6541730Y-18326008D01*
X6541730Y-18326008D02*
X6522682Y-18297436D01*
X6522682Y-18297436D02*
X6513158Y-18287912D01*
X6875063Y-18592674D02*
X6865539Y-18583150D01*
X6865539Y-18583150D02*
X6846491Y-18554579D01*
X6846491Y-18554579D02*
X6836968Y-18535531D01*
X6836968Y-18535531D02*
X6827444Y-18506960D01*
X6827444Y-18506960D02*
X6817920Y-18459341D01*
X6817920Y-18459341D02*
X6817920Y-18421246D01*
X6817920Y-18421246D02*
X6827444Y-18373627D01*
X6827444Y-18373627D02*
X6836968Y-18345055D01*
X6836968Y-18345055D02*
X6846491Y-18326008D01*
X6846491Y-18326008D02*
X6865539Y-18297436D01*
X6865539Y-18297436D02*
X6875063Y-18287912D01*
X6951253Y-18383150D02*
X6951253Y-18516484D01*
X6951253Y-18402198D02*
X6960777Y-18392674D01*
X6960777Y-18392674D02*
X6979825Y-18383150D01*
X6979825Y-18383150D02*
X7008396Y-18383150D01*
X7008396Y-18383150D02*
X7027444Y-18392674D01*
X7027444Y-18392674D02*
X7036968Y-18411722D01*
X7036968Y-18411722D02*
X7036968Y-18516484D01*
X7160777Y-18516484D02*
X7141730Y-18506960D01*
X7141730Y-18506960D02*
X7132206Y-18497436D01*
X7132206Y-18497436D02*
X7122682Y-18478389D01*
X7122682Y-18478389D02*
X7122682Y-18421246D01*
X7122682Y-18421246D02*
X7132206Y-18402198D01*
X7132206Y-18402198D02*
X7141730Y-18392674D01*
X7141730Y-18392674D02*
X7160777Y-18383150D01*
X7160777Y-18383150D02*
X7189349Y-18383150D01*
X7189349Y-18383150D02*
X7208396Y-18392674D01*
X7208396Y-18392674D02*
X7217920Y-18402198D01*
X7217920Y-18402198D02*
X7227444Y-18421246D01*
X7227444Y-18421246D02*
X7227444Y-18478389D01*
X7227444Y-18478389D02*
X7217920Y-18497436D01*
X7217920Y-18497436D02*
X7208396Y-18506960D01*
X7208396Y-18506960D02*
X7189349Y-18516484D01*
X7189349Y-18516484D02*
X7160777Y-18516484D01*
X7284587Y-18383150D02*
X7360777Y-18383150D01*
X7313158Y-18316484D02*
X7313158Y-18487912D01*
X7313158Y-18487912D02*
X7322682Y-18506960D01*
X7322682Y-18506960D02*
X7341730Y-18516484D01*
X7341730Y-18516484D02*
X7360777Y-18516484D01*
X7579825Y-18383150D02*
X7579825Y-18583150D01*
X7579825Y-18392674D02*
X7598872Y-18383150D01*
X7598872Y-18383150D02*
X7636968Y-18383150D01*
X7636968Y-18383150D02*
X7656015Y-18392674D01*
X7656015Y-18392674D02*
X7665539Y-18402198D01*
X7665539Y-18402198D02*
X7675063Y-18421246D01*
X7675063Y-18421246D02*
X7675063Y-18478389D01*
X7675063Y-18478389D02*
X7665539Y-18497436D01*
X7665539Y-18497436D02*
X7656015Y-18506960D01*
X7656015Y-18506960D02*
X7636968Y-18516484D01*
X7636968Y-18516484D02*
X7598872Y-18516484D01*
X7598872Y-18516484D02*
X7579825Y-18506960D01*
X7789349Y-18516484D02*
X7770301Y-18506960D01*
X7770301Y-18506960D02*
X7760777Y-18487912D01*
X7760777Y-18487912D02*
X7760777Y-18316484D01*
X7951253Y-18516484D02*
X7951253Y-18411722D01*
X7951253Y-18411722D02*
X7941730Y-18392674D01*
X7941730Y-18392674D02*
X7922682Y-18383150D01*
X7922682Y-18383150D02*
X7884587Y-18383150D01*
X7884587Y-18383150D02*
X7865539Y-18392674D01*
X7951253Y-18506960D02*
X7932206Y-18516484D01*
X7932206Y-18516484D02*
X7884587Y-18516484D01*
X7884587Y-18516484D02*
X7865539Y-18506960D01*
X7865539Y-18506960D02*
X7856015Y-18487912D01*
X7856015Y-18487912D02*
X7856015Y-18468865D01*
X7856015Y-18468865D02*
X7865539Y-18449817D01*
X7865539Y-18449817D02*
X7884587Y-18440293D01*
X7884587Y-18440293D02*
X7932206Y-18440293D01*
X7932206Y-18440293D02*
X7951253Y-18430770D01*
X8017920Y-18383150D02*
X8094111Y-18383150D01*
X8046492Y-18316484D02*
X8046492Y-18487912D01*
X8046492Y-18487912D02*
X8056015Y-18506960D01*
X8056015Y-18506960D02*
X8075063Y-18516484D01*
X8075063Y-18516484D02*
X8094111Y-18516484D01*
X8236968Y-18506960D02*
X8217920Y-18516484D01*
X8217920Y-18516484D02*
X8179825Y-18516484D01*
X8179825Y-18516484D02*
X8160777Y-18506960D01*
X8160777Y-18506960D02*
X8151253Y-18487912D01*
X8151253Y-18487912D02*
X8151253Y-18411722D01*
X8151253Y-18411722D02*
X8160777Y-18392674D01*
X8160777Y-18392674D02*
X8179825Y-18383150D01*
X8179825Y-18383150D02*
X8217920Y-18383150D01*
X8217920Y-18383150D02*
X8236968Y-18392674D01*
X8236968Y-18392674D02*
X8246492Y-18411722D01*
X8246492Y-18411722D02*
X8246492Y-18430770D01*
X8246492Y-18430770D02*
X8151253Y-18449817D01*
X8417920Y-18516484D02*
X8417920Y-18316484D01*
X8417920Y-18506960D02*
X8398873Y-18516484D01*
X8398873Y-18516484D02*
X8360777Y-18516484D01*
X8360777Y-18516484D02*
X8341730Y-18506960D01*
X8341730Y-18506960D02*
X8332206Y-18497436D01*
X8332206Y-18497436D02*
X8322682Y-18478389D01*
X8322682Y-18478389D02*
X8322682Y-18421246D01*
X8322682Y-18421246D02*
X8332206Y-18402198D01*
X8332206Y-18402198D02*
X8341730Y-18392674D01*
X8341730Y-18392674D02*
X8360777Y-18383150D01*
X8360777Y-18383150D02*
X8398873Y-18383150D01*
X8398873Y-18383150D02*
X8417920Y-18392674D01*
X8494111Y-18592674D02*
X8503635Y-18583150D01*
X8503635Y-18583150D02*
X8522682Y-18554579D01*
X8522682Y-18554579D02*
X8532206Y-18535531D01*
X8532206Y-18535531D02*
X8541730Y-18506960D01*
X8541730Y-18506960D02*
X8551254Y-18459341D01*
X8551254Y-18459341D02*
X8551254Y-18421246D01*
X8551254Y-18421246D02*
X8541730Y-18373627D01*
X8541730Y-18373627D02*
X8532206Y-18345055D01*
X8532206Y-18345055D02*
X8522682Y-18326008D01*
X8522682Y-18326008D02*
X8503635Y-18297436D01*
X8503635Y-18297436D02*
X8494111Y-18287912D01*
M02*
