%TF.GenerationSoftware,KiCad,Pcbnew,7.0.6*%
%TF.CreationDate,2023-07-26T03:02:40+02:00*%
%TF.ProjectId,EPROM-programmer,4550524f-4d2d-4707-926f-6772616d6d65,rev?*%
%TF.SameCoordinates,Original*%
%TF.FileFunction,Drillmap*%
%TF.FilePolarity,Positive*%
%FSLAX45Y45*%
G04 Gerber Fmt 4.5, Leading zero omitted, Abs format (unit mm)*
G04 Created by KiCad (PCBNEW 7.0.6) date 2023-07-26 03:02:40*
%MOMM*%
%LPD*%
G01*
G04 APERTURE LIST*
%ADD10C,0.100000*%
%ADD11C,0.200000*%
%ADD12C,0.040000*%
%ADD13C,0.060000*%
%ADD14C,0.070000*%
%ADD15C,0.080000*%
%ADD16C,0.090000*%
%ADD17C,0.110000*%
G04 APERTURE END LIST*
D10*
X13843000Y-5842000D02*
X13843000Y-15748000D01*
X13843000Y-15748000D02*
X3937000Y-15748000D01*
X3937000Y-15748000D02*
X3937000Y-5842000D01*
X3937000Y-5842000D02*
X13843000Y-5842000D01*
D11*
D12*
X6774500Y-10902000D02*
X6814500Y-10942000D01*
X6814500Y-10902000D02*
X6774500Y-10942000D01*
X6774500Y-12997500D02*
X6814500Y-13037500D01*
X6814500Y-12997500D02*
X6774500Y-13037500D01*
X7473000Y-9759000D02*
X7513000Y-9799000D01*
X7513000Y-9759000D02*
X7473000Y-9799000D01*
X7536500Y-11473500D02*
X7576500Y-11513500D01*
X7576500Y-11473500D02*
X7536500Y-11513500D01*
X8298500Y-11283000D02*
X8338500Y-11323000D01*
X8338500Y-11283000D02*
X8298500Y-11323000D01*
X9886000Y-9314500D02*
X9926000Y-9354500D01*
X9926000Y-9314500D02*
X9886000Y-9354500D01*
X10203500Y-11092500D02*
X10243500Y-11132500D01*
X10243500Y-11092500D02*
X10203500Y-11132500D01*
X5310500Y-6312700D02*
G75*
G03*
X5310500Y-6312700I-20000J0D01*
G01*
X5310500Y-6447700D02*
G75*
G03*
X5310500Y-6447700I-20000J0D01*
G01*
X5395500Y-6312700D02*
G75*
G03*
X5395500Y-6312700I-20000J0D01*
G01*
X5395500Y-6447700D02*
G75*
G03*
X5395500Y-6447700I-20000J0D01*
G01*
X5480500Y-6312700D02*
G75*
G03*
X5480500Y-6312700I-20000J0D01*
G01*
X5480500Y-6447700D02*
G75*
G03*
X5480500Y-6447700I-20000J0D01*
G01*
X5565500Y-6312700D02*
G75*
G03*
X5565500Y-6312700I-20000J0D01*
G01*
X5565500Y-6447700D02*
G75*
G03*
X5565500Y-6447700I-20000J0D01*
G01*
X5650500Y-6312700D02*
G75*
G03*
X5650500Y-6312700I-20000J0D01*
G01*
X5650500Y-6447700D02*
G75*
G03*
X5650500Y-6447700I-20000J0D01*
G01*
X5735500Y-6312700D02*
G75*
G03*
X5735500Y-6312700I-20000J0D01*
G01*
X5735500Y-6447700D02*
G75*
G03*
X5735500Y-6447700I-20000J0D01*
G01*
X5820500Y-6312700D02*
G75*
G03*
X5820500Y-6312700I-20000J0D01*
G01*
X5820500Y-6447700D02*
G75*
G03*
X5820500Y-6447700I-20000J0D01*
G01*
X5905500Y-6312700D02*
G75*
G03*
X5905500Y-6312700I-20000J0D01*
G01*
X5905500Y-6447700D02*
G75*
G03*
X5905500Y-6447700I-20000J0D01*
G01*
D13*
X5155500Y-5981700D02*
X5155500Y-6041700D01*
X5125500Y-6011700D02*
X5185500Y-6011700D01*
D11*
X5185500Y-6051700D02*
X5185500Y-5971700D01*
X5185500Y-5971700D02*
G75*
G03*
X5125500Y-5971700I-30000J0D01*
G01*
X5125500Y-5971700D02*
X5125500Y-6051700D01*
X5125500Y-6051700D02*
G75*
G03*
X5185500Y-6051700I30000J0D01*
G01*
D13*
X5155500Y-6319700D02*
X5155500Y-6379700D01*
X5125500Y-6349700D02*
X5185500Y-6349700D01*
D11*
X5185500Y-6424700D02*
X5185500Y-6274700D01*
X5185500Y-6274700D02*
G75*
G03*
X5125500Y-6274700I-30000J0D01*
G01*
X5125500Y-6274700D02*
X5125500Y-6424700D01*
X5125500Y-6424700D02*
G75*
G03*
X5185500Y-6424700I30000J0D01*
G01*
D13*
X6020500Y-5981700D02*
X6020500Y-6041700D01*
X5990500Y-6011700D02*
X6050500Y-6011700D01*
D11*
X6050500Y-6051700D02*
X6050500Y-5971700D01*
X6050500Y-5971700D02*
G75*
G03*
X5990500Y-5971700I-30000J0D01*
G01*
X5990500Y-5971700D02*
X5990500Y-6051700D01*
X5990500Y-6051700D02*
G75*
G03*
X6050500Y-6051700I30000J0D01*
G01*
D13*
X6020500Y-6319700D02*
X6020500Y-6379700D01*
X5990500Y-6349700D02*
X6050500Y-6349700D01*
D11*
X6050500Y-6424700D02*
X6050500Y-6274700D01*
X6050500Y-6274700D02*
G75*
G03*
X5990500Y-6274700I-30000J0D01*
G01*
X5990500Y-6274700D02*
X5990500Y-6424700D01*
X5990500Y-6424700D02*
G75*
G03*
X6050500Y-6424700I30000J0D01*
G01*
D14*
X4722749Y-6883249D02*
X4722749Y-6833751D01*
X4673251Y-6833751D01*
X4673251Y-6883249D01*
X4722749Y-6883249D01*
X4850749Y-11200749D02*
X4850749Y-11151251D01*
X4801251Y-11151251D01*
X4801251Y-11200749D01*
X4850749Y-11200749D01*
X4850749Y-11450749D02*
X4850749Y-11401251D01*
X4801251Y-11401251D01*
X4801251Y-11450749D01*
X4850749Y-11450749D01*
X4850749Y-11966749D02*
X4850749Y-11917251D01*
X4801251Y-11917251D01*
X4801251Y-11966749D01*
X4850749Y-11966749D01*
X4850749Y-12216749D02*
X4850749Y-12167251D01*
X4801251Y-12167251D01*
X4801251Y-12216749D01*
X4850749Y-12216749D01*
X4972749Y-6883249D02*
X4972749Y-6833751D01*
X4923251Y-6833751D01*
X4923251Y-6883249D01*
X4972749Y-6883249D01*
X5739749Y-7779749D02*
X5739749Y-7730251D01*
X5690251Y-7730251D01*
X5690251Y-7779749D01*
X5739749Y-7779749D01*
X5739749Y-8029749D02*
X5739749Y-7980251D01*
X5690251Y-7980251D01*
X5690251Y-8029749D01*
X5739749Y-8029749D01*
X5993749Y-11077749D02*
X5993749Y-11028251D01*
X5944251Y-11028251D01*
X5944251Y-11077749D01*
X5993749Y-11077749D01*
X5993749Y-11327749D02*
X5993749Y-11278251D01*
X5944251Y-11278251D01*
X5944251Y-11327749D01*
X5993749Y-11327749D01*
X11708749Y-9930749D02*
X11708749Y-9881251D01*
X11659251Y-9881251D01*
X11659251Y-9930749D01*
X11708749Y-9930749D01*
X11708749Y-10180749D02*
X11708749Y-10131251D01*
X11659251Y-10131251D01*
X11659251Y-10180749D01*
X11708749Y-10180749D01*
X12347749Y-8279749D02*
X12347749Y-8230251D01*
X12298251Y-8230251D01*
X12298251Y-8279749D01*
X12347749Y-8279749D01*
X12351749Y-8787749D02*
X12351749Y-8738251D01*
X12302251Y-8738251D01*
X12302251Y-8787749D01*
X12351749Y-8787749D01*
X12597749Y-8279749D02*
X12597749Y-8230251D01*
X12548251Y-8230251D01*
X12548251Y-8279749D01*
X12597749Y-8279749D01*
X12601749Y-8787749D02*
X12601749Y-8738251D01*
X12552251Y-8738251D01*
X12552251Y-8787749D01*
X12601749Y-8787749D01*
D15*
X4445000Y-7279000D02*
X4485000Y-7239000D01*
X4445000Y-7199000D01*
X4405000Y-7239000D01*
X4445000Y-7279000D01*
X4445000Y-7533000D02*
X4485000Y-7493000D01*
X4445000Y-7453000D01*
X4405000Y-7493000D01*
X4445000Y-7533000D01*
X4445000Y-7787000D02*
X4485000Y-7747000D01*
X4445000Y-7707000D01*
X4405000Y-7747000D01*
X4445000Y-7787000D01*
X4445000Y-8041000D02*
X4485000Y-8001000D01*
X4445000Y-7961000D01*
X4405000Y-8001000D01*
X4445000Y-8041000D01*
X4445000Y-8295000D02*
X4485000Y-8255000D01*
X4445000Y-8215000D01*
X4405000Y-8255000D01*
X4445000Y-8295000D01*
X4445000Y-8549000D02*
X4485000Y-8509000D01*
X4445000Y-8469000D01*
X4405000Y-8509000D01*
X4445000Y-8549000D01*
X4445000Y-8803000D02*
X4485000Y-8763000D01*
X4445000Y-8723000D01*
X4405000Y-8763000D01*
X4445000Y-8803000D01*
X5207000Y-7279000D02*
X5247000Y-7239000D01*
X5207000Y-7199000D01*
X5167000Y-7239000D01*
X5207000Y-7279000D01*
X5207000Y-7533000D02*
X5247000Y-7493000D01*
X5207000Y-7453000D01*
X5167000Y-7493000D01*
X5207000Y-7533000D01*
X5207000Y-7787000D02*
X5247000Y-7747000D01*
X5207000Y-7707000D01*
X5167000Y-7747000D01*
X5207000Y-7787000D01*
X5207000Y-8041000D02*
X5247000Y-8001000D01*
X5207000Y-7961000D01*
X5167000Y-8001000D01*
X5207000Y-8041000D01*
X5207000Y-8295000D02*
X5247000Y-8255000D01*
X5207000Y-8215000D01*
X5167000Y-8255000D01*
X5207000Y-8295000D01*
X5207000Y-8549000D02*
X5247000Y-8509000D01*
X5207000Y-8469000D01*
X5167000Y-8509000D01*
X5207000Y-8549000D01*
X5207000Y-8803000D02*
X5247000Y-8763000D01*
X5207000Y-8723000D01*
X5167000Y-8763000D01*
X5207000Y-8803000D01*
X5384800Y-11481000D02*
X5424800Y-11441000D01*
X5384800Y-11401000D01*
X5344800Y-11441000D01*
X5384800Y-11481000D01*
X5384800Y-11969000D02*
X5424800Y-11929000D01*
X5384800Y-11889000D01*
X5344800Y-11929000D01*
X5384800Y-11969000D01*
X5588000Y-9565000D02*
X5628000Y-9525000D01*
X5588000Y-9485000D01*
X5548000Y-9525000D01*
X5588000Y-9565000D01*
X5588000Y-10581000D02*
X5628000Y-10541000D01*
X5588000Y-10501000D01*
X5548000Y-10541000D01*
X5588000Y-10581000D01*
X5973000Y-7279000D02*
X6013000Y-7239000D01*
X5973000Y-7199000D01*
X5933000Y-7239000D01*
X5973000Y-7279000D01*
X6223000Y-7279000D02*
X6263000Y-7239000D01*
X6223000Y-7199000D01*
X6183000Y-7239000D01*
X6223000Y-7279000D01*
X6350000Y-6136000D02*
X6390000Y-6096000D01*
X6350000Y-6056000D01*
X6310000Y-6096000D01*
X6350000Y-6136000D01*
X6350000Y-6517000D02*
X6390000Y-6477000D01*
X6350000Y-6437000D01*
X6310000Y-6477000D01*
X6350000Y-6517000D01*
X6477000Y-8803000D02*
X6517000Y-8763000D01*
X6477000Y-8723000D01*
X6437000Y-8763000D01*
X6477000Y-8803000D01*
X6477000Y-9057000D02*
X6517000Y-9017000D01*
X6477000Y-8977000D01*
X6437000Y-9017000D01*
X6477000Y-9057000D01*
X6477000Y-9311000D02*
X6517000Y-9271000D01*
X6477000Y-9231000D01*
X6437000Y-9271000D01*
X6477000Y-9311000D01*
X6477000Y-9565000D02*
X6517000Y-9525000D01*
X6477000Y-9485000D01*
X6437000Y-9525000D01*
X6477000Y-9565000D01*
X6477000Y-9819000D02*
X6517000Y-9779000D01*
X6477000Y-9739000D01*
X6437000Y-9779000D01*
X6477000Y-9819000D01*
X6477000Y-10073000D02*
X6517000Y-10033000D01*
X6477000Y-9993000D01*
X6437000Y-10033000D01*
X6477000Y-10073000D01*
X6477000Y-10327000D02*
X6517000Y-10287000D01*
X6477000Y-10247000D01*
X6437000Y-10287000D01*
X6477000Y-10327000D01*
X6477000Y-10581000D02*
X6517000Y-10541000D01*
X6477000Y-10501000D01*
X6437000Y-10541000D01*
X6477000Y-10581000D01*
X6477000Y-10835000D02*
X6517000Y-10795000D01*
X6477000Y-10755000D01*
X6437000Y-10795000D01*
X6477000Y-10835000D01*
X6477000Y-11089000D02*
X6517000Y-11049000D01*
X6477000Y-11009000D01*
X6437000Y-11049000D01*
X6477000Y-11089000D01*
X6477000Y-11343000D02*
X6517000Y-11303000D01*
X6477000Y-11263000D01*
X6437000Y-11303000D01*
X6477000Y-11343000D01*
X6477000Y-11597000D02*
X6517000Y-11557000D01*
X6477000Y-11517000D01*
X6437000Y-11557000D01*
X6477000Y-11597000D01*
X6477000Y-11851000D02*
X6517000Y-11811000D01*
X6477000Y-11771000D01*
X6437000Y-11811000D01*
X6477000Y-11851000D01*
X6477000Y-12105000D02*
X6517000Y-12065000D01*
X6477000Y-12025000D01*
X6437000Y-12065000D01*
X6477000Y-12105000D01*
X6477000Y-12359000D02*
X6517000Y-12319000D01*
X6477000Y-12279000D01*
X6437000Y-12319000D01*
X6477000Y-12359000D01*
X6477000Y-12613000D02*
X6517000Y-12573000D01*
X6477000Y-12533000D01*
X6437000Y-12573000D01*
X6477000Y-12613000D01*
X6477000Y-12867000D02*
X6517000Y-12827000D01*
X6477000Y-12787000D01*
X6437000Y-12827000D01*
X6477000Y-12867000D01*
X6477000Y-13121000D02*
X6517000Y-13081000D01*
X6477000Y-13041000D01*
X6437000Y-13081000D01*
X6477000Y-13121000D01*
X6477000Y-13375000D02*
X6517000Y-13335000D01*
X6477000Y-13295000D01*
X6437000Y-13335000D01*
X6477000Y-13375000D01*
X6477000Y-13629000D02*
X6517000Y-13589000D01*
X6477000Y-13549000D01*
X6437000Y-13589000D01*
X6477000Y-13629000D01*
X7366000Y-6136000D02*
X7406000Y-6096000D01*
X7366000Y-6056000D01*
X7326000Y-6096000D01*
X7366000Y-6136000D01*
X7366000Y-6517000D02*
X7406000Y-6477000D01*
X7366000Y-6437000D01*
X7326000Y-6477000D01*
X7366000Y-6517000D01*
X8001000Y-8803000D02*
X8041000Y-8763000D01*
X8001000Y-8723000D01*
X7961000Y-8763000D01*
X8001000Y-8803000D01*
X8001000Y-9057000D02*
X8041000Y-9017000D01*
X8001000Y-8977000D01*
X7961000Y-9017000D01*
X8001000Y-9057000D01*
X8001000Y-9311000D02*
X8041000Y-9271000D01*
X8001000Y-9231000D01*
X7961000Y-9271000D01*
X8001000Y-9311000D01*
X8001000Y-9565000D02*
X8041000Y-9525000D01*
X8001000Y-9485000D01*
X7961000Y-9525000D01*
X8001000Y-9565000D01*
X8001000Y-9819000D02*
X8041000Y-9779000D01*
X8001000Y-9739000D01*
X7961000Y-9779000D01*
X8001000Y-9819000D01*
X8001000Y-10073000D02*
X8041000Y-10033000D01*
X8001000Y-9993000D01*
X7961000Y-10033000D01*
X8001000Y-10073000D01*
X8001000Y-10327000D02*
X8041000Y-10287000D01*
X8001000Y-10247000D01*
X7961000Y-10287000D01*
X8001000Y-10327000D01*
X8001000Y-10581000D02*
X8041000Y-10541000D01*
X8001000Y-10501000D01*
X7961000Y-10541000D01*
X8001000Y-10581000D01*
X8001000Y-10835000D02*
X8041000Y-10795000D01*
X8001000Y-10755000D01*
X7961000Y-10795000D01*
X8001000Y-10835000D01*
X8001000Y-11089000D02*
X8041000Y-11049000D01*
X8001000Y-11009000D01*
X7961000Y-11049000D01*
X8001000Y-11089000D01*
X8001000Y-11343000D02*
X8041000Y-11303000D01*
X8001000Y-11263000D01*
X7961000Y-11303000D01*
X8001000Y-11343000D01*
X8001000Y-11597000D02*
X8041000Y-11557000D01*
X8001000Y-11517000D01*
X7961000Y-11557000D01*
X8001000Y-11597000D01*
X8001000Y-11851000D02*
X8041000Y-11811000D01*
X8001000Y-11771000D01*
X7961000Y-11811000D01*
X8001000Y-11851000D01*
X8001000Y-12105000D02*
X8041000Y-12065000D01*
X8001000Y-12025000D01*
X7961000Y-12065000D01*
X8001000Y-12105000D01*
X8001000Y-12359000D02*
X8041000Y-12319000D01*
X8001000Y-12279000D01*
X7961000Y-12319000D01*
X8001000Y-12359000D01*
X8001000Y-12613000D02*
X8041000Y-12573000D01*
X8001000Y-12533000D01*
X7961000Y-12573000D01*
X8001000Y-12613000D01*
X8001000Y-12867000D02*
X8041000Y-12827000D01*
X8001000Y-12787000D01*
X7961000Y-12827000D01*
X8001000Y-12867000D01*
X8001000Y-13121000D02*
X8041000Y-13081000D01*
X8001000Y-13041000D01*
X7961000Y-13081000D01*
X8001000Y-13121000D01*
X8001000Y-13375000D02*
X8041000Y-13335000D01*
X8001000Y-13295000D01*
X7961000Y-13335000D01*
X8001000Y-13375000D01*
X8001000Y-13629000D02*
X8041000Y-13589000D01*
X8001000Y-13549000D01*
X7961000Y-13589000D01*
X8001000Y-13629000D01*
X11684000Y-7787000D02*
X11724000Y-7747000D01*
X11684000Y-7707000D01*
X11644000Y-7747000D01*
X11684000Y-7787000D01*
X11684000Y-8803000D02*
X11724000Y-8763000D01*
X11684000Y-8723000D01*
X11644000Y-8763000D01*
X11684000Y-8803000D01*
X11811000Y-11216000D02*
X11851000Y-11176000D01*
X11811000Y-11136000D01*
X11771000Y-11176000D01*
X11811000Y-11216000D01*
X11811000Y-12232000D02*
X11851000Y-12192000D01*
X11811000Y-12152000D01*
X11771000Y-12192000D01*
X11811000Y-12232000D01*
X12070000Y-9312000D02*
X12110000Y-9272000D01*
X12070000Y-9232000D01*
X12030000Y-9272000D01*
X12070000Y-9312000D01*
X12070000Y-9566000D02*
X12110000Y-9526000D01*
X12070000Y-9486000D01*
X12030000Y-9526000D01*
X12070000Y-9566000D01*
X12070000Y-9820000D02*
X12110000Y-9780000D01*
X12070000Y-9740000D01*
X12030000Y-9780000D01*
X12070000Y-9820000D01*
X12070000Y-10074000D02*
X12110000Y-10034000D01*
X12070000Y-9994000D01*
X12030000Y-10034000D01*
X12070000Y-10074000D01*
X12192000Y-6771000D02*
X12232000Y-6731000D01*
X12192000Y-6691000D01*
X12152000Y-6731000D01*
X12192000Y-6771000D01*
X12192000Y-7787000D02*
X12232000Y-7747000D01*
X12192000Y-7707000D01*
X12152000Y-7747000D01*
X12192000Y-7787000D01*
X12827000Y-6771000D02*
X12867000Y-6731000D01*
X12827000Y-6691000D01*
X12787000Y-6731000D01*
X12827000Y-6771000D01*
X12827000Y-7787000D02*
X12867000Y-7747000D01*
X12827000Y-7707000D01*
X12787000Y-7747000D01*
X12827000Y-7787000D01*
X12832000Y-9312000D02*
X12872000Y-9272000D01*
X12832000Y-9232000D01*
X12792000Y-9272000D01*
X12832000Y-9312000D01*
X12832000Y-9566000D02*
X12872000Y-9526000D01*
X12832000Y-9486000D01*
X12792000Y-9526000D01*
X12832000Y-9566000D01*
X12832000Y-9820000D02*
X12872000Y-9780000D01*
X12832000Y-9740000D01*
X12792000Y-9780000D01*
X12832000Y-9820000D01*
X12832000Y-10074000D02*
X12872000Y-10034000D01*
X12832000Y-9994000D01*
X12792000Y-10034000D01*
X12832000Y-10074000D01*
X13462000Y-6771000D02*
X13502000Y-6731000D01*
X13462000Y-6691000D01*
X13422000Y-6731000D01*
X13462000Y-6771000D01*
X13462000Y-7787000D02*
X13502000Y-7747000D01*
X13462000Y-7707000D01*
X13422000Y-7747000D01*
X13462000Y-7787000D01*
D16*
X12020000Y-6178000D02*
X12110000Y-6268000D01*
X12110000Y-6178000D02*
X12020000Y-6268000D01*
X12110000Y-6223000D02*
G75*
G03*
X12110000Y-6223000I-45000J0D01*
G01*
X12274000Y-6178000D02*
X12364000Y-6268000D01*
X12364000Y-6178000D02*
X12274000Y-6268000D01*
X12364000Y-6223000D02*
G75*
G03*
X12364000Y-6223000I-45000J0D01*
G01*
X12655000Y-6178000D02*
X12745000Y-6268000D01*
X12745000Y-6178000D02*
X12655000Y-6268000D01*
X12745000Y-6223000D02*
G75*
G03*
X12745000Y-6223000I-45000J0D01*
G01*
X12909000Y-6178000D02*
X12999000Y-6268000D01*
X12999000Y-6178000D02*
X12909000Y-6268000D01*
X12999000Y-6223000D02*
G75*
G03*
X12999000Y-6223000I-45000J0D01*
G01*
X13290000Y-6178000D02*
X13380000Y-6268000D01*
X13380000Y-6178000D02*
X13290000Y-6268000D01*
X13380000Y-6223000D02*
G75*
G03*
X13380000Y-6223000I-45000J0D01*
G01*
X13544000Y-6178000D02*
X13634000Y-6268000D01*
X13634000Y-6178000D02*
X13544000Y-6268000D01*
X13634000Y-6223000D02*
G75*
G03*
X13634000Y-6223000I-45000J0D01*
G01*
D10*
X8205000Y-6427000D02*
X8305000Y-6527000D01*
X8305000Y-6427000D02*
X8205000Y-6527000D01*
X8255000Y-6427000D02*
X8255000Y-6527000D01*
X8205000Y-6477000D02*
X8305000Y-6477000D01*
X8205000Y-6681000D02*
X8305000Y-6781000D01*
X8305000Y-6681000D02*
X8205000Y-6781000D01*
X8255000Y-6681000D02*
X8255000Y-6781000D01*
X8205000Y-6731000D02*
X8305000Y-6731000D01*
X8459000Y-6427000D02*
X8559000Y-6527000D01*
X8559000Y-6427000D02*
X8459000Y-6527000D01*
X8509000Y-6427000D02*
X8509000Y-6527000D01*
X8459000Y-6477000D02*
X8559000Y-6477000D01*
X8459000Y-6681000D02*
X8559000Y-6781000D01*
X8559000Y-6681000D02*
X8459000Y-6781000D01*
X8509000Y-6681000D02*
X8509000Y-6781000D01*
X8459000Y-6731000D02*
X8559000Y-6731000D01*
X8713000Y-6427000D02*
X8813000Y-6527000D01*
X8813000Y-6427000D02*
X8713000Y-6527000D01*
X8763000Y-6427000D02*
X8763000Y-6527000D01*
X8713000Y-6477000D02*
X8813000Y-6477000D01*
X8713000Y-6681000D02*
X8813000Y-6781000D01*
X8813000Y-6681000D02*
X8713000Y-6781000D01*
X8763000Y-6681000D02*
X8763000Y-6781000D01*
X8713000Y-6731000D02*
X8813000Y-6731000D01*
X9395350Y-10110000D02*
X9495350Y-10210000D01*
X9495350Y-10110000D02*
X9395350Y-10210000D01*
X9445350Y-10110000D02*
X9445350Y-10210000D01*
X9395350Y-10160000D02*
X9495350Y-10160000D01*
X9395350Y-10364000D02*
X9495350Y-10464000D01*
X9495350Y-10364000D02*
X9395350Y-10464000D01*
X9445350Y-10364000D02*
X9445350Y-10464000D01*
X9395350Y-10414000D02*
X9495350Y-10414000D01*
X9395350Y-10618000D02*
X9495350Y-10718000D01*
X9495350Y-10618000D02*
X9395350Y-10718000D01*
X9445350Y-10618000D02*
X9445350Y-10718000D01*
X9395350Y-10668000D02*
X9495350Y-10668000D01*
X9395350Y-10872000D02*
X9495350Y-10972000D01*
X9495350Y-10872000D02*
X9395350Y-10972000D01*
X9445350Y-10872000D02*
X9445350Y-10972000D01*
X9395350Y-10922000D02*
X9495350Y-10922000D01*
X9395350Y-11126000D02*
X9495350Y-11226000D01*
X9495350Y-11126000D02*
X9395350Y-11226000D01*
X9445350Y-11126000D02*
X9445350Y-11226000D01*
X9395350Y-11176000D02*
X9495350Y-11176000D01*
X9395350Y-11380000D02*
X9495350Y-11480000D01*
X9495350Y-11380000D02*
X9395350Y-11480000D01*
X9445350Y-11380000D02*
X9445350Y-11480000D01*
X9395350Y-11430000D02*
X9495350Y-11430000D01*
X9395350Y-11634000D02*
X9495350Y-11734000D01*
X9495350Y-11634000D02*
X9395350Y-11734000D01*
X9445350Y-11634000D02*
X9445350Y-11734000D01*
X9395350Y-11684000D02*
X9495350Y-11684000D01*
X9395350Y-11888000D02*
X9495350Y-11988000D01*
X9495350Y-11888000D02*
X9395350Y-11988000D01*
X9445350Y-11888000D02*
X9445350Y-11988000D01*
X9395350Y-11938000D02*
X9495350Y-11938000D01*
X9395350Y-12142000D02*
X9495350Y-12242000D01*
X9495350Y-12142000D02*
X9395350Y-12242000D01*
X9445350Y-12142000D02*
X9445350Y-12242000D01*
X9395350Y-12192000D02*
X9495350Y-12192000D01*
X9395350Y-12396000D02*
X9495350Y-12496000D01*
X9495350Y-12396000D02*
X9395350Y-12496000D01*
X9445350Y-12396000D02*
X9445350Y-12496000D01*
X9395350Y-12446000D02*
X9495350Y-12446000D01*
X9395350Y-12650000D02*
X9495350Y-12750000D01*
X9495350Y-12650000D02*
X9395350Y-12750000D01*
X9445350Y-12650000D02*
X9445350Y-12750000D01*
X9395350Y-12700000D02*
X9495350Y-12700000D01*
X9395350Y-12904000D02*
X9495350Y-13004000D01*
X9495350Y-12904000D02*
X9395350Y-13004000D01*
X9445350Y-12904000D02*
X9445350Y-13004000D01*
X9395350Y-12954000D02*
X9495350Y-12954000D01*
X10919350Y-10110000D02*
X11019350Y-10210000D01*
X11019350Y-10110000D02*
X10919350Y-10210000D01*
X10969350Y-10110000D02*
X10969350Y-10210000D01*
X10919350Y-10160000D02*
X11019350Y-10160000D01*
X10919350Y-10364000D02*
X11019350Y-10464000D01*
X11019350Y-10364000D02*
X10919350Y-10464000D01*
X10969350Y-10364000D02*
X10969350Y-10464000D01*
X10919350Y-10414000D02*
X11019350Y-10414000D01*
X10919350Y-10618000D02*
X11019350Y-10718000D01*
X11019350Y-10618000D02*
X10919350Y-10718000D01*
X10969350Y-10618000D02*
X10969350Y-10718000D01*
X10919350Y-10668000D02*
X11019350Y-10668000D01*
X10919350Y-10872000D02*
X11019350Y-10972000D01*
X11019350Y-10872000D02*
X10919350Y-10972000D01*
X10969350Y-10872000D02*
X10969350Y-10972000D01*
X10919350Y-10922000D02*
X11019350Y-10922000D01*
X10919350Y-11126000D02*
X11019350Y-11226000D01*
X11019350Y-11126000D02*
X10919350Y-11226000D01*
X10969350Y-11126000D02*
X10969350Y-11226000D01*
X10919350Y-11176000D02*
X11019350Y-11176000D01*
X10919350Y-11380000D02*
X11019350Y-11480000D01*
X11019350Y-11380000D02*
X10919350Y-11480000D01*
X10969350Y-11380000D02*
X10969350Y-11480000D01*
X10919350Y-11430000D02*
X11019350Y-11430000D01*
X10919350Y-11634000D02*
X11019350Y-11734000D01*
X11019350Y-11634000D02*
X10919350Y-11734000D01*
X10969350Y-11634000D02*
X10969350Y-11734000D01*
X10919350Y-11684000D02*
X11019350Y-11684000D01*
X10919350Y-11888000D02*
X11019350Y-11988000D01*
X11019350Y-11888000D02*
X10919350Y-11988000D01*
X10969350Y-11888000D02*
X10969350Y-11988000D01*
X10919350Y-11938000D02*
X11019350Y-11938000D01*
X10919350Y-12142000D02*
X11019350Y-12242000D01*
X11019350Y-12142000D02*
X10919350Y-12242000D01*
X10969350Y-12142000D02*
X10969350Y-12242000D01*
X10919350Y-12192000D02*
X11019350Y-12192000D01*
X10919350Y-12396000D02*
X11019350Y-12496000D01*
X11019350Y-12396000D02*
X10919350Y-12496000D01*
X10969350Y-12396000D02*
X10969350Y-12496000D01*
X10919350Y-12446000D02*
X11019350Y-12446000D01*
X10919350Y-12650000D02*
X11019350Y-12750000D01*
X11019350Y-12650000D02*
X10919350Y-12750000D01*
X10969350Y-12650000D02*
X10969350Y-12750000D01*
X10919350Y-12700000D02*
X11019350Y-12700000D01*
X10919350Y-12904000D02*
X11019350Y-13004000D01*
X11019350Y-12904000D02*
X10919350Y-13004000D01*
X10969350Y-12904000D02*
X10969350Y-13004000D01*
X10919350Y-12954000D02*
X11019350Y-12954000D01*
X13412000Y-12396000D02*
X13512000Y-12496000D01*
X13512000Y-12396000D02*
X13412000Y-12496000D01*
X13462000Y-12396000D02*
X13462000Y-12496000D01*
X13412000Y-12446000D02*
X13512000Y-12446000D01*
X13416000Y-8713000D02*
X13516000Y-8813000D01*
X13516000Y-8713000D02*
X13416000Y-8813000D01*
X13466000Y-8713000D02*
X13466000Y-8813000D01*
X13416000Y-8763000D02*
X13516000Y-8763000D01*
X13416000Y-10237000D02*
X13516000Y-10337000D01*
X13516000Y-10237000D02*
X13416000Y-10337000D01*
X13466000Y-10237000D02*
X13466000Y-10337000D01*
X13416000Y-10287000D02*
X13516000Y-10287000D01*
D17*
X4446000Y-10007000D02*
X4556000Y-10117000D01*
X4556000Y-10007000D02*
X4446000Y-10117000D01*
X4539891Y-10100891D02*
X4539891Y-10023109D01*
X4462109Y-10023109D01*
X4462109Y-10100891D01*
X4539891Y-10100891D01*
X4446000Y-10457000D02*
X4556000Y-10567000D01*
X4556000Y-10457000D02*
X4446000Y-10567000D01*
X4539891Y-10550891D02*
X4539891Y-10473109D01*
X4462109Y-10473109D01*
X4462109Y-10550891D01*
X4539891Y-10550891D01*
X5096000Y-10007000D02*
X5206000Y-10117000D01*
X5206000Y-10007000D02*
X5096000Y-10117000D01*
X5189891Y-10100891D02*
X5189891Y-10023109D01*
X5112109Y-10023109D01*
X5112109Y-10100891D01*
X5189891Y-10100891D01*
X5096000Y-10457000D02*
X5206000Y-10567000D01*
X5206000Y-10457000D02*
X5096000Y-10567000D01*
X5189891Y-10550891D02*
X5189891Y-10473109D01*
X5112109Y-10473109D01*
X5112109Y-10550891D01*
X5189891Y-10550891D01*
D11*
X4192777Y-16064484D02*
X4192777Y-15864484D01*
X4192777Y-15864484D02*
X4240396Y-15864484D01*
X4240396Y-15864484D02*
X4268967Y-15874008D01*
X4268967Y-15874008D02*
X4288015Y-15893055D01*
X4288015Y-15893055D02*
X4297539Y-15912103D01*
X4297539Y-15912103D02*
X4307063Y-15950198D01*
X4307063Y-15950198D02*
X4307063Y-15978769D01*
X4307063Y-15978769D02*
X4297539Y-16016865D01*
X4297539Y-16016865D02*
X4288015Y-16035912D01*
X4288015Y-16035912D02*
X4268967Y-16054960D01*
X4268967Y-16054960D02*
X4240396Y-16064484D01*
X4240396Y-16064484D02*
X4192777Y-16064484D01*
X4392777Y-16064484D02*
X4392777Y-15931150D01*
X4392777Y-15969246D02*
X4402301Y-15950198D01*
X4402301Y-15950198D02*
X4411824Y-15940674D01*
X4411824Y-15940674D02*
X4430872Y-15931150D01*
X4430872Y-15931150D02*
X4449920Y-15931150D01*
X4516586Y-16064484D02*
X4516586Y-15931150D01*
X4516586Y-15864484D02*
X4507063Y-15874008D01*
X4507063Y-15874008D02*
X4516586Y-15883531D01*
X4516586Y-15883531D02*
X4526110Y-15874008D01*
X4526110Y-15874008D02*
X4516586Y-15864484D01*
X4516586Y-15864484D02*
X4516586Y-15883531D01*
X4640396Y-16064484D02*
X4621348Y-16054960D01*
X4621348Y-16054960D02*
X4611824Y-16035912D01*
X4611824Y-16035912D02*
X4611824Y-15864484D01*
X4745158Y-16064484D02*
X4726110Y-16054960D01*
X4726110Y-16054960D02*
X4716586Y-16035912D01*
X4716586Y-16035912D02*
X4716586Y-15864484D01*
X4973729Y-16064484D02*
X4973729Y-15864484D01*
X4973729Y-15864484D02*
X5040396Y-16007341D01*
X5040396Y-16007341D02*
X5107063Y-15864484D01*
X5107063Y-15864484D02*
X5107063Y-16064484D01*
X5288015Y-16064484D02*
X5288015Y-15959722D01*
X5288015Y-15959722D02*
X5278491Y-15940674D01*
X5278491Y-15940674D02*
X5259444Y-15931150D01*
X5259444Y-15931150D02*
X5221348Y-15931150D01*
X5221348Y-15931150D02*
X5202301Y-15940674D01*
X5288015Y-16054960D02*
X5268967Y-16064484D01*
X5268967Y-16064484D02*
X5221348Y-16064484D01*
X5221348Y-16064484D02*
X5202301Y-16054960D01*
X5202301Y-16054960D02*
X5192777Y-16035912D01*
X5192777Y-16035912D02*
X5192777Y-16016865D01*
X5192777Y-16016865D02*
X5202301Y-15997817D01*
X5202301Y-15997817D02*
X5221348Y-15988293D01*
X5221348Y-15988293D02*
X5268967Y-15988293D01*
X5268967Y-15988293D02*
X5288015Y-15978769D01*
X5383253Y-15931150D02*
X5383253Y-16131150D01*
X5383253Y-15940674D02*
X5402301Y-15931150D01*
X5402301Y-15931150D02*
X5440396Y-15931150D01*
X5440396Y-15931150D02*
X5459444Y-15940674D01*
X5459444Y-15940674D02*
X5468967Y-15950198D01*
X5468967Y-15950198D02*
X5478491Y-15969246D01*
X5478491Y-15969246D02*
X5478491Y-16026388D01*
X5478491Y-16026388D02*
X5468967Y-16045436D01*
X5468967Y-16045436D02*
X5459444Y-16054960D01*
X5459444Y-16054960D02*
X5440396Y-16064484D01*
X5440396Y-16064484D02*
X5402301Y-16064484D01*
X5402301Y-16064484D02*
X5383253Y-16054960D01*
X5564205Y-16045436D02*
X5573729Y-16054960D01*
X5573729Y-16054960D02*
X5564205Y-16064484D01*
X5564205Y-16064484D02*
X5554682Y-16054960D01*
X5554682Y-16054960D02*
X5564205Y-16045436D01*
X5564205Y-16045436D02*
X5564205Y-16064484D01*
X5564205Y-15940674D02*
X5573729Y-15950198D01*
X5573729Y-15950198D02*
X5564205Y-15959722D01*
X5564205Y-15959722D02*
X5554682Y-15950198D01*
X5554682Y-15950198D02*
X5564205Y-15940674D01*
X5564205Y-15940674D02*
X5564205Y-15959722D01*
D12*
X3892000Y-16373000D02*
X3932000Y-16413000D01*
X3932000Y-16373000D02*
X3892000Y-16413000D01*
D11*
X4230872Y-16284484D02*
X4249920Y-16284484D01*
X4249920Y-16284484D02*
X4268967Y-16294008D01*
X4268967Y-16294008D02*
X4278491Y-16303531D01*
X4278491Y-16303531D02*
X4288015Y-16322579D01*
X4288015Y-16322579D02*
X4297539Y-16360674D01*
X4297539Y-16360674D02*
X4297539Y-16408293D01*
X4297539Y-16408293D02*
X4288015Y-16446388D01*
X4288015Y-16446388D02*
X4278491Y-16465436D01*
X4278491Y-16465436D02*
X4268967Y-16474960D01*
X4268967Y-16474960D02*
X4249920Y-16484484D01*
X4249920Y-16484484D02*
X4230872Y-16484484D01*
X4230872Y-16484484D02*
X4211824Y-16474960D01*
X4211824Y-16474960D02*
X4202301Y-16465436D01*
X4202301Y-16465436D02*
X4192777Y-16446388D01*
X4192777Y-16446388D02*
X4183253Y-16408293D01*
X4183253Y-16408293D02*
X4183253Y-16360674D01*
X4183253Y-16360674D02*
X4192777Y-16322579D01*
X4192777Y-16322579D02*
X4202301Y-16303531D01*
X4202301Y-16303531D02*
X4211824Y-16294008D01*
X4211824Y-16294008D02*
X4230872Y-16284484D01*
X4383253Y-16465436D02*
X4392777Y-16474960D01*
X4392777Y-16474960D02*
X4383253Y-16484484D01*
X4383253Y-16484484D02*
X4373729Y-16474960D01*
X4373729Y-16474960D02*
X4383253Y-16465436D01*
X4383253Y-16465436D02*
X4383253Y-16484484D01*
X4564205Y-16351150D02*
X4564205Y-16484484D01*
X4516586Y-16274960D02*
X4468967Y-16417817D01*
X4468967Y-16417817D02*
X4592777Y-16417817D01*
X4707063Y-16284484D02*
X4726110Y-16284484D01*
X4726110Y-16284484D02*
X4745158Y-16294008D01*
X4745158Y-16294008D02*
X4754682Y-16303531D01*
X4754682Y-16303531D02*
X4764205Y-16322579D01*
X4764205Y-16322579D02*
X4773729Y-16360674D01*
X4773729Y-16360674D02*
X4773729Y-16408293D01*
X4773729Y-16408293D02*
X4764205Y-16446388D01*
X4764205Y-16446388D02*
X4754682Y-16465436D01*
X4754682Y-16465436D02*
X4745158Y-16474960D01*
X4745158Y-16474960D02*
X4726110Y-16484484D01*
X4726110Y-16484484D02*
X4707063Y-16484484D01*
X4707063Y-16484484D02*
X4688015Y-16474960D01*
X4688015Y-16474960D02*
X4678491Y-16465436D01*
X4678491Y-16465436D02*
X4668967Y-16446388D01*
X4668967Y-16446388D02*
X4659444Y-16408293D01*
X4659444Y-16408293D02*
X4659444Y-16360674D01*
X4659444Y-16360674D02*
X4668967Y-16322579D01*
X4668967Y-16322579D02*
X4678491Y-16303531D01*
X4678491Y-16303531D02*
X4688015Y-16294008D01*
X4688015Y-16294008D02*
X4707063Y-16284484D01*
X4897539Y-16284484D02*
X4916586Y-16284484D01*
X4916586Y-16284484D02*
X4935634Y-16294008D01*
X4935634Y-16294008D02*
X4945158Y-16303531D01*
X4945158Y-16303531D02*
X4954682Y-16322579D01*
X4954682Y-16322579D02*
X4964205Y-16360674D01*
X4964205Y-16360674D02*
X4964205Y-16408293D01*
X4964205Y-16408293D02*
X4954682Y-16446388D01*
X4954682Y-16446388D02*
X4945158Y-16465436D01*
X4945158Y-16465436D02*
X4935634Y-16474960D01*
X4935634Y-16474960D02*
X4916586Y-16484484D01*
X4916586Y-16484484D02*
X4897539Y-16484484D01*
X4897539Y-16484484D02*
X4878491Y-16474960D01*
X4878491Y-16474960D02*
X4868967Y-16465436D01*
X4868967Y-16465436D02*
X4859444Y-16446388D01*
X4859444Y-16446388D02*
X4849920Y-16408293D01*
X4849920Y-16408293D02*
X4849920Y-16360674D01*
X4849920Y-16360674D02*
X4859444Y-16322579D01*
X4859444Y-16322579D02*
X4868967Y-16303531D01*
X4868967Y-16303531D02*
X4878491Y-16294008D01*
X4878491Y-16294008D02*
X4897539Y-16284484D01*
X5049920Y-16484484D02*
X5049920Y-16351150D01*
X5049920Y-16370198D02*
X5059444Y-16360674D01*
X5059444Y-16360674D02*
X5078491Y-16351150D01*
X5078491Y-16351150D02*
X5107063Y-16351150D01*
X5107063Y-16351150D02*
X5126110Y-16360674D01*
X5126110Y-16360674D02*
X5135634Y-16379722D01*
X5135634Y-16379722D02*
X5135634Y-16484484D01*
X5135634Y-16379722D02*
X5145158Y-16360674D01*
X5145158Y-16360674D02*
X5164205Y-16351150D01*
X5164205Y-16351150D02*
X5192777Y-16351150D01*
X5192777Y-16351150D02*
X5211825Y-16360674D01*
X5211825Y-16360674D02*
X5221348Y-16379722D01*
X5221348Y-16379722D02*
X5221348Y-16484484D01*
X5316586Y-16484484D02*
X5316586Y-16351150D01*
X5316586Y-16370198D02*
X5326110Y-16360674D01*
X5326110Y-16360674D02*
X5345158Y-16351150D01*
X5345158Y-16351150D02*
X5373729Y-16351150D01*
X5373729Y-16351150D02*
X5392777Y-16360674D01*
X5392777Y-16360674D02*
X5402301Y-16379722D01*
X5402301Y-16379722D02*
X5402301Y-16484484D01*
X5402301Y-16379722D02*
X5411825Y-16360674D01*
X5411825Y-16360674D02*
X5430872Y-16351150D01*
X5430872Y-16351150D02*
X5459444Y-16351150D01*
X5459444Y-16351150D02*
X5478491Y-16360674D01*
X5478491Y-16360674D02*
X5488015Y-16379722D01*
X5488015Y-16379722D02*
X5488015Y-16484484D01*
X5878491Y-16274960D02*
X5707063Y-16532103D01*
X6135634Y-16284484D02*
X6154682Y-16284484D01*
X6154682Y-16284484D02*
X6173729Y-16294008D01*
X6173729Y-16294008D02*
X6183253Y-16303531D01*
X6183253Y-16303531D02*
X6192777Y-16322579D01*
X6192777Y-16322579D02*
X6202301Y-16360674D01*
X6202301Y-16360674D02*
X6202301Y-16408293D01*
X6202301Y-16408293D02*
X6192777Y-16446388D01*
X6192777Y-16446388D02*
X6183253Y-16465436D01*
X6183253Y-16465436D02*
X6173729Y-16474960D01*
X6173729Y-16474960D02*
X6154682Y-16484484D01*
X6154682Y-16484484D02*
X6135634Y-16484484D01*
X6135634Y-16484484D02*
X6116586Y-16474960D01*
X6116586Y-16474960D02*
X6107063Y-16465436D01*
X6107063Y-16465436D02*
X6097539Y-16446388D01*
X6097539Y-16446388D02*
X6088015Y-16408293D01*
X6088015Y-16408293D02*
X6088015Y-16360674D01*
X6088015Y-16360674D02*
X6097539Y-16322579D01*
X6097539Y-16322579D02*
X6107063Y-16303531D01*
X6107063Y-16303531D02*
X6116586Y-16294008D01*
X6116586Y-16294008D02*
X6135634Y-16284484D01*
X6288015Y-16465436D02*
X6297539Y-16474960D01*
X6297539Y-16474960D02*
X6288015Y-16484484D01*
X6288015Y-16484484D02*
X6278491Y-16474960D01*
X6278491Y-16474960D02*
X6288015Y-16465436D01*
X6288015Y-16465436D02*
X6288015Y-16484484D01*
X6421348Y-16284484D02*
X6440396Y-16284484D01*
X6440396Y-16284484D02*
X6459444Y-16294008D01*
X6459444Y-16294008D02*
X6468967Y-16303531D01*
X6468967Y-16303531D02*
X6478491Y-16322579D01*
X6478491Y-16322579D02*
X6488015Y-16360674D01*
X6488015Y-16360674D02*
X6488015Y-16408293D01*
X6488015Y-16408293D02*
X6478491Y-16446388D01*
X6478491Y-16446388D02*
X6468967Y-16465436D01*
X6468967Y-16465436D02*
X6459444Y-16474960D01*
X6459444Y-16474960D02*
X6440396Y-16484484D01*
X6440396Y-16484484D02*
X6421348Y-16484484D01*
X6421348Y-16484484D02*
X6402301Y-16474960D01*
X6402301Y-16474960D02*
X6392777Y-16465436D01*
X6392777Y-16465436D02*
X6383253Y-16446388D01*
X6383253Y-16446388D02*
X6373729Y-16408293D01*
X6373729Y-16408293D02*
X6373729Y-16360674D01*
X6373729Y-16360674D02*
X6383253Y-16322579D01*
X6383253Y-16322579D02*
X6392777Y-16303531D01*
X6392777Y-16303531D02*
X6402301Y-16294008D01*
X6402301Y-16294008D02*
X6421348Y-16284484D01*
X6678491Y-16484484D02*
X6564206Y-16484484D01*
X6621348Y-16484484D02*
X6621348Y-16284484D01*
X6621348Y-16284484D02*
X6602301Y-16313055D01*
X6602301Y-16313055D02*
X6583253Y-16332103D01*
X6583253Y-16332103D02*
X6564206Y-16341627D01*
X6859444Y-16284484D02*
X6764206Y-16284484D01*
X6764206Y-16284484D02*
X6754682Y-16379722D01*
X6754682Y-16379722D02*
X6764206Y-16370198D01*
X6764206Y-16370198D02*
X6783253Y-16360674D01*
X6783253Y-16360674D02*
X6830872Y-16360674D01*
X6830872Y-16360674D02*
X6849920Y-16370198D01*
X6849920Y-16370198D02*
X6859444Y-16379722D01*
X6859444Y-16379722D02*
X6868967Y-16398769D01*
X6868967Y-16398769D02*
X6868967Y-16446388D01*
X6868967Y-16446388D02*
X6859444Y-16465436D01*
X6859444Y-16465436D02*
X6849920Y-16474960D01*
X6849920Y-16474960D02*
X6830872Y-16484484D01*
X6830872Y-16484484D02*
X6783253Y-16484484D01*
X6783253Y-16484484D02*
X6764206Y-16474960D01*
X6764206Y-16474960D02*
X6754682Y-16465436D01*
X6935634Y-16284484D02*
X7068967Y-16284484D01*
X7068967Y-16284484D02*
X6983253Y-16484484D01*
X7135634Y-16284484D02*
X7135634Y-16322579D01*
X7211825Y-16284484D02*
X7211825Y-16322579D01*
X7507063Y-16560674D02*
X7497539Y-16551150D01*
X7497539Y-16551150D02*
X7478491Y-16522579D01*
X7478491Y-16522579D02*
X7468968Y-16503531D01*
X7468968Y-16503531D02*
X7459444Y-16474960D01*
X7459444Y-16474960D02*
X7449920Y-16427341D01*
X7449920Y-16427341D02*
X7449920Y-16389246D01*
X7449920Y-16389246D02*
X7459444Y-16341627D01*
X7459444Y-16341627D02*
X7468968Y-16313055D01*
X7468968Y-16313055D02*
X7478491Y-16294008D01*
X7478491Y-16294008D02*
X7497539Y-16265436D01*
X7497539Y-16265436D02*
X7507063Y-16255912D01*
X7564206Y-16284484D02*
X7697539Y-16284484D01*
X7697539Y-16284484D02*
X7611825Y-16484484D01*
X7926110Y-16484484D02*
X7926110Y-16284484D01*
X8011825Y-16484484D02*
X8011825Y-16379722D01*
X8011825Y-16379722D02*
X8002301Y-16360674D01*
X8002301Y-16360674D02*
X7983253Y-16351150D01*
X7983253Y-16351150D02*
X7954682Y-16351150D01*
X7954682Y-16351150D02*
X7935634Y-16360674D01*
X7935634Y-16360674D02*
X7926110Y-16370198D01*
X8135634Y-16484484D02*
X8116587Y-16474960D01*
X8116587Y-16474960D02*
X8107063Y-16465436D01*
X8107063Y-16465436D02*
X8097539Y-16446388D01*
X8097539Y-16446388D02*
X8097539Y-16389246D01*
X8097539Y-16389246D02*
X8107063Y-16370198D01*
X8107063Y-16370198D02*
X8116587Y-16360674D01*
X8116587Y-16360674D02*
X8135634Y-16351150D01*
X8135634Y-16351150D02*
X8164206Y-16351150D01*
X8164206Y-16351150D02*
X8183253Y-16360674D01*
X8183253Y-16360674D02*
X8192777Y-16370198D01*
X8192777Y-16370198D02*
X8202301Y-16389246D01*
X8202301Y-16389246D02*
X8202301Y-16446388D01*
X8202301Y-16446388D02*
X8192777Y-16465436D01*
X8192777Y-16465436D02*
X8183253Y-16474960D01*
X8183253Y-16474960D02*
X8164206Y-16484484D01*
X8164206Y-16484484D02*
X8135634Y-16484484D01*
X8316587Y-16484484D02*
X8297539Y-16474960D01*
X8297539Y-16474960D02*
X8288015Y-16455912D01*
X8288015Y-16455912D02*
X8288015Y-16284484D01*
X8468968Y-16474960D02*
X8449920Y-16484484D01*
X8449920Y-16484484D02*
X8411825Y-16484484D01*
X8411825Y-16484484D02*
X8392777Y-16474960D01*
X8392777Y-16474960D02*
X8383253Y-16455912D01*
X8383253Y-16455912D02*
X8383253Y-16379722D01*
X8383253Y-16379722D02*
X8392777Y-16360674D01*
X8392777Y-16360674D02*
X8411825Y-16351150D01*
X8411825Y-16351150D02*
X8449920Y-16351150D01*
X8449920Y-16351150D02*
X8468968Y-16360674D01*
X8468968Y-16360674D02*
X8478492Y-16379722D01*
X8478492Y-16379722D02*
X8478492Y-16398769D01*
X8478492Y-16398769D02*
X8383253Y-16417817D01*
X8554682Y-16474960D02*
X8573730Y-16484484D01*
X8573730Y-16484484D02*
X8611825Y-16484484D01*
X8611825Y-16484484D02*
X8630873Y-16474960D01*
X8630873Y-16474960D02*
X8640396Y-16455912D01*
X8640396Y-16455912D02*
X8640396Y-16446388D01*
X8640396Y-16446388D02*
X8630873Y-16427341D01*
X8630873Y-16427341D02*
X8611825Y-16417817D01*
X8611825Y-16417817D02*
X8583253Y-16417817D01*
X8583253Y-16417817D02*
X8564206Y-16408293D01*
X8564206Y-16408293D02*
X8554682Y-16389246D01*
X8554682Y-16389246D02*
X8554682Y-16379722D01*
X8554682Y-16379722D02*
X8564206Y-16360674D01*
X8564206Y-16360674D02*
X8583253Y-16351150D01*
X8583253Y-16351150D02*
X8611825Y-16351150D01*
X8611825Y-16351150D02*
X8630873Y-16360674D01*
X8707063Y-16560674D02*
X8716587Y-16551150D01*
X8716587Y-16551150D02*
X8735634Y-16522579D01*
X8735634Y-16522579D02*
X8745158Y-16503531D01*
X8745158Y-16503531D02*
X8754682Y-16474960D01*
X8754682Y-16474960D02*
X8764206Y-16427341D01*
X8764206Y-16427341D02*
X8764206Y-16389246D01*
X8764206Y-16389246D02*
X8754682Y-16341627D01*
X8754682Y-16341627D02*
X8745158Y-16313055D01*
X8745158Y-16313055D02*
X8735634Y-16294008D01*
X8735634Y-16294008D02*
X8716587Y-16265436D01*
X8716587Y-16265436D02*
X8707063Y-16255912D01*
D12*
X3932000Y-16657000D02*
G75*
G03*
X3932000Y-16657000I-20000J0D01*
G01*
D11*
X4230872Y-16548484D02*
X4249920Y-16548484D01*
X4249920Y-16548484D02*
X4268967Y-16558008D01*
X4268967Y-16558008D02*
X4278491Y-16567531D01*
X4278491Y-16567531D02*
X4288015Y-16586579D01*
X4288015Y-16586579D02*
X4297539Y-16624674D01*
X4297539Y-16624674D02*
X4297539Y-16672293D01*
X4297539Y-16672293D02*
X4288015Y-16710388D01*
X4288015Y-16710388D02*
X4278491Y-16729436D01*
X4278491Y-16729436D02*
X4268967Y-16738960D01*
X4268967Y-16738960D02*
X4249920Y-16748484D01*
X4249920Y-16748484D02*
X4230872Y-16748484D01*
X4230872Y-16748484D02*
X4211824Y-16738960D01*
X4211824Y-16738960D02*
X4202301Y-16729436D01*
X4202301Y-16729436D02*
X4192777Y-16710388D01*
X4192777Y-16710388D02*
X4183253Y-16672293D01*
X4183253Y-16672293D02*
X4183253Y-16624674D01*
X4183253Y-16624674D02*
X4192777Y-16586579D01*
X4192777Y-16586579D02*
X4202301Y-16567531D01*
X4202301Y-16567531D02*
X4211824Y-16558008D01*
X4211824Y-16558008D02*
X4230872Y-16548484D01*
X4383253Y-16729436D02*
X4392777Y-16738960D01*
X4392777Y-16738960D02*
X4383253Y-16748484D01*
X4383253Y-16748484D02*
X4373729Y-16738960D01*
X4373729Y-16738960D02*
X4383253Y-16729436D01*
X4383253Y-16729436D02*
X4383253Y-16748484D01*
X4564205Y-16615150D02*
X4564205Y-16748484D01*
X4516586Y-16538960D02*
X4468967Y-16681817D01*
X4468967Y-16681817D02*
X4592777Y-16681817D01*
X4707063Y-16548484D02*
X4726110Y-16548484D01*
X4726110Y-16548484D02*
X4745158Y-16558008D01*
X4745158Y-16558008D02*
X4754682Y-16567531D01*
X4754682Y-16567531D02*
X4764205Y-16586579D01*
X4764205Y-16586579D02*
X4773729Y-16624674D01*
X4773729Y-16624674D02*
X4773729Y-16672293D01*
X4773729Y-16672293D02*
X4764205Y-16710388D01*
X4764205Y-16710388D02*
X4754682Y-16729436D01*
X4754682Y-16729436D02*
X4745158Y-16738960D01*
X4745158Y-16738960D02*
X4726110Y-16748484D01*
X4726110Y-16748484D02*
X4707063Y-16748484D01*
X4707063Y-16748484D02*
X4688015Y-16738960D01*
X4688015Y-16738960D02*
X4678491Y-16729436D01*
X4678491Y-16729436D02*
X4668967Y-16710388D01*
X4668967Y-16710388D02*
X4659444Y-16672293D01*
X4659444Y-16672293D02*
X4659444Y-16624674D01*
X4659444Y-16624674D02*
X4668967Y-16586579D01*
X4668967Y-16586579D02*
X4678491Y-16567531D01*
X4678491Y-16567531D02*
X4688015Y-16558008D01*
X4688015Y-16558008D02*
X4707063Y-16548484D01*
X4897539Y-16548484D02*
X4916586Y-16548484D01*
X4916586Y-16548484D02*
X4935634Y-16558008D01*
X4935634Y-16558008D02*
X4945158Y-16567531D01*
X4945158Y-16567531D02*
X4954682Y-16586579D01*
X4954682Y-16586579D02*
X4964205Y-16624674D01*
X4964205Y-16624674D02*
X4964205Y-16672293D01*
X4964205Y-16672293D02*
X4954682Y-16710388D01*
X4954682Y-16710388D02*
X4945158Y-16729436D01*
X4945158Y-16729436D02*
X4935634Y-16738960D01*
X4935634Y-16738960D02*
X4916586Y-16748484D01*
X4916586Y-16748484D02*
X4897539Y-16748484D01*
X4897539Y-16748484D02*
X4878491Y-16738960D01*
X4878491Y-16738960D02*
X4868967Y-16729436D01*
X4868967Y-16729436D02*
X4859444Y-16710388D01*
X4859444Y-16710388D02*
X4849920Y-16672293D01*
X4849920Y-16672293D02*
X4849920Y-16624674D01*
X4849920Y-16624674D02*
X4859444Y-16586579D01*
X4859444Y-16586579D02*
X4868967Y-16567531D01*
X4868967Y-16567531D02*
X4878491Y-16558008D01*
X4878491Y-16558008D02*
X4897539Y-16548484D01*
X5049920Y-16748484D02*
X5049920Y-16615150D01*
X5049920Y-16634198D02*
X5059444Y-16624674D01*
X5059444Y-16624674D02*
X5078491Y-16615150D01*
X5078491Y-16615150D02*
X5107063Y-16615150D01*
X5107063Y-16615150D02*
X5126110Y-16624674D01*
X5126110Y-16624674D02*
X5135634Y-16643722D01*
X5135634Y-16643722D02*
X5135634Y-16748484D01*
X5135634Y-16643722D02*
X5145158Y-16624674D01*
X5145158Y-16624674D02*
X5164205Y-16615150D01*
X5164205Y-16615150D02*
X5192777Y-16615150D01*
X5192777Y-16615150D02*
X5211825Y-16624674D01*
X5211825Y-16624674D02*
X5221348Y-16643722D01*
X5221348Y-16643722D02*
X5221348Y-16748484D01*
X5316586Y-16748484D02*
X5316586Y-16615150D01*
X5316586Y-16634198D02*
X5326110Y-16624674D01*
X5326110Y-16624674D02*
X5345158Y-16615150D01*
X5345158Y-16615150D02*
X5373729Y-16615150D01*
X5373729Y-16615150D02*
X5392777Y-16624674D01*
X5392777Y-16624674D02*
X5402301Y-16643722D01*
X5402301Y-16643722D02*
X5402301Y-16748484D01*
X5402301Y-16643722D02*
X5411825Y-16624674D01*
X5411825Y-16624674D02*
X5430872Y-16615150D01*
X5430872Y-16615150D02*
X5459444Y-16615150D01*
X5459444Y-16615150D02*
X5478491Y-16624674D01*
X5478491Y-16624674D02*
X5488015Y-16643722D01*
X5488015Y-16643722D02*
X5488015Y-16748484D01*
X5878491Y-16538960D02*
X5707063Y-16796103D01*
X6135634Y-16548484D02*
X6154682Y-16548484D01*
X6154682Y-16548484D02*
X6173729Y-16558008D01*
X6173729Y-16558008D02*
X6183253Y-16567531D01*
X6183253Y-16567531D02*
X6192777Y-16586579D01*
X6192777Y-16586579D02*
X6202301Y-16624674D01*
X6202301Y-16624674D02*
X6202301Y-16672293D01*
X6202301Y-16672293D02*
X6192777Y-16710388D01*
X6192777Y-16710388D02*
X6183253Y-16729436D01*
X6183253Y-16729436D02*
X6173729Y-16738960D01*
X6173729Y-16738960D02*
X6154682Y-16748484D01*
X6154682Y-16748484D02*
X6135634Y-16748484D01*
X6135634Y-16748484D02*
X6116586Y-16738960D01*
X6116586Y-16738960D02*
X6107063Y-16729436D01*
X6107063Y-16729436D02*
X6097539Y-16710388D01*
X6097539Y-16710388D02*
X6088015Y-16672293D01*
X6088015Y-16672293D02*
X6088015Y-16624674D01*
X6088015Y-16624674D02*
X6097539Y-16586579D01*
X6097539Y-16586579D02*
X6107063Y-16567531D01*
X6107063Y-16567531D02*
X6116586Y-16558008D01*
X6116586Y-16558008D02*
X6135634Y-16548484D01*
X6288015Y-16729436D02*
X6297539Y-16738960D01*
X6297539Y-16738960D02*
X6288015Y-16748484D01*
X6288015Y-16748484D02*
X6278491Y-16738960D01*
X6278491Y-16738960D02*
X6288015Y-16729436D01*
X6288015Y-16729436D02*
X6288015Y-16748484D01*
X6421348Y-16548484D02*
X6440396Y-16548484D01*
X6440396Y-16548484D02*
X6459444Y-16558008D01*
X6459444Y-16558008D02*
X6468967Y-16567531D01*
X6468967Y-16567531D02*
X6478491Y-16586579D01*
X6478491Y-16586579D02*
X6488015Y-16624674D01*
X6488015Y-16624674D02*
X6488015Y-16672293D01*
X6488015Y-16672293D02*
X6478491Y-16710388D01*
X6478491Y-16710388D02*
X6468967Y-16729436D01*
X6468967Y-16729436D02*
X6459444Y-16738960D01*
X6459444Y-16738960D02*
X6440396Y-16748484D01*
X6440396Y-16748484D02*
X6421348Y-16748484D01*
X6421348Y-16748484D02*
X6402301Y-16738960D01*
X6402301Y-16738960D02*
X6392777Y-16729436D01*
X6392777Y-16729436D02*
X6383253Y-16710388D01*
X6383253Y-16710388D02*
X6373729Y-16672293D01*
X6373729Y-16672293D02*
X6373729Y-16624674D01*
X6373729Y-16624674D02*
X6383253Y-16586579D01*
X6383253Y-16586579D02*
X6392777Y-16567531D01*
X6392777Y-16567531D02*
X6402301Y-16558008D01*
X6402301Y-16558008D02*
X6421348Y-16548484D01*
X6678491Y-16748484D02*
X6564206Y-16748484D01*
X6621348Y-16748484D02*
X6621348Y-16548484D01*
X6621348Y-16548484D02*
X6602301Y-16577055D01*
X6602301Y-16577055D02*
X6583253Y-16596103D01*
X6583253Y-16596103D02*
X6564206Y-16605627D01*
X6859444Y-16548484D02*
X6764206Y-16548484D01*
X6764206Y-16548484D02*
X6754682Y-16643722D01*
X6754682Y-16643722D02*
X6764206Y-16634198D01*
X6764206Y-16634198D02*
X6783253Y-16624674D01*
X6783253Y-16624674D02*
X6830872Y-16624674D01*
X6830872Y-16624674D02*
X6849920Y-16634198D01*
X6849920Y-16634198D02*
X6859444Y-16643722D01*
X6859444Y-16643722D02*
X6868967Y-16662769D01*
X6868967Y-16662769D02*
X6868967Y-16710388D01*
X6868967Y-16710388D02*
X6859444Y-16729436D01*
X6859444Y-16729436D02*
X6849920Y-16738960D01*
X6849920Y-16738960D02*
X6830872Y-16748484D01*
X6830872Y-16748484D02*
X6783253Y-16748484D01*
X6783253Y-16748484D02*
X6764206Y-16738960D01*
X6764206Y-16738960D02*
X6754682Y-16729436D01*
X6935634Y-16548484D02*
X7068967Y-16548484D01*
X7068967Y-16548484D02*
X6983253Y-16748484D01*
X7135634Y-16548484D02*
X7135634Y-16586579D01*
X7211825Y-16548484D02*
X7211825Y-16586579D01*
X7507063Y-16824674D02*
X7497539Y-16815150D01*
X7497539Y-16815150D02*
X7478491Y-16786579D01*
X7478491Y-16786579D02*
X7468968Y-16767531D01*
X7468968Y-16767531D02*
X7459444Y-16738960D01*
X7459444Y-16738960D02*
X7449920Y-16691341D01*
X7449920Y-16691341D02*
X7449920Y-16653246D01*
X7449920Y-16653246D02*
X7459444Y-16605627D01*
X7459444Y-16605627D02*
X7468968Y-16577055D01*
X7468968Y-16577055D02*
X7478491Y-16558008D01*
X7478491Y-16558008D02*
X7497539Y-16529436D01*
X7497539Y-16529436D02*
X7507063Y-16519912D01*
X7688015Y-16748484D02*
X7573729Y-16748484D01*
X7630872Y-16748484D02*
X7630872Y-16548484D01*
X7630872Y-16548484D02*
X7611825Y-16577055D01*
X7611825Y-16577055D02*
X7592777Y-16596103D01*
X7592777Y-16596103D02*
X7573729Y-16605627D01*
X7859444Y-16548484D02*
X7821348Y-16548484D01*
X7821348Y-16548484D02*
X7802301Y-16558008D01*
X7802301Y-16558008D02*
X7792777Y-16567531D01*
X7792777Y-16567531D02*
X7773729Y-16596103D01*
X7773729Y-16596103D02*
X7764206Y-16634198D01*
X7764206Y-16634198D02*
X7764206Y-16710388D01*
X7764206Y-16710388D02*
X7773729Y-16729436D01*
X7773729Y-16729436D02*
X7783253Y-16738960D01*
X7783253Y-16738960D02*
X7802301Y-16748484D01*
X7802301Y-16748484D02*
X7840396Y-16748484D01*
X7840396Y-16748484D02*
X7859444Y-16738960D01*
X7859444Y-16738960D02*
X7868968Y-16729436D01*
X7868968Y-16729436D02*
X7878491Y-16710388D01*
X7878491Y-16710388D02*
X7878491Y-16662769D01*
X7878491Y-16662769D02*
X7868968Y-16643722D01*
X7868968Y-16643722D02*
X7859444Y-16634198D01*
X7859444Y-16634198D02*
X7840396Y-16624674D01*
X7840396Y-16624674D02*
X7802301Y-16624674D01*
X7802301Y-16624674D02*
X7783253Y-16634198D01*
X7783253Y-16634198D02*
X7773729Y-16643722D01*
X7773729Y-16643722D02*
X7764206Y-16662769D01*
X8116587Y-16748484D02*
X8116587Y-16548484D01*
X8202301Y-16748484D02*
X8202301Y-16643722D01*
X8202301Y-16643722D02*
X8192777Y-16624674D01*
X8192777Y-16624674D02*
X8173730Y-16615150D01*
X8173730Y-16615150D02*
X8145158Y-16615150D01*
X8145158Y-16615150D02*
X8126110Y-16624674D01*
X8126110Y-16624674D02*
X8116587Y-16634198D01*
X8326110Y-16748484D02*
X8307063Y-16738960D01*
X8307063Y-16738960D02*
X8297539Y-16729436D01*
X8297539Y-16729436D02*
X8288015Y-16710388D01*
X8288015Y-16710388D02*
X8288015Y-16653246D01*
X8288015Y-16653246D02*
X8297539Y-16634198D01*
X8297539Y-16634198D02*
X8307063Y-16624674D01*
X8307063Y-16624674D02*
X8326110Y-16615150D01*
X8326110Y-16615150D02*
X8354682Y-16615150D01*
X8354682Y-16615150D02*
X8373730Y-16624674D01*
X8373730Y-16624674D02*
X8383253Y-16634198D01*
X8383253Y-16634198D02*
X8392777Y-16653246D01*
X8392777Y-16653246D02*
X8392777Y-16710388D01*
X8392777Y-16710388D02*
X8383253Y-16729436D01*
X8383253Y-16729436D02*
X8373730Y-16738960D01*
X8373730Y-16738960D02*
X8354682Y-16748484D01*
X8354682Y-16748484D02*
X8326110Y-16748484D01*
X8507063Y-16748484D02*
X8488015Y-16738960D01*
X8488015Y-16738960D02*
X8478492Y-16719912D01*
X8478492Y-16719912D02*
X8478492Y-16548484D01*
X8659444Y-16738960D02*
X8640396Y-16748484D01*
X8640396Y-16748484D02*
X8602301Y-16748484D01*
X8602301Y-16748484D02*
X8583253Y-16738960D01*
X8583253Y-16738960D02*
X8573730Y-16719912D01*
X8573730Y-16719912D02*
X8573730Y-16643722D01*
X8573730Y-16643722D02*
X8583253Y-16624674D01*
X8583253Y-16624674D02*
X8602301Y-16615150D01*
X8602301Y-16615150D02*
X8640396Y-16615150D01*
X8640396Y-16615150D02*
X8659444Y-16624674D01*
X8659444Y-16624674D02*
X8668968Y-16643722D01*
X8668968Y-16643722D02*
X8668968Y-16662769D01*
X8668968Y-16662769D02*
X8573730Y-16681817D01*
X8745158Y-16738960D02*
X8764206Y-16748484D01*
X8764206Y-16748484D02*
X8802301Y-16748484D01*
X8802301Y-16748484D02*
X8821349Y-16738960D01*
X8821349Y-16738960D02*
X8830873Y-16719912D01*
X8830873Y-16719912D02*
X8830873Y-16710388D01*
X8830873Y-16710388D02*
X8821349Y-16691341D01*
X8821349Y-16691341D02*
X8802301Y-16681817D01*
X8802301Y-16681817D02*
X8773730Y-16681817D01*
X8773730Y-16681817D02*
X8754682Y-16672293D01*
X8754682Y-16672293D02*
X8745158Y-16653246D01*
X8745158Y-16653246D02*
X8745158Y-16643722D01*
X8745158Y-16643722D02*
X8754682Y-16624674D01*
X8754682Y-16624674D02*
X8773730Y-16615150D01*
X8773730Y-16615150D02*
X8802301Y-16615150D01*
X8802301Y-16615150D02*
X8821349Y-16624674D01*
X8897539Y-16824674D02*
X8907063Y-16815150D01*
X8907063Y-16815150D02*
X8926111Y-16786579D01*
X8926111Y-16786579D02*
X8935634Y-16767531D01*
X8935634Y-16767531D02*
X8945158Y-16738960D01*
X8945158Y-16738960D02*
X8954682Y-16691341D01*
X8954682Y-16691341D02*
X8954682Y-16653246D01*
X8954682Y-16653246D02*
X8945158Y-16605627D01*
X8945158Y-16605627D02*
X8935634Y-16577055D01*
X8935634Y-16577055D02*
X8926111Y-16558008D01*
X8926111Y-16558008D02*
X8907063Y-16529436D01*
X8907063Y-16529436D02*
X8897539Y-16519912D01*
D13*
X3902000Y-16891000D02*
X3902000Y-16951000D01*
X3872000Y-16921000D02*
X3932000Y-16921000D01*
D11*
X4230872Y-16812484D02*
X4249920Y-16812484D01*
X4249920Y-16812484D02*
X4268967Y-16822008D01*
X4268967Y-16822008D02*
X4278491Y-16831531D01*
X4278491Y-16831531D02*
X4288015Y-16850579D01*
X4288015Y-16850579D02*
X4297539Y-16888674D01*
X4297539Y-16888674D02*
X4297539Y-16936293D01*
X4297539Y-16936293D02*
X4288015Y-16974389D01*
X4288015Y-16974389D02*
X4278491Y-16993436D01*
X4278491Y-16993436D02*
X4268967Y-17002960D01*
X4268967Y-17002960D02*
X4249920Y-17012484D01*
X4249920Y-17012484D02*
X4230872Y-17012484D01*
X4230872Y-17012484D02*
X4211824Y-17002960D01*
X4211824Y-17002960D02*
X4202301Y-16993436D01*
X4202301Y-16993436D02*
X4192777Y-16974389D01*
X4192777Y-16974389D02*
X4183253Y-16936293D01*
X4183253Y-16936293D02*
X4183253Y-16888674D01*
X4183253Y-16888674D02*
X4192777Y-16850579D01*
X4192777Y-16850579D02*
X4202301Y-16831531D01*
X4202301Y-16831531D02*
X4211824Y-16822008D01*
X4211824Y-16822008D02*
X4230872Y-16812484D01*
X4383253Y-16993436D02*
X4392777Y-17002960D01*
X4392777Y-17002960D02*
X4383253Y-17012484D01*
X4383253Y-17012484D02*
X4373729Y-17002960D01*
X4373729Y-17002960D02*
X4383253Y-16993436D01*
X4383253Y-16993436D02*
X4383253Y-17012484D01*
X4564205Y-16812484D02*
X4526110Y-16812484D01*
X4526110Y-16812484D02*
X4507063Y-16822008D01*
X4507063Y-16822008D02*
X4497539Y-16831531D01*
X4497539Y-16831531D02*
X4478491Y-16860103D01*
X4478491Y-16860103D02*
X4468967Y-16898198D01*
X4468967Y-16898198D02*
X4468967Y-16974389D01*
X4468967Y-16974389D02*
X4478491Y-16993436D01*
X4478491Y-16993436D02*
X4488015Y-17002960D01*
X4488015Y-17002960D02*
X4507063Y-17012484D01*
X4507063Y-17012484D02*
X4545158Y-17012484D01*
X4545158Y-17012484D02*
X4564205Y-17002960D01*
X4564205Y-17002960D02*
X4573729Y-16993436D01*
X4573729Y-16993436D02*
X4583253Y-16974389D01*
X4583253Y-16974389D02*
X4583253Y-16926770D01*
X4583253Y-16926770D02*
X4573729Y-16907722D01*
X4573729Y-16907722D02*
X4564205Y-16898198D01*
X4564205Y-16898198D02*
X4545158Y-16888674D01*
X4545158Y-16888674D02*
X4507063Y-16888674D01*
X4507063Y-16888674D02*
X4488015Y-16898198D01*
X4488015Y-16898198D02*
X4478491Y-16907722D01*
X4478491Y-16907722D02*
X4468967Y-16926770D01*
X4707063Y-16812484D02*
X4726110Y-16812484D01*
X4726110Y-16812484D02*
X4745158Y-16822008D01*
X4745158Y-16822008D02*
X4754682Y-16831531D01*
X4754682Y-16831531D02*
X4764205Y-16850579D01*
X4764205Y-16850579D02*
X4773729Y-16888674D01*
X4773729Y-16888674D02*
X4773729Y-16936293D01*
X4773729Y-16936293D02*
X4764205Y-16974389D01*
X4764205Y-16974389D02*
X4754682Y-16993436D01*
X4754682Y-16993436D02*
X4745158Y-17002960D01*
X4745158Y-17002960D02*
X4726110Y-17012484D01*
X4726110Y-17012484D02*
X4707063Y-17012484D01*
X4707063Y-17012484D02*
X4688015Y-17002960D01*
X4688015Y-17002960D02*
X4678491Y-16993436D01*
X4678491Y-16993436D02*
X4668967Y-16974389D01*
X4668967Y-16974389D02*
X4659444Y-16936293D01*
X4659444Y-16936293D02*
X4659444Y-16888674D01*
X4659444Y-16888674D02*
X4668967Y-16850579D01*
X4668967Y-16850579D02*
X4678491Y-16831531D01*
X4678491Y-16831531D02*
X4688015Y-16822008D01*
X4688015Y-16822008D02*
X4707063Y-16812484D01*
X4897539Y-16812484D02*
X4916586Y-16812484D01*
X4916586Y-16812484D02*
X4935634Y-16822008D01*
X4935634Y-16822008D02*
X4945158Y-16831531D01*
X4945158Y-16831531D02*
X4954682Y-16850579D01*
X4954682Y-16850579D02*
X4964205Y-16888674D01*
X4964205Y-16888674D02*
X4964205Y-16936293D01*
X4964205Y-16936293D02*
X4954682Y-16974389D01*
X4954682Y-16974389D02*
X4945158Y-16993436D01*
X4945158Y-16993436D02*
X4935634Y-17002960D01*
X4935634Y-17002960D02*
X4916586Y-17012484D01*
X4916586Y-17012484D02*
X4897539Y-17012484D01*
X4897539Y-17012484D02*
X4878491Y-17002960D01*
X4878491Y-17002960D02*
X4868967Y-16993436D01*
X4868967Y-16993436D02*
X4859444Y-16974389D01*
X4859444Y-16974389D02*
X4849920Y-16936293D01*
X4849920Y-16936293D02*
X4849920Y-16888674D01*
X4849920Y-16888674D02*
X4859444Y-16850579D01*
X4859444Y-16850579D02*
X4868967Y-16831531D01*
X4868967Y-16831531D02*
X4878491Y-16822008D01*
X4878491Y-16822008D02*
X4897539Y-16812484D01*
X5049920Y-17012484D02*
X5049920Y-16879150D01*
X5049920Y-16898198D02*
X5059444Y-16888674D01*
X5059444Y-16888674D02*
X5078491Y-16879150D01*
X5078491Y-16879150D02*
X5107063Y-16879150D01*
X5107063Y-16879150D02*
X5126110Y-16888674D01*
X5126110Y-16888674D02*
X5135634Y-16907722D01*
X5135634Y-16907722D02*
X5135634Y-17012484D01*
X5135634Y-16907722D02*
X5145158Y-16888674D01*
X5145158Y-16888674D02*
X5164205Y-16879150D01*
X5164205Y-16879150D02*
X5192777Y-16879150D01*
X5192777Y-16879150D02*
X5211825Y-16888674D01*
X5211825Y-16888674D02*
X5221348Y-16907722D01*
X5221348Y-16907722D02*
X5221348Y-17012484D01*
X5316586Y-17012484D02*
X5316586Y-16879150D01*
X5316586Y-16898198D02*
X5326110Y-16888674D01*
X5326110Y-16888674D02*
X5345158Y-16879150D01*
X5345158Y-16879150D02*
X5373729Y-16879150D01*
X5373729Y-16879150D02*
X5392777Y-16888674D01*
X5392777Y-16888674D02*
X5402301Y-16907722D01*
X5402301Y-16907722D02*
X5402301Y-17012484D01*
X5402301Y-16907722D02*
X5411825Y-16888674D01*
X5411825Y-16888674D02*
X5430872Y-16879150D01*
X5430872Y-16879150D02*
X5459444Y-16879150D01*
X5459444Y-16879150D02*
X5478491Y-16888674D01*
X5478491Y-16888674D02*
X5488015Y-16907722D01*
X5488015Y-16907722D02*
X5488015Y-17012484D01*
X5878491Y-16802960D02*
X5707063Y-17060103D01*
X6135634Y-16812484D02*
X6154682Y-16812484D01*
X6154682Y-16812484D02*
X6173729Y-16822008D01*
X6173729Y-16822008D02*
X6183253Y-16831531D01*
X6183253Y-16831531D02*
X6192777Y-16850579D01*
X6192777Y-16850579D02*
X6202301Y-16888674D01*
X6202301Y-16888674D02*
X6202301Y-16936293D01*
X6202301Y-16936293D02*
X6192777Y-16974389D01*
X6192777Y-16974389D02*
X6183253Y-16993436D01*
X6183253Y-16993436D02*
X6173729Y-17002960D01*
X6173729Y-17002960D02*
X6154682Y-17012484D01*
X6154682Y-17012484D02*
X6135634Y-17012484D01*
X6135634Y-17012484D02*
X6116586Y-17002960D01*
X6116586Y-17002960D02*
X6107063Y-16993436D01*
X6107063Y-16993436D02*
X6097539Y-16974389D01*
X6097539Y-16974389D02*
X6088015Y-16936293D01*
X6088015Y-16936293D02*
X6088015Y-16888674D01*
X6088015Y-16888674D02*
X6097539Y-16850579D01*
X6097539Y-16850579D02*
X6107063Y-16831531D01*
X6107063Y-16831531D02*
X6116586Y-16822008D01*
X6116586Y-16822008D02*
X6135634Y-16812484D01*
X6288015Y-16993436D02*
X6297539Y-17002960D01*
X6297539Y-17002960D02*
X6288015Y-17012484D01*
X6288015Y-17012484D02*
X6278491Y-17002960D01*
X6278491Y-17002960D02*
X6288015Y-16993436D01*
X6288015Y-16993436D02*
X6288015Y-17012484D01*
X6421348Y-16812484D02*
X6440396Y-16812484D01*
X6440396Y-16812484D02*
X6459444Y-16822008D01*
X6459444Y-16822008D02*
X6468967Y-16831531D01*
X6468967Y-16831531D02*
X6478491Y-16850579D01*
X6478491Y-16850579D02*
X6488015Y-16888674D01*
X6488015Y-16888674D02*
X6488015Y-16936293D01*
X6488015Y-16936293D02*
X6478491Y-16974389D01*
X6478491Y-16974389D02*
X6468967Y-16993436D01*
X6468967Y-16993436D02*
X6459444Y-17002960D01*
X6459444Y-17002960D02*
X6440396Y-17012484D01*
X6440396Y-17012484D02*
X6421348Y-17012484D01*
X6421348Y-17012484D02*
X6402301Y-17002960D01*
X6402301Y-17002960D02*
X6392777Y-16993436D01*
X6392777Y-16993436D02*
X6383253Y-16974389D01*
X6383253Y-16974389D02*
X6373729Y-16936293D01*
X6373729Y-16936293D02*
X6373729Y-16888674D01*
X6373729Y-16888674D02*
X6383253Y-16850579D01*
X6383253Y-16850579D02*
X6392777Y-16831531D01*
X6392777Y-16831531D02*
X6402301Y-16822008D01*
X6402301Y-16822008D02*
X6421348Y-16812484D01*
X6564206Y-16831531D02*
X6573729Y-16822008D01*
X6573729Y-16822008D02*
X6592777Y-16812484D01*
X6592777Y-16812484D02*
X6640396Y-16812484D01*
X6640396Y-16812484D02*
X6659444Y-16822008D01*
X6659444Y-16822008D02*
X6668967Y-16831531D01*
X6668967Y-16831531D02*
X6678491Y-16850579D01*
X6678491Y-16850579D02*
X6678491Y-16869627D01*
X6678491Y-16869627D02*
X6668967Y-16898198D01*
X6668967Y-16898198D02*
X6554682Y-17012484D01*
X6554682Y-17012484D02*
X6678491Y-17012484D01*
X6745158Y-16812484D02*
X6868967Y-16812484D01*
X6868967Y-16812484D02*
X6802301Y-16888674D01*
X6802301Y-16888674D02*
X6830872Y-16888674D01*
X6830872Y-16888674D02*
X6849920Y-16898198D01*
X6849920Y-16898198D02*
X6859444Y-16907722D01*
X6859444Y-16907722D02*
X6868967Y-16926770D01*
X6868967Y-16926770D02*
X6868967Y-16974389D01*
X6868967Y-16974389D02*
X6859444Y-16993436D01*
X6859444Y-16993436D02*
X6849920Y-17002960D01*
X6849920Y-17002960D02*
X6830872Y-17012484D01*
X6830872Y-17012484D02*
X6773729Y-17012484D01*
X6773729Y-17012484D02*
X6754682Y-17002960D01*
X6754682Y-17002960D02*
X6745158Y-16993436D01*
X7040396Y-16812484D02*
X7002301Y-16812484D01*
X7002301Y-16812484D02*
X6983253Y-16822008D01*
X6983253Y-16822008D02*
X6973729Y-16831531D01*
X6973729Y-16831531D02*
X6954682Y-16860103D01*
X6954682Y-16860103D02*
X6945158Y-16898198D01*
X6945158Y-16898198D02*
X6945158Y-16974389D01*
X6945158Y-16974389D02*
X6954682Y-16993436D01*
X6954682Y-16993436D02*
X6964206Y-17002960D01*
X6964206Y-17002960D02*
X6983253Y-17012484D01*
X6983253Y-17012484D02*
X7021348Y-17012484D01*
X7021348Y-17012484D02*
X7040396Y-17002960D01*
X7040396Y-17002960D02*
X7049920Y-16993436D01*
X7049920Y-16993436D02*
X7059444Y-16974389D01*
X7059444Y-16974389D02*
X7059444Y-16926770D01*
X7059444Y-16926770D02*
X7049920Y-16907722D01*
X7049920Y-16907722D02*
X7040396Y-16898198D01*
X7040396Y-16898198D02*
X7021348Y-16888674D01*
X7021348Y-16888674D02*
X6983253Y-16888674D01*
X6983253Y-16888674D02*
X6964206Y-16898198D01*
X6964206Y-16898198D02*
X6954682Y-16907722D01*
X6954682Y-16907722D02*
X6945158Y-16926770D01*
X7135634Y-16812484D02*
X7135634Y-16850579D01*
X7211825Y-16812484D02*
X7211825Y-16850579D01*
X7507063Y-17088674D02*
X7497539Y-17079150D01*
X7497539Y-17079150D02*
X7478491Y-17050579D01*
X7478491Y-17050579D02*
X7468968Y-17031531D01*
X7468968Y-17031531D02*
X7459444Y-17002960D01*
X7459444Y-17002960D02*
X7449920Y-16955341D01*
X7449920Y-16955341D02*
X7449920Y-16917246D01*
X7449920Y-16917246D02*
X7459444Y-16869627D01*
X7459444Y-16869627D02*
X7468968Y-16841055D01*
X7468968Y-16841055D02*
X7478491Y-16822008D01*
X7478491Y-16822008D02*
X7497539Y-16793436D01*
X7497539Y-16793436D02*
X7507063Y-16783912D01*
X7621348Y-16812484D02*
X7640396Y-16812484D01*
X7640396Y-16812484D02*
X7659444Y-16822008D01*
X7659444Y-16822008D02*
X7668968Y-16831531D01*
X7668968Y-16831531D02*
X7678491Y-16850579D01*
X7678491Y-16850579D02*
X7688015Y-16888674D01*
X7688015Y-16888674D02*
X7688015Y-16936293D01*
X7688015Y-16936293D02*
X7678491Y-16974389D01*
X7678491Y-16974389D02*
X7668968Y-16993436D01*
X7668968Y-16993436D02*
X7659444Y-17002960D01*
X7659444Y-17002960D02*
X7640396Y-17012484D01*
X7640396Y-17012484D02*
X7621348Y-17012484D01*
X7621348Y-17012484D02*
X7602301Y-17002960D01*
X7602301Y-17002960D02*
X7592777Y-16993436D01*
X7592777Y-16993436D02*
X7583253Y-16974389D01*
X7583253Y-16974389D02*
X7573729Y-16936293D01*
X7573729Y-16936293D02*
X7573729Y-16888674D01*
X7573729Y-16888674D02*
X7583253Y-16850579D01*
X7583253Y-16850579D02*
X7592777Y-16831531D01*
X7592777Y-16831531D02*
X7602301Y-16822008D01*
X7602301Y-16822008D02*
X7621348Y-16812484D01*
X7926110Y-17012484D02*
X7926110Y-16812484D01*
X8011825Y-17012484D02*
X8011825Y-16907722D01*
X8011825Y-16907722D02*
X8002301Y-16888674D01*
X8002301Y-16888674D02*
X7983253Y-16879150D01*
X7983253Y-16879150D02*
X7954682Y-16879150D01*
X7954682Y-16879150D02*
X7935634Y-16888674D01*
X7935634Y-16888674D02*
X7926110Y-16898198D01*
X8135634Y-17012484D02*
X8116587Y-17002960D01*
X8116587Y-17002960D02*
X8107063Y-16993436D01*
X8107063Y-16993436D02*
X8097539Y-16974389D01*
X8097539Y-16974389D02*
X8097539Y-16917246D01*
X8097539Y-16917246D02*
X8107063Y-16898198D01*
X8107063Y-16898198D02*
X8116587Y-16888674D01*
X8116587Y-16888674D02*
X8135634Y-16879150D01*
X8135634Y-16879150D02*
X8164206Y-16879150D01*
X8164206Y-16879150D02*
X8183253Y-16888674D01*
X8183253Y-16888674D02*
X8192777Y-16898198D01*
X8192777Y-16898198D02*
X8202301Y-16917246D01*
X8202301Y-16917246D02*
X8202301Y-16974389D01*
X8202301Y-16974389D02*
X8192777Y-16993436D01*
X8192777Y-16993436D02*
X8183253Y-17002960D01*
X8183253Y-17002960D02*
X8164206Y-17012484D01*
X8164206Y-17012484D02*
X8135634Y-17012484D01*
X8316587Y-17012484D02*
X8297539Y-17002960D01*
X8297539Y-17002960D02*
X8288015Y-16983912D01*
X8288015Y-16983912D02*
X8288015Y-16812484D01*
X8468968Y-17002960D02*
X8449920Y-17012484D01*
X8449920Y-17012484D02*
X8411825Y-17012484D01*
X8411825Y-17012484D02*
X8392777Y-17002960D01*
X8392777Y-17002960D02*
X8383253Y-16983912D01*
X8383253Y-16983912D02*
X8383253Y-16907722D01*
X8383253Y-16907722D02*
X8392777Y-16888674D01*
X8392777Y-16888674D02*
X8411825Y-16879150D01*
X8411825Y-16879150D02*
X8449920Y-16879150D01*
X8449920Y-16879150D02*
X8468968Y-16888674D01*
X8468968Y-16888674D02*
X8478492Y-16907722D01*
X8478492Y-16907722D02*
X8478492Y-16926770D01*
X8478492Y-16926770D02*
X8383253Y-16945817D01*
X8554682Y-17002960D02*
X8573730Y-17012484D01*
X8573730Y-17012484D02*
X8611825Y-17012484D01*
X8611825Y-17012484D02*
X8630873Y-17002960D01*
X8630873Y-17002960D02*
X8640396Y-16983912D01*
X8640396Y-16983912D02*
X8640396Y-16974389D01*
X8640396Y-16974389D02*
X8630873Y-16955341D01*
X8630873Y-16955341D02*
X8611825Y-16945817D01*
X8611825Y-16945817D02*
X8583253Y-16945817D01*
X8583253Y-16945817D02*
X8564206Y-16936293D01*
X8564206Y-16936293D02*
X8554682Y-16917246D01*
X8554682Y-16917246D02*
X8554682Y-16907722D01*
X8554682Y-16907722D02*
X8564206Y-16888674D01*
X8564206Y-16888674D02*
X8583253Y-16879150D01*
X8583253Y-16879150D02*
X8611825Y-16879150D01*
X8611825Y-16879150D02*
X8630873Y-16888674D01*
X8878492Y-16936293D02*
X9030873Y-16936293D01*
X8954682Y-17012484D02*
X8954682Y-16860103D01*
X9364206Y-16879150D02*
X9364206Y-17012484D01*
X9316587Y-16802960D02*
X9268968Y-16945817D01*
X9268968Y-16945817D02*
X9392777Y-16945817D01*
X9611825Y-17002960D02*
X9630873Y-17012484D01*
X9630873Y-17012484D02*
X9668968Y-17012484D01*
X9668968Y-17012484D02*
X9688016Y-17002960D01*
X9688016Y-17002960D02*
X9697539Y-16983912D01*
X9697539Y-16983912D02*
X9697539Y-16974389D01*
X9697539Y-16974389D02*
X9688016Y-16955341D01*
X9688016Y-16955341D02*
X9668968Y-16945817D01*
X9668968Y-16945817D02*
X9640396Y-16945817D01*
X9640396Y-16945817D02*
X9621349Y-16936293D01*
X9621349Y-16936293D02*
X9611825Y-16917246D01*
X9611825Y-16917246D02*
X9611825Y-16907722D01*
X9611825Y-16907722D02*
X9621349Y-16888674D01*
X9621349Y-16888674D02*
X9640396Y-16879150D01*
X9640396Y-16879150D02*
X9668968Y-16879150D01*
X9668968Y-16879150D02*
X9688016Y-16888674D01*
X9811825Y-17012484D02*
X9792777Y-17002960D01*
X9792777Y-17002960D02*
X9783254Y-16983912D01*
X9783254Y-16983912D02*
X9783254Y-16812484D01*
X9916587Y-17012484D02*
X9897539Y-17002960D01*
X9897539Y-17002960D02*
X9888016Y-16993436D01*
X9888016Y-16993436D02*
X9878492Y-16974389D01*
X9878492Y-16974389D02*
X9878492Y-16917246D01*
X9878492Y-16917246D02*
X9888016Y-16898198D01*
X9888016Y-16898198D02*
X9897539Y-16888674D01*
X9897539Y-16888674D02*
X9916587Y-16879150D01*
X9916587Y-16879150D02*
X9945158Y-16879150D01*
X9945158Y-16879150D02*
X9964206Y-16888674D01*
X9964206Y-16888674D02*
X9973730Y-16898198D01*
X9973730Y-16898198D02*
X9983254Y-16917246D01*
X9983254Y-16917246D02*
X9983254Y-16974389D01*
X9983254Y-16974389D02*
X9973730Y-16993436D01*
X9973730Y-16993436D02*
X9964206Y-17002960D01*
X9964206Y-17002960D02*
X9945158Y-17012484D01*
X9945158Y-17012484D02*
X9916587Y-17012484D01*
X10040397Y-16879150D02*
X10116587Y-16879150D01*
X10068968Y-16812484D02*
X10068968Y-16983912D01*
X10068968Y-16983912D02*
X10078492Y-17002960D01*
X10078492Y-17002960D02*
X10097539Y-17012484D01*
X10097539Y-17012484D02*
X10116587Y-17012484D01*
X10173730Y-17002960D02*
X10192777Y-17012484D01*
X10192777Y-17012484D02*
X10230873Y-17012484D01*
X10230873Y-17012484D02*
X10249920Y-17002960D01*
X10249920Y-17002960D02*
X10259444Y-16983912D01*
X10259444Y-16983912D02*
X10259444Y-16974389D01*
X10259444Y-16974389D02*
X10249920Y-16955341D01*
X10249920Y-16955341D02*
X10230873Y-16945817D01*
X10230873Y-16945817D02*
X10202301Y-16945817D01*
X10202301Y-16945817D02*
X10183254Y-16936293D01*
X10183254Y-16936293D02*
X10173730Y-16917246D01*
X10173730Y-16917246D02*
X10173730Y-16907722D01*
X10173730Y-16907722D02*
X10183254Y-16888674D01*
X10183254Y-16888674D02*
X10202301Y-16879150D01*
X10202301Y-16879150D02*
X10230873Y-16879150D01*
X10230873Y-16879150D02*
X10249920Y-16888674D01*
X10326111Y-17088674D02*
X10335635Y-17079150D01*
X10335635Y-17079150D02*
X10354682Y-17050579D01*
X10354682Y-17050579D02*
X10364206Y-17031531D01*
X10364206Y-17031531D02*
X10373730Y-17002960D01*
X10373730Y-17002960D02*
X10383254Y-16955341D01*
X10383254Y-16955341D02*
X10383254Y-16917246D01*
X10383254Y-16917246D02*
X10373730Y-16869627D01*
X10373730Y-16869627D02*
X10364206Y-16841055D01*
X10364206Y-16841055D02*
X10354682Y-16822008D01*
X10354682Y-16822008D02*
X10335635Y-16793436D01*
X10335635Y-16793436D02*
X10326111Y-16783912D01*
D14*
X3921749Y-17209749D02*
X3921749Y-17160251D01*
X3872251Y-17160251D01*
X3872251Y-17209749D01*
X3921749Y-17209749D01*
D11*
X4230872Y-17076484D02*
X4249920Y-17076484D01*
X4249920Y-17076484D02*
X4268967Y-17086008D01*
X4268967Y-17086008D02*
X4278491Y-17095531D01*
X4278491Y-17095531D02*
X4288015Y-17114579D01*
X4288015Y-17114579D02*
X4297539Y-17152674D01*
X4297539Y-17152674D02*
X4297539Y-17200293D01*
X4297539Y-17200293D02*
X4288015Y-17238389D01*
X4288015Y-17238389D02*
X4278491Y-17257436D01*
X4278491Y-17257436D02*
X4268967Y-17266960D01*
X4268967Y-17266960D02*
X4249920Y-17276484D01*
X4249920Y-17276484D02*
X4230872Y-17276484D01*
X4230872Y-17276484D02*
X4211824Y-17266960D01*
X4211824Y-17266960D02*
X4202301Y-17257436D01*
X4202301Y-17257436D02*
X4192777Y-17238389D01*
X4192777Y-17238389D02*
X4183253Y-17200293D01*
X4183253Y-17200293D02*
X4183253Y-17152674D01*
X4183253Y-17152674D02*
X4192777Y-17114579D01*
X4192777Y-17114579D02*
X4202301Y-17095531D01*
X4202301Y-17095531D02*
X4211824Y-17086008D01*
X4211824Y-17086008D02*
X4230872Y-17076484D01*
X4383253Y-17257436D02*
X4392777Y-17266960D01*
X4392777Y-17266960D02*
X4383253Y-17276484D01*
X4383253Y-17276484D02*
X4373729Y-17266960D01*
X4373729Y-17266960D02*
X4383253Y-17257436D01*
X4383253Y-17257436D02*
X4383253Y-17276484D01*
X4459444Y-17076484D02*
X4592777Y-17076484D01*
X4592777Y-17076484D02*
X4507063Y-17276484D01*
X4707063Y-17076484D02*
X4726110Y-17076484D01*
X4726110Y-17076484D02*
X4745158Y-17086008D01*
X4745158Y-17086008D02*
X4754682Y-17095531D01*
X4754682Y-17095531D02*
X4764205Y-17114579D01*
X4764205Y-17114579D02*
X4773729Y-17152674D01*
X4773729Y-17152674D02*
X4773729Y-17200293D01*
X4773729Y-17200293D02*
X4764205Y-17238389D01*
X4764205Y-17238389D02*
X4754682Y-17257436D01*
X4754682Y-17257436D02*
X4745158Y-17266960D01*
X4745158Y-17266960D02*
X4726110Y-17276484D01*
X4726110Y-17276484D02*
X4707063Y-17276484D01*
X4707063Y-17276484D02*
X4688015Y-17266960D01*
X4688015Y-17266960D02*
X4678491Y-17257436D01*
X4678491Y-17257436D02*
X4668967Y-17238389D01*
X4668967Y-17238389D02*
X4659444Y-17200293D01*
X4659444Y-17200293D02*
X4659444Y-17152674D01*
X4659444Y-17152674D02*
X4668967Y-17114579D01*
X4668967Y-17114579D02*
X4678491Y-17095531D01*
X4678491Y-17095531D02*
X4688015Y-17086008D01*
X4688015Y-17086008D02*
X4707063Y-17076484D01*
X4897539Y-17076484D02*
X4916586Y-17076484D01*
X4916586Y-17076484D02*
X4935634Y-17086008D01*
X4935634Y-17086008D02*
X4945158Y-17095531D01*
X4945158Y-17095531D02*
X4954682Y-17114579D01*
X4954682Y-17114579D02*
X4964205Y-17152674D01*
X4964205Y-17152674D02*
X4964205Y-17200293D01*
X4964205Y-17200293D02*
X4954682Y-17238389D01*
X4954682Y-17238389D02*
X4945158Y-17257436D01*
X4945158Y-17257436D02*
X4935634Y-17266960D01*
X4935634Y-17266960D02*
X4916586Y-17276484D01*
X4916586Y-17276484D02*
X4897539Y-17276484D01*
X4897539Y-17276484D02*
X4878491Y-17266960D01*
X4878491Y-17266960D02*
X4868967Y-17257436D01*
X4868967Y-17257436D02*
X4859444Y-17238389D01*
X4859444Y-17238389D02*
X4849920Y-17200293D01*
X4849920Y-17200293D02*
X4849920Y-17152674D01*
X4849920Y-17152674D02*
X4859444Y-17114579D01*
X4859444Y-17114579D02*
X4868967Y-17095531D01*
X4868967Y-17095531D02*
X4878491Y-17086008D01*
X4878491Y-17086008D02*
X4897539Y-17076484D01*
X5049920Y-17276484D02*
X5049920Y-17143150D01*
X5049920Y-17162198D02*
X5059444Y-17152674D01*
X5059444Y-17152674D02*
X5078491Y-17143150D01*
X5078491Y-17143150D02*
X5107063Y-17143150D01*
X5107063Y-17143150D02*
X5126110Y-17152674D01*
X5126110Y-17152674D02*
X5135634Y-17171722D01*
X5135634Y-17171722D02*
X5135634Y-17276484D01*
X5135634Y-17171722D02*
X5145158Y-17152674D01*
X5145158Y-17152674D02*
X5164205Y-17143150D01*
X5164205Y-17143150D02*
X5192777Y-17143150D01*
X5192777Y-17143150D02*
X5211825Y-17152674D01*
X5211825Y-17152674D02*
X5221348Y-17171722D01*
X5221348Y-17171722D02*
X5221348Y-17276484D01*
X5316586Y-17276484D02*
X5316586Y-17143150D01*
X5316586Y-17162198D02*
X5326110Y-17152674D01*
X5326110Y-17152674D02*
X5345158Y-17143150D01*
X5345158Y-17143150D02*
X5373729Y-17143150D01*
X5373729Y-17143150D02*
X5392777Y-17152674D01*
X5392777Y-17152674D02*
X5402301Y-17171722D01*
X5402301Y-17171722D02*
X5402301Y-17276484D01*
X5402301Y-17171722D02*
X5411825Y-17152674D01*
X5411825Y-17152674D02*
X5430872Y-17143150D01*
X5430872Y-17143150D02*
X5459444Y-17143150D01*
X5459444Y-17143150D02*
X5478491Y-17152674D01*
X5478491Y-17152674D02*
X5488015Y-17171722D01*
X5488015Y-17171722D02*
X5488015Y-17276484D01*
X5878491Y-17066960D02*
X5707063Y-17324103D01*
X6135634Y-17076484D02*
X6154682Y-17076484D01*
X6154682Y-17076484D02*
X6173729Y-17086008D01*
X6173729Y-17086008D02*
X6183253Y-17095531D01*
X6183253Y-17095531D02*
X6192777Y-17114579D01*
X6192777Y-17114579D02*
X6202301Y-17152674D01*
X6202301Y-17152674D02*
X6202301Y-17200293D01*
X6202301Y-17200293D02*
X6192777Y-17238389D01*
X6192777Y-17238389D02*
X6183253Y-17257436D01*
X6183253Y-17257436D02*
X6173729Y-17266960D01*
X6173729Y-17266960D02*
X6154682Y-17276484D01*
X6154682Y-17276484D02*
X6135634Y-17276484D01*
X6135634Y-17276484D02*
X6116586Y-17266960D01*
X6116586Y-17266960D02*
X6107063Y-17257436D01*
X6107063Y-17257436D02*
X6097539Y-17238389D01*
X6097539Y-17238389D02*
X6088015Y-17200293D01*
X6088015Y-17200293D02*
X6088015Y-17152674D01*
X6088015Y-17152674D02*
X6097539Y-17114579D01*
X6097539Y-17114579D02*
X6107063Y-17095531D01*
X6107063Y-17095531D02*
X6116586Y-17086008D01*
X6116586Y-17086008D02*
X6135634Y-17076484D01*
X6288015Y-17257436D02*
X6297539Y-17266960D01*
X6297539Y-17266960D02*
X6288015Y-17276484D01*
X6288015Y-17276484D02*
X6278491Y-17266960D01*
X6278491Y-17266960D02*
X6288015Y-17257436D01*
X6288015Y-17257436D02*
X6288015Y-17276484D01*
X6421348Y-17076484D02*
X6440396Y-17076484D01*
X6440396Y-17076484D02*
X6459444Y-17086008D01*
X6459444Y-17086008D02*
X6468967Y-17095531D01*
X6468967Y-17095531D02*
X6478491Y-17114579D01*
X6478491Y-17114579D02*
X6488015Y-17152674D01*
X6488015Y-17152674D02*
X6488015Y-17200293D01*
X6488015Y-17200293D02*
X6478491Y-17238389D01*
X6478491Y-17238389D02*
X6468967Y-17257436D01*
X6468967Y-17257436D02*
X6459444Y-17266960D01*
X6459444Y-17266960D02*
X6440396Y-17276484D01*
X6440396Y-17276484D02*
X6421348Y-17276484D01*
X6421348Y-17276484D02*
X6402301Y-17266960D01*
X6402301Y-17266960D02*
X6392777Y-17257436D01*
X6392777Y-17257436D02*
X6383253Y-17238389D01*
X6383253Y-17238389D02*
X6373729Y-17200293D01*
X6373729Y-17200293D02*
X6373729Y-17152674D01*
X6373729Y-17152674D02*
X6383253Y-17114579D01*
X6383253Y-17114579D02*
X6392777Y-17095531D01*
X6392777Y-17095531D02*
X6402301Y-17086008D01*
X6402301Y-17086008D02*
X6421348Y-17076484D01*
X6564206Y-17095531D02*
X6573729Y-17086008D01*
X6573729Y-17086008D02*
X6592777Y-17076484D01*
X6592777Y-17076484D02*
X6640396Y-17076484D01*
X6640396Y-17076484D02*
X6659444Y-17086008D01*
X6659444Y-17086008D02*
X6668967Y-17095531D01*
X6668967Y-17095531D02*
X6678491Y-17114579D01*
X6678491Y-17114579D02*
X6678491Y-17133627D01*
X6678491Y-17133627D02*
X6668967Y-17162198D01*
X6668967Y-17162198D02*
X6554682Y-17276484D01*
X6554682Y-17276484D02*
X6678491Y-17276484D01*
X6745158Y-17076484D02*
X6878491Y-17076484D01*
X6878491Y-17076484D02*
X6792777Y-17276484D01*
X7040396Y-17076484D02*
X7002301Y-17076484D01*
X7002301Y-17076484D02*
X6983253Y-17086008D01*
X6983253Y-17086008D02*
X6973729Y-17095531D01*
X6973729Y-17095531D02*
X6954682Y-17124103D01*
X6954682Y-17124103D02*
X6945158Y-17162198D01*
X6945158Y-17162198D02*
X6945158Y-17238389D01*
X6945158Y-17238389D02*
X6954682Y-17257436D01*
X6954682Y-17257436D02*
X6964206Y-17266960D01*
X6964206Y-17266960D02*
X6983253Y-17276484D01*
X6983253Y-17276484D02*
X7021348Y-17276484D01*
X7021348Y-17276484D02*
X7040396Y-17266960D01*
X7040396Y-17266960D02*
X7049920Y-17257436D01*
X7049920Y-17257436D02*
X7059444Y-17238389D01*
X7059444Y-17238389D02*
X7059444Y-17190770D01*
X7059444Y-17190770D02*
X7049920Y-17171722D01*
X7049920Y-17171722D02*
X7040396Y-17162198D01*
X7040396Y-17162198D02*
X7021348Y-17152674D01*
X7021348Y-17152674D02*
X6983253Y-17152674D01*
X6983253Y-17152674D02*
X6964206Y-17162198D01*
X6964206Y-17162198D02*
X6954682Y-17171722D01*
X6954682Y-17171722D02*
X6945158Y-17190770D01*
X7135634Y-17076484D02*
X7135634Y-17114579D01*
X7211825Y-17076484D02*
X7211825Y-17114579D01*
X7507063Y-17352674D02*
X7497539Y-17343150D01*
X7497539Y-17343150D02*
X7478491Y-17314579D01*
X7478491Y-17314579D02*
X7468968Y-17295531D01*
X7468968Y-17295531D02*
X7459444Y-17266960D01*
X7459444Y-17266960D02*
X7449920Y-17219341D01*
X7449920Y-17219341D02*
X7449920Y-17181246D01*
X7449920Y-17181246D02*
X7459444Y-17133627D01*
X7459444Y-17133627D02*
X7468968Y-17105055D01*
X7468968Y-17105055D02*
X7478491Y-17086008D01*
X7478491Y-17086008D02*
X7497539Y-17057436D01*
X7497539Y-17057436D02*
X7507063Y-17047912D01*
X7688015Y-17276484D02*
X7573729Y-17276484D01*
X7630872Y-17276484D02*
X7630872Y-17076484D01*
X7630872Y-17076484D02*
X7611825Y-17105055D01*
X7611825Y-17105055D02*
X7592777Y-17124103D01*
X7592777Y-17124103D02*
X7573729Y-17133627D01*
X7859444Y-17076484D02*
X7821348Y-17076484D01*
X7821348Y-17076484D02*
X7802301Y-17086008D01*
X7802301Y-17086008D02*
X7792777Y-17095531D01*
X7792777Y-17095531D02*
X7773729Y-17124103D01*
X7773729Y-17124103D02*
X7764206Y-17162198D01*
X7764206Y-17162198D02*
X7764206Y-17238389D01*
X7764206Y-17238389D02*
X7773729Y-17257436D01*
X7773729Y-17257436D02*
X7783253Y-17266960D01*
X7783253Y-17266960D02*
X7802301Y-17276484D01*
X7802301Y-17276484D02*
X7840396Y-17276484D01*
X7840396Y-17276484D02*
X7859444Y-17266960D01*
X7859444Y-17266960D02*
X7868968Y-17257436D01*
X7868968Y-17257436D02*
X7878491Y-17238389D01*
X7878491Y-17238389D02*
X7878491Y-17190770D01*
X7878491Y-17190770D02*
X7868968Y-17171722D01*
X7868968Y-17171722D02*
X7859444Y-17162198D01*
X7859444Y-17162198D02*
X7840396Y-17152674D01*
X7840396Y-17152674D02*
X7802301Y-17152674D01*
X7802301Y-17152674D02*
X7783253Y-17162198D01*
X7783253Y-17162198D02*
X7773729Y-17171722D01*
X7773729Y-17171722D02*
X7764206Y-17190770D01*
X8116587Y-17276484D02*
X8116587Y-17076484D01*
X8202301Y-17276484D02*
X8202301Y-17171722D01*
X8202301Y-17171722D02*
X8192777Y-17152674D01*
X8192777Y-17152674D02*
X8173730Y-17143150D01*
X8173730Y-17143150D02*
X8145158Y-17143150D01*
X8145158Y-17143150D02*
X8126110Y-17152674D01*
X8126110Y-17152674D02*
X8116587Y-17162198D01*
X8326110Y-17276484D02*
X8307063Y-17266960D01*
X8307063Y-17266960D02*
X8297539Y-17257436D01*
X8297539Y-17257436D02*
X8288015Y-17238389D01*
X8288015Y-17238389D02*
X8288015Y-17181246D01*
X8288015Y-17181246D02*
X8297539Y-17162198D01*
X8297539Y-17162198D02*
X8307063Y-17152674D01*
X8307063Y-17152674D02*
X8326110Y-17143150D01*
X8326110Y-17143150D02*
X8354682Y-17143150D01*
X8354682Y-17143150D02*
X8373730Y-17152674D01*
X8373730Y-17152674D02*
X8383253Y-17162198D01*
X8383253Y-17162198D02*
X8392777Y-17181246D01*
X8392777Y-17181246D02*
X8392777Y-17238389D01*
X8392777Y-17238389D02*
X8383253Y-17257436D01*
X8383253Y-17257436D02*
X8373730Y-17266960D01*
X8373730Y-17266960D02*
X8354682Y-17276484D01*
X8354682Y-17276484D02*
X8326110Y-17276484D01*
X8507063Y-17276484D02*
X8488015Y-17266960D01*
X8488015Y-17266960D02*
X8478492Y-17247912D01*
X8478492Y-17247912D02*
X8478492Y-17076484D01*
X8659444Y-17266960D02*
X8640396Y-17276484D01*
X8640396Y-17276484D02*
X8602301Y-17276484D01*
X8602301Y-17276484D02*
X8583253Y-17266960D01*
X8583253Y-17266960D02*
X8573730Y-17247912D01*
X8573730Y-17247912D02*
X8573730Y-17171722D01*
X8573730Y-17171722D02*
X8583253Y-17152674D01*
X8583253Y-17152674D02*
X8602301Y-17143150D01*
X8602301Y-17143150D02*
X8640396Y-17143150D01*
X8640396Y-17143150D02*
X8659444Y-17152674D01*
X8659444Y-17152674D02*
X8668968Y-17171722D01*
X8668968Y-17171722D02*
X8668968Y-17190770D01*
X8668968Y-17190770D02*
X8573730Y-17209817D01*
X8745158Y-17266960D02*
X8764206Y-17276484D01*
X8764206Y-17276484D02*
X8802301Y-17276484D01*
X8802301Y-17276484D02*
X8821349Y-17266960D01*
X8821349Y-17266960D02*
X8830873Y-17247912D01*
X8830873Y-17247912D02*
X8830873Y-17238389D01*
X8830873Y-17238389D02*
X8821349Y-17219341D01*
X8821349Y-17219341D02*
X8802301Y-17209817D01*
X8802301Y-17209817D02*
X8773730Y-17209817D01*
X8773730Y-17209817D02*
X8754682Y-17200293D01*
X8754682Y-17200293D02*
X8745158Y-17181246D01*
X8745158Y-17181246D02*
X8745158Y-17171722D01*
X8745158Y-17171722D02*
X8754682Y-17152674D01*
X8754682Y-17152674D02*
X8773730Y-17143150D01*
X8773730Y-17143150D02*
X8802301Y-17143150D01*
X8802301Y-17143150D02*
X8821349Y-17152674D01*
X8897539Y-17352674D02*
X8907063Y-17343150D01*
X8907063Y-17343150D02*
X8926111Y-17314579D01*
X8926111Y-17314579D02*
X8935634Y-17295531D01*
X8935634Y-17295531D02*
X8945158Y-17266960D01*
X8945158Y-17266960D02*
X8954682Y-17219341D01*
X8954682Y-17219341D02*
X8954682Y-17181246D01*
X8954682Y-17181246D02*
X8945158Y-17133627D01*
X8945158Y-17133627D02*
X8935634Y-17105055D01*
X8935634Y-17105055D02*
X8926111Y-17086008D01*
X8926111Y-17086008D02*
X8907063Y-17057436D01*
X8907063Y-17057436D02*
X8897539Y-17047912D01*
D15*
X3892000Y-17489000D02*
X3932000Y-17449000D01*
X3892000Y-17409000D01*
X3852000Y-17449000D01*
X3892000Y-17489000D01*
D11*
X4230872Y-17340484D02*
X4249920Y-17340484D01*
X4249920Y-17340484D02*
X4268967Y-17350008D01*
X4268967Y-17350008D02*
X4278491Y-17359531D01*
X4278491Y-17359531D02*
X4288015Y-17378579D01*
X4288015Y-17378579D02*
X4297539Y-17416674D01*
X4297539Y-17416674D02*
X4297539Y-17464293D01*
X4297539Y-17464293D02*
X4288015Y-17502389D01*
X4288015Y-17502389D02*
X4278491Y-17521436D01*
X4278491Y-17521436D02*
X4268967Y-17530960D01*
X4268967Y-17530960D02*
X4249920Y-17540484D01*
X4249920Y-17540484D02*
X4230872Y-17540484D01*
X4230872Y-17540484D02*
X4211824Y-17530960D01*
X4211824Y-17530960D02*
X4202301Y-17521436D01*
X4202301Y-17521436D02*
X4192777Y-17502389D01*
X4192777Y-17502389D02*
X4183253Y-17464293D01*
X4183253Y-17464293D02*
X4183253Y-17416674D01*
X4183253Y-17416674D02*
X4192777Y-17378579D01*
X4192777Y-17378579D02*
X4202301Y-17359531D01*
X4202301Y-17359531D02*
X4211824Y-17350008D01*
X4211824Y-17350008D02*
X4230872Y-17340484D01*
X4383253Y-17521436D02*
X4392777Y-17530960D01*
X4392777Y-17530960D02*
X4383253Y-17540484D01*
X4383253Y-17540484D02*
X4373729Y-17530960D01*
X4373729Y-17530960D02*
X4383253Y-17521436D01*
X4383253Y-17521436D02*
X4383253Y-17540484D01*
X4507063Y-17426198D02*
X4488015Y-17416674D01*
X4488015Y-17416674D02*
X4478491Y-17407150D01*
X4478491Y-17407150D02*
X4468967Y-17388103D01*
X4468967Y-17388103D02*
X4468967Y-17378579D01*
X4468967Y-17378579D02*
X4478491Y-17359531D01*
X4478491Y-17359531D02*
X4488015Y-17350008D01*
X4488015Y-17350008D02*
X4507063Y-17340484D01*
X4507063Y-17340484D02*
X4545158Y-17340484D01*
X4545158Y-17340484D02*
X4564205Y-17350008D01*
X4564205Y-17350008D02*
X4573729Y-17359531D01*
X4573729Y-17359531D02*
X4583253Y-17378579D01*
X4583253Y-17378579D02*
X4583253Y-17388103D01*
X4583253Y-17388103D02*
X4573729Y-17407150D01*
X4573729Y-17407150D02*
X4564205Y-17416674D01*
X4564205Y-17416674D02*
X4545158Y-17426198D01*
X4545158Y-17426198D02*
X4507063Y-17426198D01*
X4507063Y-17426198D02*
X4488015Y-17435722D01*
X4488015Y-17435722D02*
X4478491Y-17445246D01*
X4478491Y-17445246D02*
X4468967Y-17464293D01*
X4468967Y-17464293D02*
X4468967Y-17502389D01*
X4468967Y-17502389D02*
X4478491Y-17521436D01*
X4478491Y-17521436D02*
X4488015Y-17530960D01*
X4488015Y-17530960D02*
X4507063Y-17540484D01*
X4507063Y-17540484D02*
X4545158Y-17540484D01*
X4545158Y-17540484D02*
X4564205Y-17530960D01*
X4564205Y-17530960D02*
X4573729Y-17521436D01*
X4573729Y-17521436D02*
X4583253Y-17502389D01*
X4583253Y-17502389D02*
X4583253Y-17464293D01*
X4583253Y-17464293D02*
X4573729Y-17445246D01*
X4573729Y-17445246D02*
X4564205Y-17435722D01*
X4564205Y-17435722D02*
X4545158Y-17426198D01*
X4707063Y-17340484D02*
X4726110Y-17340484D01*
X4726110Y-17340484D02*
X4745158Y-17350008D01*
X4745158Y-17350008D02*
X4754682Y-17359531D01*
X4754682Y-17359531D02*
X4764205Y-17378579D01*
X4764205Y-17378579D02*
X4773729Y-17416674D01*
X4773729Y-17416674D02*
X4773729Y-17464293D01*
X4773729Y-17464293D02*
X4764205Y-17502389D01*
X4764205Y-17502389D02*
X4754682Y-17521436D01*
X4754682Y-17521436D02*
X4745158Y-17530960D01*
X4745158Y-17530960D02*
X4726110Y-17540484D01*
X4726110Y-17540484D02*
X4707063Y-17540484D01*
X4707063Y-17540484D02*
X4688015Y-17530960D01*
X4688015Y-17530960D02*
X4678491Y-17521436D01*
X4678491Y-17521436D02*
X4668967Y-17502389D01*
X4668967Y-17502389D02*
X4659444Y-17464293D01*
X4659444Y-17464293D02*
X4659444Y-17416674D01*
X4659444Y-17416674D02*
X4668967Y-17378579D01*
X4668967Y-17378579D02*
X4678491Y-17359531D01*
X4678491Y-17359531D02*
X4688015Y-17350008D01*
X4688015Y-17350008D02*
X4707063Y-17340484D01*
X4897539Y-17340484D02*
X4916586Y-17340484D01*
X4916586Y-17340484D02*
X4935634Y-17350008D01*
X4935634Y-17350008D02*
X4945158Y-17359531D01*
X4945158Y-17359531D02*
X4954682Y-17378579D01*
X4954682Y-17378579D02*
X4964205Y-17416674D01*
X4964205Y-17416674D02*
X4964205Y-17464293D01*
X4964205Y-17464293D02*
X4954682Y-17502389D01*
X4954682Y-17502389D02*
X4945158Y-17521436D01*
X4945158Y-17521436D02*
X4935634Y-17530960D01*
X4935634Y-17530960D02*
X4916586Y-17540484D01*
X4916586Y-17540484D02*
X4897539Y-17540484D01*
X4897539Y-17540484D02*
X4878491Y-17530960D01*
X4878491Y-17530960D02*
X4868967Y-17521436D01*
X4868967Y-17521436D02*
X4859444Y-17502389D01*
X4859444Y-17502389D02*
X4849920Y-17464293D01*
X4849920Y-17464293D02*
X4849920Y-17416674D01*
X4849920Y-17416674D02*
X4859444Y-17378579D01*
X4859444Y-17378579D02*
X4868967Y-17359531D01*
X4868967Y-17359531D02*
X4878491Y-17350008D01*
X4878491Y-17350008D02*
X4897539Y-17340484D01*
X5049920Y-17540484D02*
X5049920Y-17407150D01*
X5049920Y-17426198D02*
X5059444Y-17416674D01*
X5059444Y-17416674D02*
X5078491Y-17407150D01*
X5078491Y-17407150D02*
X5107063Y-17407150D01*
X5107063Y-17407150D02*
X5126110Y-17416674D01*
X5126110Y-17416674D02*
X5135634Y-17435722D01*
X5135634Y-17435722D02*
X5135634Y-17540484D01*
X5135634Y-17435722D02*
X5145158Y-17416674D01*
X5145158Y-17416674D02*
X5164205Y-17407150D01*
X5164205Y-17407150D02*
X5192777Y-17407150D01*
X5192777Y-17407150D02*
X5211825Y-17416674D01*
X5211825Y-17416674D02*
X5221348Y-17435722D01*
X5221348Y-17435722D02*
X5221348Y-17540484D01*
X5316586Y-17540484D02*
X5316586Y-17407150D01*
X5316586Y-17426198D02*
X5326110Y-17416674D01*
X5326110Y-17416674D02*
X5345158Y-17407150D01*
X5345158Y-17407150D02*
X5373729Y-17407150D01*
X5373729Y-17407150D02*
X5392777Y-17416674D01*
X5392777Y-17416674D02*
X5402301Y-17435722D01*
X5402301Y-17435722D02*
X5402301Y-17540484D01*
X5402301Y-17435722D02*
X5411825Y-17416674D01*
X5411825Y-17416674D02*
X5430872Y-17407150D01*
X5430872Y-17407150D02*
X5459444Y-17407150D01*
X5459444Y-17407150D02*
X5478491Y-17416674D01*
X5478491Y-17416674D02*
X5488015Y-17435722D01*
X5488015Y-17435722D02*
X5488015Y-17540484D01*
X5878491Y-17330960D02*
X5707063Y-17588103D01*
X6135634Y-17340484D02*
X6154682Y-17340484D01*
X6154682Y-17340484D02*
X6173729Y-17350008D01*
X6173729Y-17350008D02*
X6183253Y-17359531D01*
X6183253Y-17359531D02*
X6192777Y-17378579D01*
X6192777Y-17378579D02*
X6202301Y-17416674D01*
X6202301Y-17416674D02*
X6202301Y-17464293D01*
X6202301Y-17464293D02*
X6192777Y-17502389D01*
X6192777Y-17502389D02*
X6183253Y-17521436D01*
X6183253Y-17521436D02*
X6173729Y-17530960D01*
X6173729Y-17530960D02*
X6154682Y-17540484D01*
X6154682Y-17540484D02*
X6135634Y-17540484D01*
X6135634Y-17540484D02*
X6116586Y-17530960D01*
X6116586Y-17530960D02*
X6107063Y-17521436D01*
X6107063Y-17521436D02*
X6097539Y-17502389D01*
X6097539Y-17502389D02*
X6088015Y-17464293D01*
X6088015Y-17464293D02*
X6088015Y-17416674D01*
X6088015Y-17416674D02*
X6097539Y-17378579D01*
X6097539Y-17378579D02*
X6107063Y-17359531D01*
X6107063Y-17359531D02*
X6116586Y-17350008D01*
X6116586Y-17350008D02*
X6135634Y-17340484D01*
X6288015Y-17521436D02*
X6297539Y-17530960D01*
X6297539Y-17530960D02*
X6288015Y-17540484D01*
X6288015Y-17540484D02*
X6278491Y-17530960D01*
X6278491Y-17530960D02*
X6288015Y-17521436D01*
X6288015Y-17521436D02*
X6288015Y-17540484D01*
X6421348Y-17340484D02*
X6440396Y-17340484D01*
X6440396Y-17340484D02*
X6459444Y-17350008D01*
X6459444Y-17350008D02*
X6468967Y-17359531D01*
X6468967Y-17359531D02*
X6478491Y-17378579D01*
X6478491Y-17378579D02*
X6488015Y-17416674D01*
X6488015Y-17416674D02*
X6488015Y-17464293D01*
X6488015Y-17464293D02*
X6478491Y-17502389D01*
X6478491Y-17502389D02*
X6468967Y-17521436D01*
X6468967Y-17521436D02*
X6459444Y-17530960D01*
X6459444Y-17530960D02*
X6440396Y-17540484D01*
X6440396Y-17540484D02*
X6421348Y-17540484D01*
X6421348Y-17540484D02*
X6402301Y-17530960D01*
X6402301Y-17530960D02*
X6392777Y-17521436D01*
X6392777Y-17521436D02*
X6383253Y-17502389D01*
X6383253Y-17502389D02*
X6373729Y-17464293D01*
X6373729Y-17464293D02*
X6373729Y-17416674D01*
X6373729Y-17416674D02*
X6383253Y-17378579D01*
X6383253Y-17378579D02*
X6392777Y-17359531D01*
X6392777Y-17359531D02*
X6402301Y-17350008D01*
X6402301Y-17350008D02*
X6421348Y-17340484D01*
X6554682Y-17340484D02*
X6678491Y-17340484D01*
X6678491Y-17340484D02*
X6611825Y-17416674D01*
X6611825Y-17416674D02*
X6640396Y-17416674D01*
X6640396Y-17416674D02*
X6659444Y-17426198D01*
X6659444Y-17426198D02*
X6668967Y-17435722D01*
X6668967Y-17435722D02*
X6678491Y-17454770D01*
X6678491Y-17454770D02*
X6678491Y-17502389D01*
X6678491Y-17502389D02*
X6668967Y-17521436D01*
X6668967Y-17521436D02*
X6659444Y-17530960D01*
X6659444Y-17530960D02*
X6640396Y-17540484D01*
X6640396Y-17540484D02*
X6583253Y-17540484D01*
X6583253Y-17540484D02*
X6564206Y-17530960D01*
X6564206Y-17530960D02*
X6554682Y-17521436D01*
X6868967Y-17540484D02*
X6754682Y-17540484D01*
X6811825Y-17540484D02*
X6811825Y-17340484D01*
X6811825Y-17340484D02*
X6792777Y-17369055D01*
X6792777Y-17369055D02*
X6773729Y-17388103D01*
X6773729Y-17388103D02*
X6754682Y-17397627D01*
X7049920Y-17340484D02*
X6954682Y-17340484D01*
X6954682Y-17340484D02*
X6945158Y-17435722D01*
X6945158Y-17435722D02*
X6954682Y-17426198D01*
X6954682Y-17426198D02*
X6973729Y-17416674D01*
X6973729Y-17416674D02*
X7021348Y-17416674D01*
X7021348Y-17416674D02*
X7040396Y-17426198D01*
X7040396Y-17426198D02*
X7049920Y-17435722D01*
X7049920Y-17435722D02*
X7059444Y-17454770D01*
X7059444Y-17454770D02*
X7059444Y-17502389D01*
X7059444Y-17502389D02*
X7049920Y-17521436D01*
X7049920Y-17521436D02*
X7040396Y-17530960D01*
X7040396Y-17530960D02*
X7021348Y-17540484D01*
X7021348Y-17540484D02*
X6973729Y-17540484D01*
X6973729Y-17540484D02*
X6954682Y-17530960D01*
X6954682Y-17530960D02*
X6945158Y-17521436D01*
X7135634Y-17340484D02*
X7135634Y-17378579D01*
X7211825Y-17340484D02*
X7211825Y-17378579D01*
X7507063Y-17616674D02*
X7497539Y-17607150D01*
X7497539Y-17607150D02*
X7478491Y-17578579D01*
X7478491Y-17578579D02*
X7468968Y-17559531D01*
X7468968Y-17559531D02*
X7459444Y-17530960D01*
X7459444Y-17530960D02*
X7449920Y-17483341D01*
X7449920Y-17483341D02*
X7449920Y-17445246D01*
X7449920Y-17445246D02*
X7459444Y-17397627D01*
X7459444Y-17397627D02*
X7468968Y-17369055D01*
X7468968Y-17369055D02*
X7478491Y-17350008D01*
X7478491Y-17350008D02*
X7497539Y-17321436D01*
X7497539Y-17321436D02*
X7507063Y-17311912D01*
X7611825Y-17426198D02*
X7592777Y-17416674D01*
X7592777Y-17416674D02*
X7583253Y-17407150D01*
X7583253Y-17407150D02*
X7573729Y-17388103D01*
X7573729Y-17388103D02*
X7573729Y-17378579D01*
X7573729Y-17378579D02*
X7583253Y-17359531D01*
X7583253Y-17359531D02*
X7592777Y-17350008D01*
X7592777Y-17350008D02*
X7611825Y-17340484D01*
X7611825Y-17340484D02*
X7649920Y-17340484D01*
X7649920Y-17340484D02*
X7668968Y-17350008D01*
X7668968Y-17350008D02*
X7678491Y-17359531D01*
X7678491Y-17359531D02*
X7688015Y-17378579D01*
X7688015Y-17378579D02*
X7688015Y-17388103D01*
X7688015Y-17388103D02*
X7678491Y-17407150D01*
X7678491Y-17407150D02*
X7668968Y-17416674D01*
X7668968Y-17416674D02*
X7649920Y-17426198D01*
X7649920Y-17426198D02*
X7611825Y-17426198D01*
X7611825Y-17426198D02*
X7592777Y-17435722D01*
X7592777Y-17435722D02*
X7583253Y-17445246D01*
X7583253Y-17445246D02*
X7573729Y-17464293D01*
X7573729Y-17464293D02*
X7573729Y-17502389D01*
X7573729Y-17502389D02*
X7583253Y-17521436D01*
X7583253Y-17521436D02*
X7592777Y-17530960D01*
X7592777Y-17530960D02*
X7611825Y-17540484D01*
X7611825Y-17540484D02*
X7649920Y-17540484D01*
X7649920Y-17540484D02*
X7668968Y-17530960D01*
X7668968Y-17530960D02*
X7678491Y-17521436D01*
X7678491Y-17521436D02*
X7688015Y-17502389D01*
X7688015Y-17502389D02*
X7688015Y-17464293D01*
X7688015Y-17464293D02*
X7678491Y-17445246D01*
X7678491Y-17445246D02*
X7668968Y-17435722D01*
X7668968Y-17435722D02*
X7649920Y-17426198D01*
X7764206Y-17359531D02*
X7773729Y-17350008D01*
X7773729Y-17350008D02*
X7792777Y-17340484D01*
X7792777Y-17340484D02*
X7840396Y-17340484D01*
X7840396Y-17340484D02*
X7859444Y-17350008D01*
X7859444Y-17350008D02*
X7868968Y-17359531D01*
X7868968Y-17359531D02*
X7878491Y-17378579D01*
X7878491Y-17378579D02*
X7878491Y-17397627D01*
X7878491Y-17397627D02*
X7868968Y-17426198D01*
X7868968Y-17426198D02*
X7754682Y-17540484D01*
X7754682Y-17540484D02*
X7878491Y-17540484D01*
X8116587Y-17540484D02*
X8116587Y-17340484D01*
X8202301Y-17540484D02*
X8202301Y-17435722D01*
X8202301Y-17435722D02*
X8192777Y-17416674D01*
X8192777Y-17416674D02*
X8173730Y-17407150D01*
X8173730Y-17407150D02*
X8145158Y-17407150D01*
X8145158Y-17407150D02*
X8126110Y-17416674D01*
X8126110Y-17416674D02*
X8116587Y-17426198D01*
X8326110Y-17540484D02*
X8307063Y-17530960D01*
X8307063Y-17530960D02*
X8297539Y-17521436D01*
X8297539Y-17521436D02*
X8288015Y-17502389D01*
X8288015Y-17502389D02*
X8288015Y-17445246D01*
X8288015Y-17445246D02*
X8297539Y-17426198D01*
X8297539Y-17426198D02*
X8307063Y-17416674D01*
X8307063Y-17416674D02*
X8326110Y-17407150D01*
X8326110Y-17407150D02*
X8354682Y-17407150D01*
X8354682Y-17407150D02*
X8373730Y-17416674D01*
X8373730Y-17416674D02*
X8383253Y-17426198D01*
X8383253Y-17426198D02*
X8392777Y-17445246D01*
X8392777Y-17445246D02*
X8392777Y-17502389D01*
X8392777Y-17502389D02*
X8383253Y-17521436D01*
X8383253Y-17521436D02*
X8373730Y-17530960D01*
X8373730Y-17530960D02*
X8354682Y-17540484D01*
X8354682Y-17540484D02*
X8326110Y-17540484D01*
X8507063Y-17540484D02*
X8488015Y-17530960D01*
X8488015Y-17530960D02*
X8478492Y-17511912D01*
X8478492Y-17511912D02*
X8478492Y-17340484D01*
X8659444Y-17530960D02*
X8640396Y-17540484D01*
X8640396Y-17540484D02*
X8602301Y-17540484D01*
X8602301Y-17540484D02*
X8583253Y-17530960D01*
X8583253Y-17530960D02*
X8573730Y-17511912D01*
X8573730Y-17511912D02*
X8573730Y-17435722D01*
X8573730Y-17435722D02*
X8583253Y-17416674D01*
X8583253Y-17416674D02*
X8602301Y-17407150D01*
X8602301Y-17407150D02*
X8640396Y-17407150D01*
X8640396Y-17407150D02*
X8659444Y-17416674D01*
X8659444Y-17416674D02*
X8668968Y-17435722D01*
X8668968Y-17435722D02*
X8668968Y-17454770D01*
X8668968Y-17454770D02*
X8573730Y-17473817D01*
X8745158Y-17530960D02*
X8764206Y-17540484D01*
X8764206Y-17540484D02*
X8802301Y-17540484D01*
X8802301Y-17540484D02*
X8821349Y-17530960D01*
X8821349Y-17530960D02*
X8830873Y-17511912D01*
X8830873Y-17511912D02*
X8830873Y-17502389D01*
X8830873Y-17502389D02*
X8821349Y-17483341D01*
X8821349Y-17483341D02*
X8802301Y-17473817D01*
X8802301Y-17473817D02*
X8773730Y-17473817D01*
X8773730Y-17473817D02*
X8754682Y-17464293D01*
X8754682Y-17464293D02*
X8745158Y-17445246D01*
X8745158Y-17445246D02*
X8745158Y-17435722D01*
X8745158Y-17435722D02*
X8754682Y-17416674D01*
X8754682Y-17416674D02*
X8773730Y-17407150D01*
X8773730Y-17407150D02*
X8802301Y-17407150D01*
X8802301Y-17407150D02*
X8821349Y-17416674D01*
X8897539Y-17616674D02*
X8907063Y-17607150D01*
X8907063Y-17607150D02*
X8926111Y-17578579D01*
X8926111Y-17578579D02*
X8935634Y-17559531D01*
X8935634Y-17559531D02*
X8945158Y-17530960D01*
X8945158Y-17530960D02*
X8954682Y-17483341D01*
X8954682Y-17483341D02*
X8954682Y-17445246D01*
X8954682Y-17445246D02*
X8945158Y-17397627D01*
X8945158Y-17397627D02*
X8935634Y-17369055D01*
X8935634Y-17369055D02*
X8926111Y-17350008D01*
X8926111Y-17350008D02*
X8907063Y-17321436D01*
X8907063Y-17321436D02*
X8897539Y-17311912D01*
D16*
X3842000Y-17668000D02*
X3932000Y-17758000D01*
X3932000Y-17668000D02*
X3842000Y-17758000D01*
X3932000Y-17713000D02*
G75*
G03*
X3932000Y-17713000I-45000J0D01*
G01*
D11*
X4230872Y-17604484D02*
X4249920Y-17604484D01*
X4249920Y-17604484D02*
X4268967Y-17614008D01*
X4268967Y-17614008D02*
X4278491Y-17623531D01*
X4278491Y-17623531D02*
X4288015Y-17642579D01*
X4288015Y-17642579D02*
X4297539Y-17680674D01*
X4297539Y-17680674D02*
X4297539Y-17728293D01*
X4297539Y-17728293D02*
X4288015Y-17766389D01*
X4288015Y-17766389D02*
X4278491Y-17785436D01*
X4278491Y-17785436D02*
X4268967Y-17794960D01*
X4268967Y-17794960D02*
X4249920Y-17804484D01*
X4249920Y-17804484D02*
X4230872Y-17804484D01*
X4230872Y-17804484D02*
X4211824Y-17794960D01*
X4211824Y-17794960D02*
X4202301Y-17785436D01*
X4202301Y-17785436D02*
X4192777Y-17766389D01*
X4192777Y-17766389D02*
X4183253Y-17728293D01*
X4183253Y-17728293D02*
X4183253Y-17680674D01*
X4183253Y-17680674D02*
X4192777Y-17642579D01*
X4192777Y-17642579D02*
X4202301Y-17623531D01*
X4202301Y-17623531D02*
X4211824Y-17614008D01*
X4211824Y-17614008D02*
X4230872Y-17604484D01*
X4383253Y-17785436D02*
X4392777Y-17794960D01*
X4392777Y-17794960D02*
X4383253Y-17804484D01*
X4383253Y-17804484D02*
X4373729Y-17794960D01*
X4373729Y-17794960D02*
X4383253Y-17785436D01*
X4383253Y-17785436D02*
X4383253Y-17804484D01*
X4488015Y-17804484D02*
X4526110Y-17804484D01*
X4526110Y-17804484D02*
X4545158Y-17794960D01*
X4545158Y-17794960D02*
X4554682Y-17785436D01*
X4554682Y-17785436D02*
X4573729Y-17756865D01*
X4573729Y-17756865D02*
X4583253Y-17718770D01*
X4583253Y-17718770D02*
X4583253Y-17642579D01*
X4583253Y-17642579D02*
X4573729Y-17623531D01*
X4573729Y-17623531D02*
X4564205Y-17614008D01*
X4564205Y-17614008D02*
X4545158Y-17604484D01*
X4545158Y-17604484D02*
X4507063Y-17604484D01*
X4507063Y-17604484D02*
X4488015Y-17614008D01*
X4488015Y-17614008D02*
X4478491Y-17623531D01*
X4478491Y-17623531D02*
X4468967Y-17642579D01*
X4468967Y-17642579D02*
X4468967Y-17690198D01*
X4468967Y-17690198D02*
X4478491Y-17709246D01*
X4478491Y-17709246D02*
X4488015Y-17718770D01*
X4488015Y-17718770D02*
X4507063Y-17728293D01*
X4507063Y-17728293D02*
X4545158Y-17728293D01*
X4545158Y-17728293D02*
X4564205Y-17718770D01*
X4564205Y-17718770D02*
X4573729Y-17709246D01*
X4573729Y-17709246D02*
X4583253Y-17690198D01*
X4707063Y-17604484D02*
X4726110Y-17604484D01*
X4726110Y-17604484D02*
X4745158Y-17614008D01*
X4745158Y-17614008D02*
X4754682Y-17623531D01*
X4754682Y-17623531D02*
X4764205Y-17642579D01*
X4764205Y-17642579D02*
X4773729Y-17680674D01*
X4773729Y-17680674D02*
X4773729Y-17728293D01*
X4773729Y-17728293D02*
X4764205Y-17766389D01*
X4764205Y-17766389D02*
X4754682Y-17785436D01*
X4754682Y-17785436D02*
X4745158Y-17794960D01*
X4745158Y-17794960D02*
X4726110Y-17804484D01*
X4726110Y-17804484D02*
X4707063Y-17804484D01*
X4707063Y-17804484D02*
X4688015Y-17794960D01*
X4688015Y-17794960D02*
X4678491Y-17785436D01*
X4678491Y-17785436D02*
X4668967Y-17766389D01*
X4668967Y-17766389D02*
X4659444Y-17728293D01*
X4659444Y-17728293D02*
X4659444Y-17680674D01*
X4659444Y-17680674D02*
X4668967Y-17642579D01*
X4668967Y-17642579D02*
X4678491Y-17623531D01*
X4678491Y-17623531D02*
X4688015Y-17614008D01*
X4688015Y-17614008D02*
X4707063Y-17604484D01*
X4897539Y-17604484D02*
X4916586Y-17604484D01*
X4916586Y-17604484D02*
X4935634Y-17614008D01*
X4935634Y-17614008D02*
X4945158Y-17623531D01*
X4945158Y-17623531D02*
X4954682Y-17642579D01*
X4954682Y-17642579D02*
X4964205Y-17680674D01*
X4964205Y-17680674D02*
X4964205Y-17728293D01*
X4964205Y-17728293D02*
X4954682Y-17766389D01*
X4954682Y-17766389D02*
X4945158Y-17785436D01*
X4945158Y-17785436D02*
X4935634Y-17794960D01*
X4935634Y-17794960D02*
X4916586Y-17804484D01*
X4916586Y-17804484D02*
X4897539Y-17804484D01*
X4897539Y-17804484D02*
X4878491Y-17794960D01*
X4878491Y-17794960D02*
X4868967Y-17785436D01*
X4868967Y-17785436D02*
X4859444Y-17766389D01*
X4859444Y-17766389D02*
X4849920Y-17728293D01*
X4849920Y-17728293D02*
X4849920Y-17680674D01*
X4849920Y-17680674D02*
X4859444Y-17642579D01*
X4859444Y-17642579D02*
X4868967Y-17623531D01*
X4868967Y-17623531D02*
X4878491Y-17614008D01*
X4878491Y-17614008D02*
X4897539Y-17604484D01*
X5049920Y-17804484D02*
X5049920Y-17671150D01*
X5049920Y-17690198D02*
X5059444Y-17680674D01*
X5059444Y-17680674D02*
X5078491Y-17671150D01*
X5078491Y-17671150D02*
X5107063Y-17671150D01*
X5107063Y-17671150D02*
X5126110Y-17680674D01*
X5126110Y-17680674D02*
X5135634Y-17699722D01*
X5135634Y-17699722D02*
X5135634Y-17804484D01*
X5135634Y-17699722D02*
X5145158Y-17680674D01*
X5145158Y-17680674D02*
X5164205Y-17671150D01*
X5164205Y-17671150D02*
X5192777Y-17671150D01*
X5192777Y-17671150D02*
X5211825Y-17680674D01*
X5211825Y-17680674D02*
X5221348Y-17699722D01*
X5221348Y-17699722D02*
X5221348Y-17804484D01*
X5316586Y-17804484D02*
X5316586Y-17671150D01*
X5316586Y-17690198D02*
X5326110Y-17680674D01*
X5326110Y-17680674D02*
X5345158Y-17671150D01*
X5345158Y-17671150D02*
X5373729Y-17671150D01*
X5373729Y-17671150D02*
X5392777Y-17680674D01*
X5392777Y-17680674D02*
X5402301Y-17699722D01*
X5402301Y-17699722D02*
X5402301Y-17804484D01*
X5402301Y-17699722D02*
X5411825Y-17680674D01*
X5411825Y-17680674D02*
X5430872Y-17671150D01*
X5430872Y-17671150D02*
X5459444Y-17671150D01*
X5459444Y-17671150D02*
X5478491Y-17680674D01*
X5478491Y-17680674D02*
X5488015Y-17699722D01*
X5488015Y-17699722D02*
X5488015Y-17804484D01*
X5878491Y-17594960D02*
X5707063Y-17852103D01*
X6135634Y-17604484D02*
X6154682Y-17604484D01*
X6154682Y-17604484D02*
X6173729Y-17614008D01*
X6173729Y-17614008D02*
X6183253Y-17623531D01*
X6183253Y-17623531D02*
X6192777Y-17642579D01*
X6192777Y-17642579D02*
X6202301Y-17680674D01*
X6202301Y-17680674D02*
X6202301Y-17728293D01*
X6202301Y-17728293D02*
X6192777Y-17766389D01*
X6192777Y-17766389D02*
X6183253Y-17785436D01*
X6183253Y-17785436D02*
X6173729Y-17794960D01*
X6173729Y-17794960D02*
X6154682Y-17804484D01*
X6154682Y-17804484D02*
X6135634Y-17804484D01*
X6135634Y-17804484D02*
X6116586Y-17794960D01*
X6116586Y-17794960D02*
X6107063Y-17785436D01*
X6107063Y-17785436D02*
X6097539Y-17766389D01*
X6097539Y-17766389D02*
X6088015Y-17728293D01*
X6088015Y-17728293D02*
X6088015Y-17680674D01*
X6088015Y-17680674D02*
X6097539Y-17642579D01*
X6097539Y-17642579D02*
X6107063Y-17623531D01*
X6107063Y-17623531D02*
X6116586Y-17614008D01*
X6116586Y-17614008D02*
X6135634Y-17604484D01*
X6288015Y-17785436D02*
X6297539Y-17794960D01*
X6297539Y-17794960D02*
X6288015Y-17804484D01*
X6288015Y-17804484D02*
X6278491Y-17794960D01*
X6278491Y-17794960D02*
X6288015Y-17785436D01*
X6288015Y-17785436D02*
X6288015Y-17804484D01*
X6421348Y-17604484D02*
X6440396Y-17604484D01*
X6440396Y-17604484D02*
X6459444Y-17614008D01*
X6459444Y-17614008D02*
X6468967Y-17623531D01*
X6468967Y-17623531D02*
X6478491Y-17642579D01*
X6478491Y-17642579D02*
X6488015Y-17680674D01*
X6488015Y-17680674D02*
X6488015Y-17728293D01*
X6488015Y-17728293D02*
X6478491Y-17766389D01*
X6478491Y-17766389D02*
X6468967Y-17785436D01*
X6468967Y-17785436D02*
X6459444Y-17794960D01*
X6459444Y-17794960D02*
X6440396Y-17804484D01*
X6440396Y-17804484D02*
X6421348Y-17804484D01*
X6421348Y-17804484D02*
X6402301Y-17794960D01*
X6402301Y-17794960D02*
X6392777Y-17785436D01*
X6392777Y-17785436D02*
X6383253Y-17766389D01*
X6383253Y-17766389D02*
X6373729Y-17728293D01*
X6373729Y-17728293D02*
X6373729Y-17680674D01*
X6373729Y-17680674D02*
X6383253Y-17642579D01*
X6383253Y-17642579D02*
X6392777Y-17623531D01*
X6392777Y-17623531D02*
X6402301Y-17614008D01*
X6402301Y-17614008D02*
X6421348Y-17604484D01*
X6554682Y-17604484D02*
X6678491Y-17604484D01*
X6678491Y-17604484D02*
X6611825Y-17680674D01*
X6611825Y-17680674D02*
X6640396Y-17680674D01*
X6640396Y-17680674D02*
X6659444Y-17690198D01*
X6659444Y-17690198D02*
X6668967Y-17699722D01*
X6668967Y-17699722D02*
X6678491Y-17718770D01*
X6678491Y-17718770D02*
X6678491Y-17766389D01*
X6678491Y-17766389D02*
X6668967Y-17785436D01*
X6668967Y-17785436D02*
X6659444Y-17794960D01*
X6659444Y-17794960D02*
X6640396Y-17804484D01*
X6640396Y-17804484D02*
X6583253Y-17804484D01*
X6583253Y-17804484D02*
X6564206Y-17794960D01*
X6564206Y-17794960D02*
X6554682Y-17785436D01*
X6859444Y-17604484D02*
X6764206Y-17604484D01*
X6764206Y-17604484D02*
X6754682Y-17699722D01*
X6754682Y-17699722D02*
X6764206Y-17690198D01*
X6764206Y-17690198D02*
X6783253Y-17680674D01*
X6783253Y-17680674D02*
X6830872Y-17680674D01*
X6830872Y-17680674D02*
X6849920Y-17690198D01*
X6849920Y-17690198D02*
X6859444Y-17699722D01*
X6859444Y-17699722D02*
X6868967Y-17718770D01*
X6868967Y-17718770D02*
X6868967Y-17766389D01*
X6868967Y-17766389D02*
X6859444Y-17785436D01*
X6859444Y-17785436D02*
X6849920Y-17794960D01*
X6849920Y-17794960D02*
X6830872Y-17804484D01*
X6830872Y-17804484D02*
X6783253Y-17804484D01*
X6783253Y-17804484D02*
X6764206Y-17794960D01*
X6764206Y-17794960D02*
X6754682Y-17785436D01*
X7040396Y-17671150D02*
X7040396Y-17804484D01*
X6992777Y-17594960D02*
X6945158Y-17737817D01*
X6945158Y-17737817D02*
X7068967Y-17737817D01*
X7135634Y-17604484D02*
X7135634Y-17642579D01*
X7211825Y-17604484D02*
X7211825Y-17642579D01*
X7507063Y-17880674D02*
X7497539Y-17871150D01*
X7497539Y-17871150D02*
X7478491Y-17842579D01*
X7478491Y-17842579D02*
X7468968Y-17823531D01*
X7468968Y-17823531D02*
X7459444Y-17794960D01*
X7459444Y-17794960D02*
X7449920Y-17747341D01*
X7449920Y-17747341D02*
X7449920Y-17709246D01*
X7449920Y-17709246D02*
X7459444Y-17661627D01*
X7459444Y-17661627D02*
X7468968Y-17633055D01*
X7468968Y-17633055D02*
X7478491Y-17614008D01*
X7478491Y-17614008D02*
X7497539Y-17585436D01*
X7497539Y-17585436D02*
X7507063Y-17575912D01*
X7668968Y-17604484D02*
X7630872Y-17604484D01*
X7630872Y-17604484D02*
X7611825Y-17614008D01*
X7611825Y-17614008D02*
X7602301Y-17623531D01*
X7602301Y-17623531D02*
X7583253Y-17652103D01*
X7583253Y-17652103D02*
X7573729Y-17690198D01*
X7573729Y-17690198D02*
X7573729Y-17766389D01*
X7573729Y-17766389D02*
X7583253Y-17785436D01*
X7583253Y-17785436D02*
X7592777Y-17794960D01*
X7592777Y-17794960D02*
X7611825Y-17804484D01*
X7611825Y-17804484D02*
X7649920Y-17804484D01*
X7649920Y-17804484D02*
X7668968Y-17794960D01*
X7668968Y-17794960D02*
X7678491Y-17785436D01*
X7678491Y-17785436D02*
X7688015Y-17766389D01*
X7688015Y-17766389D02*
X7688015Y-17718770D01*
X7688015Y-17718770D02*
X7678491Y-17699722D01*
X7678491Y-17699722D02*
X7668968Y-17690198D01*
X7668968Y-17690198D02*
X7649920Y-17680674D01*
X7649920Y-17680674D02*
X7611825Y-17680674D01*
X7611825Y-17680674D02*
X7592777Y-17690198D01*
X7592777Y-17690198D02*
X7583253Y-17699722D01*
X7583253Y-17699722D02*
X7573729Y-17718770D01*
X7926110Y-17804484D02*
X7926110Y-17604484D01*
X8011825Y-17804484D02*
X8011825Y-17699722D01*
X8011825Y-17699722D02*
X8002301Y-17680674D01*
X8002301Y-17680674D02*
X7983253Y-17671150D01*
X7983253Y-17671150D02*
X7954682Y-17671150D01*
X7954682Y-17671150D02*
X7935634Y-17680674D01*
X7935634Y-17680674D02*
X7926110Y-17690198D01*
X8135634Y-17804484D02*
X8116587Y-17794960D01*
X8116587Y-17794960D02*
X8107063Y-17785436D01*
X8107063Y-17785436D02*
X8097539Y-17766389D01*
X8097539Y-17766389D02*
X8097539Y-17709246D01*
X8097539Y-17709246D02*
X8107063Y-17690198D01*
X8107063Y-17690198D02*
X8116587Y-17680674D01*
X8116587Y-17680674D02*
X8135634Y-17671150D01*
X8135634Y-17671150D02*
X8164206Y-17671150D01*
X8164206Y-17671150D02*
X8183253Y-17680674D01*
X8183253Y-17680674D02*
X8192777Y-17690198D01*
X8192777Y-17690198D02*
X8202301Y-17709246D01*
X8202301Y-17709246D02*
X8202301Y-17766389D01*
X8202301Y-17766389D02*
X8192777Y-17785436D01*
X8192777Y-17785436D02*
X8183253Y-17794960D01*
X8183253Y-17794960D02*
X8164206Y-17804484D01*
X8164206Y-17804484D02*
X8135634Y-17804484D01*
X8316587Y-17804484D02*
X8297539Y-17794960D01*
X8297539Y-17794960D02*
X8288015Y-17775912D01*
X8288015Y-17775912D02*
X8288015Y-17604484D01*
X8468968Y-17794960D02*
X8449920Y-17804484D01*
X8449920Y-17804484D02*
X8411825Y-17804484D01*
X8411825Y-17804484D02*
X8392777Y-17794960D01*
X8392777Y-17794960D02*
X8383253Y-17775912D01*
X8383253Y-17775912D02*
X8383253Y-17699722D01*
X8383253Y-17699722D02*
X8392777Y-17680674D01*
X8392777Y-17680674D02*
X8411825Y-17671150D01*
X8411825Y-17671150D02*
X8449920Y-17671150D01*
X8449920Y-17671150D02*
X8468968Y-17680674D01*
X8468968Y-17680674D02*
X8478492Y-17699722D01*
X8478492Y-17699722D02*
X8478492Y-17718770D01*
X8478492Y-17718770D02*
X8383253Y-17737817D01*
X8554682Y-17794960D02*
X8573730Y-17804484D01*
X8573730Y-17804484D02*
X8611825Y-17804484D01*
X8611825Y-17804484D02*
X8630873Y-17794960D01*
X8630873Y-17794960D02*
X8640396Y-17775912D01*
X8640396Y-17775912D02*
X8640396Y-17766389D01*
X8640396Y-17766389D02*
X8630873Y-17747341D01*
X8630873Y-17747341D02*
X8611825Y-17737817D01*
X8611825Y-17737817D02*
X8583253Y-17737817D01*
X8583253Y-17737817D02*
X8564206Y-17728293D01*
X8564206Y-17728293D02*
X8554682Y-17709246D01*
X8554682Y-17709246D02*
X8554682Y-17699722D01*
X8554682Y-17699722D02*
X8564206Y-17680674D01*
X8564206Y-17680674D02*
X8583253Y-17671150D01*
X8583253Y-17671150D02*
X8611825Y-17671150D01*
X8611825Y-17671150D02*
X8630873Y-17680674D01*
X8707063Y-17880674D02*
X8716587Y-17871150D01*
X8716587Y-17871150D02*
X8735634Y-17842579D01*
X8735634Y-17842579D02*
X8745158Y-17823531D01*
X8745158Y-17823531D02*
X8754682Y-17794960D01*
X8754682Y-17794960D02*
X8764206Y-17747341D01*
X8764206Y-17747341D02*
X8764206Y-17709246D01*
X8764206Y-17709246D02*
X8754682Y-17661627D01*
X8754682Y-17661627D02*
X8745158Y-17633055D01*
X8745158Y-17633055D02*
X8735634Y-17614008D01*
X8735634Y-17614008D02*
X8716587Y-17585436D01*
X8716587Y-17585436D02*
X8707063Y-17575912D01*
D10*
X3832000Y-17927000D02*
X3932000Y-18027000D01*
X3932000Y-17927000D02*
X3832000Y-18027000D01*
X3882000Y-17927000D02*
X3882000Y-18027000D01*
X3832000Y-17977000D02*
X3932000Y-17977000D01*
D11*
X4297539Y-18068484D02*
X4183253Y-18068484D01*
X4240396Y-18068484D02*
X4240396Y-17868484D01*
X4240396Y-17868484D02*
X4221348Y-17897055D01*
X4221348Y-17897055D02*
X4202301Y-17916103D01*
X4202301Y-17916103D02*
X4183253Y-17925627D01*
X4383253Y-18049436D02*
X4392777Y-18058960D01*
X4392777Y-18058960D02*
X4383253Y-18068484D01*
X4383253Y-18068484D02*
X4373729Y-18058960D01*
X4373729Y-18058960D02*
X4383253Y-18049436D01*
X4383253Y-18049436D02*
X4383253Y-18068484D01*
X4516586Y-17868484D02*
X4535634Y-17868484D01*
X4535634Y-17868484D02*
X4554682Y-17878008D01*
X4554682Y-17878008D02*
X4564205Y-17887531D01*
X4564205Y-17887531D02*
X4573729Y-17906579D01*
X4573729Y-17906579D02*
X4583253Y-17944674D01*
X4583253Y-17944674D02*
X4583253Y-17992293D01*
X4583253Y-17992293D02*
X4573729Y-18030389D01*
X4573729Y-18030389D02*
X4564205Y-18049436D01*
X4564205Y-18049436D02*
X4554682Y-18058960D01*
X4554682Y-18058960D02*
X4535634Y-18068484D01*
X4535634Y-18068484D02*
X4516586Y-18068484D01*
X4516586Y-18068484D02*
X4497539Y-18058960D01*
X4497539Y-18058960D02*
X4488015Y-18049436D01*
X4488015Y-18049436D02*
X4478491Y-18030389D01*
X4478491Y-18030389D02*
X4468967Y-17992293D01*
X4468967Y-17992293D02*
X4468967Y-17944674D01*
X4468967Y-17944674D02*
X4478491Y-17906579D01*
X4478491Y-17906579D02*
X4488015Y-17887531D01*
X4488015Y-17887531D02*
X4497539Y-17878008D01*
X4497539Y-17878008D02*
X4516586Y-17868484D01*
X4707063Y-17868484D02*
X4726110Y-17868484D01*
X4726110Y-17868484D02*
X4745158Y-17878008D01*
X4745158Y-17878008D02*
X4754682Y-17887531D01*
X4754682Y-17887531D02*
X4764205Y-17906579D01*
X4764205Y-17906579D02*
X4773729Y-17944674D01*
X4773729Y-17944674D02*
X4773729Y-17992293D01*
X4773729Y-17992293D02*
X4764205Y-18030389D01*
X4764205Y-18030389D02*
X4754682Y-18049436D01*
X4754682Y-18049436D02*
X4745158Y-18058960D01*
X4745158Y-18058960D02*
X4726110Y-18068484D01*
X4726110Y-18068484D02*
X4707063Y-18068484D01*
X4707063Y-18068484D02*
X4688015Y-18058960D01*
X4688015Y-18058960D02*
X4678491Y-18049436D01*
X4678491Y-18049436D02*
X4668967Y-18030389D01*
X4668967Y-18030389D02*
X4659444Y-17992293D01*
X4659444Y-17992293D02*
X4659444Y-17944674D01*
X4659444Y-17944674D02*
X4668967Y-17906579D01*
X4668967Y-17906579D02*
X4678491Y-17887531D01*
X4678491Y-17887531D02*
X4688015Y-17878008D01*
X4688015Y-17878008D02*
X4707063Y-17868484D01*
X4897539Y-17868484D02*
X4916586Y-17868484D01*
X4916586Y-17868484D02*
X4935634Y-17878008D01*
X4935634Y-17878008D02*
X4945158Y-17887531D01*
X4945158Y-17887531D02*
X4954682Y-17906579D01*
X4954682Y-17906579D02*
X4964205Y-17944674D01*
X4964205Y-17944674D02*
X4964205Y-17992293D01*
X4964205Y-17992293D02*
X4954682Y-18030389D01*
X4954682Y-18030389D02*
X4945158Y-18049436D01*
X4945158Y-18049436D02*
X4935634Y-18058960D01*
X4935634Y-18058960D02*
X4916586Y-18068484D01*
X4916586Y-18068484D02*
X4897539Y-18068484D01*
X4897539Y-18068484D02*
X4878491Y-18058960D01*
X4878491Y-18058960D02*
X4868967Y-18049436D01*
X4868967Y-18049436D02*
X4859444Y-18030389D01*
X4859444Y-18030389D02*
X4849920Y-17992293D01*
X4849920Y-17992293D02*
X4849920Y-17944674D01*
X4849920Y-17944674D02*
X4859444Y-17906579D01*
X4859444Y-17906579D02*
X4868967Y-17887531D01*
X4868967Y-17887531D02*
X4878491Y-17878008D01*
X4878491Y-17878008D02*
X4897539Y-17868484D01*
X5049920Y-18068484D02*
X5049920Y-17935150D01*
X5049920Y-17954198D02*
X5059444Y-17944674D01*
X5059444Y-17944674D02*
X5078491Y-17935150D01*
X5078491Y-17935150D02*
X5107063Y-17935150D01*
X5107063Y-17935150D02*
X5126110Y-17944674D01*
X5126110Y-17944674D02*
X5135634Y-17963722D01*
X5135634Y-17963722D02*
X5135634Y-18068484D01*
X5135634Y-17963722D02*
X5145158Y-17944674D01*
X5145158Y-17944674D02*
X5164205Y-17935150D01*
X5164205Y-17935150D02*
X5192777Y-17935150D01*
X5192777Y-17935150D02*
X5211825Y-17944674D01*
X5211825Y-17944674D02*
X5221348Y-17963722D01*
X5221348Y-17963722D02*
X5221348Y-18068484D01*
X5316586Y-18068484D02*
X5316586Y-17935150D01*
X5316586Y-17954198D02*
X5326110Y-17944674D01*
X5326110Y-17944674D02*
X5345158Y-17935150D01*
X5345158Y-17935150D02*
X5373729Y-17935150D01*
X5373729Y-17935150D02*
X5392777Y-17944674D01*
X5392777Y-17944674D02*
X5402301Y-17963722D01*
X5402301Y-17963722D02*
X5402301Y-18068484D01*
X5402301Y-17963722D02*
X5411825Y-17944674D01*
X5411825Y-17944674D02*
X5430872Y-17935150D01*
X5430872Y-17935150D02*
X5459444Y-17935150D01*
X5459444Y-17935150D02*
X5478491Y-17944674D01*
X5478491Y-17944674D02*
X5488015Y-17963722D01*
X5488015Y-17963722D02*
X5488015Y-18068484D01*
X5878491Y-17858960D02*
X5707063Y-18116103D01*
X6135634Y-17868484D02*
X6154682Y-17868484D01*
X6154682Y-17868484D02*
X6173729Y-17878008D01*
X6173729Y-17878008D02*
X6183253Y-17887531D01*
X6183253Y-17887531D02*
X6192777Y-17906579D01*
X6192777Y-17906579D02*
X6202301Y-17944674D01*
X6202301Y-17944674D02*
X6202301Y-17992293D01*
X6202301Y-17992293D02*
X6192777Y-18030389D01*
X6192777Y-18030389D02*
X6183253Y-18049436D01*
X6183253Y-18049436D02*
X6173729Y-18058960D01*
X6173729Y-18058960D02*
X6154682Y-18068484D01*
X6154682Y-18068484D02*
X6135634Y-18068484D01*
X6135634Y-18068484D02*
X6116586Y-18058960D01*
X6116586Y-18058960D02*
X6107063Y-18049436D01*
X6107063Y-18049436D02*
X6097539Y-18030389D01*
X6097539Y-18030389D02*
X6088015Y-17992293D01*
X6088015Y-17992293D02*
X6088015Y-17944674D01*
X6088015Y-17944674D02*
X6097539Y-17906579D01*
X6097539Y-17906579D02*
X6107063Y-17887531D01*
X6107063Y-17887531D02*
X6116586Y-17878008D01*
X6116586Y-17878008D02*
X6135634Y-17868484D01*
X6288015Y-18049436D02*
X6297539Y-18058960D01*
X6297539Y-18058960D02*
X6288015Y-18068484D01*
X6288015Y-18068484D02*
X6278491Y-18058960D01*
X6278491Y-18058960D02*
X6288015Y-18049436D01*
X6288015Y-18049436D02*
X6288015Y-18068484D01*
X6421348Y-17868484D02*
X6440396Y-17868484D01*
X6440396Y-17868484D02*
X6459444Y-17878008D01*
X6459444Y-17878008D02*
X6468967Y-17887531D01*
X6468967Y-17887531D02*
X6478491Y-17906579D01*
X6478491Y-17906579D02*
X6488015Y-17944674D01*
X6488015Y-17944674D02*
X6488015Y-17992293D01*
X6488015Y-17992293D02*
X6478491Y-18030389D01*
X6478491Y-18030389D02*
X6468967Y-18049436D01*
X6468967Y-18049436D02*
X6459444Y-18058960D01*
X6459444Y-18058960D02*
X6440396Y-18068484D01*
X6440396Y-18068484D02*
X6421348Y-18068484D01*
X6421348Y-18068484D02*
X6402301Y-18058960D01*
X6402301Y-18058960D02*
X6392777Y-18049436D01*
X6392777Y-18049436D02*
X6383253Y-18030389D01*
X6383253Y-18030389D02*
X6373729Y-17992293D01*
X6373729Y-17992293D02*
X6373729Y-17944674D01*
X6373729Y-17944674D02*
X6383253Y-17906579D01*
X6383253Y-17906579D02*
X6392777Y-17887531D01*
X6392777Y-17887531D02*
X6402301Y-17878008D01*
X6402301Y-17878008D02*
X6421348Y-17868484D01*
X6554682Y-17868484D02*
X6678491Y-17868484D01*
X6678491Y-17868484D02*
X6611825Y-17944674D01*
X6611825Y-17944674D02*
X6640396Y-17944674D01*
X6640396Y-17944674D02*
X6659444Y-17954198D01*
X6659444Y-17954198D02*
X6668967Y-17963722D01*
X6668967Y-17963722D02*
X6678491Y-17982770D01*
X6678491Y-17982770D02*
X6678491Y-18030389D01*
X6678491Y-18030389D02*
X6668967Y-18049436D01*
X6668967Y-18049436D02*
X6659444Y-18058960D01*
X6659444Y-18058960D02*
X6640396Y-18068484D01*
X6640396Y-18068484D02*
X6583253Y-18068484D01*
X6583253Y-18068484D02*
X6564206Y-18058960D01*
X6564206Y-18058960D02*
X6554682Y-18049436D01*
X6773729Y-18068484D02*
X6811825Y-18068484D01*
X6811825Y-18068484D02*
X6830872Y-18058960D01*
X6830872Y-18058960D02*
X6840396Y-18049436D01*
X6840396Y-18049436D02*
X6859444Y-18020865D01*
X6859444Y-18020865D02*
X6868967Y-17982770D01*
X6868967Y-17982770D02*
X6868967Y-17906579D01*
X6868967Y-17906579D02*
X6859444Y-17887531D01*
X6859444Y-17887531D02*
X6849920Y-17878008D01*
X6849920Y-17878008D02*
X6830872Y-17868484D01*
X6830872Y-17868484D02*
X6792777Y-17868484D01*
X6792777Y-17868484D02*
X6773729Y-17878008D01*
X6773729Y-17878008D02*
X6764206Y-17887531D01*
X6764206Y-17887531D02*
X6754682Y-17906579D01*
X6754682Y-17906579D02*
X6754682Y-17954198D01*
X6754682Y-17954198D02*
X6764206Y-17973246D01*
X6764206Y-17973246D02*
X6773729Y-17982770D01*
X6773729Y-17982770D02*
X6792777Y-17992293D01*
X6792777Y-17992293D02*
X6830872Y-17992293D01*
X6830872Y-17992293D02*
X6849920Y-17982770D01*
X6849920Y-17982770D02*
X6859444Y-17973246D01*
X6859444Y-17973246D02*
X6868967Y-17954198D01*
X7040396Y-17935150D02*
X7040396Y-18068484D01*
X6992777Y-17858960D02*
X6945158Y-18001817D01*
X6945158Y-18001817D02*
X7068967Y-18001817D01*
X7135634Y-17868484D02*
X7135634Y-17906579D01*
X7211825Y-17868484D02*
X7211825Y-17906579D01*
X7507063Y-18144674D02*
X7497539Y-18135150D01*
X7497539Y-18135150D02*
X7478491Y-18106579D01*
X7478491Y-18106579D02*
X7468968Y-18087531D01*
X7468968Y-18087531D02*
X7459444Y-18058960D01*
X7459444Y-18058960D02*
X7449920Y-18011341D01*
X7449920Y-18011341D02*
X7449920Y-17973246D01*
X7449920Y-17973246D02*
X7459444Y-17925627D01*
X7459444Y-17925627D02*
X7468968Y-17897055D01*
X7468968Y-17897055D02*
X7478491Y-17878008D01*
X7478491Y-17878008D02*
X7497539Y-17849436D01*
X7497539Y-17849436D02*
X7507063Y-17839912D01*
X7564206Y-17868484D02*
X7688015Y-17868484D01*
X7688015Y-17868484D02*
X7621348Y-17944674D01*
X7621348Y-17944674D02*
X7649920Y-17944674D01*
X7649920Y-17944674D02*
X7668968Y-17954198D01*
X7668968Y-17954198D02*
X7678491Y-17963722D01*
X7678491Y-17963722D02*
X7688015Y-17982770D01*
X7688015Y-17982770D02*
X7688015Y-18030389D01*
X7688015Y-18030389D02*
X7678491Y-18049436D01*
X7678491Y-18049436D02*
X7668968Y-18058960D01*
X7668968Y-18058960D02*
X7649920Y-18068484D01*
X7649920Y-18068484D02*
X7592777Y-18068484D01*
X7592777Y-18068484D02*
X7573729Y-18058960D01*
X7573729Y-18058960D02*
X7564206Y-18049436D01*
X7754682Y-17868484D02*
X7878491Y-17868484D01*
X7878491Y-17868484D02*
X7811825Y-17944674D01*
X7811825Y-17944674D02*
X7840396Y-17944674D01*
X7840396Y-17944674D02*
X7859444Y-17954198D01*
X7859444Y-17954198D02*
X7868968Y-17963722D01*
X7868968Y-17963722D02*
X7878491Y-17982770D01*
X7878491Y-17982770D02*
X7878491Y-18030389D01*
X7878491Y-18030389D02*
X7868968Y-18049436D01*
X7868968Y-18049436D02*
X7859444Y-18058960D01*
X7859444Y-18058960D02*
X7840396Y-18068484D01*
X7840396Y-18068484D02*
X7783253Y-18068484D01*
X7783253Y-18068484D02*
X7764206Y-18058960D01*
X7764206Y-18058960D02*
X7754682Y-18049436D01*
X8116587Y-18068484D02*
X8116587Y-17868484D01*
X8202301Y-18068484D02*
X8202301Y-17963722D01*
X8202301Y-17963722D02*
X8192777Y-17944674D01*
X8192777Y-17944674D02*
X8173730Y-17935150D01*
X8173730Y-17935150D02*
X8145158Y-17935150D01*
X8145158Y-17935150D02*
X8126110Y-17944674D01*
X8126110Y-17944674D02*
X8116587Y-17954198D01*
X8326110Y-18068484D02*
X8307063Y-18058960D01*
X8307063Y-18058960D02*
X8297539Y-18049436D01*
X8297539Y-18049436D02*
X8288015Y-18030389D01*
X8288015Y-18030389D02*
X8288015Y-17973246D01*
X8288015Y-17973246D02*
X8297539Y-17954198D01*
X8297539Y-17954198D02*
X8307063Y-17944674D01*
X8307063Y-17944674D02*
X8326110Y-17935150D01*
X8326110Y-17935150D02*
X8354682Y-17935150D01*
X8354682Y-17935150D02*
X8373730Y-17944674D01*
X8373730Y-17944674D02*
X8383253Y-17954198D01*
X8383253Y-17954198D02*
X8392777Y-17973246D01*
X8392777Y-17973246D02*
X8392777Y-18030389D01*
X8392777Y-18030389D02*
X8383253Y-18049436D01*
X8383253Y-18049436D02*
X8373730Y-18058960D01*
X8373730Y-18058960D02*
X8354682Y-18068484D01*
X8354682Y-18068484D02*
X8326110Y-18068484D01*
X8507063Y-18068484D02*
X8488015Y-18058960D01*
X8488015Y-18058960D02*
X8478492Y-18039912D01*
X8478492Y-18039912D02*
X8478492Y-17868484D01*
X8659444Y-18058960D02*
X8640396Y-18068484D01*
X8640396Y-18068484D02*
X8602301Y-18068484D01*
X8602301Y-18068484D02*
X8583253Y-18058960D01*
X8583253Y-18058960D02*
X8573730Y-18039912D01*
X8573730Y-18039912D02*
X8573730Y-17963722D01*
X8573730Y-17963722D02*
X8583253Y-17944674D01*
X8583253Y-17944674D02*
X8602301Y-17935150D01*
X8602301Y-17935150D02*
X8640396Y-17935150D01*
X8640396Y-17935150D02*
X8659444Y-17944674D01*
X8659444Y-17944674D02*
X8668968Y-17963722D01*
X8668968Y-17963722D02*
X8668968Y-17982770D01*
X8668968Y-17982770D02*
X8573730Y-18001817D01*
X8745158Y-18058960D02*
X8764206Y-18068484D01*
X8764206Y-18068484D02*
X8802301Y-18068484D01*
X8802301Y-18068484D02*
X8821349Y-18058960D01*
X8821349Y-18058960D02*
X8830873Y-18039912D01*
X8830873Y-18039912D02*
X8830873Y-18030389D01*
X8830873Y-18030389D02*
X8821349Y-18011341D01*
X8821349Y-18011341D02*
X8802301Y-18001817D01*
X8802301Y-18001817D02*
X8773730Y-18001817D01*
X8773730Y-18001817D02*
X8754682Y-17992293D01*
X8754682Y-17992293D02*
X8745158Y-17973246D01*
X8745158Y-17973246D02*
X8745158Y-17963722D01*
X8745158Y-17963722D02*
X8754682Y-17944674D01*
X8754682Y-17944674D02*
X8773730Y-17935150D01*
X8773730Y-17935150D02*
X8802301Y-17935150D01*
X8802301Y-17935150D02*
X8821349Y-17944674D01*
X8897539Y-18144674D02*
X8907063Y-18135150D01*
X8907063Y-18135150D02*
X8926111Y-18106579D01*
X8926111Y-18106579D02*
X8935634Y-18087531D01*
X8935634Y-18087531D02*
X8945158Y-18058960D01*
X8945158Y-18058960D02*
X8954682Y-18011341D01*
X8954682Y-18011341D02*
X8954682Y-17973246D01*
X8954682Y-17973246D02*
X8945158Y-17925627D01*
X8945158Y-17925627D02*
X8935634Y-17897055D01*
X8935634Y-17897055D02*
X8926111Y-17878008D01*
X8926111Y-17878008D02*
X8907063Y-17849436D01*
X8907063Y-17849436D02*
X8897539Y-17839912D01*
D17*
X3822000Y-18186000D02*
X3932000Y-18296000D01*
X3932000Y-18186000D02*
X3822000Y-18296000D01*
X3915891Y-18279891D02*
X3915891Y-18202109D01*
X3838109Y-18202109D01*
X3838109Y-18279891D01*
X3915891Y-18279891D01*
D11*
X4297539Y-18332484D02*
X4183253Y-18332484D01*
X4240396Y-18332484D02*
X4240396Y-18132484D01*
X4240396Y-18132484D02*
X4221348Y-18161055D01*
X4221348Y-18161055D02*
X4202301Y-18180103D01*
X4202301Y-18180103D02*
X4183253Y-18189627D01*
X4383253Y-18313436D02*
X4392777Y-18322960D01*
X4392777Y-18322960D02*
X4383253Y-18332484D01*
X4383253Y-18332484D02*
X4373729Y-18322960D01*
X4373729Y-18322960D02*
X4383253Y-18313436D01*
X4383253Y-18313436D02*
X4383253Y-18332484D01*
X4583253Y-18332484D02*
X4468967Y-18332484D01*
X4526110Y-18332484D02*
X4526110Y-18132484D01*
X4526110Y-18132484D02*
X4507063Y-18161055D01*
X4507063Y-18161055D02*
X4488015Y-18180103D01*
X4488015Y-18180103D02*
X4468967Y-18189627D01*
X4707063Y-18132484D02*
X4726110Y-18132484D01*
X4726110Y-18132484D02*
X4745158Y-18142008D01*
X4745158Y-18142008D02*
X4754682Y-18151531D01*
X4754682Y-18151531D02*
X4764205Y-18170579D01*
X4764205Y-18170579D02*
X4773729Y-18208674D01*
X4773729Y-18208674D02*
X4773729Y-18256293D01*
X4773729Y-18256293D02*
X4764205Y-18294389D01*
X4764205Y-18294389D02*
X4754682Y-18313436D01*
X4754682Y-18313436D02*
X4745158Y-18322960D01*
X4745158Y-18322960D02*
X4726110Y-18332484D01*
X4726110Y-18332484D02*
X4707063Y-18332484D01*
X4707063Y-18332484D02*
X4688015Y-18322960D01*
X4688015Y-18322960D02*
X4678491Y-18313436D01*
X4678491Y-18313436D02*
X4668967Y-18294389D01*
X4668967Y-18294389D02*
X4659444Y-18256293D01*
X4659444Y-18256293D02*
X4659444Y-18208674D01*
X4659444Y-18208674D02*
X4668967Y-18170579D01*
X4668967Y-18170579D02*
X4678491Y-18151531D01*
X4678491Y-18151531D02*
X4688015Y-18142008D01*
X4688015Y-18142008D02*
X4707063Y-18132484D01*
X4897539Y-18132484D02*
X4916586Y-18132484D01*
X4916586Y-18132484D02*
X4935634Y-18142008D01*
X4935634Y-18142008D02*
X4945158Y-18151531D01*
X4945158Y-18151531D02*
X4954682Y-18170579D01*
X4954682Y-18170579D02*
X4964205Y-18208674D01*
X4964205Y-18208674D02*
X4964205Y-18256293D01*
X4964205Y-18256293D02*
X4954682Y-18294389D01*
X4954682Y-18294389D02*
X4945158Y-18313436D01*
X4945158Y-18313436D02*
X4935634Y-18322960D01*
X4935634Y-18322960D02*
X4916586Y-18332484D01*
X4916586Y-18332484D02*
X4897539Y-18332484D01*
X4897539Y-18332484D02*
X4878491Y-18322960D01*
X4878491Y-18322960D02*
X4868967Y-18313436D01*
X4868967Y-18313436D02*
X4859444Y-18294389D01*
X4859444Y-18294389D02*
X4849920Y-18256293D01*
X4849920Y-18256293D02*
X4849920Y-18208674D01*
X4849920Y-18208674D02*
X4859444Y-18170579D01*
X4859444Y-18170579D02*
X4868967Y-18151531D01*
X4868967Y-18151531D02*
X4878491Y-18142008D01*
X4878491Y-18142008D02*
X4897539Y-18132484D01*
X5049920Y-18332484D02*
X5049920Y-18199150D01*
X5049920Y-18218198D02*
X5059444Y-18208674D01*
X5059444Y-18208674D02*
X5078491Y-18199150D01*
X5078491Y-18199150D02*
X5107063Y-18199150D01*
X5107063Y-18199150D02*
X5126110Y-18208674D01*
X5126110Y-18208674D02*
X5135634Y-18227722D01*
X5135634Y-18227722D02*
X5135634Y-18332484D01*
X5135634Y-18227722D02*
X5145158Y-18208674D01*
X5145158Y-18208674D02*
X5164205Y-18199150D01*
X5164205Y-18199150D02*
X5192777Y-18199150D01*
X5192777Y-18199150D02*
X5211825Y-18208674D01*
X5211825Y-18208674D02*
X5221348Y-18227722D01*
X5221348Y-18227722D02*
X5221348Y-18332484D01*
X5316586Y-18332484D02*
X5316586Y-18199150D01*
X5316586Y-18218198D02*
X5326110Y-18208674D01*
X5326110Y-18208674D02*
X5345158Y-18199150D01*
X5345158Y-18199150D02*
X5373729Y-18199150D01*
X5373729Y-18199150D02*
X5392777Y-18208674D01*
X5392777Y-18208674D02*
X5402301Y-18227722D01*
X5402301Y-18227722D02*
X5402301Y-18332484D01*
X5402301Y-18227722D02*
X5411825Y-18208674D01*
X5411825Y-18208674D02*
X5430872Y-18199150D01*
X5430872Y-18199150D02*
X5459444Y-18199150D01*
X5459444Y-18199150D02*
X5478491Y-18208674D01*
X5478491Y-18208674D02*
X5488015Y-18227722D01*
X5488015Y-18227722D02*
X5488015Y-18332484D01*
X5878491Y-18122960D02*
X5707063Y-18380103D01*
X6135634Y-18132484D02*
X6154682Y-18132484D01*
X6154682Y-18132484D02*
X6173729Y-18142008D01*
X6173729Y-18142008D02*
X6183253Y-18151531D01*
X6183253Y-18151531D02*
X6192777Y-18170579D01*
X6192777Y-18170579D02*
X6202301Y-18208674D01*
X6202301Y-18208674D02*
X6202301Y-18256293D01*
X6202301Y-18256293D02*
X6192777Y-18294389D01*
X6192777Y-18294389D02*
X6183253Y-18313436D01*
X6183253Y-18313436D02*
X6173729Y-18322960D01*
X6173729Y-18322960D02*
X6154682Y-18332484D01*
X6154682Y-18332484D02*
X6135634Y-18332484D01*
X6135634Y-18332484D02*
X6116586Y-18322960D01*
X6116586Y-18322960D02*
X6107063Y-18313436D01*
X6107063Y-18313436D02*
X6097539Y-18294389D01*
X6097539Y-18294389D02*
X6088015Y-18256293D01*
X6088015Y-18256293D02*
X6088015Y-18208674D01*
X6088015Y-18208674D02*
X6097539Y-18170579D01*
X6097539Y-18170579D02*
X6107063Y-18151531D01*
X6107063Y-18151531D02*
X6116586Y-18142008D01*
X6116586Y-18142008D02*
X6135634Y-18132484D01*
X6288015Y-18313436D02*
X6297539Y-18322960D01*
X6297539Y-18322960D02*
X6288015Y-18332484D01*
X6288015Y-18332484D02*
X6278491Y-18322960D01*
X6278491Y-18322960D02*
X6288015Y-18313436D01*
X6288015Y-18313436D02*
X6288015Y-18332484D01*
X6421348Y-18132484D02*
X6440396Y-18132484D01*
X6440396Y-18132484D02*
X6459444Y-18142008D01*
X6459444Y-18142008D02*
X6468967Y-18151531D01*
X6468967Y-18151531D02*
X6478491Y-18170579D01*
X6478491Y-18170579D02*
X6488015Y-18208674D01*
X6488015Y-18208674D02*
X6488015Y-18256293D01*
X6488015Y-18256293D02*
X6478491Y-18294389D01*
X6478491Y-18294389D02*
X6468967Y-18313436D01*
X6468967Y-18313436D02*
X6459444Y-18322960D01*
X6459444Y-18322960D02*
X6440396Y-18332484D01*
X6440396Y-18332484D02*
X6421348Y-18332484D01*
X6421348Y-18332484D02*
X6402301Y-18322960D01*
X6402301Y-18322960D02*
X6392777Y-18313436D01*
X6392777Y-18313436D02*
X6383253Y-18294389D01*
X6383253Y-18294389D02*
X6373729Y-18256293D01*
X6373729Y-18256293D02*
X6373729Y-18208674D01*
X6373729Y-18208674D02*
X6383253Y-18170579D01*
X6383253Y-18170579D02*
X6392777Y-18151531D01*
X6392777Y-18151531D02*
X6402301Y-18142008D01*
X6402301Y-18142008D02*
X6421348Y-18132484D01*
X6659444Y-18199150D02*
X6659444Y-18332484D01*
X6611825Y-18122960D02*
X6564206Y-18265817D01*
X6564206Y-18265817D02*
X6688015Y-18265817D01*
X6745158Y-18132484D02*
X6868967Y-18132484D01*
X6868967Y-18132484D02*
X6802301Y-18208674D01*
X6802301Y-18208674D02*
X6830872Y-18208674D01*
X6830872Y-18208674D02*
X6849920Y-18218198D01*
X6849920Y-18218198D02*
X6859444Y-18227722D01*
X6859444Y-18227722D02*
X6868967Y-18246770D01*
X6868967Y-18246770D02*
X6868967Y-18294389D01*
X6868967Y-18294389D02*
X6859444Y-18313436D01*
X6859444Y-18313436D02*
X6849920Y-18322960D01*
X6849920Y-18322960D02*
X6830872Y-18332484D01*
X6830872Y-18332484D02*
X6773729Y-18332484D01*
X6773729Y-18332484D02*
X6754682Y-18322960D01*
X6754682Y-18322960D02*
X6745158Y-18313436D01*
X6935634Y-18132484D02*
X7059444Y-18132484D01*
X7059444Y-18132484D02*
X6992777Y-18208674D01*
X6992777Y-18208674D02*
X7021348Y-18208674D01*
X7021348Y-18208674D02*
X7040396Y-18218198D01*
X7040396Y-18218198D02*
X7049920Y-18227722D01*
X7049920Y-18227722D02*
X7059444Y-18246770D01*
X7059444Y-18246770D02*
X7059444Y-18294389D01*
X7059444Y-18294389D02*
X7049920Y-18313436D01*
X7049920Y-18313436D02*
X7040396Y-18322960D01*
X7040396Y-18322960D02*
X7021348Y-18332484D01*
X7021348Y-18332484D02*
X6964206Y-18332484D01*
X6964206Y-18332484D02*
X6945158Y-18322960D01*
X6945158Y-18322960D02*
X6935634Y-18313436D01*
X7135634Y-18132484D02*
X7135634Y-18170579D01*
X7211825Y-18132484D02*
X7211825Y-18170579D01*
X7507063Y-18408674D02*
X7497539Y-18399150D01*
X7497539Y-18399150D02*
X7478491Y-18370579D01*
X7478491Y-18370579D02*
X7468968Y-18351531D01*
X7468968Y-18351531D02*
X7459444Y-18322960D01*
X7459444Y-18322960D02*
X7449920Y-18275341D01*
X7449920Y-18275341D02*
X7449920Y-18237246D01*
X7449920Y-18237246D02*
X7459444Y-18189627D01*
X7459444Y-18189627D02*
X7468968Y-18161055D01*
X7468968Y-18161055D02*
X7478491Y-18142008D01*
X7478491Y-18142008D02*
X7497539Y-18113436D01*
X7497539Y-18113436D02*
X7507063Y-18103912D01*
X7668968Y-18199150D02*
X7668968Y-18332484D01*
X7621348Y-18122960D02*
X7573729Y-18265817D01*
X7573729Y-18265817D02*
X7697539Y-18265817D01*
X7926110Y-18332484D02*
X7926110Y-18132484D01*
X8011825Y-18332484D02*
X8011825Y-18227722D01*
X8011825Y-18227722D02*
X8002301Y-18208674D01*
X8002301Y-18208674D02*
X7983253Y-18199150D01*
X7983253Y-18199150D02*
X7954682Y-18199150D01*
X7954682Y-18199150D02*
X7935634Y-18208674D01*
X7935634Y-18208674D02*
X7926110Y-18218198D01*
X8135634Y-18332484D02*
X8116587Y-18322960D01*
X8116587Y-18322960D02*
X8107063Y-18313436D01*
X8107063Y-18313436D02*
X8097539Y-18294389D01*
X8097539Y-18294389D02*
X8097539Y-18237246D01*
X8097539Y-18237246D02*
X8107063Y-18218198D01*
X8107063Y-18218198D02*
X8116587Y-18208674D01*
X8116587Y-18208674D02*
X8135634Y-18199150D01*
X8135634Y-18199150D02*
X8164206Y-18199150D01*
X8164206Y-18199150D02*
X8183253Y-18208674D01*
X8183253Y-18208674D02*
X8192777Y-18218198D01*
X8192777Y-18218198D02*
X8202301Y-18237246D01*
X8202301Y-18237246D02*
X8202301Y-18294389D01*
X8202301Y-18294389D02*
X8192777Y-18313436D01*
X8192777Y-18313436D02*
X8183253Y-18322960D01*
X8183253Y-18322960D02*
X8164206Y-18332484D01*
X8164206Y-18332484D02*
X8135634Y-18332484D01*
X8316587Y-18332484D02*
X8297539Y-18322960D01*
X8297539Y-18322960D02*
X8288015Y-18303912D01*
X8288015Y-18303912D02*
X8288015Y-18132484D01*
X8468968Y-18322960D02*
X8449920Y-18332484D01*
X8449920Y-18332484D02*
X8411825Y-18332484D01*
X8411825Y-18332484D02*
X8392777Y-18322960D01*
X8392777Y-18322960D02*
X8383253Y-18303912D01*
X8383253Y-18303912D02*
X8383253Y-18227722D01*
X8383253Y-18227722D02*
X8392777Y-18208674D01*
X8392777Y-18208674D02*
X8411825Y-18199150D01*
X8411825Y-18199150D02*
X8449920Y-18199150D01*
X8449920Y-18199150D02*
X8468968Y-18208674D01*
X8468968Y-18208674D02*
X8478492Y-18227722D01*
X8478492Y-18227722D02*
X8478492Y-18246770D01*
X8478492Y-18246770D02*
X8383253Y-18265817D01*
X8554682Y-18322960D02*
X8573730Y-18332484D01*
X8573730Y-18332484D02*
X8611825Y-18332484D01*
X8611825Y-18332484D02*
X8630873Y-18322960D01*
X8630873Y-18322960D02*
X8640396Y-18303912D01*
X8640396Y-18303912D02*
X8640396Y-18294389D01*
X8640396Y-18294389D02*
X8630873Y-18275341D01*
X8630873Y-18275341D02*
X8611825Y-18265817D01*
X8611825Y-18265817D02*
X8583253Y-18265817D01*
X8583253Y-18265817D02*
X8564206Y-18256293D01*
X8564206Y-18256293D02*
X8554682Y-18237246D01*
X8554682Y-18237246D02*
X8554682Y-18227722D01*
X8554682Y-18227722D02*
X8564206Y-18208674D01*
X8564206Y-18208674D02*
X8583253Y-18199150D01*
X8583253Y-18199150D02*
X8611825Y-18199150D01*
X8611825Y-18199150D02*
X8630873Y-18208674D01*
X8707063Y-18408674D02*
X8716587Y-18399150D01*
X8716587Y-18399150D02*
X8735634Y-18370579D01*
X8735634Y-18370579D02*
X8745158Y-18351531D01*
X8745158Y-18351531D02*
X8754682Y-18322960D01*
X8754682Y-18322960D02*
X8764206Y-18275341D01*
X8764206Y-18275341D02*
X8764206Y-18237246D01*
X8764206Y-18237246D02*
X8754682Y-18189627D01*
X8754682Y-18189627D02*
X8745158Y-18161055D01*
X8745158Y-18161055D02*
X8735634Y-18142008D01*
X8735634Y-18142008D02*
X8716587Y-18113436D01*
X8716587Y-18113436D02*
X8707063Y-18103912D01*
M02*
