M48
; DRILL file {KiCad 7.0.6} date Wed Jul 26 03:02:39 2023
; FORMAT={-:-/ absolute / metric / decimal}
; #@! TF.CreationDate,2023-07-26T03:02:39+02:00
; #@! TF.GenerationSoftware,Kicad,Pcbnew,7.0.6
; #@! TF.FileFunction,Plated,1,4,PTH
FMAT,2
METRIC
; #@! TA.AperFunction,Plated,PTH,ViaDrill
T1C0.400
; #@! TA.AperFunction,Plated,PTH,ComponentDrill
T2C0.400
; #@! TA.AperFunction,Plated,PTH,ComponentDrill
T3C0.600
; #@! TA.AperFunction,Plated,PTH,ComponentDrill
T4C0.700
; #@! TA.AperFunction,Plated,PTH,ComponentDrill
T5C0.800
; #@! TA.AperFunction,Plated,PTH,ComponentDrill
T6C0.900
; #@! TA.AperFunction,Plated,PTH,ComponentDrill
T7C1.000
; #@! TA.AperFunction,Plated,PTH,ComponentDrill
T8C1.100
%
G90
G05
T1
X67.945Y-109.22
X67.945Y-130.175
X74.93Y-97.79
X75.565Y-114.935
X83.185Y-113.03
X99.06Y-93.345
X102.235Y-111.125
T2
X52.905Y-63.127
X52.905Y-64.477
X53.755Y-63.127
X53.755Y-64.477
X54.605Y-63.127
X54.605Y-64.477
X55.455Y-63.127
X55.455Y-64.477
X56.305Y-63.127
X56.305Y-64.477
X57.155Y-63.127
X57.155Y-64.477
X58.005Y-63.127
X58.005Y-64.477
X58.855Y-63.127
X58.855Y-64.477
T4
X46.98Y-68.585
X48.26Y-111.76
X48.26Y-114.26
X48.26Y-119.42
X48.26Y-121.92
X49.48Y-68.585
X57.15Y-77.55
X57.15Y-80.05
X59.69Y-110.53
X59.69Y-113.03
X116.84Y-99.06
X116.84Y-101.56
X123.23Y-82.55
X123.27Y-87.63
X125.73Y-82.55
X125.77Y-87.63
T5
X44.45Y-72.39
X44.45Y-74.93
X44.45Y-77.47
X44.45Y-80.01
X44.45Y-82.55
X44.45Y-85.09
X44.45Y-87.63
X52.07Y-72.39
X52.07Y-74.93
X52.07Y-77.47
X52.07Y-80.01
X52.07Y-82.55
X52.07Y-85.09
X52.07Y-87.63
X53.848Y-114.41
X53.848Y-119.29
X55.88Y-95.25
X55.88Y-105.41
X59.73Y-72.39
X62.23Y-72.39
X63.5Y-60.96
X63.5Y-64.77
X64.77Y-87.63
X64.77Y-90.17
X64.77Y-92.71
X64.77Y-95.25
X64.77Y-97.79
X64.77Y-100.33
X64.77Y-102.87
X64.77Y-105.41
X64.77Y-107.95
X64.77Y-110.49
X64.77Y-113.03
X64.77Y-115.57
X64.77Y-118.11
X64.77Y-120.65
X64.77Y-123.19
X64.77Y-125.73
X64.77Y-128.27
X64.77Y-130.81
X64.77Y-133.35
X64.77Y-135.89
X73.66Y-60.96
X73.66Y-64.77
X80.01Y-87.63
X80.01Y-90.17
X80.01Y-92.71
X80.01Y-95.25
X80.01Y-97.79
X80.01Y-100.33
X80.01Y-102.87
X80.01Y-105.41
X80.01Y-107.95
X80.01Y-110.49
X80.01Y-113.03
X80.01Y-115.57
X80.01Y-118.11
X80.01Y-120.65
X80.01Y-123.19
X80.01Y-125.73
X80.01Y-128.27
X80.01Y-130.81
X80.01Y-133.35
X80.01Y-135.89
X116.84Y-77.47
X116.84Y-87.63
X118.11Y-111.76
X118.11Y-121.92
X120.7Y-92.72
X120.7Y-95.26
X120.7Y-97.8
X120.7Y-100.34
X121.92Y-67.31
X121.92Y-77.47
X128.27Y-67.31
X128.27Y-77.47
X128.32Y-92.72
X128.32Y-95.26
X128.32Y-97.8
X128.32Y-100.34
X134.62Y-67.31
X134.62Y-77.47
T6
X120.65Y-62.23
X123.19Y-62.23
X127.0Y-62.23
X129.54Y-62.23
X133.35Y-62.23
X135.89Y-62.23
T7
X82.55Y-64.77
X82.55Y-67.31
X85.09Y-64.77
X85.09Y-67.31
X87.63Y-64.77
X87.63Y-67.31
X94.453Y-101.6
X94.453Y-104.14
X94.453Y-106.68
X94.453Y-109.22
X94.453Y-111.76
X94.453Y-114.3
X94.453Y-116.84
X94.453Y-119.38
X94.453Y-121.92
X94.453Y-124.46
X94.453Y-127.0
X94.453Y-129.54
X109.694Y-101.6
X109.694Y-104.14
X109.694Y-106.68
X109.694Y-109.22
X109.694Y-111.76
X109.694Y-114.3
X109.694Y-116.84
X109.694Y-119.38
X109.694Y-121.92
X109.694Y-124.46
X109.694Y-127.0
X109.694Y-129.54
X134.62Y-124.46
X134.66Y-87.63
X134.66Y-102.87
T8
X45.01Y-100.62
X45.01Y-105.12
X51.51Y-100.62
X51.51Y-105.12
T3
X51.555Y-60.517G85X51.555Y-59.717
G05
X51.555Y-64.247G85X51.555Y-62.747
G05
X60.205Y-60.517G85X60.205Y-59.717
G05
X60.205Y-64.247G85X60.205Y-62.747
G05
T0
M30
