M48
; DRILL file {KiCad 8.0.3} date 2024-06-18T23:37:38+0200
; FORMAT={-:-/ absolute / metric / decimal}
; #@! TF.CreationDate,2024-06-18T23:37:38+02:00
; #@! TF.GenerationSoftware,Kicad,Pcbnew,8.0.3
; #@! TF.FileFunction,Plated,1,4,PTH
FMAT,2
METRIC
; #@! TA.AperFunction,Plated,PTH,ViaDrill
T1C0.400
; #@! TA.AperFunction,Plated,PTH,ComponentDrill
T2C0.400
; #@! TA.AperFunction,Plated,PTH,ComponentDrill
T3C0.600
; #@! TA.AperFunction,Plated,PTH,ComponentDrill
T4C0.700
; #@! TA.AperFunction,Plated,PTH,ComponentDrill
T5C0.800
; #@! TA.AperFunction,Plated,PTH,ComponentDrill
T6C0.900
; #@! TA.AperFunction,Plated,PTH,ComponentDrill
T7C1.000
; #@! TA.AperFunction,Plated,PTH,ComponentDrill
T8C1.100
; #@! TA.AperFunction,Plated,PTH,ComponentDrill
T9C1.600
%
G90
G05
T1
X42.545Y-61.595
X49.53Y-85.725
X76.2Y-97.155
X76.2Y-109.855
X78.74Y-117.348
X79.375Y-91.44
X79.375Y-92.71
X83.82Y-79.375
X83.82Y-144.272
X86.36Y-90.805
X86.36Y-92.71
X86.36Y-103.505
X86.995Y-94.615
X97.155Y-95.25
X107.95Y-69.215
X111.125Y-88.9
X129.032Y-99.06
X130.048Y-152.908
X136.652Y-86.868
X136.652Y-110.744
T2
X52.905Y-63.127
X52.905Y-64.477
X53.755Y-63.127
X53.755Y-64.477
X54.605Y-63.127
X54.605Y-64.477
X55.455Y-63.127
X55.455Y-64.477
X56.305Y-63.127
X56.305Y-64.477
X57.155Y-63.127
X57.155Y-64.477
X58.005Y-63.127
X58.005Y-64.477
X58.855Y-63.127
X58.855Y-64.477
T4
X45.7Y-121.539
X45.72Y-117.858
X46.98Y-68.585
X48.2Y-121.539
X48.22Y-117.858
X49.48Y-68.585
X54.864Y-122.555
X54.864Y-125.055
X54.864Y-130.195
X54.864Y-132.695
X55.88Y-77.55
X55.88Y-80.05
X57.277Y-99.785
X57.277Y-102.285
X57.277Y-107.335
X57.277Y-109.835
X68.366Y-135.128
X70.485Y-98.445
X70.485Y-100.945
X70.866Y-135.128
X79.407Y-150.782
X81.907Y-150.782
X88.141Y-139.224
X88.141Y-141.724
X93.345Y-98.445
X93.345Y-100.945
X97.787Y-152.57
X97.787Y-155.07
X103.888Y-139.224
X103.888Y-141.724
X125.891Y-75.525
X125.891Y-78.025
T5
X43.18Y-102.235
X43.18Y-112.395
X43.19Y-125.105
X43.19Y-127.645
X43.19Y-130.185
X43.19Y-132.725
X44.45Y-72.39
X44.45Y-74.93
X44.45Y-77.47
X44.45Y-80.01
X44.45Y-82.55
X44.45Y-85.09
X44.45Y-87.63
X50.81Y-125.105
X50.81Y-127.645
X50.81Y-130.185
X50.81Y-132.725
X52.07Y-72.39
X52.07Y-74.93
X52.07Y-77.47
X52.07Y-80.01
X52.07Y-82.55
X52.07Y-85.09
X52.07Y-87.63
X54.864Y-151.384
X54.864Y-154.94
X55.245Y-95.25
X55.372Y-142.074
X55.372Y-144.574
X59.73Y-72.39
X60.452Y-123.444
X62.23Y-72.39
X62.865Y-102.345
X62.865Y-107.225
X63.5Y-60.96
X63.5Y-64.77
X65.024Y-151.384
X65.024Y-154.94
X65.151Y-127.508
X65.405Y-95.25
X65.796Y-138.948
X65.796Y-141.488
X65.796Y-144.028
X65.796Y-146.568
X69.596Y-153.776
X70.612Y-123.444
X72.136Y-153.776
X73.416Y-138.948
X73.416Y-141.488
X73.416Y-144.028
X73.416Y-146.568
X73.66Y-60.96
X73.66Y-64.77
X74.041Y-132.948
X74.295Y-75.565
X74.295Y-78.105
X74.295Y-80.645
X74.295Y-83.185
X74.295Y-85.725
X74.295Y-88.265
X74.295Y-90.805
X74.295Y-93.345
X74.295Y-95.885
X74.295Y-98.425
X74.295Y-100.965
X74.295Y-103.505
X74.295Y-106.045
X74.295Y-108.585
X74.295Y-111.125
X74.295Y-113.665
X74.295Y-116.205
X74.295Y-118.745
X74.295Y-121.285
X74.295Y-123.825
X74.676Y-153.776
X75.311Y-127.508
X76.581Y-132.948
X79.121Y-132.948
X83.312Y-131.318
X83.312Y-141.478
X89.535Y-75.565
X89.535Y-78.105
X89.535Y-80.645
X89.535Y-83.185
X89.535Y-85.725
X89.535Y-88.265
X89.535Y-90.805
X89.535Y-93.345
X89.535Y-95.885
X89.535Y-98.425
X89.535Y-100.965
X89.535Y-103.505
X89.535Y-106.045
X89.535Y-108.585
X89.535Y-111.125
X89.535Y-113.665
X89.535Y-116.205
X89.535Y-118.745
X89.535Y-121.285
X89.535Y-123.825
X97.79Y-116.205
X97.79Y-119.38
X97.79Y-122.555
X99.06Y-131.572
X99.06Y-141.732
X105.41Y-116.205
X105.41Y-119.38
X105.41Y-122.555
X109.22Y-115.57
X109.22Y-119.38
X109.22Y-123.19
X109.855Y-61.595
X118.12Y-128.768
X118.12Y-131.308
X118.12Y-133.848
X118.12Y-136.388
X118.12Y-138.928
X118.12Y-141.468
X118.12Y-144.008
X118.12Y-146.548
X119.38Y-115.57
X119.38Y-119.38
X119.38Y-123.19
X120.015Y-61.595
X125.73Y-67.31
X125.73Y-71.12
X125.74Y-128.768
X125.74Y-131.308
X125.74Y-133.848
X125.74Y-136.388
X125.74Y-138.928
X125.74Y-141.468
X125.74Y-144.008
X125.74Y-146.548
X126.492Y-114.3
X126.492Y-124.46
X132.08Y-119.38
X132.08Y-121.92
X132.08Y-124.46
X132.08Y-128.016
X132.08Y-138.176
X135.89Y-67.31
X135.89Y-71.12
T6
X123.825Y-61.595
X126.365Y-61.595
X128.905Y-61.595
X131.445Y-61.595
X133.98Y-61.595
X136.52Y-61.595
T7
X43.18Y-97.028
X54.864Y-136.652
X58.42Y-118.872
X83.82Y-63.5
X83.82Y-66.04
X86.36Y-63.5
X86.36Y-66.04
X88.9Y-63.5
X88.9Y-66.04
X92.964Y-153.416
X104.14Y-75.565
X104.14Y-78.105
X104.14Y-80.645
X104.14Y-83.185
X104.14Y-85.725
X104.14Y-88.265
X104.14Y-90.805
X104.14Y-93.345
X104.14Y-95.885
X104.14Y-98.425
X104.14Y-100.965
X104.14Y-103.505
X109.012Y-153.416
X119.38Y-75.565
X119.38Y-78.105
X119.38Y-80.645
X119.38Y-83.185
X119.38Y-85.725
X119.38Y-88.265
X119.38Y-90.805
X119.38Y-93.345
X119.38Y-95.885
X119.38Y-98.425
X119.38Y-100.965
X119.38Y-103.505
X131.445Y-75.565
X135.255Y-149.225
T8
X56.44Y-86.65
X56.44Y-91.15
X62.94Y-86.65
X62.94Y-91.15
X87.376Y-148.427
X89.916Y-148.427
X92.456Y-148.427
X103.632Y-148.427
X106.172Y-148.427
X108.712Y-148.427
T9
X43.045Y-140.335
X48.125Y-140.335
X93.726Y-135.628
X93.726Y-140.708
X109.22Y-135.628
X109.22Y-140.708
T3
X51.555Y-60.517G85X51.555Y-59.717
G05
X51.555Y-64.247G85X51.555Y-62.747
G05
X60.205Y-60.517G85X60.205Y-59.717
G05
X60.205Y-64.247G85X60.205Y-62.747
G05
T7
X43.561Y-148.86G85X43.561Y-150.86
G05
X45.561Y-154.56G85X47.561Y-154.56
G05
X49.561Y-148.86G85X49.561Y-150.86
G05
M30
