G04 #@! TF.GenerationSoftware,KiCad,Pcbnew,7.0.6*
G04 #@! TF.CreationDate,2023-08-16T01:55:37+02:00*
G04 #@! TF.ProjectId,EPROM-programmer,4550524f-4d2d-4707-926f-6772616d6d65,rev?*
G04 #@! TF.SameCoordinates,Original*
G04 #@! TF.FileFunction,Soldermask,Top*
G04 #@! TF.FilePolarity,Negative*
%FSLAX46Y46*%
G04 Gerber Fmt 4.6, Leading zero omitted, Abs format (unit mm)*
G04 Created by KiCad (PCBNEW 7.0.6) date 2023-08-16 01:55:37*
%MOMM*%
%LPD*%
G01*
G04 APERTURE LIST*
G04 Aperture macros list*
%AMRoundRect*
0 Rectangle with rounded corners*
0 $1 Rounding radius*
0 $2 $3 $4 $5 $6 $7 $8 $9 X,Y pos of 4 corners*
0 Add a 4 corners polygon primitive as box body*
4,1,4,$2,$3,$4,$5,$6,$7,$8,$9,$2,$3,0*
0 Add four circle primitives for the rounded corners*
1,1,$1+$1,$2,$3*
1,1,$1+$1,$4,$5*
1,1,$1+$1,$6,$7*
1,1,$1+$1,$8,$9*
0 Add four rect primitives between the rounded corners*
20,1,$1+$1,$2,$3,$4,$5,0*
20,1,$1+$1,$4,$5,$6,$7,0*
20,1,$1+$1,$6,$7,$8,$9,0*
20,1,$1+$1,$8,$9,$2,$3,0*%
G04 Aperture macros list end*
%ADD10C,1.600000*%
%ADD11O,1.600000X1.600000*%
%ADD12R,2.000000X2.000000*%
%ADD13R,1.600000X1.600000*%
%ADD14R,1.500000X1.500000*%
%ADD15C,1.500000*%
%ADD16R,1.700000X1.700000*%
%ADD17C,1.400000*%
%ADD18R,3.200000X3.200000*%
%ADD19O,3.200000X3.200000*%
%ADD20R,2.000000X1.440000*%
%ADD21O,2.000000X1.440000*%
%ADD22O,1.700000X1.700000*%
%ADD23RoundRect,0.250000X0.600000X-0.600000X0.600000X0.600000X-0.600000X0.600000X-0.600000X-0.600000X0*%
%ADD24C,1.700000*%
%ADD25C,2.000000*%
%ADD26R,3.500000X3.500000*%
%ADD27RoundRect,0.750000X-0.750000X-1.000000X0.750000X-1.000000X0.750000X1.000000X-0.750000X1.000000X0*%
%ADD28RoundRect,0.875000X-0.875000X-0.875000X0.875000X-0.875000X0.875000X0.875000X-0.875000X0.875000X0*%
%ADD29R,1.800000X1.800000*%
%ADD30C,1.800000*%
%ADD31C,0.700000*%
%ADD32O,0.900000X2.400000*%
%ADD33O,0.900000X1.700000*%
%ADD34R,2.000000X1.905000*%
%ADD35O,2.000000X1.905000*%
G04 APERTURE END LIST*
D10*
X74295000Y-133350000D03*
D11*
X84455000Y-133350000D03*
D12*
X57150000Y-154305000D03*
D10*
X84455000Y-149860000D03*
D11*
X94615000Y-149860000D03*
D13*
X105410000Y-116205000D03*
D11*
X97790000Y-116205000D03*
D13*
X71765000Y-143520000D03*
D11*
X71765000Y-146060000D03*
X71765000Y-148600000D03*
X71765000Y-151140000D03*
X79385000Y-151140000D03*
X79385000Y-148600000D03*
X79385000Y-146060000D03*
X79385000Y-143520000D03*
D10*
X63500000Y-64770000D03*
D11*
X73660000Y-64770000D03*
D14*
X106680000Y-133350000D03*
D15*
X104140000Y-133350000D03*
X101600000Y-133350000D03*
D16*
X57150000Y-120650000D03*
D13*
X105410000Y-122555000D03*
D11*
X97790000Y-122555000D03*
D10*
X55245000Y-95250000D03*
D11*
X65405000Y-95250000D03*
D17*
X125891500Y-75525000D03*
X125891500Y-78025000D03*
D18*
X58420000Y-140335000D03*
D19*
X43180000Y-140335000D03*
D20*
X104140000Y-75565000D03*
D21*
X104140000Y-78105000D03*
X104140000Y-80645000D03*
X104140000Y-83185000D03*
X104140000Y-85725000D03*
X104140000Y-88265000D03*
X104140000Y-90805000D03*
X104140000Y-93345000D03*
X104140000Y-95885000D03*
X104140000Y-98425000D03*
X104140000Y-100965000D03*
X104140000Y-103505000D03*
X119380000Y-103505000D03*
X119380000Y-100965000D03*
X119380000Y-98425000D03*
X119380000Y-95885000D03*
X119380000Y-93345000D03*
X119380000Y-90805000D03*
X119380000Y-88265000D03*
X119380000Y-85725000D03*
X119380000Y-83185000D03*
X119380000Y-80645000D03*
X119380000Y-78105000D03*
X119380000Y-75565000D03*
D10*
X135890000Y-71120000D03*
D11*
X125730000Y-71120000D03*
D10*
X109220000Y-123190000D03*
D11*
X119380000Y-123190000D03*
D13*
X43190000Y-125105000D03*
D11*
X43190000Y-127645000D03*
X43190000Y-130185000D03*
X43190000Y-132725000D03*
X50810000Y-132725000D03*
X50810000Y-130185000D03*
X50810000Y-127645000D03*
X50810000Y-125105000D03*
D17*
X57277000Y-107335000D03*
X57277000Y-109835000D03*
D10*
X120015000Y-61595000D03*
D11*
X109855000Y-61595000D03*
D17*
X76835000Y-139700000D03*
X74335000Y-139700000D03*
D10*
X135890000Y-67310000D03*
D11*
X125730000Y-67310000D03*
D12*
X99695000Y-154305000D03*
D10*
X94615000Y-153670000D03*
D11*
X84455000Y-153670000D03*
D10*
X109220000Y-119380000D03*
D11*
X119380000Y-119380000D03*
D16*
X129540000Y-87630000D03*
D22*
X132080000Y-87630000D03*
X134620000Y-87630000D03*
D12*
X57150000Y-125095000D03*
D10*
X99695000Y-149860000D03*
D11*
X109855000Y-149860000D03*
D17*
X57277000Y-102285000D03*
X57277000Y-99785000D03*
D12*
X135255000Y-144780000D03*
D17*
X93345000Y-100945000D03*
X93345000Y-98445000D03*
X55880000Y-80050000D03*
X55880000Y-77550000D03*
D23*
X83820000Y-66040000D03*
D24*
X83820000Y-63500000D03*
X86360000Y-66040000D03*
X86360000Y-63500000D03*
X88900000Y-66040000D03*
X88900000Y-63500000D03*
D10*
X43180000Y-102235000D03*
D11*
X43180000Y-112395000D03*
D10*
X109220000Y-115570000D03*
D11*
X119380000Y-115570000D03*
D10*
X63500000Y-60960000D03*
D11*
X73660000Y-60960000D03*
D17*
X70485000Y-98445000D03*
X70485000Y-100945000D03*
D16*
X135255000Y-149225000D03*
D10*
X93345000Y-125730000D03*
D11*
X93345000Y-135890000D03*
D16*
X57150000Y-134620000D03*
D25*
X56440000Y-86650000D03*
X62940000Y-86650000D03*
X56440000Y-91150000D03*
X62940000Y-91150000D03*
D26*
X49561000Y-149860000D03*
D27*
X43561000Y-149860000D03*
D28*
X46561000Y-154560000D03*
D17*
X61595000Y-130195000D03*
X61595000Y-132695000D03*
X45720000Y-117858500D03*
X48220000Y-117858500D03*
D13*
X61595000Y-146137621D03*
D10*
X61595000Y-148637621D03*
D17*
X45700000Y-121539000D03*
X48200000Y-121539000D03*
D15*
X62865000Y-107225000D03*
X62865000Y-102345000D03*
D29*
X128905000Y-61595000D03*
D30*
X131445000Y-61595000D03*
D13*
X74295000Y-75565000D03*
D11*
X74295000Y-78105000D03*
X74295000Y-80645000D03*
X74295000Y-83185000D03*
X74295000Y-85725000D03*
X74295000Y-88265000D03*
X74295000Y-90805000D03*
X74295000Y-93345000D03*
X74295000Y-95885000D03*
X74295000Y-98425000D03*
X74295000Y-100965000D03*
X74295000Y-103505000D03*
X74295000Y-106045000D03*
X74295000Y-108585000D03*
X74295000Y-111125000D03*
X74295000Y-113665000D03*
X74295000Y-116205000D03*
X74295000Y-118745000D03*
X74295000Y-121285000D03*
X74295000Y-123825000D03*
X89535000Y-123825000D03*
X89535000Y-121285000D03*
X89535000Y-118745000D03*
X89535000Y-116205000D03*
X89535000Y-113665000D03*
X89535000Y-111125000D03*
X89535000Y-108585000D03*
X89535000Y-106045000D03*
X89535000Y-103505000D03*
X89535000Y-100965000D03*
X89535000Y-98425000D03*
X89535000Y-95885000D03*
X89535000Y-93345000D03*
X89535000Y-90805000D03*
X89535000Y-88265000D03*
X89535000Y-85725000D03*
X89535000Y-83185000D03*
X89535000Y-80645000D03*
X89535000Y-78105000D03*
X89535000Y-75565000D03*
D13*
X59730000Y-72390000D03*
D10*
X62230000Y-72390000D03*
D13*
X44450000Y-72390000D03*
D11*
X44450000Y-74930000D03*
X44450000Y-77470000D03*
X44450000Y-80010000D03*
X44450000Y-82550000D03*
X44450000Y-85090000D03*
X44450000Y-87630000D03*
X52070000Y-87630000D03*
X52070000Y-85090000D03*
X52070000Y-82550000D03*
X52070000Y-80010000D03*
X52070000Y-77470000D03*
X52070000Y-74930000D03*
X52070000Y-72390000D03*
D17*
X61615000Y-125055000D03*
X61615000Y-122555000D03*
D10*
X84455000Y-129540000D03*
D11*
X74295000Y-129540000D03*
D12*
X57150000Y-130175000D03*
D16*
X61595000Y-154305000D03*
D13*
X105410000Y-119380000D03*
D11*
X97790000Y-119380000D03*
D17*
X46980000Y-68585000D03*
X49480000Y-68585000D03*
D29*
X123825000Y-61595000D03*
D30*
X126365000Y-61595000D03*
D31*
X58855000Y-64477000D03*
X58005000Y-64477000D03*
X57155000Y-64477000D03*
X56305000Y-64477000D03*
X55455000Y-64477000D03*
X54605000Y-64477000D03*
X53755000Y-64477000D03*
X52905000Y-64477000D03*
X52905000Y-63127000D03*
X53755000Y-63127000D03*
X54605000Y-63127000D03*
X55455000Y-63127000D03*
X56305000Y-63127000D03*
X57155000Y-63127000D03*
X58005000Y-63127000D03*
X58855000Y-63127000D03*
D32*
X60205000Y-63497000D03*
D33*
X60205000Y-60117000D03*
D32*
X51555000Y-63497000D03*
D33*
X51555000Y-60117000D03*
D14*
X107315000Y-143510000D03*
D15*
X104775000Y-143510000D03*
X102235000Y-143510000D03*
D34*
X87955000Y-138430000D03*
D35*
X87955000Y-140970000D03*
X87955000Y-143510000D03*
D10*
X109855000Y-139065000D03*
D11*
X99695000Y-139065000D03*
D16*
X104140000Y-154305000D03*
D10*
X97790000Y-125730000D03*
D11*
X97790000Y-135890000D03*
D29*
X133980000Y-61595000D03*
D30*
X136520000Y-61595000D03*
M02*
