G04 #@! TF.GenerationSoftware,KiCad,Pcbnew,8.0.3*
G04 #@! TF.CreationDate,2024-06-18T23:36:09+02:00*
G04 #@! TF.ProjectId,EPROM-programmer,4550524f-4d2d-4707-926f-6772616d6d65,rev?*
G04 #@! TF.SameCoordinates,Original*
G04 #@! TF.FileFunction,Legend,Top*
G04 #@! TF.FilePolarity,Positive*
%FSLAX46Y46*%
G04 Gerber Fmt 4.6, Leading zero omitted, Abs format (unit mm)*
G04 Created by KiCad (PCBNEW 8.0.3) date 2024-06-18 23:36:09*
%MOMM*%
%LPD*%
G01*
G04 APERTURE LIST*
G04 Aperture macros list*
%AMRoundRect*
0 Rectangle with rounded corners*
0 $1 Rounding radius*
0 $2 $3 $4 $5 $6 $7 $8 $9 X,Y pos of 4 corners*
0 Add a 4 corners polygon primitive as box body*
4,1,4,$2,$3,$4,$5,$6,$7,$8,$9,$2,$3,0*
0 Add four circle primitives for the rounded corners*
1,1,$1+$1,$2,$3*
1,1,$1+$1,$4,$5*
1,1,$1+$1,$6,$7*
1,1,$1+$1,$8,$9*
0 Add four rect primitives between the rounded corners*
20,1,$1+$1,$2,$3,$4,$5,0*
20,1,$1+$1,$4,$5,$6,$7,0*
20,1,$1+$1,$6,$7,$8,$9,0*
20,1,$1+$1,$8,$9,$2,$3,0*%
G04 Aperture macros list end*
%ADD10C,0.150000*%
%ADD11C,0.120000*%
%ADD12C,1.600000*%
%ADD13O,1.600000X1.600000*%
%ADD14R,2.000000X2.000000*%
%ADD15R,1.600000X1.600000*%
%ADD16R,3.200000X3.200000*%
%ADD17O,3.200000X3.200000*%
%ADD18C,1.400000*%
%ADD19R,1.700000X1.700000*%
%ADD20R,1.500000X1.500000*%
%ADD21C,1.500000*%
%ADD22R,2.000000X1.440000*%
%ADD23O,2.000000X1.440000*%
%ADD24R,1.905000X2.000000*%
%ADD25O,1.905000X2.000000*%
%ADD26RoundRect,0.250000X0.600000X-0.600000X0.600000X0.600000X-0.600000X0.600000X-0.600000X-0.600000X0*%
%ADD27C,1.700000*%
%ADD28C,2.000000*%
%ADD29R,3.500000X3.500000*%
%ADD30RoundRect,0.750000X-0.750000X-1.000000X0.750000X-1.000000X0.750000X1.000000X-0.750000X1.000000X0*%
%ADD31RoundRect,0.875000X-0.875000X-0.875000X0.875000X-0.875000X0.875000X0.875000X-0.875000X0.875000X0*%
%ADD32R,1.800000X1.800000*%
%ADD33C,1.800000*%
%ADD34C,0.700000*%
%ADD35O,0.900000X2.400000*%
%ADD36O,0.900000X1.700000*%
G04 APERTURE END LIST*
D10*
X115390826Y-155867914D02*
X115890826Y-155867914D01*
X116105112Y-156653628D02*
X115390826Y-156653628D01*
X115390826Y-156653628D02*
X115390826Y-155153628D01*
X115390826Y-155153628D02*
X116105112Y-155153628D01*
X116747969Y-156653628D02*
X116747969Y-155153628D01*
X116747969Y-155153628D02*
X117319398Y-155153628D01*
X117319398Y-155153628D02*
X117462255Y-155225057D01*
X117462255Y-155225057D02*
X117533684Y-155296485D01*
X117533684Y-155296485D02*
X117605112Y-155439342D01*
X117605112Y-155439342D02*
X117605112Y-155653628D01*
X117605112Y-155653628D02*
X117533684Y-155796485D01*
X117533684Y-155796485D02*
X117462255Y-155867914D01*
X117462255Y-155867914D02*
X117319398Y-155939342D01*
X117319398Y-155939342D02*
X116747969Y-155939342D01*
X119105112Y-156653628D02*
X118605112Y-155939342D01*
X118247969Y-156653628D02*
X118247969Y-155153628D01*
X118247969Y-155153628D02*
X118819398Y-155153628D01*
X118819398Y-155153628D02*
X118962255Y-155225057D01*
X118962255Y-155225057D02*
X119033684Y-155296485D01*
X119033684Y-155296485D02*
X119105112Y-155439342D01*
X119105112Y-155439342D02*
X119105112Y-155653628D01*
X119105112Y-155653628D02*
X119033684Y-155796485D01*
X119033684Y-155796485D02*
X118962255Y-155867914D01*
X118962255Y-155867914D02*
X118819398Y-155939342D01*
X118819398Y-155939342D02*
X118247969Y-155939342D01*
X120033684Y-155153628D02*
X120319398Y-155153628D01*
X120319398Y-155153628D02*
X120462255Y-155225057D01*
X120462255Y-155225057D02*
X120605112Y-155367914D01*
X120605112Y-155367914D02*
X120676541Y-155653628D01*
X120676541Y-155653628D02*
X120676541Y-156153628D01*
X120676541Y-156153628D02*
X120605112Y-156439342D01*
X120605112Y-156439342D02*
X120462255Y-156582200D01*
X120462255Y-156582200D02*
X120319398Y-156653628D01*
X120319398Y-156653628D02*
X120033684Y-156653628D01*
X120033684Y-156653628D02*
X119890827Y-156582200D01*
X119890827Y-156582200D02*
X119747969Y-156439342D01*
X119747969Y-156439342D02*
X119676541Y-156153628D01*
X119676541Y-156153628D02*
X119676541Y-155653628D01*
X119676541Y-155653628D02*
X119747969Y-155367914D01*
X119747969Y-155367914D02*
X119890827Y-155225057D01*
X119890827Y-155225057D02*
X120033684Y-155153628D01*
X121319398Y-156653628D02*
X121319398Y-155153628D01*
X121319398Y-155153628D02*
X121819398Y-156225057D01*
X121819398Y-156225057D02*
X122319398Y-155153628D01*
X122319398Y-155153628D02*
X122319398Y-156653628D01*
X123033684Y-156082200D02*
X124176542Y-156082200D01*
X124890827Y-156653628D02*
X124890827Y-155653628D01*
X124890827Y-155939342D02*
X124962256Y-155796485D01*
X124962256Y-155796485D02*
X125033685Y-155725057D01*
X125033685Y-155725057D02*
X125176542Y-155653628D01*
X125176542Y-155653628D02*
X125319399Y-155653628D01*
X126390827Y-156582200D02*
X126247970Y-156653628D01*
X126247970Y-156653628D02*
X125962256Y-156653628D01*
X125962256Y-156653628D02*
X125819398Y-156582200D01*
X125819398Y-156582200D02*
X125747970Y-156439342D01*
X125747970Y-156439342D02*
X125747970Y-155867914D01*
X125747970Y-155867914D02*
X125819398Y-155725057D01*
X125819398Y-155725057D02*
X125962256Y-155653628D01*
X125962256Y-155653628D02*
X126247970Y-155653628D01*
X126247970Y-155653628D02*
X126390827Y-155725057D01*
X126390827Y-155725057D02*
X126462256Y-155867914D01*
X126462256Y-155867914D02*
X126462256Y-156010771D01*
X126462256Y-156010771D02*
X125747970Y-156153628D01*
X127747970Y-156653628D02*
X127747970Y-155867914D01*
X127747970Y-155867914D02*
X127676541Y-155725057D01*
X127676541Y-155725057D02*
X127533684Y-155653628D01*
X127533684Y-155653628D02*
X127247970Y-155653628D01*
X127247970Y-155653628D02*
X127105112Y-155725057D01*
X127747970Y-156582200D02*
X127605112Y-156653628D01*
X127605112Y-156653628D02*
X127247970Y-156653628D01*
X127247970Y-156653628D02*
X127105112Y-156582200D01*
X127105112Y-156582200D02*
X127033684Y-156439342D01*
X127033684Y-156439342D02*
X127033684Y-156296485D01*
X127033684Y-156296485D02*
X127105112Y-156153628D01*
X127105112Y-156153628D02*
X127247970Y-156082200D01*
X127247970Y-156082200D02*
X127605112Y-156082200D01*
X127605112Y-156082200D02*
X127747970Y-156010771D01*
X129105113Y-156653628D02*
X129105113Y-155153628D01*
X129105113Y-156582200D02*
X128962255Y-156653628D01*
X128962255Y-156653628D02*
X128676541Y-156653628D01*
X128676541Y-156653628D02*
X128533684Y-156582200D01*
X128533684Y-156582200D02*
X128462255Y-156510771D01*
X128462255Y-156510771D02*
X128390827Y-156367914D01*
X128390827Y-156367914D02*
X128390827Y-155939342D01*
X128390827Y-155939342D02*
X128462255Y-155796485D01*
X128462255Y-155796485D02*
X128533684Y-155725057D01*
X128533684Y-155725057D02*
X128676541Y-155653628D01*
X128676541Y-155653628D02*
X128962255Y-155653628D01*
X128962255Y-155653628D02*
X129105113Y-155725057D01*
X130390827Y-156582200D02*
X130247970Y-156653628D01*
X130247970Y-156653628D02*
X129962256Y-156653628D01*
X129962256Y-156653628D02*
X129819398Y-156582200D01*
X129819398Y-156582200D02*
X129747970Y-156439342D01*
X129747970Y-156439342D02*
X129747970Y-155867914D01*
X129747970Y-155867914D02*
X129819398Y-155725057D01*
X129819398Y-155725057D02*
X129962256Y-155653628D01*
X129962256Y-155653628D02*
X130247970Y-155653628D01*
X130247970Y-155653628D02*
X130390827Y-155725057D01*
X130390827Y-155725057D02*
X130462256Y-155867914D01*
X130462256Y-155867914D02*
X130462256Y-156010771D01*
X130462256Y-156010771D02*
X129747970Y-156153628D01*
X131105112Y-156653628D02*
X131105112Y-155653628D01*
X131105112Y-155939342D02*
X131176541Y-155796485D01*
X131176541Y-155796485D02*
X131247970Y-155725057D01*
X131247970Y-155725057D02*
X131390827Y-155653628D01*
X131390827Y-155653628D02*
X131533684Y-155653628D01*
X132962255Y-155153628D02*
X133462255Y-156653628D01*
X133462255Y-156653628D02*
X133962255Y-155153628D01*
X135247969Y-156653628D02*
X134390826Y-156653628D01*
X134819397Y-156653628D02*
X134819397Y-155153628D01*
X134819397Y-155153628D02*
X134676540Y-155367914D01*
X134676540Y-155367914D02*
X134533683Y-155510771D01*
X134533683Y-155510771D02*
X134390826Y-155582200D01*
X135890825Y-156510771D02*
X135962254Y-156582200D01*
X135962254Y-156582200D02*
X135890825Y-156653628D01*
X135890825Y-156653628D02*
X135819397Y-156582200D01*
X135819397Y-156582200D02*
X135890825Y-156510771D01*
X135890825Y-156510771D02*
X135890825Y-156653628D01*
X136533683Y-155296485D02*
X136605111Y-155225057D01*
X136605111Y-155225057D02*
X136747969Y-155153628D01*
X136747969Y-155153628D02*
X137105111Y-155153628D01*
X137105111Y-155153628D02*
X137247969Y-155225057D01*
X137247969Y-155225057D02*
X137319397Y-155296485D01*
X137319397Y-155296485D02*
X137390826Y-155439342D01*
X137390826Y-155439342D02*
X137390826Y-155582200D01*
X137390826Y-155582200D02*
X137319397Y-155796485D01*
X137319397Y-155796485D02*
X136462254Y-156653628D01*
X136462254Y-156653628D02*
X137390826Y-156653628D01*
X66413142Y-130502819D02*
X66079809Y-130026628D01*
X65841714Y-130502819D02*
X65841714Y-129502819D01*
X65841714Y-129502819D02*
X66222666Y-129502819D01*
X66222666Y-129502819D02*
X66317904Y-129550438D01*
X66317904Y-129550438D02*
X66365523Y-129598057D01*
X66365523Y-129598057D02*
X66413142Y-129693295D01*
X66413142Y-129693295D02*
X66413142Y-129836152D01*
X66413142Y-129836152D02*
X66365523Y-129931390D01*
X66365523Y-129931390D02*
X66317904Y-129979009D01*
X66317904Y-129979009D02*
X66222666Y-130026628D01*
X66222666Y-130026628D02*
X65841714Y-130026628D01*
X67365523Y-130502819D02*
X66794095Y-130502819D01*
X67079809Y-130502819D02*
X67079809Y-129502819D01*
X67079809Y-129502819D02*
X66984571Y-129645676D01*
X66984571Y-129645676D02*
X66889333Y-129740914D01*
X66889333Y-129740914D02*
X66794095Y-129788533D01*
X68222666Y-129836152D02*
X68222666Y-130502819D01*
X67984571Y-129455200D02*
X67746476Y-130169485D01*
X67746476Y-130169485D02*
X68365523Y-130169485D01*
X94511905Y-116659819D02*
X94511905Y-115659819D01*
X94511905Y-115659819D02*
X94750000Y-115659819D01*
X94750000Y-115659819D02*
X94892857Y-115707438D01*
X94892857Y-115707438D02*
X94988095Y-115802676D01*
X94988095Y-115802676D02*
X95035714Y-115897914D01*
X95035714Y-115897914D02*
X95083333Y-116088390D01*
X95083333Y-116088390D02*
X95083333Y-116231247D01*
X95083333Y-116231247D02*
X95035714Y-116421723D01*
X95035714Y-116421723D02*
X94988095Y-116516961D01*
X94988095Y-116516961D02*
X94892857Y-116612200D01*
X94892857Y-116612200D02*
X94750000Y-116659819D01*
X94750000Y-116659819D02*
X94511905Y-116659819D01*
X95940476Y-115993152D02*
X95940476Y-116659819D01*
X95702381Y-115612200D02*
X95464286Y-116326485D01*
X95464286Y-116326485D02*
X96083333Y-116326485D01*
X105148095Y-118459819D02*
X105148095Y-117459819D01*
X105719523Y-118459819D02*
X105290952Y-117888390D01*
X105719523Y-117459819D02*
X105148095Y-118031247D01*
X92733905Y-132026819D02*
X92733905Y-131026819D01*
X92733905Y-131026819D02*
X92972000Y-131026819D01*
X92972000Y-131026819D02*
X93114857Y-131074438D01*
X93114857Y-131074438D02*
X93210095Y-131169676D01*
X93210095Y-131169676D02*
X93257714Y-131264914D01*
X93257714Y-131264914D02*
X93305333Y-131455390D01*
X93305333Y-131455390D02*
X93305333Y-131598247D01*
X93305333Y-131598247D02*
X93257714Y-131788723D01*
X93257714Y-131788723D02*
X93210095Y-131883961D01*
X93210095Y-131883961D02*
X93114857Y-131979200D01*
X93114857Y-131979200D02*
X92972000Y-132026819D01*
X92972000Y-132026819D02*
X92733905Y-132026819D01*
X93876762Y-131455390D02*
X93781524Y-131407771D01*
X93781524Y-131407771D02*
X93733905Y-131360152D01*
X93733905Y-131360152D02*
X93686286Y-131264914D01*
X93686286Y-131264914D02*
X93686286Y-131217295D01*
X93686286Y-131217295D02*
X93733905Y-131122057D01*
X93733905Y-131122057D02*
X93781524Y-131074438D01*
X93781524Y-131074438D02*
X93876762Y-131026819D01*
X93876762Y-131026819D02*
X94067238Y-131026819D01*
X94067238Y-131026819D02*
X94162476Y-131074438D01*
X94162476Y-131074438D02*
X94210095Y-131122057D01*
X94210095Y-131122057D02*
X94257714Y-131217295D01*
X94257714Y-131217295D02*
X94257714Y-131264914D01*
X94257714Y-131264914D02*
X94210095Y-131360152D01*
X94210095Y-131360152D02*
X94162476Y-131407771D01*
X94162476Y-131407771D02*
X94067238Y-131455390D01*
X94067238Y-131455390D02*
X93876762Y-131455390D01*
X93876762Y-131455390D02*
X93781524Y-131503009D01*
X93781524Y-131503009D02*
X93733905Y-131550628D01*
X93733905Y-131550628D02*
X93686286Y-131645866D01*
X93686286Y-131645866D02*
X93686286Y-131836342D01*
X93686286Y-131836342D02*
X93733905Y-131931580D01*
X93733905Y-131931580D02*
X93781524Y-131979200D01*
X93781524Y-131979200D02*
X93876762Y-132026819D01*
X93876762Y-132026819D02*
X94067238Y-132026819D01*
X94067238Y-132026819D02*
X94162476Y-131979200D01*
X94162476Y-131979200D02*
X94210095Y-131931580D01*
X94210095Y-131931580D02*
X94257714Y-131836342D01*
X94257714Y-131836342D02*
X94257714Y-131645866D01*
X94257714Y-131645866D02*
X94210095Y-131550628D01*
X94210095Y-131550628D02*
X94162476Y-131503009D01*
X94162476Y-131503009D02*
X94067238Y-131455390D01*
X96780819Y-140969904D02*
X95780819Y-140969904D01*
X96780819Y-140398476D02*
X96209390Y-140827047D01*
X95780819Y-140398476D02*
X96352247Y-140969904D01*
X65024095Y-135852819D02*
X65024095Y-136662342D01*
X65024095Y-136662342D02*
X65071714Y-136757580D01*
X65071714Y-136757580D02*
X65119333Y-136805200D01*
X65119333Y-136805200D02*
X65214571Y-136852819D01*
X65214571Y-136852819D02*
X65405047Y-136852819D01*
X65405047Y-136852819D02*
X65500285Y-136805200D01*
X65500285Y-136805200D02*
X65547904Y-136757580D01*
X65547904Y-136757580D02*
X65595523Y-136662342D01*
X65595523Y-136662342D02*
X65595523Y-135852819D01*
X66500285Y-136186152D02*
X66500285Y-136852819D01*
X66262190Y-135805200D02*
X66024095Y-136519485D01*
X66024095Y-136519485D02*
X66643142Y-136519485D01*
X73493333Y-67764819D02*
X73160000Y-67288628D01*
X72921905Y-67764819D02*
X72921905Y-66764819D01*
X72921905Y-66764819D02*
X73302857Y-66764819D01*
X73302857Y-66764819D02*
X73398095Y-66812438D01*
X73398095Y-66812438D02*
X73445714Y-66860057D01*
X73445714Y-66860057D02*
X73493333Y-66955295D01*
X73493333Y-66955295D02*
X73493333Y-67098152D01*
X73493333Y-67098152D02*
X73445714Y-67193390D01*
X73445714Y-67193390D02*
X73398095Y-67241009D01*
X73398095Y-67241009D02*
X73302857Y-67288628D01*
X73302857Y-67288628D02*
X72921905Y-67288628D01*
X73874286Y-66860057D02*
X73921905Y-66812438D01*
X73921905Y-66812438D02*
X74017143Y-66764819D01*
X74017143Y-66764819D02*
X74255238Y-66764819D01*
X74255238Y-66764819D02*
X74350476Y-66812438D01*
X74350476Y-66812438D02*
X74398095Y-66860057D01*
X74398095Y-66860057D02*
X74445714Y-66955295D01*
X74445714Y-66955295D02*
X74445714Y-67050533D01*
X74445714Y-67050533D02*
X74398095Y-67193390D01*
X74398095Y-67193390D02*
X73826667Y-67764819D01*
X73826667Y-67764819D02*
X74445714Y-67764819D01*
X87241142Y-137265580D02*
X87193523Y-137313200D01*
X87193523Y-137313200D02*
X87050666Y-137360819D01*
X87050666Y-137360819D02*
X86955428Y-137360819D01*
X86955428Y-137360819D02*
X86812571Y-137313200D01*
X86812571Y-137313200D02*
X86717333Y-137217961D01*
X86717333Y-137217961D02*
X86669714Y-137122723D01*
X86669714Y-137122723D02*
X86622095Y-136932247D01*
X86622095Y-136932247D02*
X86622095Y-136789390D01*
X86622095Y-136789390D02*
X86669714Y-136598914D01*
X86669714Y-136598914D02*
X86717333Y-136503676D01*
X86717333Y-136503676D02*
X86812571Y-136408438D01*
X86812571Y-136408438D02*
X86955428Y-136360819D01*
X86955428Y-136360819D02*
X87050666Y-136360819D01*
X87050666Y-136360819D02*
X87193523Y-136408438D01*
X87193523Y-136408438D02*
X87241142Y-136456057D01*
X88193523Y-137360819D02*
X87622095Y-137360819D01*
X87907809Y-137360819D02*
X87907809Y-136360819D01*
X87907809Y-136360819D02*
X87812571Y-136503676D01*
X87812571Y-136503676D02*
X87717333Y-136598914D01*
X87717333Y-136598914D02*
X87622095Y-136646533D01*
X89050666Y-136360819D02*
X88860190Y-136360819D01*
X88860190Y-136360819D02*
X88764952Y-136408438D01*
X88764952Y-136408438D02*
X88717333Y-136456057D01*
X88717333Y-136456057D02*
X88622095Y-136598914D01*
X88622095Y-136598914D02*
X88574476Y-136789390D01*
X88574476Y-136789390D02*
X88574476Y-137170342D01*
X88574476Y-137170342D02*
X88622095Y-137265580D01*
X88622095Y-137265580D02*
X88669714Y-137313200D01*
X88669714Y-137313200D02*
X88764952Y-137360819D01*
X88764952Y-137360819D02*
X88955428Y-137360819D01*
X88955428Y-137360819D02*
X89050666Y-137313200D01*
X89050666Y-137313200D02*
X89098285Y-137265580D01*
X89098285Y-137265580D02*
X89145904Y-137170342D01*
X89145904Y-137170342D02*
X89145904Y-136932247D01*
X89145904Y-136932247D02*
X89098285Y-136837009D01*
X89098285Y-136837009D02*
X89050666Y-136789390D01*
X89050666Y-136789390D02*
X88955428Y-136741771D01*
X88955428Y-136741771D02*
X88764952Y-136741771D01*
X88764952Y-136741771D02*
X88669714Y-136789390D01*
X88669714Y-136789390D02*
X88622095Y-136837009D01*
X88622095Y-136837009D02*
X88574476Y-136932247D01*
X55420000Y-116786819D02*
X55420000Y-115786819D01*
X55420000Y-115786819D02*
X55658095Y-115786819D01*
X55658095Y-115786819D02*
X55800952Y-115834438D01*
X55800952Y-115834438D02*
X55896190Y-115929676D01*
X55896190Y-115929676D02*
X55943809Y-116024914D01*
X55943809Y-116024914D02*
X55991428Y-116215390D01*
X55991428Y-116215390D02*
X55991428Y-116358247D01*
X55991428Y-116358247D02*
X55943809Y-116548723D01*
X55943809Y-116548723D02*
X55896190Y-116643961D01*
X55896190Y-116643961D02*
X55800952Y-116739200D01*
X55800952Y-116739200D02*
X55658095Y-116786819D01*
X55658095Y-116786819D02*
X55420000Y-116786819D01*
X56372381Y-116501104D02*
X56848571Y-116501104D01*
X56277143Y-116786819D02*
X56610476Y-115786819D01*
X56610476Y-115786819D02*
X56943809Y-116786819D01*
X57848571Y-116691580D02*
X57800952Y-116739200D01*
X57800952Y-116739200D02*
X57658095Y-116786819D01*
X57658095Y-116786819D02*
X57562857Y-116786819D01*
X57562857Y-116786819D02*
X57420000Y-116739200D01*
X57420000Y-116739200D02*
X57324762Y-116643961D01*
X57324762Y-116643961D02*
X57277143Y-116548723D01*
X57277143Y-116548723D02*
X57229524Y-116358247D01*
X57229524Y-116358247D02*
X57229524Y-116215390D01*
X57229524Y-116215390D02*
X57277143Y-116024914D01*
X57277143Y-116024914D02*
X57324762Y-115929676D01*
X57324762Y-115929676D02*
X57420000Y-115834438D01*
X57420000Y-115834438D02*
X57562857Y-115786819D01*
X57562857Y-115786819D02*
X57658095Y-115786819D01*
X57658095Y-115786819D02*
X57800952Y-115834438D01*
X57800952Y-115834438D02*
X57848571Y-115882057D01*
X58039048Y-116882057D02*
X58800952Y-116882057D01*
X58896191Y-115786819D02*
X59229524Y-116786819D01*
X59229524Y-116786819D02*
X59562857Y-115786819D01*
X60467619Y-116691580D02*
X60420000Y-116739200D01*
X60420000Y-116739200D02*
X60277143Y-116786819D01*
X60277143Y-116786819D02*
X60181905Y-116786819D01*
X60181905Y-116786819D02*
X60039048Y-116739200D01*
X60039048Y-116739200D02*
X59943810Y-116643961D01*
X59943810Y-116643961D02*
X59896191Y-116548723D01*
X59896191Y-116548723D02*
X59848572Y-116358247D01*
X59848572Y-116358247D02*
X59848572Y-116215390D01*
X59848572Y-116215390D02*
X59896191Y-116024914D01*
X59896191Y-116024914D02*
X59943810Y-115929676D01*
X59943810Y-115929676D02*
X60039048Y-115834438D01*
X60039048Y-115834438D02*
X60181905Y-115786819D01*
X60181905Y-115786819D02*
X60277143Y-115786819D01*
X60277143Y-115786819D02*
X60420000Y-115834438D01*
X60420000Y-115834438D02*
X60467619Y-115882057D01*
X61467619Y-116691580D02*
X61420000Y-116739200D01*
X61420000Y-116739200D02*
X61277143Y-116786819D01*
X61277143Y-116786819D02*
X61181905Y-116786819D01*
X61181905Y-116786819D02*
X61039048Y-116739200D01*
X61039048Y-116739200D02*
X60943810Y-116643961D01*
X60943810Y-116643961D02*
X60896191Y-116548723D01*
X60896191Y-116548723D02*
X60848572Y-116358247D01*
X60848572Y-116358247D02*
X60848572Y-116215390D01*
X60848572Y-116215390D02*
X60896191Y-116024914D01*
X60896191Y-116024914D02*
X60943810Y-115929676D01*
X60943810Y-115929676D02*
X61039048Y-115834438D01*
X61039048Y-115834438D02*
X61181905Y-115786819D01*
X61181905Y-115786819D02*
X61277143Y-115786819D01*
X61277143Y-115786819D02*
X61420000Y-115834438D01*
X61420000Y-115834438D02*
X61467619Y-115882057D01*
X94511905Y-123009819D02*
X94511905Y-122009819D01*
X94511905Y-122009819D02*
X94750000Y-122009819D01*
X94750000Y-122009819D02*
X94892857Y-122057438D01*
X94892857Y-122057438D02*
X94988095Y-122152676D01*
X94988095Y-122152676D02*
X95035714Y-122247914D01*
X95035714Y-122247914D02*
X95083333Y-122438390D01*
X95083333Y-122438390D02*
X95083333Y-122581247D01*
X95083333Y-122581247D02*
X95035714Y-122771723D01*
X95035714Y-122771723D02*
X94988095Y-122866961D01*
X94988095Y-122866961D02*
X94892857Y-122962200D01*
X94892857Y-122962200D02*
X94750000Y-123009819D01*
X94750000Y-123009819D02*
X94511905Y-123009819D01*
X95940476Y-122009819D02*
X95750000Y-122009819D01*
X95750000Y-122009819D02*
X95654762Y-122057438D01*
X95654762Y-122057438D02*
X95607143Y-122105057D01*
X95607143Y-122105057D02*
X95511905Y-122247914D01*
X95511905Y-122247914D02*
X95464286Y-122438390D01*
X95464286Y-122438390D02*
X95464286Y-122819342D01*
X95464286Y-122819342D02*
X95511905Y-122914580D01*
X95511905Y-122914580D02*
X95559524Y-122962200D01*
X95559524Y-122962200D02*
X95654762Y-123009819D01*
X95654762Y-123009819D02*
X95845238Y-123009819D01*
X95845238Y-123009819D02*
X95940476Y-122962200D01*
X95940476Y-122962200D02*
X95988095Y-122914580D01*
X95988095Y-122914580D02*
X96035714Y-122819342D01*
X96035714Y-122819342D02*
X96035714Y-122581247D01*
X96035714Y-122581247D02*
X95988095Y-122486009D01*
X95988095Y-122486009D02*
X95940476Y-122438390D01*
X95940476Y-122438390D02*
X95845238Y-122390771D01*
X95845238Y-122390771D02*
X95654762Y-122390771D01*
X95654762Y-122390771D02*
X95559524Y-122438390D01*
X95559524Y-122438390D02*
X95511905Y-122486009D01*
X95511905Y-122486009D02*
X95464286Y-122581247D01*
X105148095Y-124809819D02*
X105148095Y-123809819D01*
X105719523Y-124809819D02*
X105290952Y-124238390D01*
X105719523Y-123809819D02*
X105148095Y-124381247D01*
X52538333Y-95704819D02*
X52205000Y-95228628D01*
X51966905Y-95704819D02*
X51966905Y-94704819D01*
X51966905Y-94704819D02*
X52347857Y-94704819D01*
X52347857Y-94704819D02*
X52443095Y-94752438D01*
X52443095Y-94752438D02*
X52490714Y-94800057D01*
X52490714Y-94800057D02*
X52538333Y-94895295D01*
X52538333Y-94895295D02*
X52538333Y-95038152D01*
X52538333Y-95038152D02*
X52490714Y-95133390D01*
X52490714Y-95133390D02*
X52443095Y-95181009D01*
X52443095Y-95181009D02*
X52347857Y-95228628D01*
X52347857Y-95228628D02*
X51966905Y-95228628D01*
X52871667Y-94704819D02*
X53490714Y-94704819D01*
X53490714Y-94704819D02*
X53157381Y-95085771D01*
X53157381Y-95085771D02*
X53300238Y-95085771D01*
X53300238Y-95085771D02*
X53395476Y-95133390D01*
X53395476Y-95133390D02*
X53443095Y-95181009D01*
X53443095Y-95181009D02*
X53490714Y-95276247D01*
X53490714Y-95276247D02*
X53490714Y-95514342D01*
X53490714Y-95514342D02*
X53443095Y-95609580D01*
X53443095Y-95609580D02*
X53395476Y-95657200D01*
X53395476Y-95657200D02*
X53300238Y-95704819D01*
X53300238Y-95704819D02*
X53014524Y-95704819D01*
X53014524Y-95704819D02*
X52919286Y-95657200D01*
X52919286Y-95657200D02*
X52871667Y-95609580D01*
X78390761Y-129963057D02*
X78295523Y-129915438D01*
X78295523Y-129915438D02*
X78200285Y-129820200D01*
X78200285Y-129820200D02*
X78057428Y-129677342D01*
X78057428Y-129677342D02*
X77962190Y-129629723D01*
X77962190Y-129629723D02*
X77866952Y-129629723D01*
X77914571Y-129867819D02*
X77819333Y-129820200D01*
X77819333Y-129820200D02*
X77724095Y-129724961D01*
X77724095Y-129724961D02*
X77676476Y-129534485D01*
X77676476Y-129534485D02*
X77676476Y-129201152D01*
X77676476Y-129201152D02*
X77724095Y-129010676D01*
X77724095Y-129010676D02*
X77819333Y-128915438D01*
X77819333Y-128915438D02*
X77914571Y-128867819D01*
X77914571Y-128867819D02*
X78105047Y-128867819D01*
X78105047Y-128867819D02*
X78200285Y-128915438D01*
X78200285Y-128915438D02*
X78295523Y-129010676D01*
X78295523Y-129010676D02*
X78343142Y-129201152D01*
X78343142Y-129201152D02*
X78343142Y-129534485D01*
X78343142Y-129534485D02*
X78295523Y-129724961D01*
X78295523Y-129724961D02*
X78200285Y-129820200D01*
X78200285Y-129820200D02*
X78105047Y-129867819D01*
X78105047Y-129867819D02*
X77914571Y-129867819D01*
X79295523Y-129867819D02*
X78724095Y-129867819D01*
X79009809Y-129867819D02*
X79009809Y-128867819D01*
X79009809Y-128867819D02*
X78914571Y-129010676D01*
X78914571Y-129010676D02*
X78819333Y-129105914D01*
X78819333Y-129105914D02*
X78724095Y-129153533D01*
X125563333Y-81004580D02*
X125515714Y-81052200D01*
X125515714Y-81052200D02*
X125372857Y-81099819D01*
X125372857Y-81099819D02*
X125277619Y-81099819D01*
X125277619Y-81099819D02*
X125134762Y-81052200D01*
X125134762Y-81052200D02*
X125039524Y-80956961D01*
X125039524Y-80956961D02*
X124991905Y-80861723D01*
X124991905Y-80861723D02*
X124944286Y-80671247D01*
X124944286Y-80671247D02*
X124944286Y-80528390D01*
X124944286Y-80528390D02*
X124991905Y-80337914D01*
X124991905Y-80337914D02*
X125039524Y-80242676D01*
X125039524Y-80242676D02*
X125134762Y-80147438D01*
X125134762Y-80147438D02*
X125277619Y-80099819D01*
X125277619Y-80099819D02*
X125372857Y-80099819D01*
X125372857Y-80099819D02*
X125515714Y-80147438D01*
X125515714Y-80147438D02*
X125563333Y-80195057D01*
X126420476Y-80099819D02*
X126230000Y-80099819D01*
X126230000Y-80099819D02*
X126134762Y-80147438D01*
X126134762Y-80147438D02*
X126087143Y-80195057D01*
X126087143Y-80195057D02*
X125991905Y-80337914D01*
X125991905Y-80337914D02*
X125944286Y-80528390D01*
X125944286Y-80528390D02*
X125944286Y-80909342D01*
X125944286Y-80909342D02*
X125991905Y-81004580D01*
X125991905Y-81004580D02*
X126039524Y-81052200D01*
X126039524Y-81052200D02*
X126134762Y-81099819D01*
X126134762Y-81099819D02*
X126325238Y-81099819D01*
X126325238Y-81099819D02*
X126420476Y-81052200D01*
X126420476Y-81052200D02*
X126468095Y-81004580D01*
X126468095Y-81004580D02*
X126515714Y-80909342D01*
X126515714Y-80909342D02*
X126515714Y-80671247D01*
X126515714Y-80671247D02*
X126468095Y-80576009D01*
X126468095Y-80576009D02*
X126420476Y-80528390D01*
X126420476Y-80528390D02*
X126325238Y-80480771D01*
X126325238Y-80480771D02*
X126134762Y-80480771D01*
X126134762Y-80480771D02*
X126039524Y-80528390D01*
X126039524Y-80528390D02*
X125991905Y-80576009D01*
X125991905Y-80576009D02*
X125944286Y-80671247D01*
X44846905Y-144509819D02*
X44846905Y-143509819D01*
X44846905Y-143509819D02*
X45085000Y-143509819D01*
X45085000Y-143509819D02*
X45227857Y-143557438D01*
X45227857Y-143557438D02*
X45323095Y-143652676D01*
X45323095Y-143652676D02*
X45370714Y-143747914D01*
X45370714Y-143747914D02*
X45418333Y-143938390D01*
X45418333Y-143938390D02*
X45418333Y-144081247D01*
X45418333Y-144081247D02*
X45370714Y-144271723D01*
X45370714Y-144271723D02*
X45323095Y-144366961D01*
X45323095Y-144366961D02*
X45227857Y-144462200D01*
X45227857Y-144462200D02*
X45085000Y-144509819D01*
X45085000Y-144509819D02*
X44846905Y-144509819D01*
X45751667Y-143509819D02*
X46418333Y-143509819D01*
X46418333Y-143509819D02*
X45989762Y-144509819D01*
X47863095Y-138189819D02*
X47863095Y-137189819D01*
X48434523Y-138189819D02*
X48005952Y-137618390D01*
X48434523Y-137189819D02*
X47863095Y-137761247D01*
X111426666Y-63459819D02*
X111426666Y-64174104D01*
X111426666Y-64174104D02*
X111379047Y-64316961D01*
X111379047Y-64316961D02*
X111283809Y-64412200D01*
X111283809Y-64412200D02*
X111140952Y-64459819D01*
X111140952Y-64459819D02*
X111045714Y-64459819D01*
X112426666Y-64459819D02*
X111855238Y-64459819D01*
X112140952Y-64459819D02*
X112140952Y-63459819D01*
X112140952Y-63459819D02*
X112045714Y-63602676D01*
X112045714Y-63602676D02*
X111950476Y-63697914D01*
X111950476Y-63697914D02*
X111855238Y-63745533D01*
X135723333Y-74114819D02*
X135390000Y-73638628D01*
X135151905Y-74114819D02*
X135151905Y-73114819D01*
X135151905Y-73114819D02*
X135532857Y-73114819D01*
X135532857Y-73114819D02*
X135628095Y-73162438D01*
X135628095Y-73162438D02*
X135675714Y-73210057D01*
X135675714Y-73210057D02*
X135723333Y-73305295D01*
X135723333Y-73305295D02*
X135723333Y-73448152D01*
X135723333Y-73448152D02*
X135675714Y-73543390D01*
X135675714Y-73543390D02*
X135628095Y-73591009D01*
X135628095Y-73591009D02*
X135532857Y-73638628D01*
X135532857Y-73638628D02*
X135151905Y-73638628D01*
X136628095Y-73114819D02*
X136151905Y-73114819D01*
X136151905Y-73114819D02*
X136104286Y-73591009D01*
X136104286Y-73591009D02*
X136151905Y-73543390D01*
X136151905Y-73543390D02*
X136247143Y-73495771D01*
X136247143Y-73495771D02*
X136485238Y-73495771D01*
X136485238Y-73495771D02*
X136580476Y-73543390D01*
X136580476Y-73543390D02*
X136628095Y-73591009D01*
X136628095Y-73591009D02*
X136675714Y-73686247D01*
X136675714Y-73686247D02*
X136675714Y-73924342D01*
X136675714Y-73924342D02*
X136628095Y-74019580D01*
X136628095Y-74019580D02*
X136580476Y-74067200D01*
X136580476Y-74067200D02*
X136485238Y-74114819D01*
X136485238Y-74114819D02*
X136247143Y-74114819D01*
X136247143Y-74114819D02*
X136151905Y-74067200D01*
X136151905Y-74067200D02*
X136104286Y-74019580D01*
X122388333Y-123644819D02*
X122055000Y-123168628D01*
X121816905Y-123644819D02*
X121816905Y-122644819D01*
X121816905Y-122644819D02*
X122197857Y-122644819D01*
X122197857Y-122644819D02*
X122293095Y-122692438D01*
X122293095Y-122692438D02*
X122340714Y-122740057D01*
X122340714Y-122740057D02*
X122388333Y-122835295D01*
X122388333Y-122835295D02*
X122388333Y-122978152D01*
X122388333Y-122978152D02*
X122340714Y-123073390D01*
X122340714Y-123073390D02*
X122293095Y-123121009D01*
X122293095Y-123121009D02*
X122197857Y-123168628D01*
X122197857Y-123168628D02*
X121816905Y-123168628D01*
X123245476Y-122644819D02*
X123055000Y-122644819D01*
X123055000Y-122644819D02*
X122959762Y-122692438D01*
X122959762Y-122692438D02*
X122912143Y-122740057D01*
X122912143Y-122740057D02*
X122816905Y-122882914D01*
X122816905Y-122882914D02*
X122769286Y-123073390D01*
X122769286Y-123073390D02*
X122769286Y-123454342D01*
X122769286Y-123454342D02*
X122816905Y-123549580D01*
X122816905Y-123549580D02*
X122864524Y-123597200D01*
X122864524Y-123597200D02*
X122959762Y-123644819D01*
X122959762Y-123644819D02*
X123150238Y-123644819D01*
X123150238Y-123644819D02*
X123245476Y-123597200D01*
X123245476Y-123597200D02*
X123293095Y-123549580D01*
X123293095Y-123549580D02*
X123340714Y-123454342D01*
X123340714Y-123454342D02*
X123340714Y-123216247D01*
X123340714Y-123216247D02*
X123293095Y-123121009D01*
X123293095Y-123121009D02*
X123245476Y-123073390D01*
X123245476Y-123073390D02*
X123150238Y-123025771D01*
X123150238Y-123025771D02*
X122959762Y-123025771D01*
X122959762Y-123025771D02*
X122864524Y-123073390D01*
X122864524Y-123073390D02*
X122816905Y-123121009D01*
X122816905Y-123121009D02*
X122769286Y-123216247D01*
X41743095Y-122229819D02*
X41743095Y-123039342D01*
X41743095Y-123039342D02*
X41790714Y-123134580D01*
X41790714Y-123134580D02*
X41838333Y-123182200D01*
X41838333Y-123182200D02*
X41933571Y-123229819D01*
X41933571Y-123229819D02*
X42124047Y-123229819D01*
X42124047Y-123229819D02*
X42219285Y-123182200D01*
X42219285Y-123182200D02*
X42266904Y-123134580D01*
X42266904Y-123134580D02*
X42314523Y-123039342D01*
X42314523Y-123039342D02*
X42314523Y-122229819D01*
X42695476Y-122229819D02*
X43314523Y-122229819D01*
X43314523Y-122229819D02*
X42981190Y-122610771D01*
X42981190Y-122610771D02*
X43124047Y-122610771D01*
X43124047Y-122610771D02*
X43219285Y-122658390D01*
X43219285Y-122658390D02*
X43266904Y-122706009D01*
X43266904Y-122706009D02*
X43314523Y-122801247D01*
X43314523Y-122801247D02*
X43314523Y-123039342D01*
X43314523Y-123039342D02*
X43266904Y-123134580D01*
X43266904Y-123134580D02*
X43219285Y-123182200D01*
X43219285Y-123182200D02*
X43124047Y-123229819D01*
X43124047Y-123229819D02*
X42838333Y-123229819D01*
X42838333Y-123229819D02*
X42743095Y-123182200D01*
X42743095Y-123182200D02*
X42695476Y-123134580D01*
X105410095Y-143612319D02*
X105410095Y-144421842D01*
X105410095Y-144421842D02*
X105457714Y-144517080D01*
X105457714Y-144517080D02*
X105505333Y-144564700D01*
X105505333Y-144564700D02*
X105600571Y-144612319D01*
X105600571Y-144612319D02*
X105791047Y-144612319D01*
X105791047Y-144612319D02*
X105886285Y-144564700D01*
X105886285Y-144564700D02*
X105933904Y-144517080D01*
X105933904Y-144517080D02*
X105981523Y-144421842D01*
X105981523Y-144421842D02*
X105981523Y-143612319D01*
X106362476Y-143612319D02*
X107029142Y-143612319D01*
X107029142Y-143612319D02*
X106600571Y-144612319D01*
X53808333Y-108944580D02*
X53760714Y-108992200D01*
X53760714Y-108992200D02*
X53617857Y-109039819D01*
X53617857Y-109039819D02*
X53522619Y-109039819D01*
X53522619Y-109039819D02*
X53379762Y-108992200D01*
X53379762Y-108992200D02*
X53284524Y-108896961D01*
X53284524Y-108896961D02*
X53236905Y-108801723D01*
X53236905Y-108801723D02*
X53189286Y-108611247D01*
X53189286Y-108611247D02*
X53189286Y-108468390D01*
X53189286Y-108468390D02*
X53236905Y-108277914D01*
X53236905Y-108277914D02*
X53284524Y-108182676D01*
X53284524Y-108182676D02*
X53379762Y-108087438D01*
X53379762Y-108087438D02*
X53522619Y-108039819D01*
X53522619Y-108039819D02*
X53617857Y-108039819D01*
X53617857Y-108039819D02*
X53760714Y-108087438D01*
X53760714Y-108087438D02*
X53808333Y-108135057D01*
X54760714Y-109039819D02*
X54189286Y-109039819D01*
X54475000Y-109039819D02*
X54475000Y-108039819D01*
X54475000Y-108039819D02*
X54379762Y-108182676D01*
X54379762Y-108182676D02*
X54284524Y-108277914D01*
X54284524Y-108277914D02*
X54189286Y-108325533D01*
X106513333Y-62049819D02*
X106180000Y-61573628D01*
X105941905Y-62049819D02*
X105941905Y-61049819D01*
X105941905Y-61049819D02*
X106322857Y-61049819D01*
X106322857Y-61049819D02*
X106418095Y-61097438D01*
X106418095Y-61097438D02*
X106465714Y-61145057D01*
X106465714Y-61145057D02*
X106513333Y-61240295D01*
X106513333Y-61240295D02*
X106513333Y-61383152D01*
X106513333Y-61383152D02*
X106465714Y-61478390D01*
X106465714Y-61478390D02*
X106418095Y-61526009D01*
X106418095Y-61526009D02*
X106322857Y-61573628D01*
X106322857Y-61573628D02*
X105941905Y-61573628D01*
X107370476Y-61383152D02*
X107370476Y-62049819D01*
X107132381Y-61002200D02*
X106894286Y-61716485D01*
X106894286Y-61716485D02*
X107513333Y-61716485D01*
X80129142Y-148187580D02*
X80081523Y-148235200D01*
X80081523Y-148235200D02*
X79938666Y-148282819D01*
X79938666Y-148282819D02*
X79843428Y-148282819D01*
X79843428Y-148282819D02*
X79700571Y-148235200D01*
X79700571Y-148235200D02*
X79605333Y-148139961D01*
X79605333Y-148139961D02*
X79557714Y-148044723D01*
X79557714Y-148044723D02*
X79510095Y-147854247D01*
X79510095Y-147854247D02*
X79510095Y-147711390D01*
X79510095Y-147711390D02*
X79557714Y-147520914D01*
X79557714Y-147520914D02*
X79605333Y-147425676D01*
X79605333Y-147425676D02*
X79700571Y-147330438D01*
X79700571Y-147330438D02*
X79843428Y-147282819D01*
X79843428Y-147282819D02*
X79938666Y-147282819D01*
X79938666Y-147282819D02*
X80081523Y-147330438D01*
X80081523Y-147330438D02*
X80129142Y-147378057D01*
X81081523Y-148282819D02*
X80510095Y-148282819D01*
X80795809Y-148282819D02*
X80795809Y-147282819D01*
X80795809Y-147282819D02*
X80700571Y-147425676D01*
X80700571Y-147425676D02*
X80605333Y-147520914D01*
X80605333Y-147520914D02*
X80510095Y-147568533D01*
X81986285Y-147282819D02*
X81510095Y-147282819D01*
X81510095Y-147282819D02*
X81462476Y-147759009D01*
X81462476Y-147759009D02*
X81510095Y-147711390D01*
X81510095Y-147711390D02*
X81605333Y-147663771D01*
X81605333Y-147663771D02*
X81843428Y-147663771D01*
X81843428Y-147663771D02*
X81938666Y-147711390D01*
X81938666Y-147711390D02*
X81986285Y-147759009D01*
X81986285Y-147759009D02*
X82033904Y-147854247D01*
X82033904Y-147854247D02*
X82033904Y-148092342D01*
X82033904Y-148092342D02*
X81986285Y-148187580D01*
X81986285Y-148187580D02*
X81938666Y-148235200D01*
X81938666Y-148235200D02*
X81843428Y-148282819D01*
X81843428Y-148282819D02*
X81605333Y-148282819D01*
X81605333Y-148282819D02*
X81510095Y-148235200D01*
X81510095Y-148235200D02*
X81462476Y-148187580D01*
X102989142Y-137011580D02*
X102941523Y-137059200D01*
X102941523Y-137059200D02*
X102798666Y-137106819D01*
X102798666Y-137106819D02*
X102703428Y-137106819D01*
X102703428Y-137106819D02*
X102560571Y-137059200D01*
X102560571Y-137059200D02*
X102465333Y-136963961D01*
X102465333Y-136963961D02*
X102417714Y-136868723D01*
X102417714Y-136868723D02*
X102370095Y-136678247D01*
X102370095Y-136678247D02*
X102370095Y-136535390D01*
X102370095Y-136535390D02*
X102417714Y-136344914D01*
X102417714Y-136344914D02*
X102465333Y-136249676D01*
X102465333Y-136249676D02*
X102560571Y-136154438D01*
X102560571Y-136154438D02*
X102703428Y-136106819D01*
X102703428Y-136106819D02*
X102798666Y-136106819D01*
X102798666Y-136106819D02*
X102941523Y-136154438D01*
X102941523Y-136154438D02*
X102989142Y-136202057D01*
X103941523Y-137106819D02*
X103370095Y-137106819D01*
X103655809Y-137106819D02*
X103655809Y-136106819D01*
X103655809Y-136106819D02*
X103560571Y-136249676D01*
X103560571Y-136249676D02*
X103465333Y-136344914D01*
X103465333Y-136344914D02*
X103370095Y-136392533D01*
X104512952Y-136535390D02*
X104417714Y-136487771D01*
X104417714Y-136487771D02*
X104370095Y-136440152D01*
X104370095Y-136440152D02*
X104322476Y-136344914D01*
X104322476Y-136344914D02*
X104322476Y-136297295D01*
X104322476Y-136297295D02*
X104370095Y-136202057D01*
X104370095Y-136202057D02*
X104417714Y-136154438D01*
X104417714Y-136154438D02*
X104512952Y-136106819D01*
X104512952Y-136106819D02*
X104703428Y-136106819D01*
X104703428Y-136106819D02*
X104798666Y-136154438D01*
X104798666Y-136154438D02*
X104846285Y-136202057D01*
X104846285Y-136202057D02*
X104893904Y-136297295D01*
X104893904Y-136297295D02*
X104893904Y-136344914D01*
X104893904Y-136344914D02*
X104846285Y-136440152D01*
X104846285Y-136440152D02*
X104798666Y-136487771D01*
X104798666Y-136487771D02*
X104703428Y-136535390D01*
X104703428Y-136535390D02*
X104512952Y-136535390D01*
X104512952Y-136535390D02*
X104417714Y-136583009D01*
X104417714Y-136583009D02*
X104370095Y-136630628D01*
X104370095Y-136630628D02*
X104322476Y-136725866D01*
X104322476Y-136725866D02*
X104322476Y-136916342D01*
X104322476Y-136916342D02*
X104370095Y-137011580D01*
X104370095Y-137011580D02*
X104417714Y-137059200D01*
X104417714Y-137059200D02*
X104512952Y-137106819D01*
X104512952Y-137106819D02*
X104703428Y-137106819D01*
X104703428Y-137106819D02*
X104798666Y-137059200D01*
X104798666Y-137059200D02*
X104846285Y-137011580D01*
X104846285Y-137011580D02*
X104893904Y-136916342D01*
X104893904Y-136916342D02*
X104893904Y-136725866D01*
X104893904Y-136725866D02*
X104846285Y-136630628D01*
X104846285Y-136630628D02*
X104798666Y-136583009D01*
X104798666Y-136583009D02*
X104703428Y-136535390D01*
X68973142Y-132947580D02*
X68925523Y-132995200D01*
X68925523Y-132995200D02*
X68782666Y-133042819D01*
X68782666Y-133042819D02*
X68687428Y-133042819D01*
X68687428Y-133042819D02*
X68544571Y-132995200D01*
X68544571Y-132995200D02*
X68449333Y-132899961D01*
X68449333Y-132899961D02*
X68401714Y-132804723D01*
X68401714Y-132804723D02*
X68354095Y-132614247D01*
X68354095Y-132614247D02*
X68354095Y-132471390D01*
X68354095Y-132471390D02*
X68401714Y-132280914D01*
X68401714Y-132280914D02*
X68449333Y-132185676D01*
X68449333Y-132185676D02*
X68544571Y-132090438D01*
X68544571Y-132090438D02*
X68687428Y-132042819D01*
X68687428Y-132042819D02*
X68782666Y-132042819D01*
X68782666Y-132042819D02*
X68925523Y-132090438D01*
X68925523Y-132090438D02*
X68973142Y-132138057D01*
X69925523Y-133042819D02*
X69354095Y-133042819D01*
X69639809Y-133042819D02*
X69639809Y-132042819D01*
X69639809Y-132042819D02*
X69544571Y-132185676D01*
X69544571Y-132185676D02*
X69449333Y-132280914D01*
X69449333Y-132280914D02*
X69354095Y-132328533D01*
X70306476Y-132138057D02*
X70354095Y-132090438D01*
X70354095Y-132090438D02*
X70449333Y-132042819D01*
X70449333Y-132042819D02*
X70687428Y-132042819D01*
X70687428Y-132042819D02*
X70782666Y-132090438D01*
X70782666Y-132090438D02*
X70830285Y-132138057D01*
X70830285Y-132138057D02*
X70877904Y-132233295D01*
X70877904Y-132233295D02*
X70877904Y-132328533D01*
X70877904Y-132328533D02*
X70830285Y-132471390D01*
X70830285Y-132471390D02*
X70258857Y-133042819D01*
X70258857Y-133042819D02*
X70877904Y-133042819D01*
X136993333Y-65859819D02*
X136660000Y-65383628D01*
X136421905Y-65859819D02*
X136421905Y-64859819D01*
X136421905Y-64859819D02*
X136802857Y-64859819D01*
X136802857Y-64859819D02*
X136898095Y-64907438D01*
X136898095Y-64907438D02*
X136945714Y-64955057D01*
X136945714Y-64955057D02*
X136993333Y-65050295D01*
X136993333Y-65050295D02*
X136993333Y-65193152D01*
X136993333Y-65193152D02*
X136945714Y-65288390D01*
X136945714Y-65288390D02*
X136898095Y-65336009D01*
X136898095Y-65336009D02*
X136802857Y-65383628D01*
X136802857Y-65383628D02*
X136421905Y-65383628D01*
X137326667Y-64859819D02*
X137993333Y-64859819D01*
X137993333Y-64859819D02*
X137564762Y-65859819D01*
X51173142Y-156410819D02*
X50839809Y-155934628D01*
X50601714Y-156410819D02*
X50601714Y-155410819D01*
X50601714Y-155410819D02*
X50982666Y-155410819D01*
X50982666Y-155410819D02*
X51077904Y-155458438D01*
X51077904Y-155458438D02*
X51125523Y-155506057D01*
X51125523Y-155506057D02*
X51173142Y-155601295D01*
X51173142Y-155601295D02*
X51173142Y-155744152D01*
X51173142Y-155744152D02*
X51125523Y-155839390D01*
X51125523Y-155839390D02*
X51077904Y-155887009D01*
X51077904Y-155887009D02*
X50982666Y-155934628D01*
X50982666Y-155934628D02*
X50601714Y-155934628D01*
X52125523Y-156410819D02*
X51554095Y-156410819D01*
X51839809Y-156410819D02*
X51839809Y-155410819D01*
X51839809Y-155410819D02*
X51744571Y-155553676D01*
X51744571Y-155553676D02*
X51649333Y-155648914D01*
X51649333Y-155648914D02*
X51554095Y-155696533D01*
X52601714Y-156410819D02*
X52792190Y-156410819D01*
X52792190Y-156410819D02*
X52887428Y-156363200D01*
X52887428Y-156363200D02*
X52935047Y-156315580D01*
X52935047Y-156315580D02*
X53030285Y-156172723D01*
X53030285Y-156172723D02*
X53077904Y-155982247D01*
X53077904Y-155982247D02*
X53077904Y-155601295D01*
X53077904Y-155601295D02*
X53030285Y-155506057D01*
X53030285Y-155506057D02*
X52982666Y-155458438D01*
X52982666Y-155458438D02*
X52887428Y-155410819D01*
X52887428Y-155410819D02*
X52696952Y-155410819D01*
X52696952Y-155410819D02*
X52601714Y-155458438D01*
X52601714Y-155458438D02*
X52554095Y-155506057D01*
X52554095Y-155506057D02*
X52506476Y-155601295D01*
X52506476Y-155601295D02*
X52506476Y-155839390D01*
X52506476Y-155839390D02*
X52554095Y-155934628D01*
X52554095Y-155934628D02*
X52601714Y-155982247D01*
X52601714Y-155982247D02*
X52696952Y-156029866D01*
X52696952Y-156029866D02*
X52887428Y-156029866D01*
X52887428Y-156029866D02*
X52982666Y-155982247D01*
X52982666Y-155982247D02*
X53030285Y-155934628D01*
X53030285Y-155934628D02*
X53077904Y-155839390D01*
X122388333Y-119834819D02*
X122055000Y-119358628D01*
X121816905Y-119834819D02*
X121816905Y-118834819D01*
X121816905Y-118834819D02*
X122197857Y-118834819D01*
X122197857Y-118834819D02*
X122293095Y-118882438D01*
X122293095Y-118882438D02*
X122340714Y-118930057D01*
X122340714Y-118930057D02*
X122388333Y-119025295D01*
X122388333Y-119025295D02*
X122388333Y-119168152D01*
X122388333Y-119168152D02*
X122340714Y-119263390D01*
X122340714Y-119263390D02*
X122293095Y-119311009D01*
X122293095Y-119311009D02*
X122197857Y-119358628D01*
X122197857Y-119358628D02*
X121816905Y-119358628D01*
X122864524Y-119834819D02*
X123055000Y-119834819D01*
X123055000Y-119834819D02*
X123150238Y-119787200D01*
X123150238Y-119787200D02*
X123197857Y-119739580D01*
X123197857Y-119739580D02*
X123293095Y-119596723D01*
X123293095Y-119596723D02*
X123340714Y-119406247D01*
X123340714Y-119406247D02*
X123340714Y-119025295D01*
X123340714Y-119025295D02*
X123293095Y-118930057D01*
X123293095Y-118930057D02*
X123245476Y-118882438D01*
X123245476Y-118882438D02*
X123150238Y-118834819D01*
X123150238Y-118834819D02*
X122959762Y-118834819D01*
X122959762Y-118834819D02*
X122864524Y-118882438D01*
X122864524Y-118882438D02*
X122816905Y-118930057D01*
X122816905Y-118930057D02*
X122769286Y-119025295D01*
X122769286Y-119025295D02*
X122769286Y-119263390D01*
X122769286Y-119263390D02*
X122816905Y-119358628D01*
X122816905Y-119358628D02*
X122864524Y-119406247D01*
X122864524Y-119406247D02*
X122959762Y-119453866D01*
X122959762Y-119453866D02*
X123150238Y-119453866D01*
X123150238Y-119453866D02*
X123245476Y-119406247D01*
X123245476Y-119406247D02*
X123293095Y-119358628D01*
X123293095Y-119358628D02*
X123340714Y-119263390D01*
X82669142Y-129486819D02*
X82335809Y-129010628D01*
X82097714Y-129486819D02*
X82097714Y-128486819D01*
X82097714Y-128486819D02*
X82478666Y-128486819D01*
X82478666Y-128486819D02*
X82573904Y-128534438D01*
X82573904Y-128534438D02*
X82621523Y-128582057D01*
X82621523Y-128582057D02*
X82669142Y-128677295D01*
X82669142Y-128677295D02*
X82669142Y-128820152D01*
X82669142Y-128820152D02*
X82621523Y-128915390D01*
X82621523Y-128915390D02*
X82573904Y-128963009D01*
X82573904Y-128963009D02*
X82478666Y-129010628D01*
X82478666Y-129010628D02*
X82097714Y-129010628D01*
X83621523Y-129486819D02*
X83050095Y-129486819D01*
X83335809Y-129486819D02*
X83335809Y-128486819D01*
X83335809Y-128486819D02*
X83240571Y-128629676D01*
X83240571Y-128629676D02*
X83145333Y-128724914D01*
X83145333Y-128724914D02*
X83050095Y-128772533D01*
X83954857Y-128486819D02*
X84621523Y-128486819D01*
X84621523Y-128486819D02*
X84192952Y-129486819D01*
X89154095Y-143726819D02*
X89154095Y-144536342D01*
X89154095Y-144536342D02*
X89201714Y-144631580D01*
X89201714Y-144631580D02*
X89249333Y-144679200D01*
X89249333Y-144679200D02*
X89344571Y-144726819D01*
X89344571Y-144726819D02*
X89535047Y-144726819D01*
X89535047Y-144726819D02*
X89630285Y-144679200D01*
X89630285Y-144679200D02*
X89677904Y-144631580D01*
X89677904Y-144631580D02*
X89725523Y-144536342D01*
X89725523Y-144536342D02*
X89725523Y-143726819D01*
X90630285Y-143726819D02*
X90439809Y-143726819D01*
X90439809Y-143726819D02*
X90344571Y-143774438D01*
X90344571Y-143774438D02*
X90296952Y-143822057D01*
X90296952Y-143822057D02*
X90201714Y-143964914D01*
X90201714Y-143964914D02*
X90154095Y-144155390D01*
X90154095Y-144155390D02*
X90154095Y-144536342D01*
X90154095Y-144536342D02*
X90201714Y-144631580D01*
X90201714Y-144631580D02*
X90249333Y-144679200D01*
X90249333Y-144679200D02*
X90344571Y-144726819D01*
X90344571Y-144726819D02*
X90535047Y-144726819D01*
X90535047Y-144726819D02*
X90630285Y-144679200D01*
X90630285Y-144679200D02*
X90677904Y-144631580D01*
X90677904Y-144631580D02*
X90725523Y-144536342D01*
X90725523Y-144536342D02*
X90725523Y-144298247D01*
X90725523Y-144298247D02*
X90677904Y-144203009D01*
X90677904Y-144203009D02*
X90630285Y-144155390D01*
X90630285Y-144155390D02*
X90535047Y-144107771D01*
X90535047Y-144107771D02*
X90344571Y-144107771D01*
X90344571Y-144107771D02*
X90249333Y-144155390D01*
X90249333Y-144155390D02*
X90201714Y-144203009D01*
X90201714Y-144203009D02*
X90154095Y-144298247D01*
X125849142Y-112214819D02*
X125515809Y-111738628D01*
X125277714Y-112214819D02*
X125277714Y-111214819D01*
X125277714Y-111214819D02*
X125658666Y-111214819D01*
X125658666Y-111214819D02*
X125753904Y-111262438D01*
X125753904Y-111262438D02*
X125801523Y-111310057D01*
X125801523Y-111310057D02*
X125849142Y-111405295D01*
X125849142Y-111405295D02*
X125849142Y-111548152D01*
X125849142Y-111548152D02*
X125801523Y-111643390D01*
X125801523Y-111643390D02*
X125753904Y-111691009D01*
X125753904Y-111691009D02*
X125658666Y-111738628D01*
X125658666Y-111738628D02*
X125277714Y-111738628D01*
X126801523Y-112214819D02*
X126230095Y-112214819D01*
X126515809Y-112214819D02*
X126515809Y-111214819D01*
X126515809Y-111214819D02*
X126420571Y-111357676D01*
X126420571Y-111357676D02*
X126325333Y-111452914D01*
X126325333Y-111452914D02*
X126230095Y-111500533D01*
X127658666Y-111214819D02*
X127468190Y-111214819D01*
X127468190Y-111214819D02*
X127372952Y-111262438D01*
X127372952Y-111262438D02*
X127325333Y-111310057D01*
X127325333Y-111310057D02*
X127230095Y-111452914D01*
X127230095Y-111452914D02*
X127182476Y-111643390D01*
X127182476Y-111643390D02*
X127182476Y-112024342D01*
X127182476Y-112024342D02*
X127230095Y-112119580D01*
X127230095Y-112119580D02*
X127277714Y-112167200D01*
X127277714Y-112167200D02*
X127372952Y-112214819D01*
X127372952Y-112214819D02*
X127563428Y-112214819D01*
X127563428Y-112214819D02*
X127658666Y-112167200D01*
X127658666Y-112167200D02*
X127706285Y-112119580D01*
X127706285Y-112119580D02*
X127753904Y-112024342D01*
X127753904Y-112024342D02*
X127753904Y-111786247D01*
X127753904Y-111786247D02*
X127706285Y-111691009D01*
X127706285Y-111691009D02*
X127658666Y-111643390D01*
X127658666Y-111643390D02*
X127563428Y-111595771D01*
X127563428Y-111595771D02*
X127372952Y-111595771D01*
X127372952Y-111595771D02*
X127277714Y-111643390D01*
X127277714Y-111643390D02*
X127230095Y-111691009D01*
X127230095Y-111691009D02*
X127182476Y-111786247D01*
X103560952Y-156125104D02*
X104037142Y-156125104D01*
X103465714Y-156410819D02*
X103799047Y-155410819D01*
X103799047Y-155410819D02*
X104132380Y-156410819D01*
X104465714Y-156410819D02*
X104465714Y-155410819D01*
X104465714Y-155410819D02*
X104799047Y-156125104D01*
X104799047Y-156125104D02*
X105132380Y-155410819D01*
X105132380Y-155410819D02*
X105132380Y-156410819D01*
X105608571Y-156410819D02*
X105608571Y-155410819D01*
X105608571Y-155410819D02*
X105989523Y-155410819D01*
X105989523Y-155410819D02*
X106084761Y-155458438D01*
X106084761Y-155458438D02*
X106132380Y-155506057D01*
X106132380Y-155506057D02*
X106179999Y-155601295D01*
X106179999Y-155601295D02*
X106179999Y-155744152D01*
X106179999Y-155744152D02*
X106132380Y-155839390D01*
X106132380Y-155839390D02*
X106084761Y-155887009D01*
X106084761Y-155887009D02*
X105989523Y-155934628D01*
X105989523Y-155934628D02*
X105608571Y-155934628D01*
X106370476Y-156506057D02*
X107132380Y-156506057D01*
X107227619Y-155410819D02*
X107560952Y-156410819D01*
X107560952Y-156410819D02*
X107894285Y-155410819D01*
X108227619Y-156410819D02*
X108227619Y-155410819D01*
X108227619Y-155410819D02*
X108608571Y-155410819D01*
X108608571Y-155410819D02*
X108703809Y-155458438D01*
X108703809Y-155458438D02*
X108751428Y-155506057D01*
X108751428Y-155506057D02*
X108799047Y-155601295D01*
X108799047Y-155601295D02*
X108799047Y-155744152D01*
X108799047Y-155744152D02*
X108751428Y-155839390D01*
X108751428Y-155839390D02*
X108703809Y-155887009D01*
X108703809Y-155887009D02*
X108608571Y-155934628D01*
X108608571Y-155934628D02*
X108227619Y-155934628D01*
X109227619Y-156410819D02*
X109227619Y-155410819D01*
X109227619Y-155410819D02*
X109608571Y-155410819D01*
X109608571Y-155410819D02*
X109703809Y-155458438D01*
X109703809Y-155458438D02*
X109751428Y-155506057D01*
X109751428Y-155506057D02*
X109799047Y-155601295D01*
X109799047Y-155601295D02*
X109799047Y-155744152D01*
X109799047Y-155744152D02*
X109751428Y-155839390D01*
X109751428Y-155839390D02*
X109703809Y-155887009D01*
X109703809Y-155887009D02*
X109608571Y-155934628D01*
X109608571Y-155934628D02*
X109227619Y-155934628D01*
X98417142Y-129486819D02*
X98083809Y-129010628D01*
X97845714Y-129486819D02*
X97845714Y-128486819D01*
X97845714Y-128486819D02*
X98226666Y-128486819D01*
X98226666Y-128486819D02*
X98321904Y-128534438D01*
X98321904Y-128534438D02*
X98369523Y-128582057D01*
X98369523Y-128582057D02*
X98417142Y-128677295D01*
X98417142Y-128677295D02*
X98417142Y-128820152D01*
X98417142Y-128820152D02*
X98369523Y-128915390D01*
X98369523Y-128915390D02*
X98321904Y-128963009D01*
X98321904Y-128963009D02*
X98226666Y-129010628D01*
X98226666Y-129010628D02*
X97845714Y-129010628D01*
X98798095Y-128582057D02*
X98845714Y-128534438D01*
X98845714Y-128534438D02*
X98940952Y-128486819D01*
X98940952Y-128486819D02*
X99179047Y-128486819D01*
X99179047Y-128486819D02*
X99274285Y-128534438D01*
X99274285Y-128534438D02*
X99321904Y-128582057D01*
X99321904Y-128582057D02*
X99369523Y-128677295D01*
X99369523Y-128677295D02*
X99369523Y-128772533D01*
X99369523Y-128772533D02*
X99321904Y-128915390D01*
X99321904Y-128915390D02*
X98750476Y-129486819D01*
X98750476Y-129486819D02*
X99369523Y-129486819D01*
X99988571Y-128486819D02*
X100083809Y-128486819D01*
X100083809Y-128486819D02*
X100179047Y-128534438D01*
X100179047Y-128534438D02*
X100226666Y-128582057D01*
X100226666Y-128582057D02*
X100274285Y-128677295D01*
X100274285Y-128677295D02*
X100321904Y-128867771D01*
X100321904Y-128867771D02*
X100321904Y-129105866D01*
X100321904Y-129105866D02*
X100274285Y-129296342D01*
X100274285Y-129296342D02*
X100226666Y-129391580D01*
X100226666Y-129391580D02*
X100179047Y-129439200D01*
X100179047Y-129439200D02*
X100083809Y-129486819D01*
X100083809Y-129486819D02*
X99988571Y-129486819D01*
X99988571Y-129486819D02*
X99893333Y-129439200D01*
X99893333Y-129439200D02*
X99845714Y-129391580D01*
X99845714Y-129391580D02*
X99798095Y-129296342D01*
X99798095Y-129296342D02*
X99750476Y-129105866D01*
X99750476Y-129105866D02*
X99750476Y-128867771D01*
X99750476Y-128867771D02*
X99798095Y-128677295D01*
X99798095Y-128677295D02*
X99845714Y-128582057D01*
X99845714Y-128582057D02*
X99893333Y-128534438D01*
X99893333Y-128534438D02*
X99988571Y-128486819D01*
X53808333Y-101324580D02*
X53760714Y-101372200D01*
X53760714Y-101372200D02*
X53617857Y-101419819D01*
X53617857Y-101419819D02*
X53522619Y-101419819D01*
X53522619Y-101419819D02*
X53379762Y-101372200D01*
X53379762Y-101372200D02*
X53284524Y-101276961D01*
X53284524Y-101276961D02*
X53236905Y-101181723D01*
X53236905Y-101181723D02*
X53189286Y-100991247D01*
X53189286Y-100991247D02*
X53189286Y-100848390D01*
X53189286Y-100848390D02*
X53236905Y-100657914D01*
X53236905Y-100657914D02*
X53284524Y-100562676D01*
X53284524Y-100562676D02*
X53379762Y-100467438D01*
X53379762Y-100467438D02*
X53522619Y-100419819D01*
X53522619Y-100419819D02*
X53617857Y-100419819D01*
X53617857Y-100419819D02*
X53760714Y-100467438D01*
X53760714Y-100467438D02*
X53808333Y-100515057D01*
X54189286Y-100515057D02*
X54236905Y-100467438D01*
X54236905Y-100467438D02*
X54332143Y-100419819D01*
X54332143Y-100419819D02*
X54570238Y-100419819D01*
X54570238Y-100419819D02*
X54665476Y-100467438D01*
X54665476Y-100467438D02*
X54713095Y-100515057D01*
X54713095Y-100515057D02*
X54760714Y-100610295D01*
X54760714Y-100610295D02*
X54760714Y-100705533D01*
X54760714Y-100705533D02*
X54713095Y-100848390D01*
X54713095Y-100848390D02*
X54141667Y-101419819D01*
X54141667Y-101419819D02*
X54760714Y-101419819D01*
X92702142Y-96244580D02*
X92654523Y-96292200D01*
X92654523Y-96292200D02*
X92511666Y-96339819D01*
X92511666Y-96339819D02*
X92416428Y-96339819D01*
X92416428Y-96339819D02*
X92273571Y-96292200D01*
X92273571Y-96292200D02*
X92178333Y-96196961D01*
X92178333Y-96196961D02*
X92130714Y-96101723D01*
X92130714Y-96101723D02*
X92083095Y-95911247D01*
X92083095Y-95911247D02*
X92083095Y-95768390D01*
X92083095Y-95768390D02*
X92130714Y-95577914D01*
X92130714Y-95577914D02*
X92178333Y-95482676D01*
X92178333Y-95482676D02*
X92273571Y-95387438D01*
X92273571Y-95387438D02*
X92416428Y-95339819D01*
X92416428Y-95339819D02*
X92511666Y-95339819D01*
X92511666Y-95339819D02*
X92654523Y-95387438D01*
X92654523Y-95387438D02*
X92702142Y-95435057D01*
X93654523Y-96339819D02*
X93083095Y-96339819D01*
X93368809Y-96339819D02*
X93368809Y-95339819D01*
X93368809Y-95339819D02*
X93273571Y-95482676D01*
X93273571Y-95482676D02*
X93178333Y-95577914D01*
X93178333Y-95577914D02*
X93083095Y-95625533D01*
X94273571Y-95339819D02*
X94368809Y-95339819D01*
X94368809Y-95339819D02*
X94464047Y-95387438D01*
X94464047Y-95387438D02*
X94511666Y-95435057D01*
X94511666Y-95435057D02*
X94559285Y-95530295D01*
X94559285Y-95530295D02*
X94606904Y-95720771D01*
X94606904Y-95720771D02*
X94606904Y-95958866D01*
X94606904Y-95958866D02*
X94559285Y-96149342D01*
X94559285Y-96149342D02*
X94511666Y-96244580D01*
X94511666Y-96244580D02*
X94464047Y-96292200D01*
X94464047Y-96292200D02*
X94368809Y-96339819D01*
X94368809Y-96339819D02*
X94273571Y-96339819D01*
X94273571Y-96339819D02*
X94178333Y-96292200D01*
X94178333Y-96292200D02*
X94130714Y-96244580D01*
X94130714Y-96244580D02*
X94083095Y-96149342D01*
X94083095Y-96149342D02*
X94035476Y-95958866D01*
X94035476Y-95958866D02*
X94035476Y-95720771D01*
X94035476Y-95720771D02*
X94083095Y-95530295D01*
X94083095Y-95530295D02*
X94130714Y-95435057D01*
X94130714Y-95435057D02*
X94178333Y-95387438D01*
X94178333Y-95387438D02*
X94273571Y-95339819D01*
X55713333Y-82909580D02*
X55665714Y-82957200D01*
X55665714Y-82957200D02*
X55522857Y-83004819D01*
X55522857Y-83004819D02*
X55427619Y-83004819D01*
X55427619Y-83004819D02*
X55284762Y-82957200D01*
X55284762Y-82957200D02*
X55189524Y-82861961D01*
X55189524Y-82861961D02*
X55141905Y-82766723D01*
X55141905Y-82766723D02*
X55094286Y-82576247D01*
X55094286Y-82576247D02*
X55094286Y-82433390D01*
X55094286Y-82433390D02*
X55141905Y-82242914D01*
X55141905Y-82242914D02*
X55189524Y-82147676D01*
X55189524Y-82147676D02*
X55284762Y-82052438D01*
X55284762Y-82052438D02*
X55427619Y-82004819D01*
X55427619Y-82004819D02*
X55522857Y-82004819D01*
X55522857Y-82004819D02*
X55665714Y-82052438D01*
X55665714Y-82052438D02*
X55713333Y-82100057D01*
X56046667Y-82004819D02*
X56665714Y-82004819D01*
X56665714Y-82004819D02*
X56332381Y-82385771D01*
X56332381Y-82385771D02*
X56475238Y-82385771D01*
X56475238Y-82385771D02*
X56570476Y-82433390D01*
X56570476Y-82433390D02*
X56618095Y-82481009D01*
X56618095Y-82481009D02*
X56665714Y-82576247D01*
X56665714Y-82576247D02*
X56665714Y-82814342D01*
X56665714Y-82814342D02*
X56618095Y-82909580D01*
X56618095Y-82909580D02*
X56570476Y-82957200D01*
X56570476Y-82957200D02*
X56475238Y-83004819D01*
X56475238Y-83004819D02*
X56189524Y-83004819D01*
X56189524Y-83004819D02*
X56094286Y-82957200D01*
X56094286Y-82957200D02*
X56046667Y-82909580D01*
X77136666Y-64224819D02*
X77136666Y-64939104D01*
X77136666Y-64939104D02*
X77089047Y-65081961D01*
X77089047Y-65081961D02*
X76993809Y-65177200D01*
X76993809Y-65177200D02*
X76850952Y-65224819D01*
X76850952Y-65224819D02*
X76755714Y-65224819D01*
X77565238Y-64320057D02*
X77612857Y-64272438D01*
X77612857Y-64272438D02*
X77708095Y-64224819D01*
X77708095Y-64224819D02*
X77946190Y-64224819D01*
X77946190Y-64224819D02*
X78041428Y-64272438D01*
X78041428Y-64272438D02*
X78089047Y-64320057D01*
X78089047Y-64320057D02*
X78136666Y-64415295D01*
X78136666Y-64415295D02*
X78136666Y-64510533D01*
X78136666Y-64510533D02*
X78089047Y-64653390D01*
X78089047Y-64653390D02*
X77517619Y-65224819D01*
X77517619Y-65224819D02*
X78136666Y-65224819D01*
X40473333Y-107769819D02*
X40140000Y-107293628D01*
X39901905Y-107769819D02*
X39901905Y-106769819D01*
X39901905Y-106769819D02*
X40282857Y-106769819D01*
X40282857Y-106769819D02*
X40378095Y-106817438D01*
X40378095Y-106817438D02*
X40425714Y-106865057D01*
X40425714Y-106865057D02*
X40473333Y-106960295D01*
X40473333Y-106960295D02*
X40473333Y-107103152D01*
X40473333Y-107103152D02*
X40425714Y-107198390D01*
X40425714Y-107198390D02*
X40378095Y-107246009D01*
X40378095Y-107246009D02*
X40282857Y-107293628D01*
X40282857Y-107293628D02*
X39901905Y-107293628D01*
X41044762Y-107198390D02*
X40949524Y-107150771D01*
X40949524Y-107150771D02*
X40901905Y-107103152D01*
X40901905Y-107103152D02*
X40854286Y-107007914D01*
X40854286Y-107007914D02*
X40854286Y-106960295D01*
X40854286Y-106960295D02*
X40901905Y-106865057D01*
X40901905Y-106865057D02*
X40949524Y-106817438D01*
X40949524Y-106817438D02*
X41044762Y-106769819D01*
X41044762Y-106769819D02*
X41235238Y-106769819D01*
X41235238Y-106769819D02*
X41330476Y-106817438D01*
X41330476Y-106817438D02*
X41378095Y-106865057D01*
X41378095Y-106865057D02*
X41425714Y-106960295D01*
X41425714Y-106960295D02*
X41425714Y-107007914D01*
X41425714Y-107007914D02*
X41378095Y-107103152D01*
X41378095Y-107103152D02*
X41330476Y-107150771D01*
X41330476Y-107150771D02*
X41235238Y-107198390D01*
X41235238Y-107198390D02*
X41044762Y-107198390D01*
X41044762Y-107198390D02*
X40949524Y-107246009D01*
X40949524Y-107246009D02*
X40901905Y-107293628D01*
X40901905Y-107293628D02*
X40854286Y-107388866D01*
X40854286Y-107388866D02*
X40854286Y-107579342D01*
X40854286Y-107579342D02*
X40901905Y-107674580D01*
X40901905Y-107674580D02*
X40949524Y-107722200D01*
X40949524Y-107722200D02*
X41044762Y-107769819D01*
X41044762Y-107769819D02*
X41235238Y-107769819D01*
X41235238Y-107769819D02*
X41330476Y-107722200D01*
X41330476Y-107722200D02*
X41378095Y-107674580D01*
X41378095Y-107674580D02*
X41425714Y-107579342D01*
X41425714Y-107579342D02*
X41425714Y-107388866D01*
X41425714Y-107388866D02*
X41378095Y-107293628D01*
X41378095Y-107293628D02*
X41330476Y-107246009D01*
X41330476Y-107246009D02*
X41235238Y-107198390D01*
X122293142Y-116024819D02*
X121959809Y-115548628D01*
X121721714Y-116024819D02*
X121721714Y-115024819D01*
X121721714Y-115024819D02*
X122102666Y-115024819D01*
X122102666Y-115024819D02*
X122197904Y-115072438D01*
X122197904Y-115072438D02*
X122245523Y-115120057D01*
X122245523Y-115120057D02*
X122293142Y-115215295D01*
X122293142Y-115215295D02*
X122293142Y-115358152D01*
X122293142Y-115358152D02*
X122245523Y-115453390D01*
X122245523Y-115453390D02*
X122197904Y-115501009D01*
X122197904Y-115501009D02*
X122102666Y-115548628D01*
X122102666Y-115548628D02*
X121721714Y-115548628D01*
X123245523Y-116024819D02*
X122674095Y-116024819D01*
X122959809Y-116024819D02*
X122959809Y-115024819D01*
X122959809Y-115024819D02*
X122864571Y-115167676D01*
X122864571Y-115167676D02*
X122769333Y-115262914D01*
X122769333Y-115262914D02*
X122674095Y-115310533D01*
X123864571Y-115024819D02*
X123959809Y-115024819D01*
X123959809Y-115024819D02*
X124055047Y-115072438D01*
X124055047Y-115072438D02*
X124102666Y-115120057D01*
X124102666Y-115120057D02*
X124150285Y-115215295D01*
X124150285Y-115215295D02*
X124197904Y-115405771D01*
X124197904Y-115405771D02*
X124197904Y-115643866D01*
X124197904Y-115643866D02*
X124150285Y-115834342D01*
X124150285Y-115834342D02*
X124102666Y-115929580D01*
X124102666Y-115929580D02*
X124055047Y-115977200D01*
X124055047Y-115977200D02*
X123959809Y-116024819D01*
X123959809Y-116024819D02*
X123864571Y-116024819D01*
X123864571Y-116024819D02*
X123769333Y-115977200D01*
X123769333Y-115977200D02*
X123721714Y-115929580D01*
X123721714Y-115929580D02*
X123674095Y-115834342D01*
X123674095Y-115834342D02*
X123626476Y-115643866D01*
X123626476Y-115643866D02*
X123626476Y-115405771D01*
X123626476Y-115405771D02*
X123674095Y-115215295D01*
X123674095Y-115215295D02*
X123721714Y-115120057D01*
X123721714Y-115120057D02*
X123769333Y-115072438D01*
X123769333Y-115072438D02*
X123864571Y-115024819D01*
X76033333Y-60144819D02*
X75700000Y-59668628D01*
X75461905Y-60144819D02*
X75461905Y-59144819D01*
X75461905Y-59144819D02*
X75842857Y-59144819D01*
X75842857Y-59144819D02*
X75938095Y-59192438D01*
X75938095Y-59192438D02*
X75985714Y-59240057D01*
X75985714Y-59240057D02*
X76033333Y-59335295D01*
X76033333Y-59335295D02*
X76033333Y-59478152D01*
X76033333Y-59478152D02*
X75985714Y-59573390D01*
X75985714Y-59573390D02*
X75938095Y-59621009D01*
X75938095Y-59621009D02*
X75842857Y-59668628D01*
X75842857Y-59668628D02*
X75461905Y-59668628D01*
X76985714Y-60144819D02*
X76414286Y-60144819D01*
X76700000Y-60144819D02*
X76700000Y-59144819D01*
X76700000Y-59144819D02*
X76604762Y-59287676D01*
X76604762Y-59287676D02*
X76509524Y-59382914D01*
X76509524Y-59382914D02*
X76414286Y-59430533D01*
X70318333Y-96224580D02*
X70270714Y-96272200D01*
X70270714Y-96272200D02*
X70127857Y-96319819D01*
X70127857Y-96319819D02*
X70032619Y-96319819D01*
X70032619Y-96319819D02*
X69889762Y-96272200D01*
X69889762Y-96272200D02*
X69794524Y-96176961D01*
X69794524Y-96176961D02*
X69746905Y-96081723D01*
X69746905Y-96081723D02*
X69699286Y-95891247D01*
X69699286Y-95891247D02*
X69699286Y-95748390D01*
X69699286Y-95748390D02*
X69746905Y-95557914D01*
X69746905Y-95557914D02*
X69794524Y-95462676D01*
X69794524Y-95462676D02*
X69889762Y-95367438D01*
X69889762Y-95367438D02*
X70032619Y-95319819D01*
X70032619Y-95319819D02*
X70127857Y-95319819D01*
X70127857Y-95319819D02*
X70270714Y-95367438D01*
X70270714Y-95367438D02*
X70318333Y-95415057D01*
X71175476Y-95653152D02*
X71175476Y-96319819D01*
X70937381Y-95272200D02*
X70699286Y-95986485D01*
X70699286Y-95986485D02*
X71318333Y-95986485D01*
X134493095Y-151267438D02*
X134397857Y-151219819D01*
X134397857Y-151219819D02*
X134255000Y-151219819D01*
X134255000Y-151219819D02*
X134112143Y-151267438D01*
X134112143Y-151267438D02*
X134016905Y-151362676D01*
X134016905Y-151362676D02*
X133969286Y-151457914D01*
X133969286Y-151457914D02*
X133921667Y-151648390D01*
X133921667Y-151648390D02*
X133921667Y-151791247D01*
X133921667Y-151791247D02*
X133969286Y-151981723D01*
X133969286Y-151981723D02*
X134016905Y-152076961D01*
X134016905Y-152076961D02*
X134112143Y-152172200D01*
X134112143Y-152172200D02*
X134255000Y-152219819D01*
X134255000Y-152219819D02*
X134350238Y-152219819D01*
X134350238Y-152219819D02*
X134493095Y-152172200D01*
X134493095Y-152172200D02*
X134540714Y-152124580D01*
X134540714Y-152124580D02*
X134540714Y-151791247D01*
X134540714Y-151791247D02*
X134350238Y-151791247D01*
X134969286Y-152219819D02*
X134969286Y-151219819D01*
X134969286Y-151219819D02*
X135540714Y-152219819D01*
X135540714Y-152219819D02*
X135540714Y-151219819D01*
X136016905Y-152219819D02*
X136016905Y-151219819D01*
X136016905Y-151219819D02*
X136255000Y-151219819D01*
X136255000Y-151219819D02*
X136397857Y-151267438D01*
X136397857Y-151267438D02*
X136493095Y-151362676D01*
X136493095Y-151362676D02*
X136540714Y-151457914D01*
X136540714Y-151457914D02*
X136588333Y-151648390D01*
X136588333Y-151648390D02*
X136588333Y-151791247D01*
X136588333Y-151791247D02*
X136540714Y-151981723D01*
X136540714Y-151981723D02*
X136493095Y-152076961D01*
X136493095Y-152076961D02*
X136397857Y-152172200D01*
X136397857Y-152172200D02*
X136255000Y-152219819D01*
X136255000Y-152219819D02*
X136016905Y-152219819D01*
X51864000Y-139436819D02*
X51864000Y-138436819D01*
X51864000Y-138436819D02*
X52102095Y-138436819D01*
X52102095Y-138436819D02*
X52244952Y-138484438D01*
X52244952Y-138484438D02*
X52340190Y-138579676D01*
X52340190Y-138579676D02*
X52387809Y-138674914D01*
X52387809Y-138674914D02*
X52435428Y-138865390D01*
X52435428Y-138865390D02*
X52435428Y-139008247D01*
X52435428Y-139008247D02*
X52387809Y-139198723D01*
X52387809Y-139198723D02*
X52340190Y-139293961D01*
X52340190Y-139293961D02*
X52244952Y-139389200D01*
X52244952Y-139389200D02*
X52102095Y-139436819D01*
X52102095Y-139436819D02*
X51864000Y-139436819D01*
X52816381Y-139151104D02*
X53292571Y-139151104D01*
X52721143Y-139436819D02*
X53054476Y-138436819D01*
X53054476Y-138436819D02*
X53387809Y-139436819D01*
X54292571Y-139341580D02*
X54244952Y-139389200D01*
X54244952Y-139389200D02*
X54102095Y-139436819D01*
X54102095Y-139436819D02*
X54006857Y-139436819D01*
X54006857Y-139436819D02*
X53864000Y-139389200D01*
X53864000Y-139389200D02*
X53768762Y-139293961D01*
X53768762Y-139293961D02*
X53721143Y-139198723D01*
X53721143Y-139198723D02*
X53673524Y-139008247D01*
X53673524Y-139008247D02*
X53673524Y-138865390D01*
X53673524Y-138865390D02*
X53721143Y-138674914D01*
X53721143Y-138674914D02*
X53768762Y-138579676D01*
X53768762Y-138579676D02*
X53864000Y-138484438D01*
X53864000Y-138484438D02*
X54006857Y-138436819D01*
X54006857Y-138436819D02*
X54102095Y-138436819D01*
X54102095Y-138436819D02*
X54244952Y-138484438D01*
X54244952Y-138484438D02*
X54292571Y-138532057D01*
X54483048Y-139532057D02*
X55244952Y-139532057D01*
X55340191Y-138436819D02*
X55673524Y-139436819D01*
X55673524Y-139436819D02*
X56006857Y-138436819D01*
X56340191Y-139436819D02*
X56340191Y-138436819D01*
X56340191Y-138436819D02*
X56721143Y-138436819D01*
X56721143Y-138436819D02*
X56816381Y-138484438D01*
X56816381Y-138484438D02*
X56864000Y-138532057D01*
X56864000Y-138532057D02*
X56911619Y-138627295D01*
X56911619Y-138627295D02*
X56911619Y-138770152D01*
X56911619Y-138770152D02*
X56864000Y-138865390D01*
X56864000Y-138865390D02*
X56816381Y-138913009D01*
X56816381Y-138913009D02*
X56721143Y-138960628D01*
X56721143Y-138960628D02*
X56340191Y-138960628D01*
X57340191Y-139436819D02*
X57340191Y-138436819D01*
X57340191Y-138436819D02*
X57721143Y-138436819D01*
X57721143Y-138436819D02*
X57816381Y-138484438D01*
X57816381Y-138484438D02*
X57864000Y-138532057D01*
X57864000Y-138532057D02*
X57911619Y-138627295D01*
X57911619Y-138627295D02*
X57911619Y-138770152D01*
X57911619Y-138770152D02*
X57864000Y-138865390D01*
X57864000Y-138865390D02*
X57816381Y-138913009D01*
X57816381Y-138913009D02*
X57721143Y-138960628D01*
X57721143Y-138960628D02*
X57340191Y-138960628D01*
X58356667Y-85057200D02*
X58499524Y-85104819D01*
X58499524Y-85104819D02*
X58737619Y-85104819D01*
X58737619Y-85104819D02*
X58832857Y-85057200D01*
X58832857Y-85057200D02*
X58880476Y-85009580D01*
X58880476Y-85009580D02*
X58928095Y-84914342D01*
X58928095Y-84914342D02*
X58928095Y-84819104D01*
X58928095Y-84819104D02*
X58880476Y-84723866D01*
X58880476Y-84723866D02*
X58832857Y-84676247D01*
X58832857Y-84676247D02*
X58737619Y-84628628D01*
X58737619Y-84628628D02*
X58547143Y-84581009D01*
X58547143Y-84581009D02*
X58451905Y-84533390D01*
X58451905Y-84533390D02*
X58404286Y-84485771D01*
X58404286Y-84485771D02*
X58356667Y-84390533D01*
X58356667Y-84390533D02*
X58356667Y-84295295D01*
X58356667Y-84295295D02*
X58404286Y-84200057D01*
X58404286Y-84200057D02*
X58451905Y-84152438D01*
X58451905Y-84152438D02*
X58547143Y-84104819D01*
X58547143Y-84104819D02*
X58785238Y-84104819D01*
X58785238Y-84104819D02*
X58928095Y-84152438D01*
X59261429Y-84104819D02*
X59499524Y-85104819D01*
X59499524Y-85104819D02*
X59690000Y-84390533D01*
X59690000Y-84390533D02*
X59880476Y-85104819D01*
X59880476Y-85104819D02*
X60118572Y-84104819D01*
X61023333Y-85104819D02*
X60451905Y-85104819D01*
X60737619Y-85104819D02*
X60737619Y-84104819D01*
X60737619Y-84104819D02*
X60642381Y-84247676D01*
X60642381Y-84247676D02*
X60547143Y-84342914D01*
X60547143Y-84342914D02*
X60451905Y-84390533D01*
X40777666Y-155064819D02*
X40777666Y-155779104D01*
X40777666Y-155779104D02*
X40730047Y-155921961D01*
X40730047Y-155921961D02*
X40634809Y-156017200D01*
X40634809Y-156017200D02*
X40491952Y-156064819D01*
X40491952Y-156064819D02*
X40396714Y-156064819D01*
X41682428Y-155064819D02*
X41491952Y-155064819D01*
X41491952Y-155064819D02*
X41396714Y-155112438D01*
X41396714Y-155112438D02*
X41349095Y-155160057D01*
X41349095Y-155160057D02*
X41253857Y-155302914D01*
X41253857Y-155302914D02*
X41206238Y-155493390D01*
X41206238Y-155493390D02*
X41206238Y-155874342D01*
X41206238Y-155874342D02*
X41253857Y-155969580D01*
X41253857Y-155969580D02*
X41301476Y-156017200D01*
X41301476Y-156017200D02*
X41396714Y-156064819D01*
X41396714Y-156064819D02*
X41587190Y-156064819D01*
X41587190Y-156064819D02*
X41682428Y-156017200D01*
X41682428Y-156017200D02*
X41730047Y-155969580D01*
X41730047Y-155969580D02*
X41777666Y-155874342D01*
X41777666Y-155874342D02*
X41777666Y-155636247D01*
X41777666Y-155636247D02*
X41730047Y-155541009D01*
X41730047Y-155541009D02*
X41682428Y-155493390D01*
X41682428Y-155493390D02*
X41587190Y-155445771D01*
X41587190Y-155445771D02*
X41396714Y-155445771D01*
X41396714Y-155445771D02*
X41301476Y-155493390D01*
X41301476Y-155493390D02*
X41253857Y-155541009D01*
X41253857Y-155541009D02*
X41206238Y-155636247D01*
X58031142Y-131804580D02*
X57983523Y-131852200D01*
X57983523Y-131852200D02*
X57840666Y-131899819D01*
X57840666Y-131899819D02*
X57745428Y-131899819D01*
X57745428Y-131899819D02*
X57602571Y-131852200D01*
X57602571Y-131852200D02*
X57507333Y-131756961D01*
X57507333Y-131756961D02*
X57459714Y-131661723D01*
X57459714Y-131661723D02*
X57412095Y-131471247D01*
X57412095Y-131471247D02*
X57412095Y-131328390D01*
X57412095Y-131328390D02*
X57459714Y-131137914D01*
X57459714Y-131137914D02*
X57507333Y-131042676D01*
X57507333Y-131042676D02*
X57602571Y-130947438D01*
X57602571Y-130947438D02*
X57745428Y-130899819D01*
X57745428Y-130899819D02*
X57840666Y-130899819D01*
X57840666Y-130899819D02*
X57983523Y-130947438D01*
X57983523Y-130947438D02*
X58031142Y-130995057D01*
X58983523Y-131899819D02*
X58412095Y-131899819D01*
X58697809Y-131899819D02*
X58697809Y-130899819D01*
X58697809Y-130899819D02*
X58602571Y-131042676D01*
X58602571Y-131042676D02*
X58507333Y-131137914D01*
X58507333Y-131137914D02*
X58412095Y-131185533D01*
X59316857Y-130899819D02*
X59935904Y-130899819D01*
X59935904Y-130899819D02*
X59602571Y-131280771D01*
X59602571Y-131280771D02*
X59745428Y-131280771D01*
X59745428Y-131280771D02*
X59840666Y-131328390D01*
X59840666Y-131328390D02*
X59888285Y-131376009D01*
X59888285Y-131376009D02*
X59935904Y-131471247D01*
X59935904Y-131471247D02*
X59935904Y-131709342D01*
X59935904Y-131709342D02*
X59888285Y-131804580D01*
X59888285Y-131804580D02*
X59840666Y-131852200D01*
X59840666Y-131852200D02*
X59745428Y-131899819D01*
X59745428Y-131899819D02*
X59459714Y-131899819D01*
X59459714Y-131899819D02*
X59364476Y-131852200D01*
X59364476Y-131852200D02*
X59316857Y-131804580D01*
X50633333Y-118469580D02*
X50585714Y-118517200D01*
X50585714Y-118517200D02*
X50442857Y-118564819D01*
X50442857Y-118564819D02*
X50347619Y-118564819D01*
X50347619Y-118564819D02*
X50204762Y-118517200D01*
X50204762Y-118517200D02*
X50109524Y-118421961D01*
X50109524Y-118421961D02*
X50061905Y-118326723D01*
X50061905Y-118326723D02*
X50014286Y-118136247D01*
X50014286Y-118136247D02*
X50014286Y-117993390D01*
X50014286Y-117993390D02*
X50061905Y-117802914D01*
X50061905Y-117802914D02*
X50109524Y-117707676D01*
X50109524Y-117707676D02*
X50204762Y-117612438D01*
X50204762Y-117612438D02*
X50347619Y-117564819D01*
X50347619Y-117564819D02*
X50442857Y-117564819D01*
X50442857Y-117564819D02*
X50585714Y-117612438D01*
X50585714Y-117612438D02*
X50633333Y-117660057D01*
X51109524Y-118564819D02*
X51300000Y-118564819D01*
X51300000Y-118564819D02*
X51395238Y-118517200D01*
X51395238Y-118517200D02*
X51442857Y-118469580D01*
X51442857Y-118469580D02*
X51538095Y-118326723D01*
X51538095Y-118326723D02*
X51585714Y-118136247D01*
X51585714Y-118136247D02*
X51585714Y-117755295D01*
X51585714Y-117755295D02*
X51538095Y-117660057D01*
X51538095Y-117660057D02*
X51490476Y-117612438D01*
X51490476Y-117612438D02*
X51395238Y-117564819D01*
X51395238Y-117564819D02*
X51204762Y-117564819D01*
X51204762Y-117564819D02*
X51109524Y-117612438D01*
X51109524Y-117612438D02*
X51061905Y-117660057D01*
X51061905Y-117660057D02*
X51014286Y-117755295D01*
X51014286Y-117755295D02*
X51014286Y-117993390D01*
X51014286Y-117993390D02*
X51061905Y-118088628D01*
X51061905Y-118088628D02*
X51109524Y-118136247D01*
X51109524Y-118136247D02*
X51204762Y-118183866D01*
X51204762Y-118183866D02*
X51395238Y-118183866D01*
X51395238Y-118183866D02*
X51490476Y-118136247D01*
X51490476Y-118136247D02*
X51538095Y-118088628D01*
X51538095Y-118088628D02*
X51585714Y-117993390D01*
X108481905Y-132026819D02*
X108481905Y-131026819D01*
X108481905Y-131026819D02*
X108720000Y-131026819D01*
X108720000Y-131026819D02*
X108862857Y-131074438D01*
X108862857Y-131074438D02*
X108958095Y-131169676D01*
X108958095Y-131169676D02*
X109005714Y-131264914D01*
X109005714Y-131264914D02*
X109053333Y-131455390D01*
X109053333Y-131455390D02*
X109053333Y-131598247D01*
X109053333Y-131598247D02*
X109005714Y-131788723D01*
X109005714Y-131788723D02*
X108958095Y-131883961D01*
X108958095Y-131883961D02*
X108862857Y-131979200D01*
X108862857Y-131979200D02*
X108720000Y-132026819D01*
X108720000Y-132026819D02*
X108481905Y-132026819D01*
X109529524Y-132026819D02*
X109720000Y-132026819D01*
X109720000Y-132026819D02*
X109815238Y-131979200D01*
X109815238Y-131979200D02*
X109862857Y-131931580D01*
X109862857Y-131931580D02*
X109958095Y-131788723D01*
X109958095Y-131788723D02*
X110005714Y-131598247D01*
X110005714Y-131598247D02*
X110005714Y-131217295D01*
X110005714Y-131217295D02*
X109958095Y-131122057D01*
X109958095Y-131122057D02*
X109910476Y-131074438D01*
X109910476Y-131074438D02*
X109815238Y-131026819D01*
X109815238Y-131026819D02*
X109624762Y-131026819D01*
X109624762Y-131026819D02*
X109529524Y-131074438D01*
X109529524Y-131074438D02*
X109481905Y-131122057D01*
X109481905Y-131122057D02*
X109434286Y-131217295D01*
X109434286Y-131217295D02*
X109434286Y-131455390D01*
X109434286Y-131455390D02*
X109481905Y-131550628D01*
X109481905Y-131550628D02*
X109529524Y-131598247D01*
X109529524Y-131598247D02*
X109624762Y-131645866D01*
X109624762Y-131645866D02*
X109815238Y-131645866D01*
X109815238Y-131645866D02*
X109910476Y-131598247D01*
X109910476Y-131598247D02*
X109958095Y-131550628D01*
X109958095Y-131550628D02*
X110005714Y-131455390D01*
X112274819Y-140969904D02*
X111274819Y-140969904D01*
X112274819Y-140398476D02*
X111703390Y-140827047D01*
X111274819Y-140398476D02*
X111846247Y-140969904D01*
X59301142Y-149468819D02*
X58967809Y-148992628D01*
X58729714Y-149468819D02*
X58729714Y-148468819D01*
X58729714Y-148468819D02*
X59110666Y-148468819D01*
X59110666Y-148468819D02*
X59205904Y-148516438D01*
X59205904Y-148516438D02*
X59253523Y-148564057D01*
X59253523Y-148564057D02*
X59301142Y-148659295D01*
X59301142Y-148659295D02*
X59301142Y-148802152D01*
X59301142Y-148802152D02*
X59253523Y-148897390D01*
X59253523Y-148897390D02*
X59205904Y-148945009D01*
X59205904Y-148945009D02*
X59110666Y-148992628D01*
X59110666Y-148992628D02*
X58729714Y-148992628D01*
X60253523Y-149468819D02*
X59682095Y-149468819D01*
X59967809Y-149468819D02*
X59967809Y-148468819D01*
X59967809Y-148468819D02*
X59872571Y-148611676D01*
X59872571Y-148611676D02*
X59777333Y-148706914D01*
X59777333Y-148706914D02*
X59682095Y-148754533D01*
X60824952Y-148897390D02*
X60729714Y-148849771D01*
X60729714Y-148849771D02*
X60682095Y-148802152D01*
X60682095Y-148802152D02*
X60634476Y-148706914D01*
X60634476Y-148706914D02*
X60634476Y-148659295D01*
X60634476Y-148659295D02*
X60682095Y-148564057D01*
X60682095Y-148564057D02*
X60729714Y-148516438D01*
X60729714Y-148516438D02*
X60824952Y-148468819D01*
X60824952Y-148468819D02*
X61015428Y-148468819D01*
X61015428Y-148468819D02*
X61110666Y-148516438D01*
X61110666Y-148516438D02*
X61158285Y-148564057D01*
X61158285Y-148564057D02*
X61205904Y-148659295D01*
X61205904Y-148659295D02*
X61205904Y-148706914D01*
X61205904Y-148706914D02*
X61158285Y-148802152D01*
X61158285Y-148802152D02*
X61110666Y-148849771D01*
X61110666Y-148849771D02*
X61015428Y-148897390D01*
X61015428Y-148897390D02*
X60824952Y-148897390D01*
X60824952Y-148897390D02*
X60729714Y-148945009D01*
X60729714Y-148945009D02*
X60682095Y-148992628D01*
X60682095Y-148992628D02*
X60634476Y-149087866D01*
X60634476Y-149087866D02*
X60634476Y-149278342D01*
X60634476Y-149278342D02*
X60682095Y-149373580D01*
X60682095Y-149373580D02*
X60729714Y-149421200D01*
X60729714Y-149421200D02*
X60824952Y-149468819D01*
X60824952Y-149468819D02*
X61015428Y-149468819D01*
X61015428Y-149468819D02*
X61110666Y-149421200D01*
X61110666Y-149421200D02*
X61158285Y-149373580D01*
X61158285Y-149373580D02*
X61205904Y-149278342D01*
X61205904Y-149278342D02*
X61205904Y-149087866D01*
X61205904Y-149087866D02*
X61158285Y-148992628D01*
X61158285Y-148992628D02*
X61110666Y-148945009D01*
X61110666Y-148945009D02*
X61015428Y-148897390D01*
X100957142Y-154283580D02*
X100909523Y-154331200D01*
X100909523Y-154331200D02*
X100766666Y-154378819D01*
X100766666Y-154378819D02*
X100671428Y-154378819D01*
X100671428Y-154378819D02*
X100528571Y-154331200D01*
X100528571Y-154331200D02*
X100433333Y-154235961D01*
X100433333Y-154235961D02*
X100385714Y-154140723D01*
X100385714Y-154140723D02*
X100338095Y-153950247D01*
X100338095Y-153950247D02*
X100338095Y-153807390D01*
X100338095Y-153807390D02*
X100385714Y-153616914D01*
X100385714Y-153616914D02*
X100433333Y-153521676D01*
X100433333Y-153521676D02*
X100528571Y-153426438D01*
X100528571Y-153426438D02*
X100671428Y-153378819D01*
X100671428Y-153378819D02*
X100766666Y-153378819D01*
X100766666Y-153378819D02*
X100909523Y-153426438D01*
X100909523Y-153426438D02*
X100957142Y-153474057D01*
X101909523Y-154378819D02*
X101338095Y-154378819D01*
X101623809Y-154378819D02*
X101623809Y-153378819D01*
X101623809Y-153378819D02*
X101528571Y-153521676D01*
X101528571Y-153521676D02*
X101433333Y-153616914D01*
X101433333Y-153616914D02*
X101338095Y-153664533D01*
X102242857Y-153378819D02*
X102909523Y-153378819D01*
X102909523Y-153378819D02*
X102480952Y-154378819D01*
X59301142Y-146155580D02*
X59253523Y-146203200D01*
X59253523Y-146203200D02*
X59110666Y-146250819D01*
X59110666Y-146250819D02*
X59015428Y-146250819D01*
X59015428Y-146250819D02*
X58872571Y-146203200D01*
X58872571Y-146203200D02*
X58777333Y-146107961D01*
X58777333Y-146107961D02*
X58729714Y-146012723D01*
X58729714Y-146012723D02*
X58682095Y-145822247D01*
X58682095Y-145822247D02*
X58682095Y-145679390D01*
X58682095Y-145679390D02*
X58729714Y-145488914D01*
X58729714Y-145488914D02*
X58777333Y-145393676D01*
X58777333Y-145393676D02*
X58872571Y-145298438D01*
X58872571Y-145298438D02*
X59015428Y-145250819D01*
X59015428Y-145250819D02*
X59110666Y-145250819D01*
X59110666Y-145250819D02*
X59253523Y-145298438D01*
X59253523Y-145298438D02*
X59301142Y-145346057D01*
X60253523Y-146250819D02*
X59682095Y-146250819D01*
X59967809Y-146250819D02*
X59967809Y-145250819D01*
X59967809Y-145250819D02*
X59872571Y-145393676D01*
X59872571Y-145393676D02*
X59777333Y-145488914D01*
X59777333Y-145488914D02*
X59682095Y-145536533D01*
X61205904Y-146250819D02*
X60634476Y-146250819D01*
X60920190Y-146250819D02*
X60920190Y-145250819D01*
X60920190Y-145250819D02*
X60824952Y-145393676D01*
X60824952Y-145393676D02*
X60729714Y-145488914D01*
X60729714Y-145488914D02*
X60634476Y-145536533D01*
X72040761Y-150766057D02*
X71945523Y-150718438D01*
X71945523Y-150718438D02*
X71850285Y-150623200D01*
X71850285Y-150623200D02*
X71707428Y-150480342D01*
X71707428Y-150480342D02*
X71612190Y-150432723D01*
X71612190Y-150432723D02*
X71516952Y-150432723D01*
X71564571Y-150670819D02*
X71469333Y-150623200D01*
X71469333Y-150623200D02*
X71374095Y-150527961D01*
X71374095Y-150527961D02*
X71326476Y-150337485D01*
X71326476Y-150337485D02*
X71326476Y-150004152D01*
X71326476Y-150004152D02*
X71374095Y-149813676D01*
X71374095Y-149813676D02*
X71469333Y-149718438D01*
X71469333Y-149718438D02*
X71564571Y-149670819D01*
X71564571Y-149670819D02*
X71755047Y-149670819D01*
X71755047Y-149670819D02*
X71850285Y-149718438D01*
X71850285Y-149718438D02*
X71945523Y-149813676D01*
X71945523Y-149813676D02*
X71993142Y-150004152D01*
X71993142Y-150004152D02*
X71993142Y-150337485D01*
X71993142Y-150337485D02*
X71945523Y-150527961D01*
X71945523Y-150527961D02*
X71850285Y-150623200D01*
X71850285Y-150623200D02*
X71755047Y-150670819D01*
X71755047Y-150670819D02*
X71564571Y-150670819D01*
X72326476Y-149670819D02*
X72945523Y-149670819D01*
X72945523Y-149670819D02*
X72612190Y-150051771D01*
X72612190Y-150051771D02*
X72755047Y-150051771D01*
X72755047Y-150051771D02*
X72850285Y-150099390D01*
X72850285Y-150099390D02*
X72897904Y-150147009D01*
X72897904Y-150147009D02*
X72945523Y-150242247D01*
X72945523Y-150242247D02*
X72945523Y-150480342D01*
X72945523Y-150480342D02*
X72897904Y-150575580D01*
X72897904Y-150575580D02*
X72850285Y-150623200D01*
X72850285Y-150623200D02*
X72755047Y-150670819D01*
X72755047Y-150670819D02*
X72469333Y-150670819D01*
X72469333Y-150670819D02*
X72374095Y-150623200D01*
X72374095Y-150623200D02*
X72326476Y-150575580D01*
X50533333Y-121898580D02*
X50485714Y-121946200D01*
X50485714Y-121946200D02*
X50342857Y-121993819D01*
X50342857Y-121993819D02*
X50247619Y-121993819D01*
X50247619Y-121993819D02*
X50104762Y-121946200D01*
X50104762Y-121946200D02*
X50009524Y-121850961D01*
X50009524Y-121850961D02*
X49961905Y-121755723D01*
X49961905Y-121755723D02*
X49914286Y-121565247D01*
X49914286Y-121565247D02*
X49914286Y-121422390D01*
X49914286Y-121422390D02*
X49961905Y-121231914D01*
X49961905Y-121231914D02*
X50009524Y-121136676D01*
X50009524Y-121136676D02*
X50104762Y-121041438D01*
X50104762Y-121041438D02*
X50247619Y-120993819D01*
X50247619Y-120993819D02*
X50342857Y-120993819D01*
X50342857Y-120993819D02*
X50485714Y-121041438D01*
X50485714Y-121041438D02*
X50533333Y-121089057D01*
X51104762Y-121422390D02*
X51009524Y-121374771D01*
X51009524Y-121374771D02*
X50961905Y-121327152D01*
X50961905Y-121327152D02*
X50914286Y-121231914D01*
X50914286Y-121231914D02*
X50914286Y-121184295D01*
X50914286Y-121184295D02*
X50961905Y-121089057D01*
X50961905Y-121089057D02*
X51009524Y-121041438D01*
X51009524Y-121041438D02*
X51104762Y-120993819D01*
X51104762Y-120993819D02*
X51295238Y-120993819D01*
X51295238Y-120993819D02*
X51390476Y-121041438D01*
X51390476Y-121041438D02*
X51438095Y-121089057D01*
X51438095Y-121089057D02*
X51485714Y-121184295D01*
X51485714Y-121184295D02*
X51485714Y-121231914D01*
X51485714Y-121231914D02*
X51438095Y-121327152D01*
X51438095Y-121327152D02*
X51390476Y-121374771D01*
X51390476Y-121374771D02*
X51295238Y-121422390D01*
X51295238Y-121422390D02*
X51104762Y-121422390D01*
X51104762Y-121422390D02*
X51009524Y-121470009D01*
X51009524Y-121470009D02*
X50961905Y-121517628D01*
X50961905Y-121517628D02*
X50914286Y-121612866D01*
X50914286Y-121612866D02*
X50914286Y-121803342D01*
X50914286Y-121803342D02*
X50961905Y-121898580D01*
X50961905Y-121898580D02*
X51009524Y-121946200D01*
X51009524Y-121946200D02*
X51104762Y-121993819D01*
X51104762Y-121993819D02*
X51295238Y-121993819D01*
X51295238Y-121993819D02*
X51390476Y-121946200D01*
X51390476Y-121946200D02*
X51438095Y-121898580D01*
X51438095Y-121898580D02*
X51485714Y-121803342D01*
X51485714Y-121803342D02*
X51485714Y-121612866D01*
X51485714Y-121612866D02*
X51438095Y-121517628D01*
X51438095Y-121517628D02*
X51390476Y-121470009D01*
X51390476Y-121470009D02*
X51295238Y-121422390D01*
X62515809Y-112373628D02*
X62515809Y-112849819D01*
X62182476Y-111849819D02*
X62515809Y-112373628D01*
X62515809Y-112373628D02*
X62849142Y-111849819D01*
X63706285Y-112849819D02*
X63134857Y-112849819D01*
X63420571Y-112849819D02*
X63420571Y-111849819D01*
X63420571Y-111849819D02*
X63325333Y-111992676D01*
X63325333Y-111992676D02*
X63230095Y-112087914D01*
X63230095Y-112087914D02*
X63134857Y-112135533D01*
X129436905Y-65224819D02*
X129436905Y-64224819D01*
X129436905Y-64224819D02*
X129675000Y-64224819D01*
X129675000Y-64224819D02*
X129817857Y-64272438D01*
X129817857Y-64272438D02*
X129913095Y-64367676D01*
X129913095Y-64367676D02*
X129960714Y-64462914D01*
X129960714Y-64462914D02*
X130008333Y-64653390D01*
X130008333Y-64653390D02*
X130008333Y-64796247D01*
X130008333Y-64796247D02*
X129960714Y-64986723D01*
X129960714Y-64986723D02*
X129913095Y-65081961D01*
X129913095Y-65081961D02*
X129817857Y-65177200D01*
X129817857Y-65177200D02*
X129675000Y-65224819D01*
X129675000Y-65224819D02*
X129436905Y-65224819D01*
X130389286Y-64320057D02*
X130436905Y-64272438D01*
X130436905Y-64272438D02*
X130532143Y-64224819D01*
X130532143Y-64224819D02*
X130770238Y-64224819D01*
X130770238Y-64224819D02*
X130865476Y-64272438D01*
X130865476Y-64272438D02*
X130913095Y-64320057D01*
X130913095Y-64320057D02*
X130960714Y-64415295D01*
X130960714Y-64415295D02*
X130960714Y-64510533D01*
X130960714Y-64510533D02*
X130913095Y-64653390D01*
X130913095Y-64653390D02*
X130341667Y-65224819D01*
X130341667Y-65224819D02*
X130960714Y-65224819D01*
X81153095Y-72689819D02*
X81153095Y-73499342D01*
X81153095Y-73499342D02*
X81200714Y-73594580D01*
X81200714Y-73594580D02*
X81248333Y-73642200D01*
X81248333Y-73642200D02*
X81343571Y-73689819D01*
X81343571Y-73689819D02*
X81534047Y-73689819D01*
X81534047Y-73689819D02*
X81629285Y-73642200D01*
X81629285Y-73642200D02*
X81676904Y-73594580D01*
X81676904Y-73594580D02*
X81724523Y-73499342D01*
X81724523Y-73499342D02*
X81724523Y-72689819D01*
X82724523Y-73689819D02*
X82153095Y-73689819D01*
X82438809Y-73689819D02*
X82438809Y-72689819D01*
X82438809Y-72689819D02*
X82343571Y-72832676D01*
X82343571Y-72832676D02*
X82248333Y-72927914D01*
X82248333Y-72927914D02*
X82153095Y-72975533D01*
X60813333Y-68349580D02*
X60765714Y-68397200D01*
X60765714Y-68397200D02*
X60622857Y-68444819D01*
X60622857Y-68444819D02*
X60527619Y-68444819D01*
X60527619Y-68444819D02*
X60384762Y-68397200D01*
X60384762Y-68397200D02*
X60289524Y-68301961D01*
X60289524Y-68301961D02*
X60241905Y-68206723D01*
X60241905Y-68206723D02*
X60194286Y-68016247D01*
X60194286Y-68016247D02*
X60194286Y-67873390D01*
X60194286Y-67873390D02*
X60241905Y-67682914D01*
X60241905Y-67682914D02*
X60289524Y-67587676D01*
X60289524Y-67587676D02*
X60384762Y-67492438D01*
X60384762Y-67492438D02*
X60527619Y-67444819D01*
X60527619Y-67444819D02*
X60622857Y-67444819D01*
X60622857Y-67444819D02*
X60765714Y-67492438D01*
X60765714Y-67492438D02*
X60813333Y-67540057D01*
X61146667Y-67444819D02*
X61813333Y-67444819D01*
X61813333Y-67444819D02*
X61384762Y-68444819D01*
X131111666Y-72689819D02*
X131111666Y-73404104D01*
X131111666Y-73404104D02*
X131064047Y-73546961D01*
X131064047Y-73546961D02*
X130968809Y-73642200D01*
X130968809Y-73642200D02*
X130825952Y-73689819D01*
X130825952Y-73689819D02*
X130730714Y-73689819D01*
X131492619Y-72689819D02*
X132159285Y-72689819D01*
X132159285Y-72689819D02*
X131730714Y-73689819D01*
X128635476Y-77349819D02*
X129302142Y-77349819D01*
X129302142Y-77349819D02*
X128635476Y-78349819D01*
X128635476Y-78349819D02*
X129302142Y-78349819D01*
X129683095Y-78349819D02*
X129683095Y-77349819D01*
X130492618Y-77826009D02*
X130159285Y-77826009D01*
X130159285Y-78349819D02*
X130159285Y-77349819D01*
X130159285Y-77349819D02*
X130635475Y-77349819D01*
X130778333Y-78445057D02*
X131540237Y-78445057D01*
X131635476Y-77349819D02*
X131968809Y-78349819D01*
X131968809Y-78349819D02*
X132302142Y-77349819D01*
X133206904Y-78254580D02*
X133159285Y-78302200D01*
X133159285Y-78302200D02*
X133016428Y-78349819D01*
X133016428Y-78349819D02*
X132921190Y-78349819D01*
X132921190Y-78349819D02*
X132778333Y-78302200D01*
X132778333Y-78302200D02*
X132683095Y-78206961D01*
X132683095Y-78206961D02*
X132635476Y-78111723D01*
X132635476Y-78111723D02*
X132587857Y-77921247D01*
X132587857Y-77921247D02*
X132587857Y-77778390D01*
X132587857Y-77778390D02*
X132635476Y-77587914D01*
X132635476Y-77587914D02*
X132683095Y-77492676D01*
X132683095Y-77492676D02*
X132778333Y-77397438D01*
X132778333Y-77397438D02*
X132921190Y-77349819D01*
X132921190Y-77349819D02*
X133016428Y-77349819D01*
X133016428Y-77349819D02*
X133159285Y-77397438D01*
X133159285Y-77397438D02*
X133206904Y-77445057D01*
X134206904Y-78254580D02*
X134159285Y-78302200D01*
X134159285Y-78302200D02*
X134016428Y-78349819D01*
X134016428Y-78349819D02*
X133921190Y-78349819D01*
X133921190Y-78349819D02*
X133778333Y-78302200D01*
X133778333Y-78302200D02*
X133683095Y-78206961D01*
X133683095Y-78206961D02*
X133635476Y-78111723D01*
X133635476Y-78111723D02*
X133587857Y-77921247D01*
X133587857Y-77921247D02*
X133587857Y-77778390D01*
X133587857Y-77778390D02*
X133635476Y-77587914D01*
X133635476Y-77587914D02*
X133683095Y-77492676D01*
X133683095Y-77492676D02*
X133778333Y-77397438D01*
X133778333Y-77397438D02*
X133921190Y-77349819D01*
X133921190Y-77349819D02*
X134016428Y-77349819D01*
X134016428Y-77349819D02*
X134159285Y-77397438D01*
X134159285Y-77397438D02*
X134206904Y-77445057D01*
X43688095Y-69304819D02*
X43688095Y-70114342D01*
X43688095Y-70114342D02*
X43735714Y-70209580D01*
X43735714Y-70209580D02*
X43783333Y-70257200D01*
X43783333Y-70257200D02*
X43878571Y-70304819D01*
X43878571Y-70304819D02*
X44069047Y-70304819D01*
X44069047Y-70304819D02*
X44164285Y-70257200D01*
X44164285Y-70257200D02*
X44211904Y-70209580D01*
X44211904Y-70209580D02*
X44259523Y-70114342D01*
X44259523Y-70114342D02*
X44259523Y-69304819D01*
X44688095Y-69400057D02*
X44735714Y-69352438D01*
X44735714Y-69352438D02*
X44830952Y-69304819D01*
X44830952Y-69304819D02*
X45069047Y-69304819D01*
X45069047Y-69304819D02*
X45164285Y-69352438D01*
X45164285Y-69352438D02*
X45211904Y-69400057D01*
X45211904Y-69400057D02*
X45259523Y-69495295D01*
X45259523Y-69495295D02*
X45259523Y-69590533D01*
X45259523Y-69590533D02*
X45211904Y-69733390D01*
X45211904Y-69733390D02*
X44640476Y-70304819D01*
X44640476Y-70304819D02*
X45259523Y-70304819D01*
X54221142Y-120247580D02*
X54173523Y-120295200D01*
X54173523Y-120295200D02*
X54030666Y-120342819D01*
X54030666Y-120342819D02*
X53935428Y-120342819D01*
X53935428Y-120342819D02*
X53792571Y-120295200D01*
X53792571Y-120295200D02*
X53697333Y-120199961D01*
X53697333Y-120199961D02*
X53649714Y-120104723D01*
X53649714Y-120104723D02*
X53602095Y-119914247D01*
X53602095Y-119914247D02*
X53602095Y-119771390D01*
X53602095Y-119771390D02*
X53649714Y-119580914D01*
X53649714Y-119580914D02*
X53697333Y-119485676D01*
X53697333Y-119485676D02*
X53792571Y-119390438D01*
X53792571Y-119390438D02*
X53935428Y-119342819D01*
X53935428Y-119342819D02*
X54030666Y-119342819D01*
X54030666Y-119342819D02*
X54173523Y-119390438D01*
X54173523Y-119390438D02*
X54221142Y-119438057D01*
X55173523Y-120342819D02*
X54602095Y-120342819D01*
X54887809Y-120342819D02*
X54887809Y-119342819D01*
X54887809Y-119342819D02*
X54792571Y-119485676D01*
X54792571Y-119485676D02*
X54697333Y-119580914D01*
X54697333Y-119580914D02*
X54602095Y-119628533D01*
X56030666Y-119676152D02*
X56030666Y-120342819D01*
X55792571Y-119295200D02*
X55554476Y-120009485D01*
X55554476Y-120009485D02*
X56173523Y-120009485D01*
X64381142Y-121358819D02*
X64047809Y-120882628D01*
X63809714Y-121358819D02*
X63809714Y-120358819D01*
X63809714Y-120358819D02*
X64190666Y-120358819D01*
X64190666Y-120358819D02*
X64285904Y-120406438D01*
X64285904Y-120406438D02*
X64333523Y-120454057D01*
X64333523Y-120454057D02*
X64381142Y-120549295D01*
X64381142Y-120549295D02*
X64381142Y-120692152D01*
X64381142Y-120692152D02*
X64333523Y-120787390D01*
X64333523Y-120787390D02*
X64285904Y-120835009D01*
X64285904Y-120835009D02*
X64190666Y-120882628D01*
X64190666Y-120882628D02*
X63809714Y-120882628D01*
X65333523Y-121358819D02*
X64762095Y-121358819D01*
X65047809Y-121358819D02*
X65047809Y-120358819D01*
X65047809Y-120358819D02*
X64952571Y-120501676D01*
X64952571Y-120501676D02*
X64857333Y-120596914D01*
X64857333Y-120596914D02*
X64762095Y-120644533D01*
X65666857Y-120358819D02*
X66285904Y-120358819D01*
X66285904Y-120358819D02*
X65952571Y-120739771D01*
X65952571Y-120739771D02*
X66095428Y-120739771D01*
X66095428Y-120739771D02*
X66190666Y-120787390D01*
X66190666Y-120787390D02*
X66238285Y-120835009D01*
X66238285Y-120835009D02*
X66285904Y-120930247D01*
X66285904Y-120930247D02*
X66285904Y-121168342D01*
X66285904Y-121168342D02*
X66238285Y-121263580D01*
X66238285Y-121263580D02*
X66190666Y-121311200D01*
X66190666Y-121311200D02*
X66095428Y-121358819D01*
X66095428Y-121358819D02*
X65809714Y-121358819D01*
X65809714Y-121358819D02*
X65714476Y-121311200D01*
X65714476Y-121311200D02*
X65666857Y-121263580D01*
X121168095Y-125892819D02*
X121168095Y-126702342D01*
X121168095Y-126702342D02*
X121215714Y-126797580D01*
X121215714Y-126797580D02*
X121263333Y-126845200D01*
X121263333Y-126845200D02*
X121358571Y-126892819D01*
X121358571Y-126892819D02*
X121549047Y-126892819D01*
X121549047Y-126892819D02*
X121644285Y-126845200D01*
X121644285Y-126845200D02*
X121691904Y-126797580D01*
X121691904Y-126797580D02*
X121739523Y-126702342D01*
X121739523Y-126702342D02*
X121739523Y-125892819D01*
X122691904Y-125892819D02*
X122215714Y-125892819D01*
X122215714Y-125892819D02*
X122168095Y-126369009D01*
X122168095Y-126369009D02*
X122215714Y-126321390D01*
X122215714Y-126321390D02*
X122310952Y-126273771D01*
X122310952Y-126273771D02*
X122549047Y-126273771D01*
X122549047Y-126273771D02*
X122644285Y-126321390D01*
X122644285Y-126321390D02*
X122691904Y-126369009D01*
X122691904Y-126369009D02*
X122739523Y-126464247D01*
X122739523Y-126464247D02*
X122739523Y-126702342D01*
X122739523Y-126702342D02*
X122691904Y-126797580D01*
X122691904Y-126797580D02*
X122644285Y-126845200D01*
X122644285Y-126845200D02*
X122549047Y-126892819D01*
X122549047Y-126892819D02*
X122310952Y-126892819D01*
X122310952Y-126892819D02*
X122215714Y-126845200D01*
X122215714Y-126845200D02*
X122168095Y-126797580D01*
X42418095Y-99070438D02*
X42322857Y-99022819D01*
X42322857Y-99022819D02*
X42180000Y-99022819D01*
X42180000Y-99022819D02*
X42037143Y-99070438D01*
X42037143Y-99070438D02*
X41941905Y-99165676D01*
X41941905Y-99165676D02*
X41894286Y-99260914D01*
X41894286Y-99260914D02*
X41846667Y-99451390D01*
X41846667Y-99451390D02*
X41846667Y-99594247D01*
X41846667Y-99594247D02*
X41894286Y-99784723D01*
X41894286Y-99784723D02*
X41941905Y-99879961D01*
X41941905Y-99879961D02*
X42037143Y-99975200D01*
X42037143Y-99975200D02*
X42180000Y-100022819D01*
X42180000Y-100022819D02*
X42275238Y-100022819D01*
X42275238Y-100022819D02*
X42418095Y-99975200D01*
X42418095Y-99975200D02*
X42465714Y-99927580D01*
X42465714Y-99927580D02*
X42465714Y-99594247D01*
X42465714Y-99594247D02*
X42275238Y-99594247D01*
X42894286Y-100022819D02*
X42894286Y-99022819D01*
X42894286Y-99022819D02*
X43465714Y-100022819D01*
X43465714Y-100022819D02*
X43465714Y-99022819D01*
X43941905Y-100022819D02*
X43941905Y-99022819D01*
X43941905Y-99022819D02*
X44180000Y-99022819D01*
X44180000Y-99022819D02*
X44322857Y-99070438D01*
X44322857Y-99070438D02*
X44418095Y-99165676D01*
X44418095Y-99165676D02*
X44465714Y-99260914D01*
X44465714Y-99260914D02*
X44513333Y-99451390D01*
X44513333Y-99451390D02*
X44513333Y-99594247D01*
X44513333Y-99594247D02*
X44465714Y-99784723D01*
X44465714Y-99784723D02*
X44418095Y-99879961D01*
X44418095Y-99879961D02*
X44322857Y-99975200D01*
X44322857Y-99975200D02*
X44180000Y-100022819D01*
X44180000Y-100022819D02*
X43941905Y-100022819D01*
X94511905Y-119834819D02*
X94511905Y-118834819D01*
X94511905Y-118834819D02*
X94750000Y-118834819D01*
X94750000Y-118834819D02*
X94892857Y-118882438D01*
X94892857Y-118882438D02*
X94988095Y-118977676D01*
X94988095Y-118977676D02*
X95035714Y-119072914D01*
X95035714Y-119072914D02*
X95083333Y-119263390D01*
X95083333Y-119263390D02*
X95083333Y-119406247D01*
X95083333Y-119406247D02*
X95035714Y-119596723D01*
X95035714Y-119596723D02*
X94988095Y-119691961D01*
X94988095Y-119691961D02*
X94892857Y-119787200D01*
X94892857Y-119787200D02*
X94750000Y-119834819D01*
X94750000Y-119834819D02*
X94511905Y-119834819D01*
X95988095Y-118834819D02*
X95511905Y-118834819D01*
X95511905Y-118834819D02*
X95464286Y-119311009D01*
X95464286Y-119311009D02*
X95511905Y-119263390D01*
X95511905Y-119263390D02*
X95607143Y-119215771D01*
X95607143Y-119215771D02*
X95845238Y-119215771D01*
X95845238Y-119215771D02*
X95940476Y-119263390D01*
X95940476Y-119263390D02*
X95988095Y-119311009D01*
X95988095Y-119311009D02*
X96035714Y-119406247D01*
X96035714Y-119406247D02*
X96035714Y-119644342D01*
X96035714Y-119644342D02*
X95988095Y-119739580D01*
X95988095Y-119739580D02*
X95940476Y-119787200D01*
X95940476Y-119787200D02*
X95845238Y-119834819D01*
X95845238Y-119834819D02*
X95607143Y-119834819D01*
X95607143Y-119834819D02*
X95511905Y-119787200D01*
X95511905Y-119787200D02*
X95464286Y-119739580D01*
X105148095Y-121634819D02*
X105148095Y-120634819D01*
X105719523Y-121634819D02*
X105290952Y-121063390D01*
X105719523Y-120634819D02*
X105148095Y-121206247D01*
X48063333Y-66194580D02*
X48015714Y-66242200D01*
X48015714Y-66242200D02*
X47872857Y-66289819D01*
X47872857Y-66289819D02*
X47777619Y-66289819D01*
X47777619Y-66289819D02*
X47634762Y-66242200D01*
X47634762Y-66242200D02*
X47539524Y-66146961D01*
X47539524Y-66146961D02*
X47491905Y-66051723D01*
X47491905Y-66051723D02*
X47444286Y-65861247D01*
X47444286Y-65861247D02*
X47444286Y-65718390D01*
X47444286Y-65718390D02*
X47491905Y-65527914D01*
X47491905Y-65527914D02*
X47539524Y-65432676D01*
X47539524Y-65432676D02*
X47634762Y-65337438D01*
X47634762Y-65337438D02*
X47777619Y-65289819D01*
X47777619Y-65289819D02*
X47872857Y-65289819D01*
X47872857Y-65289819D02*
X48015714Y-65337438D01*
X48015714Y-65337438D02*
X48063333Y-65385057D01*
X48968095Y-65289819D02*
X48491905Y-65289819D01*
X48491905Y-65289819D02*
X48444286Y-65766009D01*
X48444286Y-65766009D02*
X48491905Y-65718390D01*
X48491905Y-65718390D02*
X48587143Y-65670771D01*
X48587143Y-65670771D02*
X48825238Y-65670771D01*
X48825238Y-65670771D02*
X48920476Y-65718390D01*
X48920476Y-65718390D02*
X48968095Y-65766009D01*
X48968095Y-65766009D02*
X49015714Y-65861247D01*
X49015714Y-65861247D02*
X49015714Y-66099342D01*
X49015714Y-66099342D02*
X48968095Y-66194580D01*
X48968095Y-66194580D02*
X48920476Y-66242200D01*
X48920476Y-66242200D02*
X48825238Y-66289819D01*
X48825238Y-66289819D02*
X48587143Y-66289819D01*
X48587143Y-66289819D02*
X48491905Y-66242200D01*
X48491905Y-66242200D02*
X48444286Y-66194580D01*
X124356905Y-65224819D02*
X124356905Y-64224819D01*
X124356905Y-64224819D02*
X124595000Y-64224819D01*
X124595000Y-64224819D02*
X124737857Y-64272438D01*
X124737857Y-64272438D02*
X124833095Y-64367676D01*
X124833095Y-64367676D02*
X124880714Y-64462914D01*
X124880714Y-64462914D02*
X124928333Y-64653390D01*
X124928333Y-64653390D02*
X124928333Y-64796247D01*
X124928333Y-64796247D02*
X124880714Y-64986723D01*
X124880714Y-64986723D02*
X124833095Y-65081961D01*
X124833095Y-65081961D02*
X124737857Y-65177200D01*
X124737857Y-65177200D02*
X124595000Y-65224819D01*
X124595000Y-65224819D02*
X124356905Y-65224819D01*
X125880714Y-65224819D02*
X125309286Y-65224819D01*
X125595000Y-65224819D02*
X125595000Y-64224819D01*
X125595000Y-64224819D02*
X125499762Y-64367676D01*
X125499762Y-64367676D02*
X125404524Y-64462914D01*
X125404524Y-64462914D02*
X125309286Y-64510533D01*
X55141905Y-66731819D02*
X55141905Y-65731819D01*
X55141905Y-65731819D02*
X55522857Y-65731819D01*
X55522857Y-65731819D02*
X55618095Y-65779438D01*
X55618095Y-65779438D02*
X55665714Y-65827057D01*
X55665714Y-65827057D02*
X55713333Y-65922295D01*
X55713333Y-65922295D02*
X55713333Y-66065152D01*
X55713333Y-66065152D02*
X55665714Y-66160390D01*
X55665714Y-66160390D02*
X55618095Y-66208009D01*
X55618095Y-66208009D02*
X55522857Y-66255628D01*
X55522857Y-66255628D02*
X55141905Y-66255628D01*
X56665714Y-66731819D02*
X56094286Y-66731819D01*
X56380000Y-66731819D02*
X56380000Y-65731819D01*
X56380000Y-65731819D02*
X56284762Y-65874676D01*
X56284762Y-65874676D02*
X56189524Y-65969914D01*
X56189524Y-65969914D02*
X56094286Y-66017533D01*
X132492761Y-117390057D02*
X132397523Y-117342438D01*
X132397523Y-117342438D02*
X132302285Y-117247200D01*
X132302285Y-117247200D02*
X132159428Y-117104342D01*
X132159428Y-117104342D02*
X132064190Y-117056723D01*
X132064190Y-117056723D02*
X131968952Y-117056723D01*
X132016571Y-117294819D02*
X131921333Y-117247200D01*
X131921333Y-117247200D02*
X131826095Y-117151961D01*
X131826095Y-117151961D02*
X131778476Y-116961485D01*
X131778476Y-116961485D02*
X131778476Y-116628152D01*
X131778476Y-116628152D02*
X131826095Y-116437676D01*
X131826095Y-116437676D02*
X131921333Y-116342438D01*
X131921333Y-116342438D02*
X132016571Y-116294819D01*
X132016571Y-116294819D02*
X132207047Y-116294819D01*
X132207047Y-116294819D02*
X132302285Y-116342438D01*
X132302285Y-116342438D02*
X132397523Y-116437676D01*
X132397523Y-116437676D02*
X132445142Y-116628152D01*
X132445142Y-116628152D02*
X132445142Y-116961485D01*
X132445142Y-116961485D02*
X132397523Y-117151961D01*
X132397523Y-117151961D02*
X132302285Y-117247200D01*
X132302285Y-117247200D02*
X132207047Y-117294819D01*
X132207047Y-117294819D02*
X132016571Y-117294819D01*
X132826095Y-116390057D02*
X132873714Y-116342438D01*
X132873714Y-116342438D02*
X132968952Y-116294819D01*
X132968952Y-116294819D02*
X133207047Y-116294819D01*
X133207047Y-116294819D02*
X133302285Y-116342438D01*
X133302285Y-116342438D02*
X133349904Y-116390057D01*
X133349904Y-116390057D02*
X133397523Y-116485295D01*
X133397523Y-116485295D02*
X133397523Y-116580533D01*
X133397523Y-116580533D02*
X133349904Y-116723390D01*
X133349904Y-116723390D02*
X132778476Y-117294819D01*
X132778476Y-117294819D02*
X133397523Y-117294819D01*
X134485142Y-133550819D02*
X134151809Y-133074628D01*
X133913714Y-133550819D02*
X133913714Y-132550819D01*
X133913714Y-132550819D02*
X134294666Y-132550819D01*
X134294666Y-132550819D02*
X134389904Y-132598438D01*
X134389904Y-132598438D02*
X134437523Y-132646057D01*
X134437523Y-132646057D02*
X134485142Y-132741295D01*
X134485142Y-132741295D02*
X134485142Y-132884152D01*
X134485142Y-132884152D02*
X134437523Y-132979390D01*
X134437523Y-132979390D02*
X134389904Y-133027009D01*
X134389904Y-133027009D02*
X134294666Y-133074628D01*
X134294666Y-133074628D02*
X133913714Y-133074628D01*
X135437523Y-133550819D02*
X134866095Y-133550819D01*
X135151809Y-133550819D02*
X135151809Y-132550819D01*
X135151809Y-132550819D02*
X135056571Y-132693676D01*
X135056571Y-132693676D02*
X134961333Y-132788914D01*
X134961333Y-132788914D02*
X134866095Y-132836533D01*
X136342285Y-132550819D02*
X135866095Y-132550819D01*
X135866095Y-132550819D02*
X135818476Y-133027009D01*
X135818476Y-133027009D02*
X135866095Y-132979390D01*
X135866095Y-132979390D02*
X135961333Y-132931771D01*
X135961333Y-132931771D02*
X136199428Y-132931771D01*
X136199428Y-132931771D02*
X136294666Y-132979390D01*
X136294666Y-132979390D02*
X136342285Y-133027009D01*
X136342285Y-133027009D02*
X136389904Y-133122247D01*
X136389904Y-133122247D02*
X136389904Y-133360342D01*
X136389904Y-133360342D02*
X136342285Y-133455580D01*
X136342285Y-133455580D02*
X136294666Y-133503200D01*
X136294666Y-133503200D02*
X136199428Y-133550819D01*
X136199428Y-133550819D02*
X135961333Y-133550819D01*
X135961333Y-133550819D02*
X135866095Y-133503200D01*
X135866095Y-133503200D02*
X135818476Y-133455580D01*
X87304952Y-156125104D02*
X87781142Y-156125104D01*
X87209714Y-156410819D02*
X87543047Y-155410819D01*
X87543047Y-155410819D02*
X87876380Y-156410819D01*
X88209714Y-156410819D02*
X88209714Y-155410819D01*
X88209714Y-155410819D02*
X88543047Y-156125104D01*
X88543047Y-156125104D02*
X88876380Y-155410819D01*
X88876380Y-155410819D02*
X88876380Y-156410819D01*
X89352571Y-156410819D02*
X89352571Y-155410819D01*
X89352571Y-155410819D02*
X89733523Y-155410819D01*
X89733523Y-155410819D02*
X89828761Y-155458438D01*
X89828761Y-155458438D02*
X89876380Y-155506057D01*
X89876380Y-155506057D02*
X89923999Y-155601295D01*
X89923999Y-155601295D02*
X89923999Y-155744152D01*
X89923999Y-155744152D02*
X89876380Y-155839390D01*
X89876380Y-155839390D02*
X89828761Y-155887009D01*
X89828761Y-155887009D02*
X89733523Y-155934628D01*
X89733523Y-155934628D02*
X89352571Y-155934628D01*
X90114476Y-156506057D02*
X90876380Y-156506057D01*
X90971619Y-155410819D02*
X91304952Y-156410819D01*
X91304952Y-156410819D02*
X91638285Y-155410819D01*
X92543047Y-156315580D02*
X92495428Y-156363200D01*
X92495428Y-156363200D02*
X92352571Y-156410819D01*
X92352571Y-156410819D02*
X92257333Y-156410819D01*
X92257333Y-156410819D02*
X92114476Y-156363200D01*
X92114476Y-156363200D02*
X92019238Y-156267961D01*
X92019238Y-156267961D02*
X91971619Y-156172723D01*
X91971619Y-156172723D02*
X91924000Y-155982247D01*
X91924000Y-155982247D02*
X91924000Y-155839390D01*
X91924000Y-155839390D02*
X91971619Y-155648914D01*
X91971619Y-155648914D02*
X92019238Y-155553676D01*
X92019238Y-155553676D02*
X92114476Y-155458438D01*
X92114476Y-155458438D02*
X92257333Y-155410819D01*
X92257333Y-155410819D02*
X92352571Y-155410819D01*
X92352571Y-155410819D02*
X92495428Y-155458438D01*
X92495428Y-155458438D02*
X92543047Y-155506057D01*
X93543047Y-156315580D02*
X93495428Y-156363200D01*
X93495428Y-156363200D02*
X93352571Y-156410819D01*
X93352571Y-156410819D02*
X93257333Y-156410819D01*
X93257333Y-156410819D02*
X93114476Y-156363200D01*
X93114476Y-156363200D02*
X93019238Y-156267961D01*
X93019238Y-156267961D02*
X92971619Y-156172723D01*
X92971619Y-156172723D02*
X92924000Y-155982247D01*
X92924000Y-155982247D02*
X92924000Y-155839390D01*
X92924000Y-155839390D02*
X92971619Y-155648914D01*
X92971619Y-155648914D02*
X93019238Y-155553676D01*
X93019238Y-155553676D02*
X93114476Y-155458438D01*
X93114476Y-155458438D02*
X93257333Y-155410819D01*
X93257333Y-155410819D02*
X93352571Y-155410819D01*
X93352571Y-155410819D02*
X93495428Y-155458438D01*
X93495428Y-155458438D02*
X93543047Y-155506057D01*
X134516905Y-65224819D02*
X134516905Y-64224819D01*
X134516905Y-64224819D02*
X134755000Y-64224819D01*
X134755000Y-64224819D02*
X134897857Y-64272438D01*
X134897857Y-64272438D02*
X134993095Y-64367676D01*
X134993095Y-64367676D02*
X135040714Y-64462914D01*
X135040714Y-64462914D02*
X135088333Y-64653390D01*
X135088333Y-64653390D02*
X135088333Y-64796247D01*
X135088333Y-64796247D02*
X135040714Y-64986723D01*
X135040714Y-64986723D02*
X134993095Y-65081961D01*
X134993095Y-65081961D02*
X134897857Y-65177200D01*
X134897857Y-65177200D02*
X134755000Y-65224819D01*
X134755000Y-65224819D02*
X134516905Y-65224819D01*
X135421667Y-64224819D02*
X136040714Y-64224819D01*
X136040714Y-64224819D02*
X135707381Y-64605771D01*
X135707381Y-64605771D02*
X135850238Y-64605771D01*
X135850238Y-64605771D02*
X135945476Y-64653390D01*
X135945476Y-64653390D02*
X135993095Y-64701009D01*
X135993095Y-64701009D02*
X136040714Y-64796247D01*
X136040714Y-64796247D02*
X136040714Y-65034342D01*
X136040714Y-65034342D02*
X135993095Y-65129580D01*
X135993095Y-65129580D02*
X135945476Y-65177200D01*
X135945476Y-65177200D02*
X135850238Y-65224819D01*
X135850238Y-65224819D02*
X135564524Y-65224819D01*
X135564524Y-65224819D02*
X135469286Y-65177200D01*
X135469286Y-65177200D02*
X135421667Y-65129580D01*
D11*
X66191000Y-127508000D02*
X66961000Y-127508000D01*
X66961000Y-126138000D02*
X66961000Y-128878000D01*
X66961000Y-128878000D02*
X73501000Y-128878000D01*
X73501000Y-126138000D02*
X66961000Y-126138000D01*
X73501000Y-128878000D02*
X73501000Y-126138000D01*
X74271000Y-127508000D02*
X73501000Y-127508000D01*
X41980000Y-92272000D02*
X44380000Y-92272000D01*
X41980000Y-94672000D02*
X41980000Y-92272000D01*
X44380000Y-92272000D02*
X44380000Y-94672000D01*
X44380000Y-94672000D02*
X41980000Y-94672000D01*
X98830000Y-116205000D02*
X99480000Y-116205000D01*
X99480000Y-115085000D02*
X99480000Y-117325000D01*
X99480000Y-117325000D02*
X103720000Y-117325000D01*
X102880000Y-117325000D02*
X102880000Y-115085000D01*
X103000000Y-117325000D02*
X103000000Y-115085000D01*
X103120000Y-117325000D02*
X103120000Y-115085000D01*
X103720000Y-115085000D02*
X99480000Y-115085000D01*
X103720000Y-117325000D02*
X103720000Y-115085000D01*
X104370000Y-116205000D02*
X103720000Y-116205000D01*
X93726000Y-138348000D02*
X93726000Y-138808000D01*
X96446000Y-135628000D02*
G75*
G02*
X91006000Y-135628000I-2720000J0D01*
G01*
X91006000Y-135628000D02*
G75*
G02*
X96446000Y-135628000I2720000J0D01*
G01*
X64466000Y-137558000D02*
X64466000Y-147958000D01*
X64466000Y-147958000D02*
X74746000Y-147958000D01*
X66956000Y-137618000D02*
X66956000Y-147898000D01*
X66956000Y-147898000D02*
X72256000Y-147898000D01*
X68606000Y-137618000D02*
X66956000Y-137618000D01*
X72256000Y-137618000D02*
X70606000Y-137618000D01*
X72256000Y-147898000D02*
X72256000Y-137618000D01*
X74746000Y-137558000D02*
X64466000Y-137558000D01*
X74746000Y-147958000D02*
X74746000Y-137558000D01*
X70606000Y-137618000D02*
G75*
G02*
X68606000Y-137618000I-1000000J0D01*
G01*
X64540000Y-64770000D02*
X65310000Y-64770000D01*
X65310000Y-63400000D02*
X65310000Y-66140000D01*
X65310000Y-66140000D02*
X71850000Y-66140000D01*
X71850000Y-63400000D02*
X65310000Y-63400000D01*
X71850000Y-66140000D02*
X71850000Y-63400000D01*
X72620000Y-64770000D02*
X71850000Y-64770000D01*
X85912500Y-143248000D02*
X86362500Y-143248000D01*
X86137500Y-143473000D02*
X86137500Y-143023000D01*
X86520500Y-138054000D02*
X89760500Y-138054000D01*
X86520500Y-142894000D02*
X86520500Y-138054000D01*
X86520500Y-142894000D02*
X89760500Y-142894000D01*
X89760500Y-142894000D02*
X89760500Y-138054000D01*
X57090000Y-117602000D02*
X57090000Y-117542000D01*
X59750000Y-117542000D02*
X57090000Y-117542000D01*
X59750000Y-117602000D02*
X57090000Y-117602000D01*
X59750000Y-117602000D02*
X59750000Y-117542000D01*
X59750000Y-118872000D02*
X59750000Y-120202000D01*
X59750000Y-120202000D02*
X58420000Y-120202000D01*
X98830000Y-122555000D02*
X99480000Y-122555000D01*
X99480000Y-121435000D02*
X99480000Y-123675000D01*
X99480000Y-123675000D02*
X103720000Y-123675000D01*
X102880000Y-123675000D02*
X102880000Y-121435000D01*
X103000000Y-123675000D02*
X103000000Y-121435000D01*
X103120000Y-123675000D02*
X103120000Y-121435000D01*
X103720000Y-121435000D02*
X99480000Y-121435000D01*
X103720000Y-123675000D02*
X103720000Y-121435000D01*
X104370000Y-122555000D02*
X103720000Y-122555000D01*
X56285000Y-95250000D02*
X57055000Y-95250000D01*
X57055000Y-93880000D02*
X57055000Y-96620000D01*
X57055000Y-96620000D02*
X63595000Y-96620000D01*
X63595000Y-93880000D02*
X57055000Y-93880000D01*
X63595000Y-96620000D02*
X63595000Y-93880000D01*
X64365000Y-95250000D02*
X63595000Y-95250000D01*
X74781000Y-134798000D02*
X78381000Y-134798000D01*
X74224600Y-131849193D02*
G75*
G02*
X76581000Y-130348000I2356400J-1098807D01*
G01*
X74781000Y-134798000D02*
G75*
G02*
X74256816Y-134070795I1800000J1850000D01*
G01*
X76581000Y-130348000D02*
G75*
G02*
X78937400Y-131849193I0J-2600000D01*
G01*
X78905184Y-134070795D02*
G75*
G02*
X78381000Y-134798000I-2324184J1122795D01*
G01*
X124271500Y-74355000D02*
X124271500Y-79195000D01*
X127511500Y-74355000D02*
X124271500Y-74355000D01*
X127511500Y-74355000D02*
X127511500Y-79195000D01*
X127511500Y-79195000D02*
X124271500Y-79195000D01*
X45765000Y-140335000D02*
X46225000Y-140335000D01*
X45765000Y-140335000D02*
G75*
G02*
X40325000Y-140335000I-2720000J0D01*
G01*
X40325000Y-140335000D02*
G75*
G02*
X45765000Y-140335000I2720000J0D01*
G01*
X99190000Y-76835000D02*
X99190000Y-74295000D01*
X100210000Y-64905000D02*
X100210000Y-66765000D01*
X100210000Y-71665000D02*
X100210000Y-110405000D01*
X100210000Y-110405000D02*
X123310000Y-110405000D01*
X102490000Y-64905000D02*
X102490000Y-67165000D01*
X123310000Y-64905000D02*
X100210000Y-64905000D01*
X123310000Y-110405000D02*
X123310000Y-64905000D01*
X101840000Y-69215000D02*
G75*
G02*
X100040000Y-69215000I-900000J0D01*
G01*
X100040000Y-69215000D02*
G75*
G02*
X101840000Y-69215000I900000J0D01*
G01*
X103490000Y-69215000D02*
G75*
G02*
X98390000Y-69215000I-2550000J0D01*
G01*
X98390000Y-69215000D02*
G75*
G02*
X103490000Y-69215000I2550000J0D01*
G01*
X126770000Y-71120000D02*
X127540000Y-71120000D01*
X127540000Y-69750000D02*
X127540000Y-72490000D01*
X127540000Y-72490000D02*
X134080000Y-72490000D01*
X134080000Y-69750000D02*
X127540000Y-69750000D01*
X134080000Y-72490000D02*
X134080000Y-69750000D01*
X134850000Y-71120000D02*
X134080000Y-71120000D01*
X110260000Y-123190000D02*
X111030000Y-123190000D01*
X111030000Y-121820000D02*
X111030000Y-124560000D01*
X111030000Y-124560000D02*
X117570000Y-124560000D01*
X117570000Y-121820000D02*
X111030000Y-121820000D01*
X117570000Y-124560000D02*
X117570000Y-121820000D01*
X118340000Y-123190000D02*
X117570000Y-123190000D01*
X41860000Y-123715000D02*
X41860000Y-134115000D01*
X41860000Y-134115000D02*
X52140000Y-134115000D01*
X44350000Y-123775000D02*
X44350000Y-134055000D01*
X44350000Y-134055000D02*
X49650000Y-134055000D01*
X46000000Y-123775000D02*
X44350000Y-123775000D01*
X49650000Y-123775000D02*
X48000000Y-123775000D01*
X49650000Y-134055000D02*
X49650000Y-123775000D01*
X52140000Y-123715000D02*
X41860000Y-123715000D01*
X52140000Y-134115000D02*
X52140000Y-123715000D01*
X48000000Y-123775000D02*
G75*
G02*
X46000000Y-123775000I-1000000J0D01*
G01*
X101052000Y-145157500D02*
X101052000Y-149798500D01*
X101052000Y-145157500D02*
X111292000Y-145157500D01*
X101052000Y-146667500D02*
X111292000Y-146667500D01*
X101052000Y-149798500D02*
X111292000Y-149798500D01*
X104322000Y-145157500D02*
X104322000Y-146667500D01*
X108023000Y-145157500D02*
X108023000Y-146667500D01*
X111292000Y-145157500D02*
X111292000Y-149798500D01*
X55657000Y-106165000D02*
X55657000Y-111005000D01*
X58897000Y-106165000D02*
X55657000Y-106165000D01*
X58897000Y-106165000D02*
X58897000Y-111005000D01*
X58897000Y-111005000D02*
X55657000Y-111005000D01*
X110895000Y-61595000D02*
X111665000Y-61595000D01*
X111665000Y-60225000D02*
X111665000Y-62965000D01*
X111665000Y-62965000D02*
X118205000Y-62965000D01*
X118205000Y-60225000D02*
X111665000Y-60225000D01*
X118205000Y-62965000D02*
X118205000Y-60225000D01*
X118975000Y-61595000D02*
X118205000Y-61595000D01*
X78237000Y-152402000D02*
X78237000Y-149162000D01*
X83077000Y-149162000D02*
X78237000Y-149162000D01*
X83077000Y-152402000D02*
X78237000Y-152402000D01*
X83077000Y-152402000D02*
X83077000Y-149162000D01*
X83431000Y-153010000D02*
X83431000Y-152560000D01*
X83656000Y-152785000D02*
X83206000Y-152785000D01*
X101660500Y-143248000D02*
X102110500Y-143248000D01*
X101885500Y-143473000D02*
X101885500Y-143023000D01*
X102268500Y-138054000D02*
X105508500Y-138054000D01*
X102268500Y-142894000D02*
X102268500Y-138054000D01*
X102268500Y-142894000D02*
X105508500Y-142894000D01*
X105508500Y-142894000D02*
X105508500Y-138054000D01*
X67196000Y-136748000D02*
X67196000Y-133508000D01*
X72036000Y-133508000D02*
X67196000Y-133508000D01*
X72036000Y-136748000D02*
X67196000Y-136748000D01*
X72036000Y-136748000D02*
X72036000Y-133508000D01*
X126770000Y-67310000D02*
X127540000Y-67310000D01*
X127540000Y-65940000D02*
X127540000Y-68680000D01*
X127540000Y-68680000D02*
X134080000Y-68680000D01*
X134080000Y-65940000D02*
X127540000Y-65940000D01*
X134080000Y-68680000D02*
X134080000Y-65940000D01*
X134850000Y-67310000D02*
X134080000Y-67310000D01*
X103448000Y-152216000D02*
X105848000Y-152216000D01*
X103448000Y-154616000D02*
X103448000Y-152216000D01*
X105848000Y-152216000D02*
X105848000Y-154616000D01*
X105848000Y-154616000D02*
X103448000Y-154616000D01*
X87319000Y-152216000D02*
X89719000Y-152216000D01*
X87319000Y-154616000D02*
X87319000Y-152216000D01*
X89719000Y-152216000D02*
X89719000Y-154616000D01*
X89719000Y-154616000D02*
X87319000Y-154616000D01*
X55904000Y-154940000D02*
X56674000Y-154940000D01*
X56674000Y-153570000D02*
X56674000Y-156310000D01*
X56674000Y-156310000D02*
X63214000Y-156310000D01*
X63214000Y-153570000D02*
X56674000Y-153570000D01*
X63214000Y-156310000D02*
X63214000Y-153570000D01*
X63984000Y-154940000D02*
X63214000Y-154940000D01*
X110260000Y-119380000D02*
X111030000Y-119380000D01*
X111030000Y-118010000D02*
X111030000Y-120750000D01*
X111030000Y-120750000D02*
X117570000Y-120750000D01*
X117570000Y-118010000D02*
X111030000Y-118010000D01*
X117570000Y-120750000D02*
X117570000Y-118010000D01*
X118340000Y-119380000D02*
X117570000Y-119380000D01*
X81942000Y-133128000D02*
X81942000Y-139668000D01*
X81942000Y-139668000D02*
X84682000Y-139668000D01*
X83312000Y-132358000D02*
X83312000Y-133128000D01*
X83312000Y-140438000D02*
X83312000Y-139668000D01*
X84682000Y-133128000D02*
X81942000Y-133128000D01*
X84682000Y-139668000D02*
X84682000Y-133128000D01*
X84796000Y-145157500D02*
X84796000Y-149798500D01*
X84796000Y-145157500D02*
X95036000Y-145157500D01*
X84796000Y-146667500D02*
X95036000Y-146667500D01*
X84796000Y-149798500D02*
X95036000Y-149798500D01*
X88066000Y-145157500D02*
X88066000Y-146667500D01*
X91767000Y-145157500D02*
X91767000Y-146667500D01*
X95036000Y-145157500D02*
X95036000Y-149798500D01*
X58744000Y-127324000D02*
X61144000Y-127324000D01*
X58744000Y-129724000D02*
X58744000Y-127324000D01*
X61144000Y-127324000D02*
X61144000Y-129724000D01*
X61144000Y-129724000D02*
X58744000Y-129724000D01*
X125122000Y-116110000D02*
X125122000Y-122650000D01*
X125122000Y-122650000D02*
X127862000Y-122650000D01*
X126492000Y-115340000D02*
X126492000Y-116110000D01*
X126492000Y-123420000D02*
X126492000Y-122650000D01*
X127862000Y-116110000D02*
X125122000Y-116110000D01*
X127862000Y-122650000D02*
X127862000Y-116110000D01*
X107682000Y-154746000D02*
X107682000Y-153416000D01*
X109012000Y-154746000D02*
X107682000Y-154746000D01*
X110282000Y-152086000D02*
X110342000Y-152086000D01*
X110282000Y-154746000D02*
X110282000Y-152086000D01*
X110282000Y-154746000D02*
X110342000Y-154746000D01*
X110342000Y-154746000D02*
X110342000Y-152086000D01*
X97690000Y-133382000D02*
X97690000Y-139922000D01*
X97690000Y-139922000D02*
X100430000Y-139922000D01*
X99060000Y-132612000D02*
X99060000Y-133382000D01*
X99060000Y-140692000D02*
X99060000Y-139922000D01*
X100430000Y-133382000D02*
X97690000Y-133382000D01*
X100430000Y-139922000D02*
X100430000Y-133382000D01*
X55657000Y-98615000D02*
X58897000Y-98615000D01*
X55657000Y-103455000D02*
X55657000Y-98615000D01*
X55657000Y-103455000D02*
X58897000Y-103455000D01*
X58897000Y-103455000D02*
X58897000Y-98615000D01*
X134055000Y-143580000D02*
X136455000Y-143580000D01*
X134055000Y-145980000D02*
X134055000Y-143580000D01*
X136455000Y-143580000D02*
X136455000Y-145980000D01*
X136455000Y-145980000D02*
X134055000Y-145980000D01*
X91725000Y-97275000D02*
X94965000Y-97275000D01*
X91725000Y-102115000D02*
X91725000Y-97275000D01*
X91725000Y-102115000D02*
X94965000Y-102115000D01*
X94965000Y-102115000D02*
X94965000Y-97275000D01*
X54260000Y-76380000D02*
X57500000Y-76380000D01*
X54260000Y-81220000D02*
X54260000Y-76380000D01*
X54260000Y-81220000D02*
X57500000Y-81220000D01*
X57500000Y-81220000D02*
X57500000Y-76380000D01*
X78610000Y-60210000D02*
X94110000Y-60210000D01*
X78610000Y-69330000D02*
X78610000Y-60210000D01*
X79910000Y-61520000D02*
X92810000Y-61520000D01*
X79910000Y-68020000D02*
X79910000Y-61520000D01*
X83320000Y-70720000D02*
X84320000Y-70720000D01*
X83820000Y-69720000D02*
X83320000Y-70720000D01*
X84310000Y-68020000D02*
X79910000Y-68020000D01*
X84310000Y-69330000D02*
X84310000Y-68020000D01*
X84320000Y-70720000D02*
X83820000Y-69720000D01*
X88410000Y-68020000D02*
X88410000Y-68020000D01*
X88410000Y-68020000D02*
X88410000Y-69330000D01*
X92810000Y-61520000D02*
X92810000Y-68020000D01*
X92810000Y-68020000D02*
X88410000Y-68020000D01*
X94110000Y-60210000D02*
X94110000Y-69330000D01*
X94110000Y-69330000D02*
X78610000Y-69330000D01*
X41810000Y-104045000D02*
X41810000Y-110585000D01*
X41810000Y-110585000D02*
X44550000Y-110585000D01*
X43180000Y-103275000D02*
X43180000Y-104045000D01*
X43180000Y-111355000D02*
X43180000Y-110585000D01*
X44550000Y-104045000D02*
X41810000Y-104045000D01*
X44550000Y-110585000D02*
X44550000Y-104045000D01*
X110260000Y-115570000D02*
X111030000Y-115570000D01*
X111030000Y-114200000D02*
X111030000Y-116940000D01*
X111030000Y-116940000D02*
X117570000Y-116940000D01*
X117570000Y-114200000D02*
X111030000Y-114200000D01*
X117570000Y-116940000D02*
X117570000Y-114200000D01*
X118340000Y-115570000D02*
X117570000Y-115570000D01*
X64540000Y-60960000D02*
X65310000Y-60960000D01*
X65310000Y-59590000D02*
X65310000Y-62330000D01*
X65310000Y-62330000D02*
X71850000Y-62330000D01*
X71850000Y-59590000D02*
X65310000Y-59590000D01*
X71850000Y-62330000D02*
X71850000Y-59590000D01*
X72620000Y-60960000D02*
X71850000Y-60960000D01*
X68865000Y-97275000D02*
X68865000Y-102115000D01*
X72105000Y-97275000D02*
X68865000Y-97275000D01*
X72105000Y-97275000D02*
X72105000Y-102115000D01*
X72105000Y-102115000D02*
X68865000Y-102115000D01*
X133925000Y-147895000D02*
X135255000Y-147895000D01*
X133925000Y-149225000D02*
X133925000Y-147895000D01*
X133925000Y-150495000D02*
X133925000Y-150555000D01*
X133925000Y-150495000D02*
X136585000Y-150495000D01*
X133925000Y-150555000D02*
X136585000Y-150555000D01*
X136585000Y-150495000D02*
X136585000Y-150555000D01*
X53534000Y-135322000D02*
X54864000Y-135322000D01*
X53534000Y-136652000D02*
X53534000Y-135322000D01*
X53534000Y-137922000D02*
X53534000Y-137982000D01*
X53534000Y-137922000D02*
X56194000Y-137922000D01*
X53534000Y-137982000D02*
X56194000Y-137982000D01*
X56194000Y-137922000D02*
X56194000Y-137982000D01*
X56190000Y-88150000D02*
X56190000Y-89650000D01*
X57440000Y-92150000D02*
X61940000Y-92150000D01*
X61940000Y-85650000D02*
X57440000Y-85650000D01*
X63190000Y-89650000D02*
X63190000Y-88150000D01*
X35761000Y-145260000D02*
X50461000Y-145260000D01*
X35761000Y-154460000D02*
X35761000Y-145260000D01*
X44561000Y-154460000D02*
X35761000Y-154460000D01*
X49611000Y-145060000D02*
X50661000Y-145060000D01*
X50461000Y-145260000D02*
X50461000Y-147860000D01*
X50461000Y-151760000D02*
X50461000Y-154460000D01*
X50461000Y-154460000D02*
X48561000Y-154460000D01*
X50661000Y-146110000D02*
X50661000Y-145060000D01*
X53244000Y-129025000D02*
X53244000Y-133865000D01*
X56484000Y-129025000D02*
X53244000Y-129025000D01*
X56484000Y-129025000D02*
X56484000Y-133865000D01*
X56484000Y-133865000D02*
X53244000Y-133865000D01*
X43971000Y-115855500D02*
X44421000Y-115855500D01*
X44196000Y-115630500D02*
X44196000Y-116080500D01*
X44550000Y-116238500D02*
X44550000Y-119478500D01*
X44550000Y-116238500D02*
X49390000Y-116238500D01*
X44550000Y-119478500D02*
X49390000Y-119478500D01*
X49390000Y-116238500D02*
X49390000Y-119478500D01*
X109220000Y-138348000D02*
X109220000Y-138808000D01*
X111940000Y-135628000D02*
G75*
G02*
X106500000Y-135628000I-2720000J0D01*
G01*
X106500000Y-135628000D02*
G75*
G02*
X111940000Y-135628000I2720000J0D01*
G01*
X55904000Y-151384000D02*
X56674000Y-151384000D01*
X56674000Y-150014000D02*
X56674000Y-152754000D01*
X56674000Y-152754000D02*
X63214000Y-152754000D01*
X63214000Y-150014000D02*
X56674000Y-150014000D01*
X63214000Y-152754000D02*
X63214000Y-150014000D01*
X63984000Y-151384000D02*
X63214000Y-151384000D01*
X96167500Y-151400500D02*
X96167500Y-156240500D01*
X99407500Y-151400500D02*
X96167500Y-151400500D01*
X99407500Y-151400500D02*
X99407500Y-156240500D01*
X99407500Y-156240500D02*
X96167500Y-156240500D01*
X99790500Y-150821500D02*
X99790500Y-151271500D01*
X100015500Y-151046500D02*
X99565500Y-151046500D01*
X54332000Y-143563621D02*
X52150000Y-143563621D01*
X54332000Y-143603621D02*
X52154000Y-143603621D01*
X54332000Y-143643621D02*
X52157000Y-143643621D01*
X54332000Y-143683621D02*
X52161000Y-143683621D01*
X54332000Y-143723621D02*
X52166000Y-143723621D01*
X54332000Y-143763621D02*
X52171000Y-143763621D01*
X54332000Y-143803621D02*
X52177000Y-143803621D01*
X54332000Y-143843621D02*
X52183000Y-143843621D01*
X54332000Y-143883621D02*
X52190000Y-143883621D01*
X54332000Y-143923621D02*
X52197000Y-143923621D01*
X54332000Y-143963621D02*
X52205000Y-143963621D01*
X54332000Y-144003621D02*
X52213000Y-144003621D01*
X54332000Y-144044621D02*
X52222000Y-144044621D01*
X54332000Y-144084621D02*
X52231000Y-144084621D01*
X54332000Y-144124621D02*
X52241000Y-144124621D01*
X54332000Y-144164621D02*
X52251000Y-144164621D01*
X54332000Y-144204621D02*
X52262000Y-144204621D01*
X54332000Y-144244621D02*
X52274000Y-144244621D01*
X54332000Y-144284621D02*
X52286000Y-144284621D01*
X54332000Y-144324621D02*
X52298000Y-144324621D01*
X54332000Y-144364621D02*
X52311000Y-144364621D01*
X54332000Y-144404621D02*
X52325000Y-144404621D01*
X54332000Y-144444621D02*
X52339000Y-144444621D01*
X54332000Y-144484621D02*
X52354000Y-144484621D01*
X54332000Y-144524621D02*
X52370000Y-144524621D01*
X54332000Y-144564621D02*
X52386000Y-144564621D01*
X54332000Y-144604621D02*
X52402000Y-144604621D01*
X54332000Y-144644621D02*
X52420000Y-144644621D01*
X54332000Y-144684621D02*
X52438000Y-144684621D01*
X54332000Y-144724621D02*
X52456000Y-144724621D01*
X54332000Y-144764621D02*
X52476000Y-144764621D01*
X54332000Y-144804621D02*
X52496000Y-144804621D01*
X54332000Y-144844621D02*
X52516000Y-144844621D01*
X54332000Y-144884621D02*
X52538000Y-144884621D01*
X54332000Y-144924621D02*
X52560000Y-144924621D01*
X54332000Y-144964621D02*
X52582000Y-144964621D01*
X54332000Y-145004621D02*
X52606000Y-145004621D01*
X54332000Y-145044621D02*
X52630000Y-145044621D01*
X54332000Y-145084621D02*
X52656000Y-145084621D01*
X54332000Y-145124621D02*
X52682000Y-145124621D01*
X54332000Y-145164621D02*
X52708000Y-145164621D01*
X54332000Y-145204621D02*
X52736000Y-145204621D01*
X54332000Y-145244621D02*
X52765000Y-145244621D01*
X54332000Y-145284621D02*
X52794000Y-145284621D01*
X54332000Y-145324621D02*
X52824000Y-145324621D01*
X54332000Y-145364621D02*
X52856000Y-145364621D01*
X54332000Y-145404621D02*
X52888000Y-145404621D01*
X54332000Y-145444621D02*
X52922000Y-145444621D01*
X54332000Y-145484621D02*
X52956000Y-145484621D01*
X54332000Y-145524621D02*
X52992000Y-145524621D01*
X54332000Y-145564621D02*
X53029000Y-145564621D01*
X54332000Y-145604621D02*
X53067000Y-145604621D01*
X55774000Y-146564621D02*
X54970000Y-146564621D01*
X56005000Y-146524621D02*
X54739000Y-146524621D01*
X56174000Y-146484621D02*
X54570000Y-146484621D01*
X56312000Y-146444621D02*
X54432000Y-146444621D01*
X56431000Y-146404621D02*
X54313000Y-146404621D01*
X56537000Y-146364621D02*
X54207000Y-146364621D01*
X56634000Y-146324621D02*
X54110000Y-146324621D01*
X56722000Y-146284621D02*
X54022000Y-146284621D01*
X56804000Y-146244621D02*
X53940000Y-146244621D01*
X56881000Y-146204621D02*
X53863000Y-146204621D01*
X56953000Y-146164621D02*
X53791000Y-146164621D01*
X57022000Y-146124621D02*
X53722000Y-146124621D01*
X57086000Y-146084621D02*
X53658000Y-146084621D01*
X57148000Y-146044621D02*
X53596000Y-146044621D01*
X57206000Y-146004621D02*
X53538000Y-146004621D01*
X57211000Y-139823380D02*
X57211000Y-140453380D01*
X57262000Y-145964621D02*
X53482000Y-145964621D01*
X57316000Y-145924621D02*
X53428000Y-145924621D01*
X57367000Y-145884621D02*
X53377000Y-145884621D01*
X57416000Y-145844621D02*
X53328000Y-145844621D01*
X57464000Y-145804621D02*
X53280000Y-145804621D01*
X57509000Y-145764621D02*
X53235000Y-145764621D01*
X57526000Y-140138380D02*
X56896000Y-140138380D01*
X57554000Y-145724621D02*
X53190000Y-145724621D01*
X57596000Y-145684621D02*
X53148000Y-145684621D01*
X57637000Y-145644621D02*
X53107000Y-145644621D01*
X57677000Y-145604621D02*
X56412000Y-145604621D01*
X57715000Y-145564621D02*
X56412000Y-145564621D01*
X57752000Y-145524621D02*
X56412000Y-145524621D01*
X57788000Y-145484621D02*
X56412000Y-145484621D01*
X57822000Y-145444621D02*
X56412000Y-145444621D01*
X57856000Y-145404621D02*
X56412000Y-145404621D01*
X57888000Y-145364621D02*
X56412000Y-145364621D01*
X57920000Y-145324621D02*
X56412000Y-145324621D01*
X57950000Y-145284621D02*
X56412000Y-145284621D01*
X57979000Y-145244621D02*
X56412000Y-145244621D01*
X58008000Y-145204621D02*
X56412000Y-145204621D01*
X58036000Y-145164621D02*
X56412000Y-145164621D01*
X58062000Y-145124621D02*
X56412000Y-145124621D01*
X58088000Y-145084621D02*
X56412000Y-145084621D01*
X58114000Y-145044621D02*
X56412000Y-145044621D01*
X58138000Y-145004621D02*
X56412000Y-145004621D01*
X58162000Y-144964621D02*
X56412000Y-144964621D01*
X58184000Y-144924621D02*
X56412000Y-144924621D01*
X58206000Y-144884621D02*
X56412000Y-144884621D01*
X58228000Y-144844621D02*
X56412000Y-144844621D01*
X58248000Y-144804621D02*
X56412000Y-144804621D01*
X58268000Y-144764621D02*
X56412000Y-144764621D01*
X58288000Y-144724621D02*
X56412000Y-144724621D01*
X58306000Y-144684621D02*
X56412000Y-144684621D01*
X58324000Y-144644621D02*
X56412000Y-144644621D01*
X58342000Y-144604621D02*
X56412000Y-144604621D01*
X58358000Y-144564621D02*
X56412000Y-144564621D01*
X58374000Y-144524621D02*
X56412000Y-144524621D01*
X58390000Y-144484621D02*
X56412000Y-144484621D01*
X58405000Y-144444621D02*
X56412000Y-144444621D01*
X58419000Y-144404621D02*
X56412000Y-144404621D01*
X58433000Y-144364621D02*
X56412000Y-144364621D01*
X58446000Y-144324621D02*
X56412000Y-144324621D01*
X58458000Y-144284621D02*
X56412000Y-144284621D01*
X58470000Y-144244621D02*
X56412000Y-144244621D01*
X58482000Y-144204621D02*
X56412000Y-144204621D01*
X58493000Y-144164621D02*
X56412000Y-144164621D01*
X58503000Y-144124621D02*
X56412000Y-144124621D01*
X58513000Y-144084621D02*
X56412000Y-144084621D01*
X58522000Y-144044621D02*
X56412000Y-144044621D01*
X58531000Y-144003621D02*
X56412000Y-144003621D01*
X58539000Y-143963621D02*
X56412000Y-143963621D01*
X58547000Y-143923621D02*
X56412000Y-143923621D01*
X58554000Y-143883621D02*
X56412000Y-143883621D01*
X58561000Y-143843621D02*
X56412000Y-143843621D01*
X58567000Y-143803621D02*
X56412000Y-143803621D01*
X58573000Y-143763621D02*
X56412000Y-143763621D01*
X58578000Y-143723621D02*
X56412000Y-143723621D01*
X58583000Y-143683621D02*
X56412000Y-143683621D01*
X58587000Y-143643621D02*
X56412000Y-143643621D01*
X58590000Y-143603621D02*
X56412000Y-143603621D01*
X58594000Y-143563621D02*
X56412000Y-143563621D01*
X58596000Y-143523621D02*
X52148000Y-143523621D01*
X58599000Y-143483621D02*
X52145000Y-143483621D01*
X58600000Y-143443621D02*
X52144000Y-143443621D01*
X58602000Y-143323621D02*
X52142000Y-143323621D01*
X58602000Y-143363621D02*
X52142000Y-143363621D01*
X58602000Y-143403621D02*
X52142000Y-143403621D01*
X58642000Y-143323621D02*
G75*
G02*
X52102000Y-143323621I-3270000J0D01*
G01*
X52102000Y-143323621D02*
G75*
G02*
X58642000Y-143323621I3270000J0D01*
G01*
X70336000Y-155626000D02*
X73936000Y-155626000D01*
X69779600Y-152677193D02*
G75*
G02*
X72136000Y-151176000I2356400J-1098807D01*
G01*
X70336000Y-155626000D02*
G75*
G02*
X69811816Y-154898795I1800000J1850000D01*
G01*
X72136000Y-151176000D02*
G75*
G02*
X74492400Y-152677193I0J-2600000D01*
G01*
X74460184Y-154898795D02*
G75*
G02*
X73936000Y-155626000I-2324184J1122795D01*
G01*
X44530000Y-119919000D02*
X44530000Y-123159000D01*
X44530000Y-119919000D02*
X49370000Y-119919000D01*
X44530000Y-123159000D02*
X49370000Y-123159000D01*
X49370000Y-119919000D02*
X49370000Y-123159000D01*
X60340000Y-107910000D02*
X60340000Y-101660000D01*
X65390000Y-107910000D02*
X65390000Y-101660000D01*
X60340000Y-101660000D02*
G75*
G02*
X65390000Y-101660000I2525000J0D01*
G01*
X65390000Y-107910000D02*
G75*
G02*
X60340000Y-107910000I-2525000J0D01*
G01*
X128615000Y-60359000D02*
X128615000Y-60515000D01*
X128615000Y-62675000D02*
X128615000Y-62831000D01*
X128615000Y-60359484D02*
G75*
G02*
X131847335Y-60516392I1560000J-1235516D01*
G01*
X129134039Y-60515000D02*
G75*
G02*
X131216130Y-60515163I1040961J-1080000D01*
G01*
X131216130Y-62674837D02*
G75*
G02*
X129134039Y-62675000I-1041130J1079837D01*
G01*
X131847335Y-62673608D02*
G75*
G02*
X128615000Y-62830516I-1672335J1078608D01*
G01*
X72965000Y-74175000D02*
X72965000Y-125215000D01*
X72965000Y-125215000D02*
X90865000Y-125215000D01*
X75455000Y-74235000D02*
X75455000Y-125155000D01*
X75455000Y-125155000D02*
X88375000Y-125155000D01*
X80915000Y-74235000D02*
X75455000Y-74235000D01*
X88375000Y-74235000D02*
X82915000Y-74235000D01*
X88375000Y-125155000D02*
X88375000Y-74235000D01*
X90865000Y-74175000D02*
X72965000Y-74175000D01*
X90865000Y-125215000D02*
X90865000Y-74175000D01*
X82915000Y-74235000D02*
G75*
G02*
X80915000Y-74235000I-1000000J0D01*
G01*
X57479759Y-70551000D02*
X58109759Y-70551000D01*
X57794759Y-70236000D02*
X57794759Y-70866000D01*
X60980000Y-69160000D02*
X60980000Y-75620000D01*
X61020000Y-69160000D02*
X61020000Y-75620000D01*
X61060000Y-69160000D02*
X61060000Y-75620000D01*
X61100000Y-69162000D02*
X61100000Y-75618000D01*
X61140000Y-69163000D02*
X61140000Y-75617000D01*
X61180000Y-69166000D02*
X61180000Y-75614000D01*
X61220000Y-69168000D02*
X61220000Y-71350000D01*
X61220000Y-73430000D02*
X61220000Y-75612000D01*
X61260000Y-69172000D02*
X61260000Y-71350000D01*
X61260000Y-73430000D02*
X61260000Y-75608000D01*
X61300000Y-69175000D02*
X61300000Y-71350000D01*
X61300000Y-73430000D02*
X61300000Y-75605000D01*
X61340000Y-69179000D02*
X61340000Y-71350000D01*
X61340000Y-73430000D02*
X61340000Y-75601000D01*
X61380000Y-69184000D02*
X61380000Y-71350000D01*
X61380000Y-73430000D02*
X61380000Y-75596000D01*
X61420000Y-69189000D02*
X61420000Y-71350000D01*
X61420000Y-73430000D02*
X61420000Y-75591000D01*
X61460000Y-69195000D02*
X61460000Y-71350000D01*
X61460000Y-73430000D02*
X61460000Y-75585000D01*
X61500000Y-69201000D02*
X61500000Y-71350000D01*
X61500000Y-73430000D02*
X61500000Y-75579000D01*
X61540000Y-69208000D02*
X61540000Y-71350000D01*
X61540000Y-73430000D02*
X61540000Y-75572000D01*
X61580000Y-69215000D02*
X61580000Y-71350000D01*
X61580000Y-73430000D02*
X61580000Y-75565000D01*
X61620000Y-69223000D02*
X61620000Y-71350000D01*
X61620000Y-73430000D02*
X61620000Y-75557000D01*
X61660000Y-69231000D02*
X61660000Y-71350000D01*
X61660000Y-73430000D02*
X61660000Y-75549000D01*
X61701000Y-69240000D02*
X61701000Y-71350000D01*
X61701000Y-73430000D02*
X61701000Y-75540000D01*
X61741000Y-69249000D02*
X61741000Y-71350000D01*
X61741000Y-73430000D02*
X61741000Y-75531000D01*
X61781000Y-69259000D02*
X61781000Y-71350000D01*
X61781000Y-73430000D02*
X61781000Y-75521000D01*
X61821000Y-69269000D02*
X61821000Y-71350000D01*
X61821000Y-73430000D02*
X61821000Y-75511000D01*
X61861000Y-69280000D02*
X61861000Y-71350000D01*
X61861000Y-73430000D02*
X61861000Y-75500000D01*
X61901000Y-69292000D02*
X61901000Y-71350000D01*
X61901000Y-73430000D02*
X61901000Y-75488000D01*
X61941000Y-69304000D02*
X61941000Y-71350000D01*
X61941000Y-73430000D02*
X61941000Y-75476000D01*
X61981000Y-69316000D02*
X61981000Y-71350000D01*
X61981000Y-73430000D02*
X61981000Y-75464000D01*
X62021000Y-69329000D02*
X62021000Y-71350000D01*
X62021000Y-73430000D02*
X62021000Y-75451000D01*
X62061000Y-69343000D02*
X62061000Y-71350000D01*
X62061000Y-73430000D02*
X62061000Y-75437000D01*
X62101000Y-69357000D02*
X62101000Y-71350000D01*
X62101000Y-73430000D02*
X62101000Y-75423000D01*
X62141000Y-69372000D02*
X62141000Y-71350000D01*
X62141000Y-73430000D02*
X62141000Y-75408000D01*
X62181000Y-69388000D02*
X62181000Y-71350000D01*
X62181000Y-73430000D02*
X62181000Y-75392000D01*
X62221000Y-69404000D02*
X62221000Y-71350000D01*
X62221000Y-73430000D02*
X62221000Y-75376000D01*
X62261000Y-69420000D02*
X62261000Y-71350000D01*
X62261000Y-73430000D02*
X62261000Y-75360000D01*
X62301000Y-69438000D02*
X62301000Y-71350000D01*
X62301000Y-73430000D02*
X62301000Y-75342000D01*
X62341000Y-69456000D02*
X62341000Y-71350000D01*
X62341000Y-73430000D02*
X62341000Y-75324000D01*
X62381000Y-69474000D02*
X62381000Y-71350000D01*
X62381000Y-73430000D02*
X62381000Y-75306000D01*
X62421000Y-69494000D02*
X62421000Y-71350000D01*
X62421000Y-73430000D02*
X62421000Y-75286000D01*
X62461000Y-69514000D02*
X62461000Y-71350000D01*
X62461000Y-73430000D02*
X62461000Y-75266000D01*
X62501000Y-69534000D02*
X62501000Y-71350000D01*
X62501000Y-73430000D02*
X62501000Y-75246000D01*
X62541000Y-69556000D02*
X62541000Y-71350000D01*
X62541000Y-73430000D02*
X62541000Y-75224000D01*
X62581000Y-69578000D02*
X62581000Y-71350000D01*
X62581000Y-73430000D02*
X62581000Y-75202000D01*
X62621000Y-69600000D02*
X62621000Y-71350000D01*
X62621000Y-73430000D02*
X62621000Y-75180000D01*
X62661000Y-69624000D02*
X62661000Y-71350000D01*
X62661000Y-73430000D02*
X62661000Y-75156000D01*
X62701000Y-69648000D02*
X62701000Y-71350000D01*
X62701000Y-73430000D02*
X62701000Y-75132000D01*
X62741000Y-69674000D02*
X62741000Y-71350000D01*
X62741000Y-73430000D02*
X62741000Y-75106000D01*
X62781000Y-69700000D02*
X62781000Y-71350000D01*
X62781000Y-73430000D02*
X62781000Y-75080000D01*
X62821000Y-69726000D02*
X62821000Y-71350000D01*
X62821000Y-73430000D02*
X62821000Y-75054000D01*
X62861000Y-69754000D02*
X62861000Y-71350000D01*
X62861000Y-73430000D02*
X62861000Y-75026000D01*
X62901000Y-69783000D02*
X62901000Y-71350000D01*
X62901000Y-73430000D02*
X62901000Y-74997000D01*
X62941000Y-69812000D02*
X62941000Y-71350000D01*
X62941000Y-73430000D02*
X62941000Y-74968000D01*
X62981000Y-69842000D02*
X62981000Y-71350000D01*
X62981000Y-73430000D02*
X62981000Y-74938000D01*
X63021000Y-69874000D02*
X63021000Y-71350000D01*
X63021000Y-73430000D02*
X63021000Y-74906000D01*
X63061000Y-69906000D02*
X63061000Y-71350000D01*
X63061000Y-73430000D02*
X63061000Y-74874000D01*
X63101000Y-69940000D02*
X63101000Y-71350000D01*
X63101000Y-73430000D02*
X63101000Y-74840000D01*
X63141000Y-69974000D02*
X63141000Y-71350000D01*
X63141000Y-73430000D02*
X63141000Y-74806000D01*
X63181000Y-70010000D02*
X63181000Y-71350000D01*
X63181000Y-73430000D02*
X63181000Y-74770000D01*
X63221000Y-70047000D02*
X63221000Y-71350000D01*
X63221000Y-73430000D02*
X63221000Y-74733000D01*
X63261000Y-70085000D02*
X63261000Y-71350000D01*
X63261000Y-73430000D02*
X63261000Y-74695000D01*
X63301000Y-70125000D02*
X63301000Y-74655000D01*
X63341000Y-70166000D02*
X63341000Y-74614000D01*
X63381000Y-70208000D02*
X63381000Y-74572000D01*
X63421000Y-70253000D02*
X63421000Y-74527000D01*
X63461000Y-70298000D02*
X63461000Y-74482000D01*
X63501000Y-70346000D02*
X63501000Y-74434000D01*
X63541000Y-70395000D02*
X63541000Y-74385000D01*
X63581000Y-70446000D02*
X63581000Y-74334000D01*
X63621000Y-70500000D02*
X63621000Y-74280000D01*
X63661000Y-70556000D02*
X63661000Y-74224000D01*
X63701000Y-70614000D02*
X63701000Y-74166000D01*
X63741000Y-70676000D02*
X63741000Y-74104000D01*
X63781000Y-70740000D02*
X63781000Y-74040000D01*
X63821000Y-70809000D02*
X63821000Y-73971000D01*
X63861000Y-70881000D02*
X63861000Y-73899000D01*
X63901000Y-70958000D02*
X63901000Y-73822000D01*
X63941000Y-71040000D02*
X63941000Y-73740000D01*
X63981000Y-71128000D02*
X63981000Y-73652000D01*
X64021000Y-71225000D02*
X64021000Y-73555000D01*
X64061000Y-71331000D02*
X64061000Y-73449000D01*
X64101000Y-71450000D02*
X64101000Y-73330000D01*
X64141000Y-71588000D02*
X64141000Y-73192000D01*
X64181000Y-71757000D02*
X64181000Y-73023000D01*
X64221000Y-71988000D02*
X64221000Y-72792000D01*
X64250000Y-72390000D02*
G75*
G02*
X57710000Y-72390000I-3270000J0D01*
G01*
X57710000Y-72390000D02*
G75*
G02*
X64250000Y-72390000I3270000J0D01*
G01*
X130115000Y-74235000D02*
X131445000Y-74235000D01*
X130115000Y-75565000D02*
X130115000Y-74235000D01*
X130115000Y-76835000D02*
X130115000Y-76895000D01*
X130115000Y-76835000D02*
X132775000Y-76835000D01*
X130115000Y-76895000D02*
X132775000Y-76895000D01*
X132775000Y-76835000D02*
X132775000Y-76895000D01*
X43120000Y-71000000D02*
X43120000Y-89020000D01*
X43120000Y-89020000D02*
X53400000Y-89020000D01*
X45610000Y-71060000D02*
X45610000Y-88960000D01*
X45610000Y-88960000D02*
X50910000Y-88960000D01*
X47260000Y-71060000D02*
X45610000Y-71060000D01*
X50910000Y-71060000D02*
X49260000Y-71060000D01*
X50910000Y-88960000D02*
X50910000Y-71060000D01*
X53400000Y-71000000D02*
X43120000Y-71000000D01*
X53400000Y-89020000D02*
X53400000Y-71000000D01*
X49260000Y-71060000D02*
G75*
G02*
X47260000Y-71060000I-1000000J0D01*
G01*
X53244000Y-121385000D02*
X56484000Y-121385000D01*
X53244000Y-126225000D02*
X53244000Y-121385000D01*
X53244000Y-126225000D02*
X56484000Y-126225000D01*
X56484000Y-126225000D02*
X56484000Y-121385000D01*
X61492000Y-123444000D02*
X62262000Y-123444000D01*
X62262000Y-122074000D02*
X62262000Y-124814000D01*
X62262000Y-124814000D02*
X68802000Y-124814000D01*
X68802000Y-122074000D02*
X62262000Y-122074000D01*
X68802000Y-124814000D02*
X68802000Y-122074000D01*
X69572000Y-123444000D02*
X68802000Y-123444000D01*
X119280000Y-127438000D02*
X119280000Y-147878000D01*
X119280000Y-147878000D02*
X124580000Y-147878000D01*
X120930000Y-127438000D02*
X119280000Y-127438000D01*
X124580000Y-127438000D02*
X122930000Y-127438000D01*
X124580000Y-147878000D02*
X124580000Y-127438000D01*
X122930000Y-127438000D02*
G75*
G02*
X120930000Y-127438000I-1000000J0D01*
G01*
X57728000Y-132912000D02*
X60128000Y-132912000D01*
X57728000Y-135312000D02*
X57728000Y-132912000D01*
X60128000Y-132912000D02*
X60128000Y-135312000D01*
X60128000Y-135312000D02*
X57728000Y-135312000D01*
X41850000Y-98358000D02*
X41850000Y-97028000D01*
X43180000Y-98358000D02*
X41850000Y-98358000D01*
X44450000Y-95698000D02*
X44510000Y-95698000D01*
X44450000Y-98358000D02*
X44450000Y-95698000D01*
X44450000Y-98358000D02*
X44510000Y-98358000D01*
X44510000Y-98358000D02*
X44510000Y-95698000D01*
X98830000Y-119380000D02*
X99480000Y-119380000D01*
X99480000Y-118260000D02*
X99480000Y-120500000D01*
X99480000Y-120500000D02*
X103720000Y-120500000D01*
X102880000Y-120500000D02*
X102880000Y-118260000D01*
X103000000Y-120500000D02*
X103000000Y-118260000D01*
X103120000Y-120500000D02*
X103120000Y-118260000D01*
X103720000Y-118260000D02*
X99480000Y-118260000D01*
X103720000Y-120500000D02*
X103720000Y-118260000D01*
X104370000Y-119380000D02*
X103720000Y-119380000D01*
X45810000Y-66965000D02*
X45810000Y-70205000D01*
X45810000Y-66965000D02*
X50650000Y-66965000D01*
X45810000Y-70205000D02*
X50650000Y-70205000D01*
X50650000Y-66965000D02*
X50650000Y-70205000D01*
X123535000Y-60359000D02*
X123535000Y-60515000D01*
X123535000Y-62675000D02*
X123535000Y-62831000D01*
X123535000Y-60359484D02*
G75*
G02*
X126767335Y-60516392I1560000J-1235516D01*
G01*
X124054039Y-60515000D02*
G75*
G02*
X126136130Y-60515163I1040961J-1080000D01*
G01*
X126136130Y-62674837D02*
G75*
G02*
X124054039Y-62675000I-1041130J1079837D01*
G01*
X126767335Y-62673608D02*
G75*
G02*
X123535000Y-62830516I-1672335J1078608D01*
G01*
X51285000Y-58477000D02*
X51285000Y-55747000D01*
X51285000Y-62077000D02*
X51285000Y-61177000D01*
X60355000Y-65157000D02*
X51405000Y-65157000D01*
X60475000Y-55747000D02*
X51285000Y-55747000D01*
X60475000Y-58477000D02*
X60475000Y-55747000D01*
X60475000Y-62077000D02*
X60475000Y-61177000D01*
X130230000Y-120120000D02*
X130230000Y-123720000D01*
X130230000Y-120120000D02*
G75*
G02*
X130957205Y-119595816I1850000J-1800000D01*
G01*
X130957205Y-124244184D02*
G75*
G02*
X130230000Y-123720000I1122795J2324184D01*
G01*
X133178807Y-119563600D02*
G75*
G02*
X134680000Y-121920000I-1098807J-2356400D01*
G01*
X134680000Y-121920000D02*
G75*
G02*
X133178807Y-124276400I-2600000J0D01*
G01*
X130710000Y-129826000D02*
X130710000Y-136366000D01*
X130710000Y-136366000D02*
X133450000Y-136366000D01*
X132080000Y-129056000D02*
X132080000Y-129826000D01*
X132080000Y-137136000D02*
X132080000Y-136366000D01*
X133450000Y-129826000D02*
X130710000Y-129826000D01*
X133450000Y-136366000D02*
X133450000Y-129826000D01*
X91634000Y-154746000D02*
X91634000Y-153416000D01*
X92964000Y-154746000D02*
X91634000Y-154746000D01*
X94234000Y-152086000D02*
X94294000Y-152086000D01*
X94234000Y-154746000D02*
X94234000Y-152086000D01*
X94234000Y-154746000D02*
X94294000Y-154746000D01*
X94294000Y-154746000D02*
X94294000Y-152086000D01*
X133690000Y-60359000D02*
X133690000Y-60515000D01*
X133690000Y-62675000D02*
X133690000Y-62831000D01*
X133690000Y-60359484D02*
G75*
G02*
X136922335Y-60516392I1560000J-1235516D01*
G01*
X134209039Y-60515000D02*
G75*
G02*
X136291130Y-60515163I1040961J-1080000D01*
G01*
X136291130Y-62674837D02*
G75*
G02*
X134209039Y-62675000I-1041130J1079837D01*
G01*
X136922335Y-62673608D02*
G75*
G02*
X133690000Y-62830516I-1672335J1078608D01*
G01*
%LPC*%
D12*
X65151000Y-127508000D03*
D13*
X75311000Y-127508000D03*
D14*
X43180000Y-93472000D03*
D15*
X105410000Y-116205000D03*
D13*
X97790000Y-116205000D03*
D16*
X93726000Y-140708000D03*
D17*
X93726000Y-135628000D03*
D15*
X65796000Y-138948000D03*
D13*
X65796000Y-141488000D03*
X65796000Y-144028000D03*
X65796000Y-146568000D03*
X73416000Y-146568000D03*
X73416000Y-144028000D03*
X73416000Y-141488000D03*
X73416000Y-138948000D03*
D12*
X63500000Y-64770000D03*
D13*
X73660000Y-64770000D03*
D18*
X88140500Y-141724000D03*
X88140500Y-139224000D03*
D19*
X58420000Y-118872000D03*
D15*
X105410000Y-122555000D03*
D13*
X97790000Y-122555000D03*
D12*
X55245000Y-95250000D03*
D13*
X65405000Y-95250000D03*
D20*
X74041000Y-132948000D03*
D21*
X76581000Y-132948000D03*
X79121000Y-132948000D03*
D18*
X125891500Y-75525000D03*
X125891500Y-78025000D03*
D16*
X48125000Y-140335000D03*
D17*
X43045000Y-140335000D03*
D22*
X104140000Y-75565000D03*
D23*
X104140000Y-78105000D03*
X104140000Y-80645000D03*
X104140000Y-83185000D03*
X104140000Y-85725000D03*
X104140000Y-88265000D03*
X104140000Y-90805000D03*
X104140000Y-93345000D03*
X104140000Y-95885000D03*
X104140000Y-98425000D03*
X104140000Y-100965000D03*
X104140000Y-103505000D03*
X119380000Y-103505000D03*
X119380000Y-100965000D03*
X119380000Y-98425000D03*
X119380000Y-95885000D03*
X119380000Y-93345000D03*
X119380000Y-90805000D03*
X119380000Y-88265000D03*
X119380000Y-85725000D03*
X119380000Y-83185000D03*
X119380000Y-80645000D03*
X119380000Y-78105000D03*
X119380000Y-75565000D03*
D12*
X135890000Y-71120000D03*
D13*
X125730000Y-71120000D03*
D12*
X109220000Y-123190000D03*
D13*
X119380000Y-123190000D03*
D15*
X43190000Y-125105000D03*
D13*
X43190000Y-127645000D03*
X43190000Y-130185000D03*
X43190000Y-132725000D03*
X50810000Y-132725000D03*
X50810000Y-130185000D03*
X50810000Y-127645000D03*
X50810000Y-125105000D03*
D24*
X103632000Y-148427500D03*
D25*
X106172000Y-148427500D03*
X108712000Y-148427500D03*
D18*
X57277000Y-107335000D03*
X57277000Y-109835000D03*
D12*
X120015000Y-61595000D03*
D13*
X109855000Y-61595000D03*
D18*
X81907000Y-150782000D03*
X79407000Y-150782000D03*
X103888500Y-141724000D03*
X103888500Y-139224000D03*
X70866000Y-135128000D03*
X68366000Y-135128000D03*
D12*
X135890000Y-67310000D03*
D13*
X125730000Y-67310000D03*
D14*
X104648000Y-153416000D03*
X88519000Y-153416000D03*
D12*
X54864000Y-154940000D03*
D13*
X65024000Y-154940000D03*
D12*
X109220000Y-119380000D03*
D13*
X119380000Y-119380000D03*
D12*
X83312000Y-141478000D03*
D13*
X83312000Y-131318000D03*
D24*
X87376000Y-148427500D03*
D25*
X89916000Y-148427500D03*
X92456000Y-148427500D03*
D14*
X59944000Y-128524000D03*
D12*
X126492000Y-124460000D03*
D13*
X126492000Y-114300000D03*
D19*
X109012000Y-153416000D03*
D12*
X99060000Y-131572000D03*
D13*
X99060000Y-141732000D03*
D18*
X57277000Y-102285000D03*
X57277000Y-99785000D03*
D14*
X135255000Y-144780000D03*
D18*
X93345000Y-100945000D03*
X93345000Y-98445000D03*
X55880000Y-80050000D03*
X55880000Y-77550000D03*
D26*
X83820000Y-66040000D03*
D27*
X83820000Y-63500000D03*
X86360000Y-66040000D03*
X86360000Y-63500000D03*
X88900000Y-66040000D03*
X88900000Y-63500000D03*
D12*
X43180000Y-102235000D03*
D13*
X43180000Y-112395000D03*
D12*
X109220000Y-115570000D03*
D13*
X119380000Y-115570000D03*
D12*
X63500000Y-60960000D03*
D13*
X73660000Y-60960000D03*
D18*
X70485000Y-98445000D03*
X70485000Y-100945000D03*
D19*
X135255000Y-149225000D03*
X54864000Y-136652000D03*
D28*
X56440000Y-86650000D03*
X62940000Y-86650000D03*
X56440000Y-91150000D03*
X62940000Y-91150000D03*
D29*
X49561000Y-149860000D03*
D30*
X43561000Y-149860000D03*
D31*
X46561000Y-154560000D03*
D18*
X54864000Y-130195000D03*
X54864000Y-132695000D03*
X45720000Y-117858500D03*
X48220000Y-117858500D03*
D16*
X109220000Y-140708000D03*
D17*
X109220000Y-135628000D03*
D12*
X54864000Y-151384000D03*
D13*
X65024000Y-151384000D03*
D18*
X97787500Y-152570500D03*
X97787500Y-155070500D03*
D15*
X55372000Y-142073621D03*
D12*
X55372000Y-144573621D03*
D20*
X69596000Y-153776000D03*
D21*
X72136000Y-153776000D03*
X74676000Y-153776000D03*
D18*
X45700000Y-121539000D03*
X48200000Y-121539000D03*
D21*
X62865000Y-107225000D03*
X62865000Y-102345000D03*
D32*
X128905000Y-61595000D03*
D33*
X131445000Y-61595000D03*
D15*
X74295000Y-75565000D03*
D13*
X74295000Y-78105000D03*
X74295000Y-80645000D03*
X74295000Y-83185000D03*
X74295000Y-85725000D03*
X74295000Y-88265000D03*
X74295000Y-90805000D03*
X74295000Y-93345000D03*
X74295000Y-95885000D03*
X74295000Y-98425000D03*
X74295000Y-100965000D03*
X74295000Y-103505000D03*
X74295000Y-106045000D03*
X74295000Y-108585000D03*
X74295000Y-111125000D03*
X74295000Y-113665000D03*
X74295000Y-116205000D03*
X74295000Y-118745000D03*
X74295000Y-121285000D03*
X74295000Y-123825000D03*
X89535000Y-123825000D03*
X89535000Y-121285000D03*
X89535000Y-118745000D03*
X89535000Y-116205000D03*
X89535000Y-113665000D03*
X89535000Y-111125000D03*
X89535000Y-108585000D03*
X89535000Y-106045000D03*
X89535000Y-103505000D03*
X89535000Y-100965000D03*
X89535000Y-98425000D03*
X89535000Y-95885000D03*
X89535000Y-93345000D03*
X89535000Y-90805000D03*
X89535000Y-88265000D03*
X89535000Y-85725000D03*
X89535000Y-83185000D03*
X89535000Y-80645000D03*
X89535000Y-78105000D03*
X89535000Y-75565000D03*
D15*
X59730000Y-72390000D03*
D12*
X62230000Y-72390000D03*
D19*
X131445000Y-75565000D03*
D15*
X44450000Y-72390000D03*
D13*
X44450000Y-74930000D03*
X44450000Y-77470000D03*
X44450000Y-80010000D03*
X44450000Y-82550000D03*
X44450000Y-85090000D03*
X44450000Y-87630000D03*
X52070000Y-87630000D03*
X52070000Y-85090000D03*
X52070000Y-82550000D03*
X52070000Y-80010000D03*
X52070000Y-77470000D03*
X52070000Y-74930000D03*
X52070000Y-72390000D03*
D18*
X54864000Y-125055000D03*
X54864000Y-122555000D03*
D12*
X60452000Y-123444000D03*
D13*
X70612000Y-123444000D03*
D15*
X118120000Y-128768000D03*
D13*
X118120000Y-131308000D03*
X118120000Y-133848000D03*
X118120000Y-136388000D03*
X118120000Y-138928000D03*
X118120000Y-141468000D03*
X118120000Y-144008000D03*
X118120000Y-146548000D03*
X125740000Y-146548000D03*
X125740000Y-144008000D03*
X125740000Y-141468000D03*
X125740000Y-138928000D03*
X125740000Y-136388000D03*
X125740000Y-133848000D03*
X125740000Y-131308000D03*
X125740000Y-128768000D03*
D14*
X58928000Y-134112000D03*
D19*
X43180000Y-97028000D03*
D15*
X105410000Y-119380000D03*
D13*
X97790000Y-119380000D03*
D18*
X46980000Y-68585000D03*
X49480000Y-68585000D03*
D32*
X123825000Y-61595000D03*
D33*
X126365000Y-61595000D03*
D34*
X58855000Y-64477000D03*
X58005000Y-64477000D03*
X57155000Y-64477000D03*
X56305000Y-64477000D03*
X55455000Y-64477000D03*
X54605000Y-64477000D03*
X53755000Y-64477000D03*
X52905000Y-64477000D03*
X52905000Y-63127000D03*
X53755000Y-63127000D03*
X54605000Y-63127000D03*
X55455000Y-63127000D03*
X56305000Y-63127000D03*
X57155000Y-63127000D03*
X58005000Y-63127000D03*
X58855000Y-63127000D03*
D35*
X60205000Y-63497000D03*
D36*
X60205000Y-60117000D03*
D35*
X51555000Y-63497000D03*
D36*
X51555000Y-60117000D03*
D20*
X132080000Y-119380000D03*
D21*
X132080000Y-121920000D03*
X132080000Y-124460000D03*
D12*
X132080000Y-128016000D03*
D13*
X132080000Y-138176000D03*
D19*
X92964000Y-153416000D03*
D32*
X133980000Y-61595000D03*
D33*
X136520000Y-61595000D03*
%LPD*%
M02*
