M48
; DRILL file {KiCad 8.0.3} date 2024-07-22T04:40:06+0200
; FORMAT={-:-/ absolute / metric / decimal}
; #@! TF.CreationDate,2024-07-22T04:40:06+02:00
; #@! TF.GenerationSoftware,Kicad,Pcbnew,8.0.3
; #@! TF.FileFunction,Plated,1,2,PTH
FMAT,2
METRIC
; #@! TA.AperFunction,Plated,PTH,ViaDrill
T1C0.400
; #@! TA.AperFunction,Plated,PTH,ComponentDrill
T2C0.400
; #@! TA.AperFunction,Plated,PTH,ComponentDrill
T3C0.600
; #@! TA.AperFunction,Plated,PTH,ComponentDrill
T4C0.700
; #@! TA.AperFunction,Plated,PTH,ComponentDrill
T5C0.800
; #@! TA.AperFunction,Plated,PTH,ComponentDrill
T6C0.900
; #@! TA.AperFunction,Plated,PTH,ComponentDrill
T7C1.000
; #@! TA.AperFunction,Plated,PTH,ComponentDrill
T8C1.100
; #@! TA.AperFunction,Plated,PTH,ComponentDrill
T9C1.200
; #@! TA.AperFunction,Plated,PTH,ComponentDrill
T10C1.300
; #@! TA.AperFunction,Plated,PTH,ComponentDrill
T11C1.600
%
G90
G05
T1
X20.828Y-46.736
X22.352Y-134.525
X23.876Y-86.868
X25.908Y-67.056
X26.162Y-81.788
X27.432Y-109.22
X27.686Y-120.904
X28.702Y-152.654
X32.004Y-82.804
X32.004Y-85.852
X32.385Y-54.737
X34.036Y-82.804
X34.036Y-85.852
X35.814Y-60.452
X37.842Y-172.062
X38.1Y-42.164
X39.624Y-86.36
X42.428Y-59.177
X45.72Y-114.808
X47.498Y-162.465
X51.181Y-67.564
X52.324Y-48.26
X53.34Y-145.542
X54.224Y-85.852
X54.224Y-100.33
X54.356Y-140.113
X54.356Y-172.212
X58.542Y-67.056
X58.542Y-72.644
X58.796Y-75.184
X58.796Y-88.646
X58.796Y-103.124
X61.976Y-39.624
X63.876Y-91.567
X63.876Y-93.472
X63.876Y-125.127
X64.77Y-162.465
X64.892Y-91.567
X65.4Y-89.408
X66.162Y-81.28
X66.416Y-109.982
X69.972Y-73.66
X69.972Y-76.708
X70.358Y-174.498
X74.168Y-113.284
X75.692Y-60.452
X77.15Y-149.987
X82.55Y-118.872
X83.246Y-148.971
X89.662Y-164.592
X89.916Y-148.082
X91.694Y-166.624
X92.456Y-134.779
X92.456Y-171.45
X92.964Y-59.69
X94.996Y-96.52
X95.25Y-163.068
X97.536Y-144.685
X99.822Y-129.445
X100.838Y-122.682
X103.378Y-58.674
X104.14Y-153.439
X107.378Y-110.998
X108.204Y-133.255
X109.474Y-149.375
X109.728Y-90.17
X110.49Y-73.66
X110.49Y-76.708
X110.49Y-85.598
X111.252Y-164.084
X112.268Y-42.799
X113.284Y-120.396
X113.535Y-155.514
X117.094Y-54.102
X117.856Y-138.081
X118.618Y-66.802
X119.634Y-150.899
X119.825Y-81.026
X120.396Y-85.09
X120.904Y-75.184
X120.904Y-87.757
X120.904Y-90.17
X124.968Y-85.09
X125.984Y-95.504
X125.984Y-141.891
X127.508Y-133.763
X129.248Y-87.478
X132.08Y-150.876
X134.366Y-91.694
X136.906Y-142.145
X137.668Y-60.198
X138.43Y-110.236
X138.938Y-82.042
X138.938Y-119.634
X139.954Y-75.184
X143.002Y-96.52
X143.764Y-89.662
X146.05Y-133.604
X146.558Y-96.012
X148.844Y-80.264
X151.638Y-141.891
X153.416Y-115.824
X153.67Y-80.772
X153.67Y-148.082
T2
X48.333Y-42.857
X48.333Y-44.207
X49.183Y-42.857
X49.183Y-44.207
X50.033Y-42.857
X50.033Y-44.207
X50.883Y-42.857
X50.883Y-44.207
X51.733Y-42.857
X51.733Y-44.207
X52.583Y-42.857
X52.583Y-44.207
X53.433Y-42.857
X53.433Y-44.207
X54.283Y-42.857
X54.283Y-44.207
T4
X32.936Y-136.801
X32.956Y-133.12
X35.436Y-136.801
X35.456Y-133.12
X39.873Y-92.927
X39.873Y-95.427
X39.873Y-100.477
X39.873Y-102.977
X40.894Y-48.514
X42.1Y-137.817
X42.1Y-140.317
X42.1Y-145.457
X42.1Y-147.957
X43.394Y-48.514
X49.794Y-57.479
X49.794Y-59.979
X53.081Y-91.587
X53.081Y-94.087
X58.206Y-138.589
X60.706Y-138.589
X75.941Y-91.587
X75.941Y-94.087
X82.995Y-143.415
X82.995Y-145.915
X87.31Y-143.423
X87.31Y-145.923
X108.712Y-143.322
X108.712Y-145.822
X113.538Y-143.37
X113.538Y-145.87
X129.701Y-68.667
X129.701Y-71.167
X132.08Y-170.312
X132.08Y-172.812
X136.819Y-92.456
X139.319Y-92.456
T5
X25.908Y-46.736
X25.908Y-56.896
X26.67Y-124.619
X26.67Y-134.779
X29.21Y-72.136
X29.464Y-46.736
X29.464Y-56.896
X30.426Y-140.367
X30.426Y-142.907
X30.426Y-145.447
X30.426Y-147.987
X33.02Y-46.736
X33.02Y-56.896
X38.047Y-140.367
X38.047Y-142.907
X38.047Y-145.447
X38.047Y-147.987
X38.364Y-52.319
X38.364Y-54.859
X38.364Y-57.399
X38.364Y-59.939
X38.364Y-62.479
X38.364Y-65.019
X38.364Y-67.559
X39.37Y-72.136
X44.704Y-154.845
X44.704Y-158.401
X45.461Y-95.487
X45.461Y-100.367
X45.984Y-52.319
X45.984Y-54.859
X45.984Y-57.399
X45.984Y-59.939
X45.984Y-62.479
X45.984Y-65.019
X45.984Y-67.559
X50.292Y-126.905
X50.292Y-130.556
X54.864Y-154.845
X54.864Y-158.401
X55.636Y-142.409
X55.636Y-144.949
X55.636Y-147.489
X55.636Y-150.029
X56.891Y-68.707
X56.891Y-71.247
X56.891Y-73.787
X56.891Y-76.327
X56.891Y-78.867
X56.891Y-81.407
X56.891Y-83.947
X56.891Y-86.487
X56.891Y-89.027
X56.891Y-91.567
X56.891Y-94.107
X56.891Y-96.647
X56.891Y-99.187
X56.891Y-101.727
X56.891Y-104.267
X56.891Y-106.807
X56.891Y-109.347
X56.891Y-111.887
X56.891Y-114.427
X56.891Y-116.967
X58.42Y-43.688
X58.42Y-47.244
X60.452Y-126.905
X60.452Y-130.556
X61.616Y-156.972
X61.616Y-159.512
X61.616Y-162.052
X63.256Y-142.409
X63.256Y-144.949
X63.256Y-147.489
X63.256Y-150.029
X66.294Y-130.556
X66.294Y-133.096
X66.294Y-135.636
X68.58Y-43.688
X68.58Y-47.244
X72.131Y-68.707
X72.131Y-71.247
X72.131Y-73.787
X72.131Y-76.327
X72.131Y-78.867
X72.131Y-81.407
X72.131Y-83.947
X72.131Y-86.487
X72.131Y-89.027
X72.131Y-91.567
X72.131Y-94.107
X72.131Y-96.647
X72.131Y-99.187
X72.131Y-101.727
X72.131Y-104.267
X72.131Y-106.807
X72.131Y-109.347
X72.131Y-111.887
X72.131Y-114.427
X72.131Y-116.967
X77.846Y-97.282
X77.846Y-99.822
X77.846Y-102.362
X77.846Y-104.902
X77.846Y-107.442
X77.846Y-109.982
X77.846Y-112.522
X77.846Y-115.062
X78.166Y-136.017
X78.166Y-146.177
X81.656Y-97.282
X81.656Y-99.822
X81.656Y-102.362
X81.656Y-104.902
X81.656Y-107.442
X81.656Y-109.982
X81.656Y-112.522
X81.656Y-115.062
X85.344Y-98.806
X85.344Y-101.854
X85.344Y-115.57
X85.344Y-118.618
X85.598Y-88.138
X85.598Y-95.758
X85.598Y-104.902
X85.598Y-112.522
X88.646Y-88.138
X88.646Y-95.758
X88.646Y-104.902
X88.646Y-112.522
X92.964Y-98.806
X92.964Y-101.854
X92.964Y-115.57
X92.964Y-118.618
X96.012Y-41.696
X96.012Y-44.196
X96.012Y-49.276
X96.012Y-51.776
X97.282Y-88.392
X97.282Y-90.932
X97.282Y-93.472
X97.282Y-96.012
X97.282Y-98.552
X97.282Y-101.092
X97.282Y-103.632
X97.282Y-106.172
X98.806Y-169.506
X98.806Y-172.006
X101.092Y-88.392
X101.092Y-90.932
X101.092Y-93.472
X101.092Y-96.012
X101.092Y-98.552
X101.092Y-101.092
X101.092Y-103.632
X101.092Y-106.172
X103.124Y-110.744
X103.124Y-114.554
X103.124Y-118.364
X103.883Y-135.956
X103.883Y-146.116
X110.744Y-110.744
X110.744Y-114.554
X110.744Y-118.364
X113.919Y-110.744
X113.919Y-114.554
X113.919Y-118.364
X117.348Y-171.704
X117.348Y-175.26
X118.872Y-163.955
X118.872Y-167.455
X124.079Y-110.744
X124.079Y-114.554
X124.079Y-118.364
X127.508Y-171.704
X127.508Y-175.26
X129.042Y-106.426
X129.042Y-108.966
X129.042Y-111.506
X129.042Y-114.046
X129.042Y-116.586
X129.042Y-119.126
X129.042Y-121.666
X129.042Y-124.206
X131.762Y-76.185
X131.762Y-82.027
X131.762Y-88.377
X134.302Y-76.185
X134.302Y-82.027
X134.302Y-88.377
X136.408Y-165.222
X136.408Y-167.762
X136.408Y-170.302
X136.408Y-172.842
X136.662Y-106.426
X136.662Y-108.966
X136.662Y-111.506
X136.662Y-114.046
X136.662Y-116.586
X136.662Y-119.126
X136.662Y-121.666
X136.662Y-124.206
X136.843Y-76.185
X136.843Y-82.027
X136.843Y-88.377
X140.208Y-137.16
X140.97Y-107.442
X140.97Y-117.602
X140.97Y-121.666
X140.97Y-131.826
X142.43Y-80.025
X142.43Y-82.565
X142.43Y-85.105
X142.43Y-87.645
X142.748Y-137.16
X144.028Y-165.222
X144.028Y-167.762
X144.028Y-170.302
X144.028Y-172.842
X144.526Y-107.442
X144.526Y-117.602
X144.526Y-121.666
X144.526Y-131.826
X145.288Y-137.16
X147.828Y-155.306
X147.828Y-165.466
X148.082Y-107.442
X148.082Y-117.602
X148.9Y-52.324
X149.352Y-170.38
X149.352Y-172.88
X151.384Y-155.306
X151.384Y-165.466
X152.4Y-52.324
T6
X21.336Y-41.148
X23.876Y-41.148
X27.173Y-41.148
X29.713Y-41.148
X33.02Y-41.148
X35.56Y-41.148
T7
X21.544Y-175.292
X27.178Y-95.758
X62.098Y-56.896
X62.098Y-59.436
X64.638Y-56.896
X64.638Y-59.436
X67.178Y-56.896
X67.178Y-59.436
X87.818Y-158.115
X102.108Y-40.386
X102.108Y-175.768
X107.95Y-68.707
X107.95Y-71.247
X107.95Y-73.787
X107.95Y-76.327
X107.95Y-78.867
X107.95Y-81.407
X107.95Y-83.947
X107.95Y-86.487
X107.95Y-89.027
X107.95Y-91.567
X107.95Y-94.107
X107.95Y-96.647
X113.835Y-158.054
X123.19Y-68.707
X123.19Y-71.247
X123.19Y-73.787
X123.19Y-76.327
X123.19Y-78.867
X123.19Y-81.407
X123.19Y-83.947
X123.19Y-86.487
X123.19Y-89.027
X123.19Y-91.567
X123.19Y-94.107
X123.19Y-96.647
X138.367Y-68.834
X156.21Y-60.96
X156.21Y-175.514
T8
X37.39Y-76.49
X37.39Y-80.99
X43.89Y-76.49
X43.89Y-80.99
X82.23Y-153.126
X84.77Y-153.126
X87.31Y-153.126
X90.51Y-44.196
X90.51Y-46.736
X90.51Y-49.276
X108.456Y-153.065
X110.995Y-153.065
X113.535Y-153.065
T9
X135.329Y-155.957
X137.827Y-152.833
X139.234Y-159.08
X141.732Y-155.956
T10
X105.958Y-169.545
X110.958Y-169.545
T11
X83.238Y-137.795
X88.318Y-137.795
X108.956Y-137.734
X114.035Y-137.734
X126.5Y-165.1
X131.58Y-165.1
X147.312Y-43.028
X152.392Y-43.028
T3
X46.983Y-40.247G85X46.983Y-39.447
G05
X46.983Y-43.977G85X46.983Y-42.477
G05
X55.633Y-40.247G85X55.633Y-39.447
G05
X55.633Y-43.977G85X55.633Y-42.477
G05
T7
X130.428Y-44.364G85X130.428Y-46.364
G05
X136.128Y-42.364G85X134.128Y-42.364
G05
X136.128Y-48.364G85X134.128Y-48.364
G05
M30
