M48
; DRILL file {KiCad 7.0.6} date ons 16 aug 2023 01:55:58
; FORMAT={-:-/ absolute / metric / decimal}
; #@! TF.CreationDate,2023-08-16T01:55:58+02:00
; #@! TF.GenerationSoftware,Kicad,Pcbnew,7.0.6
; #@! TF.FileFunction,Plated,1,4,PTH
FMAT,2
METRIC
; #@! TA.AperFunction,Plated,PTH,ViaDrill
T1C0.400
; #@! TA.AperFunction,Plated,PTH,ComponentDrill
T2C0.400
; #@! TA.AperFunction,Plated,PTH,ComponentDrill
T3C0.600
; #@! TA.AperFunction,Plated,PTH,ComponentDrill
T4C0.700
; #@! TA.AperFunction,Plated,PTH,ComponentDrill
T5C0.800
; #@! TA.AperFunction,Plated,PTH,ComponentDrill
T6C0.900
; #@! TA.AperFunction,Plated,PTH,ComponentDrill
T7C1.000
; #@! TA.AperFunction,Plated,PTH,ComponentDrill
T8C1.100
; #@! TA.AperFunction,Plated,PTH,ComponentDrill
T9C1.600
%
G90
G05
T1
X42.545Y-61.595
X49.53Y-85.725
X76.835Y-83.185
X81.28Y-77.47
X81.28Y-116.205
X85.725Y-88.9
X97.155Y-146.685
X107.95Y-69.215
X111.125Y-88.9
X127.635Y-147.955
T2
X52.905Y-63.127
X52.905Y-64.477
X53.755Y-63.127
X53.755Y-64.477
X54.605Y-63.127
X54.605Y-64.477
X55.455Y-63.127
X55.455Y-64.477
X56.305Y-63.127
X56.305Y-64.477
X57.155Y-63.127
X57.155Y-64.477
X58.005Y-63.127
X58.005Y-64.477
X58.855Y-63.127
X58.855Y-64.477
T4
X45.7Y-121.539
X45.72Y-117.858
X46.98Y-68.585
X48.2Y-121.539
X48.22Y-117.858
X49.48Y-68.585
X55.88Y-77.55
X55.88Y-80.05
X57.277Y-99.785
X57.277Y-102.285
X57.277Y-107.335
X57.277Y-109.835
X61.595Y-130.195
X61.595Y-132.695
X61.615Y-122.555
X61.615Y-125.055
X70.485Y-98.445
X70.485Y-100.945
X74.335Y-139.7
X76.835Y-139.7
X93.345Y-98.445
X93.345Y-100.945
X125.891Y-75.525
X125.891Y-78.025
T5
X43.18Y-102.235
X43.18Y-112.395
X43.19Y-125.105
X43.19Y-127.645
X43.19Y-130.185
X43.19Y-132.725
X44.45Y-72.39
X44.45Y-74.93
X44.45Y-77.47
X44.45Y-80.01
X44.45Y-82.55
X44.45Y-85.09
X44.45Y-87.63
X50.81Y-125.105
X50.81Y-127.645
X50.81Y-130.185
X50.81Y-132.725
X52.07Y-72.39
X52.07Y-74.93
X52.07Y-77.47
X52.07Y-80.01
X52.07Y-82.55
X52.07Y-85.09
X52.07Y-87.63
X55.245Y-95.25
X59.73Y-72.39
X61.595Y-146.138
X61.595Y-148.638
X62.23Y-72.39
X62.865Y-102.345
X62.865Y-107.225
X63.5Y-60.96
X63.5Y-64.77
X65.405Y-95.25
X71.765Y-143.52
X71.765Y-146.06
X71.765Y-148.6
X71.765Y-151.14
X73.66Y-60.96
X73.66Y-64.77
X74.295Y-75.565
X74.295Y-78.105
X74.295Y-80.645
X74.295Y-83.185
X74.295Y-85.725
X74.295Y-88.265
X74.295Y-90.805
X74.295Y-93.345
X74.295Y-95.885
X74.295Y-98.425
X74.295Y-100.965
X74.295Y-103.505
X74.295Y-106.045
X74.295Y-108.585
X74.295Y-111.125
X74.295Y-113.665
X74.295Y-116.205
X74.295Y-118.745
X74.295Y-121.285
X74.295Y-123.825
X74.295Y-129.54
X74.295Y-133.35
X79.385Y-143.52
X79.385Y-146.06
X79.385Y-148.6
X79.385Y-151.14
X84.455Y-129.54
X84.455Y-133.35
X84.455Y-149.86
X84.455Y-153.67
X89.535Y-75.565
X89.535Y-78.105
X89.535Y-80.645
X89.535Y-83.185
X89.535Y-85.725
X89.535Y-88.265
X89.535Y-90.805
X89.535Y-93.345
X89.535Y-95.885
X89.535Y-98.425
X89.535Y-100.965
X89.535Y-103.505
X89.535Y-106.045
X89.535Y-108.585
X89.535Y-111.125
X89.535Y-113.665
X89.535Y-116.205
X89.535Y-118.745
X89.535Y-121.285
X89.535Y-123.825
X93.345Y-125.73
X93.345Y-135.89
X94.615Y-149.86
X94.615Y-153.67
X97.79Y-116.205
X97.79Y-119.38
X97.79Y-122.555
X97.79Y-125.73
X97.79Y-135.89
X99.695Y-139.065
X99.695Y-149.86
X101.6Y-133.35
X102.235Y-143.51
X104.14Y-133.35
X104.775Y-143.51
X105.41Y-116.205
X105.41Y-119.38
X105.41Y-122.555
X106.68Y-133.35
X107.315Y-143.51
X109.22Y-115.57
X109.22Y-119.38
X109.22Y-123.19
X109.855Y-61.595
X109.855Y-139.065
X109.855Y-149.86
X119.38Y-115.57
X119.38Y-119.38
X119.38Y-123.19
X120.015Y-61.595
X125.73Y-67.31
X125.73Y-71.12
X135.89Y-67.31
X135.89Y-71.12
T6
X123.825Y-61.595
X126.365Y-61.595
X128.905Y-61.595
X131.445Y-61.595
X133.98Y-61.595
X136.52Y-61.595
T7
X57.15Y-120.65
X57.15Y-134.62
X61.595Y-154.305
X83.82Y-63.5
X83.82Y-66.04
X86.36Y-63.5
X86.36Y-66.04
X88.9Y-63.5
X88.9Y-66.04
X104.14Y-75.565
X104.14Y-78.105
X104.14Y-80.645
X104.14Y-83.185
X104.14Y-85.725
X104.14Y-88.265
X104.14Y-90.805
X104.14Y-93.345
X104.14Y-95.885
X104.14Y-98.425
X104.14Y-100.965
X104.14Y-103.505
X104.14Y-154.305
X119.38Y-75.565
X119.38Y-78.105
X119.38Y-80.645
X119.38Y-83.185
X119.38Y-85.725
X119.38Y-88.265
X119.38Y-90.805
X119.38Y-93.345
X119.38Y-95.885
X119.38Y-98.425
X119.38Y-100.965
X119.38Y-103.505
X129.54Y-87.63
X132.08Y-87.63
X134.62Y-87.63
X135.255Y-149.225
T8
X56.44Y-86.65
X56.44Y-91.15
X62.94Y-86.65
X62.94Y-91.15
X87.955Y-138.43
X87.955Y-140.97
X87.955Y-143.51
T9
X43.18Y-140.335
X58.42Y-140.335
T3
X51.555Y-60.517G85X51.555Y-59.717
G05
X51.555Y-64.247G85X51.555Y-62.747
G05
X60.205Y-60.517G85X60.205Y-59.717
G05
X60.205Y-64.247G85X60.205Y-62.747
G05
T7
X43.561Y-148.86G85X43.561Y-150.86
G05
X45.561Y-154.56G85X47.561Y-154.56
G05
X49.561Y-148.86G85X49.561Y-150.86
G05
T0
M30
