%TF.GenerationSoftware,KiCad,Pcbnew,7.0.6*%
%TF.CreationDate,2023-07-26T03:01:34+02:00*%
%TF.ProjectId,EPROM-programmer,4550524f-4d2d-4707-926f-6772616d6d65,rev?*%
%TF.SameCoordinates,Original*%
%TF.FileFunction,Legend,Top*%
%TF.FilePolarity,Positive*%
%FSLAX46Y46*%
G04 Gerber Fmt 4.6, Leading zero omitted, Abs format (unit mm)*
G04 Created by KiCad (PCBNEW 7.0.6) date 2023-07-26 03:01:34*
%MOMM*%
%LPD*%
G01*
G04 APERTURE LIST*
G04 Aperture macros list*
%AMRoundRect*
0 Rectangle with rounded corners*
0 $1 Rounding radius*
0 $2 $3 $4 $5 $6 $7 $8 $9 X,Y pos of 4 corners*
0 Add a 4 corners polygon primitive as box body*
4,1,4,$2,$3,$4,$5,$6,$7,$8,$9,$2,$3,0*
0 Add four circle primitives for the rounded corners*
1,1,$1+$1,$2,$3*
1,1,$1+$1,$4,$5*
1,1,$1+$1,$6,$7*
1,1,$1+$1,$8,$9*
0 Add four rect primitives between the rounded corners*
20,1,$1+$1,$2,$3,$4,$5,0*
20,1,$1+$1,$4,$5,$6,$7,0*
20,1,$1+$1,$6,$7,$8,$9,0*
20,1,$1+$1,$8,$9,$2,$3,0*%
G04 Aperture macros list end*
%ADD10C,0.150000*%
%ADD11C,0.120000*%
%ADD12C,1.600000*%
%ADD13O,1.600000X1.600000*%
%ADD14R,1.700000X1.700000*%
%ADD15C,1.400000*%
%ADD16R,2.000000X1.440000*%
%ADD17O,2.000000X1.440000*%
%ADD18R,1.600000X1.600000*%
%ADD19R,2.000000X2.000000*%
%ADD20RoundRect,0.250000X-0.600000X0.600000X-0.600000X-0.600000X0.600000X-0.600000X0.600000X0.600000X0*%
%ADD21C,1.700000*%
%ADD22C,2.000000*%
%ADD23C,1.500000*%
%ADD24R,1.800000X1.800000*%
%ADD25C,1.800000*%
%ADD26C,0.700000*%
%ADD27O,0.900000X2.400000*%
%ADD28O,0.900000X1.700000*%
G04 APERTURE END LIST*
D10*
X109794874Y-153639819D02*
X110461541Y-153639819D01*
X110747255Y-154687438D02*
X109794874Y-154687438D01*
X109794874Y-154687438D02*
X109794874Y-152687438D01*
X109794874Y-152687438D02*
X110747255Y-152687438D01*
X111604398Y-154687438D02*
X111604398Y-152687438D01*
X111604398Y-152687438D02*
X112366303Y-152687438D01*
X112366303Y-152687438D02*
X112556779Y-152782676D01*
X112556779Y-152782676D02*
X112652017Y-152877914D01*
X112652017Y-152877914D02*
X112747255Y-153068390D01*
X112747255Y-153068390D02*
X112747255Y-153354104D01*
X112747255Y-153354104D02*
X112652017Y-153544580D01*
X112652017Y-153544580D02*
X112556779Y-153639819D01*
X112556779Y-153639819D02*
X112366303Y-153735057D01*
X112366303Y-153735057D02*
X111604398Y-153735057D01*
X114747255Y-154687438D02*
X114080588Y-153735057D01*
X113604398Y-154687438D02*
X113604398Y-152687438D01*
X113604398Y-152687438D02*
X114366303Y-152687438D01*
X114366303Y-152687438D02*
X114556779Y-152782676D01*
X114556779Y-152782676D02*
X114652017Y-152877914D01*
X114652017Y-152877914D02*
X114747255Y-153068390D01*
X114747255Y-153068390D02*
X114747255Y-153354104D01*
X114747255Y-153354104D02*
X114652017Y-153544580D01*
X114652017Y-153544580D02*
X114556779Y-153639819D01*
X114556779Y-153639819D02*
X114366303Y-153735057D01*
X114366303Y-153735057D02*
X113604398Y-153735057D01*
X115985350Y-152687438D02*
X116366303Y-152687438D01*
X116366303Y-152687438D02*
X116556779Y-152782676D01*
X116556779Y-152782676D02*
X116747255Y-152973152D01*
X116747255Y-152973152D02*
X116842493Y-153354104D01*
X116842493Y-153354104D02*
X116842493Y-154020771D01*
X116842493Y-154020771D02*
X116747255Y-154401723D01*
X116747255Y-154401723D02*
X116556779Y-154592200D01*
X116556779Y-154592200D02*
X116366303Y-154687438D01*
X116366303Y-154687438D02*
X115985350Y-154687438D01*
X115985350Y-154687438D02*
X115794874Y-154592200D01*
X115794874Y-154592200D02*
X115604398Y-154401723D01*
X115604398Y-154401723D02*
X115509160Y-154020771D01*
X115509160Y-154020771D02*
X115509160Y-153354104D01*
X115509160Y-153354104D02*
X115604398Y-152973152D01*
X115604398Y-152973152D02*
X115794874Y-152782676D01*
X115794874Y-152782676D02*
X115985350Y-152687438D01*
X117699636Y-154687438D02*
X117699636Y-152687438D01*
X117699636Y-152687438D02*
X118366303Y-154116009D01*
X118366303Y-154116009D02*
X119032969Y-152687438D01*
X119032969Y-152687438D02*
X119032969Y-154687438D01*
X119985350Y-153925533D02*
X121509160Y-153925533D01*
X122461540Y-154687438D02*
X122461540Y-153354104D01*
X122461540Y-153735057D02*
X122556778Y-153544580D01*
X122556778Y-153544580D02*
X122652016Y-153449342D01*
X122652016Y-153449342D02*
X122842492Y-153354104D01*
X122842492Y-153354104D02*
X123032969Y-153354104D01*
X124461540Y-154592200D02*
X124271064Y-154687438D01*
X124271064Y-154687438D02*
X123890111Y-154687438D01*
X123890111Y-154687438D02*
X123699635Y-154592200D01*
X123699635Y-154592200D02*
X123604397Y-154401723D01*
X123604397Y-154401723D02*
X123604397Y-153639819D01*
X123604397Y-153639819D02*
X123699635Y-153449342D01*
X123699635Y-153449342D02*
X123890111Y-153354104D01*
X123890111Y-153354104D02*
X124271064Y-153354104D01*
X124271064Y-153354104D02*
X124461540Y-153449342D01*
X124461540Y-153449342D02*
X124556778Y-153639819D01*
X124556778Y-153639819D02*
X124556778Y-153830295D01*
X124556778Y-153830295D02*
X123604397Y-154020771D01*
X126271064Y-154687438D02*
X126271064Y-153639819D01*
X126271064Y-153639819D02*
X126175826Y-153449342D01*
X126175826Y-153449342D02*
X125985350Y-153354104D01*
X125985350Y-153354104D02*
X125604397Y-153354104D01*
X125604397Y-153354104D02*
X125413921Y-153449342D01*
X126271064Y-154592200D02*
X126080588Y-154687438D01*
X126080588Y-154687438D02*
X125604397Y-154687438D01*
X125604397Y-154687438D02*
X125413921Y-154592200D01*
X125413921Y-154592200D02*
X125318683Y-154401723D01*
X125318683Y-154401723D02*
X125318683Y-154211247D01*
X125318683Y-154211247D02*
X125413921Y-154020771D01*
X125413921Y-154020771D02*
X125604397Y-153925533D01*
X125604397Y-153925533D02*
X126080588Y-153925533D01*
X126080588Y-153925533D02*
X126271064Y-153830295D01*
X128080588Y-154687438D02*
X128080588Y-152687438D01*
X128080588Y-154592200D02*
X127890112Y-154687438D01*
X127890112Y-154687438D02*
X127509159Y-154687438D01*
X127509159Y-154687438D02*
X127318683Y-154592200D01*
X127318683Y-154592200D02*
X127223445Y-154496961D01*
X127223445Y-154496961D02*
X127128207Y-154306485D01*
X127128207Y-154306485D02*
X127128207Y-153735057D01*
X127128207Y-153735057D02*
X127223445Y-153544580D01*
X127223445Y-153544580D02*
X127318683Y-153449342D01*
X127318683Y-153449342D02*
X127509159Y-153354104D01*
X127509159Y-153354104D02*
X127890112Y-153354104D01*
X127890112Y-153354104D02*
X128080588Y-153449342D01*
X129794874Y-154592200D02*
X129604398Y-154687438D01*
X129604398Y-154687438D02*
X129223445Y-154687438D01*
X129223445Y-154687438D02*
X129032969Y-154592200D01*
X129032969Y-154592200D02*
X128937731Y-154401723D01*
X128937731Y-154401723D02*
X128937731Y-153639819D01*
X128937731Y-153639819D02*
X129032969Y-153449342D01*
X129032969Y-153449342D02*
X129223445Y-153354104D01*
X129223445Y-153354104D02*
X129604398Y-153354104D01*
X129604398Y-153354104D02*
X129794874Y-153449342D01*
X129794874Y-153449342D02*
X129890112Y-153639819D01*
X129890112Y-153639819D02*
X129890112Y-153830295D01*
X129890112Y-153830295D02*
X128937731Y-154020771D01*
X130747255Y-154687438D02*
X130747255Y-153354104D01*
X130747255Y-153735057D02*
X130842493Y-153544580D01*
X130842493Y-153544580D02*
X130937731Y-153449342D01*
X130937731Y-153449342D02*
X131128207Y-153354104D01*
X131128207Y-153354104D02*
X131318684Y-153354104D01*
X133223446Y-152687438D02*
X133890112Y-154687438D01*
X133890112Y-154687438D02*
X134556779Y-152687438D01*
X136271065Y-154687438D02*
X135128208Y-154687438D01*
X135699636Y-154687438D02*
X135699636Y-152687438D01*
X135699636Y-152687438D02*
X135509160Y-152973152D01*
X135509160Y-152973152D02*
X135318684Y-153163628D01*
X135318684Y-153163628D02*
X135128208Y-153258866D01*
X73493333Y-67764819D02*
X73160000Y-67288628D01*
X72921905Y-67764819D02*
X72921905Y-66764819D01*
X72921905Y-66764819D02*
X73302857Y-66764819D01*
X73302857Y-66764819D02*
X73398095Y-66812438D01*
X73398095Y-66812438D02*
X73445714Y-66860057D01*
X73445714Y-66860057D02*
X73493333Y-66955295D01*
X73493333Y-66955295D02*
X73493333Y-67098152D01*
X73493333Y-67098152D02*
X73445714Y-67193390D01*
X73445714Y-67193390D02*
X73398095Y-67241009D01*
X73398095Y-67241009D02*
X73302857Y-67288628D01*
X73302857Y-67288628D02*
X72921905Y-67288628D01*
X73874286Y-66860057D02*
X73921905Y-66812438D01*
X73921905Y-66812438D02*
X74017143Y-66764819D01*
X74017143Y-66764819D02*
X74255238Y-66764819D01*
X74255238Y-66764819D02*
X74350476Y-66812438D01*
X74350476Y-66812438D02*
X74398095Y-66860057D01*
X74398095Y-66860057D02*
X74445714Y-66955295D01*
X74445714Y-66955295D02*
X74445714Y-67050533D01*
X74445714Y-67050533D02*
X74398095Y-67193390D01*
X74398095Y-67193390D02*
X73826667Y-67764819D01*
X73826667Y-67764819D02*
X74445714Y-67764819D01*
X134326666Y-89414819D02*
X134326666Y-90129104D01*
X134326666Y-90129104D02*
X134279047Y-90271961D01*
X134279047Y-90271961D02*
X134183809Y-90367200D01*
X134183809Y-90367200D02*
X134040952Y-90414819D01*
X134040952Y-90414819D02*
X133945714Y-90414819D01*
X134707619Y-89414819D02*
X135326666Y-89414819D01*
X135326666Y-89414819D02*
X134993333Y-89795771D01*
X134993333Y-89795771D02*
X135136190Y-89795771D01*
X135136190Y-89795771D02*
X135231428Y-89843390D01*
X135231428Y-89843390D02*
X135279047Y-89891009D01*
X135279047Y-89891009D02*
X135326666Y-89986247D01*
X135326666Y-89986247D02*
X135326666Y-90224342D01*
X135326666Y-90224342D02*
X135279047Y-90319580D01*
X135279047Y-90319580D02*
X135231428Y-90367200D01*
X135231428Y-90367200D02*
X135136190Y-90414819D01*
X135136190Y-90414819D02*
X134850476Y-90414819D01*
X134850476Y-90414819D02*
X134755238Y-90367200D01*
X134755238Y-90367200D02*
X134707619Y-90319580D01*
X58253333Y-100784819D02*
X57920000Y-100308628D01*
X57681905Y-100784819D02*
X57681905Y-99784819D01*
X57681905Y-99784819D02*
X58062857Y-99784819D01*
X58062857Y-99784819D02*
X58158095Y-99832438D01*
X58158095Y-99832438D02*
X58205714Y-99880057D01*
X58205714Y-99880057D02*
X58253333Y-99975295D01*
X58253333Y-99975295D02*
X58253333Y-100118152D01*
X58253333Y-100118152D02*
X58205714Y-100213390D01*
X58205714Y-100213390D02*
X58158095Y-100261009D01*
X58158095Y-100261009D02*
X58062857Y-100308628D01*
X58062857Y-100308628D02*
X57681905Y-100308628D01*
X58586667Y-99784819D02*
X59205714Y-99784819D01*
X59205714Y-99784819D02*
X58872381Y-100165771D01*
X58872381Y-100165771D02*
X59015238Y-100165771D01*
X59015238Y-100165771D02*
X59110476Y-100213390D01*
X59110476Y-100213390D02*
X59158095Y-100261009D01*
X59158095Y-100261009D02*
X59205714Y-100356247D01*
X59205714Y-100356247D02*
X59205714Y-100594342D01*
X59205714Y-100594342D02*
X59158095Y-100689580D01*
X59158095Y-100689580D02*
X59110476Y-100737200D01*
X59110476Y-100737200D02*
X59015238Y-100784819D01*
X59015238Y-100784819D02*
X58729524Y-100784819D01*
X58729524Y-100784819D02*
X58634286Y-100737200D01*
X58634286Y-100737200D02*
X58586667Y-100689580D01*
X116673333Y-104499580D02*
X116625714Y-104547200D01*
X116625714Y-104547200D02*
X116482857Y-104594819D01*
X116482857Y-104594819D02*
X116387619Y-104594819D01*
X116387619Y-104594819D02*
X116244762Y-104547200D01*
X116244762Y-104547200D02*
X116149524Y-104451961D01*
X116149524Y-104451961D02*
X116101905Y-104356723D01*
X116101905Y-104356723D02*
X116054286Y-104166247D01*
X116054286Y-104166247D02*
X116054286Y-104023390D01*
X116054286Y-104023390D02*
X116101905Y-103832914D01*
X116101905Y-103832914D02*
X116149524Y-103737676D01*
X116149524Y-103737676D02*
X116244762Y-103642438D01*
X116244762Y-103642438D02*
X116387619Y-103594819D01*
X116387619Y-103594819D02*
X116482857Y-103594819D01*
X116482857Y-103594819D02*
X116625714Y-103642438D01*
X116625714Y-103642438D02*
X116673333Y-103690057D01*
X117530476Y-103594819D02*
X117340000Y-103594819D01*
X117340000Y-103594819D02*
X117244762Y-103642438D01*
X117244762Y-103642438D02*
X117197143Y-103690057D01*
X117197143Y-103690057D02*
X117101905Y-103832914D01*
X117101905Y-103832914D02*
X117054286Y-104023390D01*
X117054286Y-104023390D02*
X117054286Y-104404342D01*
X117054286Y-104404342D02*
X117101905Y-104499580D01*
X117101905Y-104499580D02*
X117149524Y-104547200D01*
X117149524Y-104547200D02*
X117244762Y-104594819D01*
X117244762Y-104594819D02*
X117435238Y-104594819D01*
X117435238Y-104594819D02*
X117530476Y-104547200D01*
X117530476Y-104547200D02*
X117578095Y-104499580D01*
X117578095Y-104499580D02*
X117625714Y-104404342D01*
X117625714Y-104404342D02*
X117625714Y-104166247D01*
X117625714Y-104166247D02*
X117578095Y-104071009D01*
X117578095Y-104071009D02*
X117530476Y-104023390D01*
X117530476Y-104023390D02*
X117435238Y-103975771D01*
X117435238Y-103975771D02*
X117244762Y-103975771D01*
X117244762Y-103975771D02*
X117149524Y-104023390D01*
X117149524Y-104023390D02*
X117101905Y-104071009D01*
X117101905Y-104071009D02*
X117054286Y-104166247D01*
X101740166Y-89494819D02*
X101740166Y-90209104D01*
X101740166Y-90209104D02*
X101692547Y-90351961D01*
X101692547Y-90351961D02*
X101597309Y-90447200D01*
X101597309Y-90447200D02*
X101454452Y-90494819D01*
X101454452Y-90494819D02*
X101359214Y-90494819D01*
X102740166Y-90494819D02*
X102168738Y-90494819D01*
X102454452Y-90494819D02*
X102454452Y-89494819D01*
X102454452Y-89494819D02*
X102359214Y-89637676D01*
X102359214Y-89637676D02*
X102263976Y-89732914D01*
X102263976Y-89732914D02*
X102168738Y-89780533D01*
X125563333Y-69034819D02*
X125230000Y-68558628D01*
X124991905Y-69034819D02*
X124991905Y-68034819D01*
X124991905Y-68034819D02*
X125372857Y-68034819D01*
X125372857Y-68034819D02*
X125468095Y-68082438D01*
X125468095Y-68082438D02*
X125515714Y-68130057D01*
X125515714Y-68130057D02*
X125563333Y-68225295D01*
X125563333Y-68225295D02*
X125563333Y-68368152D01*
X125563333Y-68368152D02*
X125515714Y-68463390D01*
X125515714Y-68463390D02*
X125468095Y-68511009D01*
X125468095Y-68511009D02*
X125372857Y-68558628D01*
X125372857Y-68558628D02*
X124991905Y-68558628D01*
X126468095Y-68034819D02*
X125991905Y-68034819D01*
X125991905Y-68034819D02*
X125944286Y-68511009D01*
X125944286Y-68511009D02*
X125991905Y-68463390D01*
X125991905Y-68463390D02*
X126087143Y-68415771D01*
X126087143Y-68415771D02*
X126325238Y-68415771D01*
X126325238Y-68415771D02*
X126420476Y-68463390D01*
X126420476Y-68463390D02*
X126468095Y-68511009D01*
X126468095Y-68511009D02*
X126515714Y-68606247D01*
X126515714Y-68606247D02*
X126515714Y-68844342D01*
X126515714Y-68844342D02*
X126468095Y-68939580D01*
X126468095Y-68939580D02*
X126420476Y-68987200D01*
X126420476Y-68987200D02*
X126325238Y-69034819D01*
X126325238Y-69034819D02*
X126087143Y-69034819D01*
X126087143Y-69034819D02*
X125991905Y-68987200D01*
X125991905Y-68987200D02*
X125944286Y-68939580D01*
X123748095Y-89844819D02*
X123748095Y-90654342D01*
X123748095Y-90654342D02*
X123795714Y-90749580D01*
X123795714Y-90749580D02*
X123843333Y-90797200D01*
X123843333Y-90797200D02*
X123938571Y-90844819D01*
X123938571Y-90844819D02*
X124129047Y-90844819D01*
X124129047Y-90844819D02*
X124224285Y-90797200D01*
X124224285Y-90797200D02*
X124271904Y-90749580D01*
X124271904Y-90749580D02*
X124319523Y-90654342D01*
X124319523Y-90654342D02*
X124319523Y-89844819D01*
X124700476Y-89844819D02*
X125319523Y-89844819D01*
X125319523Y-89844819D02*
X124986190Y-90225771D01*
X124986190Y-90225771D02*
X125129047Y-90225771D01*
X125129047Y-90225771D02*
X125224285Y-90273390D01*
X125224285Y-90273390D02*
X125271904Y-90321009D01*
X125271904Y-90321009D02*
X125319523Y-90416247D01*
X125319523Y-90416247D02*
X125319523Y-90654342D01*
X125319523Y-90654342D02*
X125271904Y-90749580D01*
X125271904Y-90749580D02*
X125224285Y-90797200D01*
X125224285Y-90797200D02*
X125129047Y-90844819D01*
X125129047Y-90844819D02*
X124843333Y-90844819D01*
X124843333Y-90844819D02*
X124748095Y-90797200D01*
X124748095Y-90797200D02*
X124700476Y-90749580D01*
X48093333Y-124819580D02*
X48045714Y-124867200D01*
X48045714Y-124867200D02*
X47902857Y-124914819D01*
X47902857Y-124914819D02*
X47807619Y-124914819D01*
X47807619Y-124914819D02*
X47664762Y-124867200D01*
X47664762Y-124867200D02*
X47569524Y-124771961D01*
X47569524Y-124771961D02*
X47521905Y-124676723D01*
X47521905Y-124676723D02*
X47474286Y-124486247D01*
X47474286Y-124486247D02*
X47474286Y-124343390D01*
X47474286Y-124343390D02*
X47521905Y-124152914D01*
X47521905Y-124152914D02*
X47569524Y-124057676D01*
X47569524Y-124057676D02*
X47664762Y-123962438D01*
X47664762Y-123962438D02*
X47807619Y-123914819D01*
X47807619Y-123914819D02*
X47902857Y-123914819D01*
X47902857Y-123914819D02*
X48045714Y-123962438D01*
X48045714Y-123962438D02*
X48093333Y-124010057D01*
X49045714Y-124914819D02*
X48474286Y-124914819D01*
X48760000Y-124914819D02*
X48760000Y-123914819D01*
X48760000Y-123914819D02*
X48664762Y-124057676D01*
X48664762Y-124057676D02*
X48569524Y-124152914D01*
X48569524Y-124152914D02*
X48474286Y-124200533D01*
X119213333Y-69034819D02*
X118880000Y-68558628D01*
X118641905Y-69034819D02*
X118641905Y-68034819D01*
X118641905Y-68034819D02*
X119022857Y-68034819D01*
X119022857Y-68034819D02*
X119118095Y-68082438D01*
X119118095Y-68082438D02*
X119165714Y-68130057D01*
X119165714Y-68130057D02*
X119213333Y-68225295D01*
X119213333Y-68225295D02*
X119213333Y-68368152D01*
X119213333Y-68368152D02*
X119165714Y-68463390D01*
X119165714Y-68463390D02*
X119118095Y-68511009D01*
X119118095Y-68511009D02*
X119022857Y-68558628D01*
X119022857Y-68558628D02*
X118641905Y-68558628D01*
X120070476Y-68368152D02*
X120070476Y-69034819D01*
X119832381Y-67987200D02*
X119594286Y-68701485D01*
X119594286Y-68701485D02*
X120213333Y-68701485D01*
X131913333Y-69034819D02*
X131580000Y-68558628D01*
X131341905Y-69034819D02*
X131341905Y-68034819D01*
X131341905Y-68034819D02*
X131722857Y-68034819D01*
X131722857Y-68034819D02*
X131818095Y-68082438D01*
X131818095Y-68082438D02*
X131865714Y-68130057D01*
X131865714Y-68130057D02*
X131913333Y-68225295D01*
X131913333Y-68225295D02*
X131913333Y-68368152D01*
X131913333Y-68368152D02*
X131865714Y-68463390D01*
X131865714Y-68463390D02*
X131818095Y-68511009D01*
X131818095Y-68511009D02*
X131722857Y-68558628D01*
X131722857Y-68558628D02*
X131341905Y-68558628D01*
X132246667Y-68034819D02*
X132913333Y-68034819D01*
X132913333Y-68034819D02*
X132484762Y-69034819D01*
X120483333Y-117294819D02*
X120150000Y-116818628D01*
X119911905Y-117294819D02*
X119911905Y-116294819D01*
X119911905Y-116294819D02*
X120292857Y-116294819D01*
X120292857Y-116294819D02*
X120388095Y-116342438D01*
X120388095Y-116342438D02*
X120435714Y-116390057D01*
X120435714Y-116390057D02*
X120483333Y-116485295D01*
X120483333Y-116485295D02*
X120483333Y-116628152D01*
X120483333Y-116628152D02*
X120435714Y-116723390D01*
X120435714Y-116723390D02*
X120388095Y-116771009D01*
X120388095Y-116771009D02*
X120292857Y-116818628D01*
X120292857Y-116818628D02*
X119911905Y-116818628D01*
X121340476Y-116294819D02*
X121150000Y-116294819D01*
X121150000Y-116294819D02*
X121054762Y-116342438D01*
X121054762Y-116342438D02*
X121007143Y-116390057D01*
X121007143Y-116390057D02*
X120911905Y-116532914D01*
X120911905Y-116532914D02*
X120864286Y-116723390D01*
X120864286Y-116723390D02*
X120864286Y-117104342D01*
X120864286Y-117104342D02*
X120911905Y-117199580D01*
X120911905Y-117199580D02*
X120959524Y-117247200D01*
X120959524Y-117247200D02*
X121054762Y-117294819D01*
X121054762Y-117294819D02*
X121245238Y-117294819D01*
X121245238Y-117294819D02*
X121340476Y-117247200D01*
X121340476Y-117247200D02*
X121388095Y-117199580D01*
X121388095Y-117199580D02*
X121435714Y-117104342D01*
X121435714Y-117104342D02*
X121435714Y-116866247D01*
X121435714Y-116866247D02*
X121388095Y-116771009D01*
X121388095Y-116771009D02*
X121340476Y-116723390D01*
X121340476Y-116723390D02*
X121245238Y-116675771D01*
X121245238Y-116675771D02*
X121054762Y-116675771D01*
X121054762Y-116675771D02*
X120959524Y-116723390D01*
X120959524Y-116723390D02*
X120911905Y-116771009D01*
X120911905Y-116771009D02*
X120864286Y-116866247D01*
X130183095Y-90894819D02*
X130754523Y-90894819D01*
X130468809Y-91894819D02*
X130468809Y-90894819D01*
X131087857Y-91894819D02*
X131087857Y-90894819D01*
X131087857Y-90894819D02*
X131468809Y-90894819D01*
X131468809Y-90894819D02*
X131564047Y-90942438D01*
X131564047Y-90942438D02*
X131611666Y-90990057D01*
X131611666Y-90990057D02*
X131659285Y-91085295D01*
X131659285Y-91085295D02*
X131659285Y-91228152D01*
X131659285Y-91228152D02*
X131611666Y-91323390D01*
X131611666Y-91323390D02*
X131564047Y-91371009D01*
X131564047Y-91371009D02*
X131468809Y-91418628D01*
X131468809Y-91418628D02*
X131087857Y-91418628D01*
X132611666Y-91894819D02*
X132040238Y-91894819D01*
X132325952Y-91894819D02*
X132325952Y-90894819D01*
X132325952Y-90894819D02*
X132230714Y-91037676D01*
X132230714Y-91037676D02*
X132135476Y-91132914D01*
X132135476Y-91132914D02*
X132040238Y-91180533D01*
X48093333Y-109579580D02*
X48045714Y-109627200D01*
X48045714Y-109627200D02*
X47902857Y-109674819D01*
X47902857Y-109674819D02*
X47807619Y-109674819D01*
X47807619Y-109674819D02*
X47664762Y-109627200D01*
X47664762Y-109627200D02*
X47569524Y-109531961D01*
X47569524Y-109531961D02*
X47521905Y-109436723D01*
X47521905Y-109436723D02*
X47474286Y-109246247D01*
X47474286Y-109246247D02*
X47474286Y-109103390D01*
X47474286Y-109103390D02*
X47521905Y-108912914D01*
X47521905Y-108912914D02*
X47569524Y-108817676D01*
X47569524Y-108817676D02*
X47664762Y-108722438D01*
X47664762Y-108722438D02*
X47807619Y-108674819D01*
X47807619Y-108674819D02*
X47902857Y-108674819D01*
X47902857Y-108674819D02*
X48045714Y-108722438D01*
X48045714Y-108722438D02*
X48093333Y-108770057D01*
X48474286Y-108770057D02*
X48521905Y-108722438D01*
X48521905Y-108722438D02*
X48617143Y-108674819D01*
X48617143Y-108674819D02*
X48855238Y-108674819D01*
X48855238Y-108674819D02*
X48950476Y-108722438D01*
X48950476Y-108722438D02*
X48998095Y-108770057D01*
X48998095Y-108770057D02*
X49045714Y-108865295D01*
X49045714Y-108865295D02*
X49045714Y-108960533D01*
X49045714Y-108960533D02*
X48998095Y-109103390D01*
X48998095Y-109103390D02*
X48426667Y-109674819D01*
X48426667Y-109674819D02*
X49045714Y-109674819D01*
X133358095Y-116836819D02*
X133929523Y-116836819D01*
X133643809Y-117836819D02*
X133643809Y-116836819D01*
X134262857Y-117836819D02*
X134262857Y-116836819D01*
X134262857Y-116836819D02*
X134643809Y-116836819D01*
X134643809Y-116836819D02*
X134739047Y-116884438D01*
X134739047Y-116884438D02*
X134786666Y-116932057D01*
X134786666Y-116932057D02*
X134834285Y-117027295D01*
X134834285Y-117027295D02*
X134834285Y-117170152D01*
X134834285Y-117170152D02*
X134786666Y-117265390D01*
X134786666Y-117265390D02*
X134739047Y-117313009D01*
X134739047Y-117313009D02*
X134643809Y-117360628D01*
X134643809Y-117360628D02*
X134262857Y-117360628D01*
X135167619Y-116836819D02*
X135786666Y-116836819D01*
X135786666Y-116836819D02*
X135453333Y-117217771D01*
X135453333Y-117217771D02*
X135596190Y-117217771D01*
X135596190Y-117217771D02*
X135691428Y-117265390D01*
X135691428Y-117265390D02*
X135739047Y-117313009D01*
X135739047Y-117313009D02*
X135786666Y-117408247D01*
X135786666Y-117408247D02*
X135786666Y-117646342D01*
X135786666Y-117646342D02*
X135739047Y-117741580D01*
X135739047Y-117741580D02*
X135691428Y-117789200D01*
X135691428Y-117789200D02*
X135596190Y-117836819D01*
X135596190Y-117836819D02*
X135310476Y-117836819D01*
X135310476Y-117836819D02*
X135215238Y-117789200D01*
X135215238Y-117789200D02*
X135167619Y-117741580D01*
X56983333Y-82909580D02*
X56935714Y-82957200D01*
X56935714Y-82957200D02*
X56792857Y-83004819D01*
X56792857Y-83004819D02*
X56697619Y-83004819D01*
X56697619Y-83004819D02*
X56554762Y-82957200D01*
X56554762Y-82957200D02*
X56459524Y-82861961D01*
X56459524Y-82861961D02*
X56411905Y-82766723D01*
X56411905Y-82766723D02*
X56364286Y-82576247D01*
X56364286Y-82576247D02*
X56364286Y-82433390D01*
X56364286Y-82433390D02*
X56411905Y-82242914D01*
X56411905Y-82242914D02*
X56459524Y-82147676D01*
X56459524Y-82147676D02*
X56554762Y-82052438D01*
X56554762Y-82052438D02*
X56697619Y-82004819D01*
X56697619Y-82004819D02*
X56792857Y-82004819D01*
X56792857Y-82004819D02*
X56935714Y-82052438D01*
X56935714Y-82052438D02*
X56983333Y-82100057D01*
X57316667Y-82004819D02*
X57935714Y-82004819D01*
X57935714Y-82004819D02*
X57602381Y-82385771D01*
X57602381Y-82385771D02*
X57745238Y-82385771D01*
X57745238Y-82385771D02*
X57840476Y-82433390D01*
X57840476Y-82433390D02*
X57888095Y-82481009D01*
X57888095Y-82481009D02*
X57935714Y-82576247D01*
X57935714Y-82576247D02*
X57935714Y-82814342D01*
X57935714Y-82814342D02*
X57888095Y-82909580D01*
X57888095Y-82909580D02*
X57840476Y-82957200D01*
X57840476Y-82957200D02*
X57745238Y-83004819D01*
X57745238Y-83004819D02*
X57459524Y-83004819D01*
X57459524Y-83004819D02*
X57364286Y-82957200D01*
X57364286Y-82957200D02*
X57316667Y-82909580D01*
X93646666Y-65494819D02*
X93646666Y-66209104D01*
X93646666Y-66209104D02*
X93599047Y-66351961D01*
X93599047Y-66351961D02*
X93503809Y-66447200D01*
X93503809Y-66447200D02*
X93360952Y-66494819D01*
X93360952Y-66494819D02*
X93265714Y-66494819D01*
X94075238Y-65590057D02*
X94122857Y-65542438D01*
X94122857Y-65542438D02*
X94218095Y-65494819D01*
X94218095Y-65494819D02*
X94456190Y-65494819D01*
X94456190Y-65494819D02*
X94551428Y-65542438D01*
X94551428Y-65542438D02*
X94599047Y-65590057D01*
X94599047Y-65590057D02*
X94646666Y-65685295D01*
X94646666Y-65685295D02*
X94646666Y-65780533D01*
X94646666Y-65780533D02*
X94599047Y-65923390D01*
X94599047Y-65923390D02*
X94027619Y-66494819D01*
X94027619Y-66494819D02*
X94646666Y-66494819D01*
X114133333Y-83004819D02*
X113800000Y-82528628D01*
X113561905Y-83004819D02*
X113561905Y-82004819D01*
X113561905Y-82004819D02*
X113942857Y-82004819D01*
X113942857Y-82004819D02*
X114038095Y-82052438D01*
X114038095Y-82052438D02*
X114085714Y-82100057D01*
X114085714Y-82100057D02*
X114133333Y-82195295D01*
X114133333Y-82195295D02*
X114133333Y-82338152D01*
X114133333Y-82338152D02*
X114085714Y-82433390D01*
X114085714Y-82433390D02*
X114038095Y-82481009D01*
X114038095Y-82481009D02*
X113942857Y-82528628D01*
X113942857Y-82528628D02*
X113561905Y-82528628D01*
X114704762Y-82433390D02*
X114609524Y-82385771D01*
X114609524Y-82385771D02*
X114561905Y-82338152D01*
X114561905Y-82338152D02*
X114514286Y-82242914D01*
X114514286Y-82242914D02*
X114514286Y-82195295D01*
X114514286Y-82195295D02*
X114561905Y-82100057D01*
X114561905Y-82100057D02*
X114609524Y-82052438D01*
X114609524Y-82052438D02*
X114704762Y-82004819D01*
X114704762Y-82004819D02*
X114895238Y-82004819D01*
X114895238Y-82004819D02*
X114990476Y-82052438D01*
X114990476Y-82052438D02*
X115038095Y-82100057D01*
X115038095Y-82100057D02*
X115085714Y-82195295D01*
X115085714Y-82195295D02*
X115085714Y-82242914D01*
X115085714Y-82242914D02*
X115038095Y-82338152D01*
X115038095Y-82338152D02*
X114990476Y-82385771D01*
X114990476Y-82385771D02*
X114895238Y-82433390D01*
X114895238Y-82433390D02*
X114704762Y-82433390D01*
X114704762Y-82433390D02*
X114609524Y-82481009D01*
X114609524Y-82481009D02*
X114561905Y-82528628D01*
X114561905Y-82528628D02*
X114514286Y-82623866D01*
X114514286Y-82623866D02*
X114514286Y-82814342D01*
X114514286Y-82814342D02*
X114561905Y-82909580D01*
X114561905Y-82909580D02*
X114609524Y-82957200D01*
X114609524Y-82957200D02*
X114704762Y-83004819D01*
X114704762Y-83004819D02*
X114895238Y-83004819D01*
X114895238Y-83004819D02*
X114990476Y-82957200D01*
X114990476Y-82957200D02*
X115038095Y-82909580D01*
X115038095Y-82909580D02*
X115085714Y-82814342D01*
X115085714Y-82814342D02*
X115085714Y-82623866D01*
X115085714Y-82623866D02*
X115038095Y-82528628D01*
X115038095Y-82528628D02*
X114990476Y-82481009D01*
X114990476Y-82481009D02*
X114895238Y-82433390D01*
X76033333Y-60144819D02*
X75700000Y-59668628D01*
X75461905Y-60144819D02*
X75461905Y-59144819D01*
X75461905Y-59144819D02*
X75842857Y-59144819D01*
X75842857Y-59144819D02*
X75938095Y-59192438D01*
X75938095Y-59192438D02*
X75985714Y-59240057D01*
X75985714Y-59240057D02*
X76033333Y-59335295D01*
X76033333Y-59335295D02*
X76033333Y-59478152D01*
X76033333Y-59478152D02*
X75985714Y-59573390D01*
X75985714Y-59573390D02*
X75938095Y-59621009D01*
X75938095Y-59621009D02*
X75842857Y-59668628D01*
X75842857Y-59668628D02*
X75461905Y-59668628D01*
X76985714Y-60144819D02*
X76414286Y-60144819D01*
X76700000Y-60144819D02*
X76700000Y-59144819D01*
X76700000Y-59144819D02*
X76604762Y-59287676D01*
X76604762Y-59287676D02*
X76509524Y-59382914D01*
X76509524Y-59382914D02*
X76414286Y-59430533D01*
X59523333Y-108309580D02*
X59475714Y-108357200D01*
X59475714Y-108357200D02*
X59332857Y-108404819D01*
X59332857Y-108404819D02*
X59237619Y-108404819D01*
X59237619Y-108404819D02*
X59094762Y-108357200D01*
X59094762Y-108357200D02*
X58999524Y-108261961D01*
X58999524Y-108261961D02*
X58951905Y-108166723D01*
X58951905Y-108166723D02*
X58904286Y-107976247D01*
X58904286Y-107976247D02*
X58904286Y-107833390D01*
X58904286Y-107833390D02*
X58951905Y-107642914D01*
X58951905Y-107642914D02*
X58999524Y-107547676D01*
X58999524Y-107547676D02*
X59094762Y-107452438D01*
X59094762Y-107452438D02*
X59237619Y-107404819D01*
X59237619Y-107404819D02*
X59332857Y-107404819D01*
X59332857Y-107404819D02*
X59475714Y-107452438D01*
X59475714Y-107452438D02*
X59523333Y-107500057D01*
X60380476Y-107738152D02*
X60380476Y-108404819D01*
X60142381Y-107357200D02*
X59904286Y-108071485D01*
X59904286Y-108071485D02*
X60523333Y-108071485D01*
X134286666Y-121584819D02*
X134286666Y-122299104D01*
X134286666Y-122299104D02*
X134239047Y-122441961D01*
X134239047Y-122441961D02*
X134143809Y-122537200D01*
X134143809Y-122537200D02*
X134000952Y-122584819D01*
X134000952Y-122584819D02*
X133905714Y-122584819D01*
X135239047Y-121584819D02*
X134762857Y-121584819D01*
X134762857Y-121584819D02*
X134715238Y-122061009D01*
X134715238Y-122061009D02*
X134762857Y-122013390D01*
X134762857Y-122013390D02*
X134858095Y-121965771D01*
X134858095Y-121965771D02*
X135096190Y-121965771D01*
X135096190Y-121965771D02*
X135191428Y-122013390D01*
X135191428Y-122013390D02*
X135239047Y-122061009D01*
X135239047Y-122061009D02*
X135286666Y-122156247D01*
X135286666Y-122156247D02*
X135286666Y-122394342D01*
X135286666Y-122394342D02*
X135239047Y-122489580D01*
X135239047Y-122489580D02*
X135191428Y-122537200D01*
X135191428Y-122537200D02*
X135096190Y-122584819D01*
X135096190Y-122584819D02*
X134858095Y-122584819D01*
X134858095Y-122584819D02*
X134762857Y-122537200D01*
X134762857Y-122537200D02*
X134715238Y-122489580D01*
X134326666Y-99994819D02*
X134326666Y-100709104D01*
X134326666Y-100709104D02*
X134279047Y-100851961D01*
X134279047Y-100851961D02*
X134183809Y-100947200D01*
X134183809Y-100947200D02*
X134040952Y-100994819D01*
X134040952Y-100994819D02*
X133945714Y-100994819D01*
X135231428Y-100328152D02*
X135231428Y-100994819D01*
X134993333Y-99947200D02*
X134755238Y-100661485D01*
X134755238Y-100661485D02*
X135374285Y-100661485D01*
X46926667Y-99027200D02*
X47069524Y-99074819D01*
X47069524Y-99074819D02*
X47307619Y-99074819D01*
X47307619Y-99074819D02*
X47402857Y-99027200D01*
X47402857Y-99027200D02*
X47450476Y-98979580D01*
X47450476Y-98979580D02*
X47498095Y-98884342D01*
X47498095Y-98884342D02*
X47498095Y-98789104D01*
X47498095Y-98789104D02*
X47450476Y-98693866D01*
X47450476Y-98693866D02*
X47402857Y-98646247D01*
X47402857Y-98646247D02*
X47307619Y-98598628D01*
X47307619Y-98598628D02*
X47117143Y-98551009D01*
X47117143Y-98551009D02*
X47021905Y-98503390D01*
X47021905Y-98503390D02*
X46974286Y-98455771D01*
X46974286Y-98455771D02*
X46926667Y-98360533D01*
X46926667Y-98360533D02*
X46926667Y-98265295D01*
X46926667Y-98265295D02*
X46974286Y-98170057D01*
X46974286Y-98170057D02*
X47021905Y-98122438D01*
X47021905Y-98122438D02*
X47117143Y-98074819D01*
X47117143Y-98074819D02*
X47355238Y-98074819D01*
X47355238Y-98074819D02*
X47498095Y-98122438D01*
X47831429Y-98074819D02*
X48069524Y-99074819D01*
X48069524Y-99074819D02*
X48260000Y-98360533D01*
X48260000Y-98360533D02*
X48450476Y-99074819D01*
X48450476Y-99074819D02*
X48688572Y-98074819D01*
X49593333Y-99074819D02*
X49021905Y-99074819D01*
X49307619Y-99074819D02*
X49307619Y-98074819D01*
X49307619Y-98074819D02*
X49212381Y-98217676D01*
X49212381Y-98217676D02*
X49117143Y-98312914D01*
X49117143Y-98312914D02*
X49021905Y-98360533D01*
X128103333Y-82909580D02*
X128055714Y-82957200D01*
X128055714Y-82957200D02*
X127912857Y-83004819D01*
X127912857Y-83004819D02*
X127817619Y-83004819D01*
X127817619Y-83004819D02*
X127674762Y-82957200D01*
X127674762Y-82957200D02*
X127579524Y-82861961D01*
X127579524Y-82861961D02*
X127531905Y-82766723D01*
X127531905Y-82766723D02*
X127484286Y-82576247D01*
X127484286Y-82576247D02*
X127484286Y-82433390D01*
X127484286Y-82433390D02*
X127531905Y-82242914D01*
X127531905Y-82242914D02*
X127579524Y-82147676D01*
X127579524Y-82147676D02*
X127674762Y-82052438D01*
X127674762Y-82052438D02*
X127817619Y-82004819D01*
X127817619Y-82004819D02*
X127912857Y-82004819D01*
X127912857Y-82004819D02*
X128055714Y-82052438D01*
X128055714Y-82052438D02*
X128103333Y-82100057D01*
X128579524Y-83004819D02*
X128770000Y-83004819D01*
X128770000Y-83004819D02*
X128865238Y-82957200D01*
X128865238Y-82957200D02*
X128912857Y-82909580D01*
X128912857Y-82909580D02*
X129008095Y-82766723D01*
X129008095Y-82766723D02*
X129055714Y-82576247D01*
X129055714Y-82576247D02*
X129055714Y-82195295D01*
X129055714Y-82195295D02*
X129008095Y-82100057D01*
X129008095Y-82100057D02*
X128960476Y-82052438D01*
X128960476Y-82052438D02*
X128865238Y-82004819D01*
X128865238Y-82004819D02*
X128674762Y-82004819D01*
X128674762Y-82004819D02*
X128579524Y-82052438D01*
X128579524Y-82052438D02*
X128531905Y-82100057D01*
X128531905Y-82100057D02*
X128484286Y-82195295D01*
X128484286Y-82195295D02*
X128484286Y-82433390D01*
X128484286Y-82433390D02*
X128531905Y-82528628D01*
X128531905Y-82528628D02*
X128579524Y-82576247D01*
X128579524Y-82576247D02*
X128674762Y-82623866D01*
X128674762Y-82623866D02*
X128865238Y-82623866D01*
X128865238Y-82623866D02*
X128960476Y-82576247D01*
X128960476Y-82576247D02*
X129008095Y-82528628D01*
X129008095Y-82528628D02*
X129055714Y-82433390D01*
X128103333Y-87989580D02*
X128055714Y-88037200D01*
X128055714Y-88037200D02*
X127912857Y-88084819D01*
X127912857Y-88084819D02*
X127817619Y-88084819D01*
X127817619Y-88084819D02*
X127674762Y-88037200D01*
X127674762Y-88037200D02*
X127579524Y-87941961D01*
X127579524Y-87941961D02*
X127531905Y-87846723D01*
X127531905Y-87846723D02*
X127484286Y-87656247D01*
X127484286Y-87656247D02*
X127484286Y-87513390D01*
X127484286Y-87513390D02*
X127531905Y-87322914D01*
X127531905Y-87322914D02*
X127579524Y-87227676D01*
X127579524Y-87227676D02*
X127674762Y-87132438D01*
X127674762Y-87132438D02*
X127817619Y-87084819D01*
X127817619Y-87084819D02*
X127912857Y-87084819D01*
X127912857Y-87084819D02*
X128055714Y-87132438D01*
X128055714Y-87132438D02*
X128103333Y-87180057D01*
X128674762Y-87513390D02*
X128579524Y-87465771D01*
X128579524Y-87465771D02*
X128531905Y-87418152D01*
X128531905Y-87418152D02*
X128484286Y-87322914D01*
X128484286Y-87322914D02*
X128484286Y-87275295D01*
X128484286Y-87275295D02*
X128531905Y-87180057D01*
X128531905Y-87180057D02*
X128579524Y-87132438D01*
X128579524Y-87132438D02*
X128674762Y-87084819D01*
X128674762Y-87084819D02*
X128865238Y-87084819D01*
X128865238Y-87084819D02*
X128960476Y-87132438D01*
X128960476Y-87132438D02*
X129008095Y-87180057D01*
X129008095Y-87180057D02*
X129055714Y-87275295D01*
X129055714Y-87275295D02*
X129055714Y-87322914D01*
X129055714Y-87322914D02*
X129008095Y-87418152D01*
X129008095Y-87418152D02*
X128960476Y-87465771D01*
X128960476Y-87465771D02*
X128865238Y-87513390D01*
X128865238Y-87513390D02*
X128674762Y-87513390D01*
X128674762Y-87513390D02*
X128579524Y-87561009D01*
X128579524Y-87561009D02*
X128531905Y-87608628D01*
X128531905Y-87608628D02*
X128484286Y-87703866D01*
X128484286Y-87703866D02*
X128484286Y-87894342D01*
X128484286Y-87894342D02*
X128531905Y-87989580D01*
X128531905Y-87989580D02*
X128579524Y-88037200D01*
X128579524Y-88037200D02*
X128674762Y-88084819D01*
X128674762Y-88084819D02*
X128865238Y-88084819D01*
X128865238Y-88084819D02*
X128960476Y-88037200D01*
X128960476Y-88037200D02*
X129008095Y-87989580D01*
X129008095Y-87989580D02*
X129055714Y-87894342D01*
X129055714Y-87894342D02*
X129055714Y-87703866D01*
X129055714Y-87703866D02*
X129008095Y-87608628D01*
X129008095Y-87608628D02*
X128960476Y-87561009D01*
X128960476Y-87561009D02*
X128865238Y-87513390D01*
X53498809Y-124438628D02*
X53498809Y-124914819D01*
X53165476Y-123914819D02*
X53498809Y-124438628D01*
X53498809Y-124438628D02*
X53832142Y-123914819D01*
X54689285Y-124914819D02*
X54117857Y-124914819D01*
X54403571Y-124914819D02*
X54403571Y-123914819D01*
X54403571Y-123914819D02*
X54308333Y-124057676D01*
X54308333Y-124057676D02*
X54213095Y-124152914D01*
X54213095Y-124152914D02*
X54117857Y-124200533D01*
X127531905Y-59724819D02*
X127531905Y-58724819D01*
X127531905Y-58724819D02*
X127770000Y-58724819D01*
X127770000Y-58724819D02*
X127912857Y-58772438D01*
X127912857Y-58772438D02*
X128008095Y-58867676D01*
X128008095Y-58867676D02*
X128055714Y-58962914D01*
X128055714Y-58962914D02*
X128103333Y-59153390D01*
X128103333Y-59153390D02*
X128103333Y-59296247D01*
X128103333Y-59296247D02*
X128055714Y-59486723D01*
X128055714Y-59486723D02*
X128008095Y-59581961D01*
X128008095Y-59581961D02*
X127912857Y-59677200D01*
X127912857Y-59677200D02*
X127770000Y-59724819D01*
X127770000Y-59724819D02*
X127531905Y-59724819D01*
X128484286Y-58820057D02*
X128531905Y-58772438D01*
X128531905Y-58772438D02*
X128627143Y-58724819D01*
X128627143Y-58724819D02*
X128865238Y-58724819D01*
X128865238Y-58724819D02*
X128960476Y-58772438D01*
X128960476Y-58772438D02*
X129008095Y-58820057D01*
X129008095Y-58820057D02*
X129055714Y-58915295D01*
X129055714Y-58915295D02*
X129055714Y-59010533D01*
X129055714Y-59010533D02*
X129008095Y-59153390D01*
X129008095Y-59153390D02*
X128436667Y-59724819D01*
X128436667Y-59724819D02*
X129055714Y-59724819D01*
X71628095Y-84754819D02*
X71628095Y-85564342D01*
X71628095Y-85564342D02*
X71675714Y-85659580D01*
X71675714Y-85659580D02*
X71723333Y-85707200D01*
X71723333Y-85707200D02*
X71818571Y-85754819D01*
X71818571Y-85754819D02*
X72009047Y-85754819D01*
X72009047Y-85754819D02*
X72104285Y-85707200D01*
X72104285Y-85707200D02*
X72151904Y-85659580D01*
X72151904Y-85659580D02*
X72199523Y-85564342D01*
X72199523Y-85564342D02*
X72199523Y-84754819D01*
X73199523Y-85754819D02*
X72628095Y-85754819D01*
X72913809Y-85754819D02*
X72913809Y-84754819D01*
X72913809Y-84754819D02*
X72818571Y-84897676D01*
X72818571Y-84897676D02*
X72723333Y-84992914D01*
X72723333Y-84992914D02*
X72628095Y-85040533D01*
X60813333Y-68349580D02*
X60765714Y-68397200D01*
X60765714Y-68397200D02*
X60622857Y-68444819D01*
X60622857Y-68444819D02*
X60527619Y-68444819D01*
X60527619Y-68444819D02*
X60384762Y-68397200D01*
X60384762Y-68397200D02*
X60289524Y-68301961D01*
X60289524Y-68301961D02*
X60241905Y-68206723D01*
X60241905Y-68206723D02*
X60194286Y-68016247D01*
X60194286Y-68016247D02*
X60194286Y-67873390D01*
X60194286Y-67873390D02*
X60241905Y-67682914D01*
X60241905Y-67682914D02*
X60289524Y-67587676D01*
X60289524Y-67587676D02*
X60384762Y-67492438D01*
X60384762Y-67492438D02*
X60527619Y-67444819D01*
X60527619Y-67444819D02*
X60622857Y-67444819D01*
X60622857Y-67444819D02*
X60765714Y-67492438D01*
X60765714Y-67492438D02*
X60813333Y-67540057D01*
X61146667Y-67444819D02*
X61813333Y-67444819D01*
X61813333Y-67444819D02*
X61384762Y-68444819D01*
X43688095Y-69304819D02*
X43688095Y-70114342D01*
X43688095Y-70114342D02*
X43735714Y-70209580D01*
X43735714Y-70209580D02*
X43783333Y-70257200D01*
X43783333Y-70257200D02*
X43878571Y-70304819D01*
X43878571Y-70304819D02*
X44069047Y-70304819D01*
X44069047Y-70304819D02*
X44164285Y-70257200D01*
X44164285Y-70257200D02*
X44211904Y-70209580D01*
X44211904Y-70209580D02*
X44259523Y-70114342D01*
X44259523Y-70114342D02*
X44259523Y-69304819D01*
X44688095Y-69400057D02*
X44735714Y-69352438D01*
X44735714Y-69352438D02*
X44830952Y-69304819D01*
X44830952Y-69304819D02*
X45069047Y-69304819D01*
X45069047Y-69304819D02*
X45164285Y-69352438D01*
X45164285Y-69352438D02*
X45211904Y-69400057D01*
X45211904Y-69400057D02*
X45259523Y-69495295D01*
X45259523Y-69495295D02*
X45259523Y-69590533D01*
X45259523Y-69590533D02*
X45211904Y-69733390D01*
X45211904Y-69733390D02*
X44640476Y-70304819D01*
X44640476Y-70304819D02*
X45259523Y-70304819D01*
X130183095Y-95974819D02*
X130754523Y-95974819D01*
X130468809Y-96974819D02*
X130468809Y-95974819D01*
X131087857Y-96974819D02*
X131087857Y-95974819D01*
X131087857Y-95974819D02*
X131468809Y-95974819D01*
X131468809Y-95974819D02*
X131564047Y-96022438D01*
X131564047Y-96022438D02*
X131611666Y-96070057D01*
X131611666Y-96070057D02*
X131659285Y-96165295D01*
X131659285Y-96165295D02*
X131659285Y-96308152D01*
X131659285Y-96308152D02*
X131611666Y-96403390D01*
X131611666Y-96403390D02*
X131564047Y-96451009D01*
X131564047Y-96451009D02*
X131468809Y-96498628D01*
X131468809Y-96498628D02*
X131087857Y-96498628D01*
X132040238Y-96070057D02*
X132087857Y-96022438D01*
X132087857Y-96022438D02*
X132183095Y-95974819D01*
X132183095Y-95974819D02*
X132421190Y-95974819D01*
X132421190Y-95974819D02*
X132516428Y-96022438D01*
X132516428Y-96022438D02*
X132564047Y-96070057D01*
X132564047Y-96070057D02*
X132611666Y-96165295D01*
X132611666Y-96165295D02*
X132611666Y-96260533D01*
X132611666Y-96260533D02*
X132564047Y-96403390D01*
X132564047Y-96403390D02*
X131992619Y-96974819D01*
X131992619Y-96974819D02*
X132611666Y-96974819D01*
X48063333Y-66194580D02*
X48015714Y-66242200D01*
X48015714Y-66242200D02*
X47872857Y-66289819D01*
X47872857Y-66289819D02*
X47777619Y-66289819D01*
X47777619Y-66289819D02*
X47634762Y-66242200D01*
X47634762Y-66242200D02*
X47539524Y-66146961D01*
X47539524Y-66146961D02*
X47491905Y-66051723D01*
X47491905Y-66051723D02*
X47444286Y-65861247D01*
X47444286Y-65861247D02*
X47444286Y-65718390D01*
X47444286Y-65718390D02*
X47491905Y-65527914D01*
X47491905Y-65527914D02*
X47539524Y-65432676D01*
X47539524Y-65432676D02*
X47634762Y-65337438D01*
X47634762Y-65337438D02*
X47777619Y-65289819D01*
X47777619Y-65289819D02*
X47872857Y-65289819D01*
X47872857Y-65289819D02*
X48015714Y-65337438D01*
X48015714Y-65337438D02*
X48063333Y-65385057D01*
X48968095Y-65289819D02*
X48491905Y-65289819D01*
X48491905Y-65289819D02*
X48444286Y-65766009D01*
X48444286Y-65766009D02*
X48491905Y-65718390D01*
X48491905Y-65718390D02*
X48587143Y-65670771D01*
X48587143Y-65670771D02*
X48825238Y-65670771D01*
X48825238Y-65670771D02*
X48920476Y-65718390D01*
X48920476Y-65718390D02*
X48968095Y-65766009D01*
X48968095Y-65766009D02*
X49015714Y-65861247D01*
X49015714Y-65861247D02*
X49015714Y-66099342D01*
X49015714Y-66099342D02*
X48968095Y-66194580D01*
X48968095Y-66194580D02*
X48920476Y-66242200D01*
X48920476Y-66242200D02*
X48825238Y-66289819D01*
X48825238Y-66289819D02*
X48587143Y-66289819D01*
X48587143Y-66289819D02*
X48491905Y-66242200D01*
X48491905Y-66242200D02*
X48444286Y-66194580D01*
X121181905Y-59724819D02*
X121181905Y-58724819D01*
X121181905Y-58724819D02*
X121420000Y-58724819D01*
X121420000Y-58724819D02*
X121562857Y-58772438D01*
X121562857Y-58772438D02*
X121658095Y-58867676D01*
X121658095Y-58867676D02*
X121705714Y-58962914D01*
X121705714Y-58962914D02*
X121753333Y-59153390D01*
X121753333Y-59153390D02*
X121753333Y-59296247D01*
X121753333Y-59296247D02*
X121705714Y-59486723D01*
X121705714Y-59486723D02*
X121658095Y-59581961D01*
X121658095Y-59581961D02*
X121562857Y-59677200D01*
X121562857Y-59677200D02*
X121420000Y-59724819D01*
X121420000Y-59724819D02*
X121181905Y-59724819D01*
X122705714Y-59724819D02*
X122134286Y-59724819D01*
X122420000Y-59724819D02*
X122420000Y-58724819D01*
X122420000Y-58724819D02*
X122324762Y-58867676D01*
X122324762Y-58867676D02*
X122229524Y-58962914D01*
X122229524Y-58962914D02*
X122134286Y-59010533D01*
X55141905Y-66731819D02*
X55141905Y-65731819D01*
X55141905Y-65731819D02*
X55522857Y-65731819D01*
X55522857Y-65731819D02*
X55618095Y-65779438D01*
X55618095Y-65779438D02*
X55665714Y-65827057D01*
X55665714Y-65827057D02*
X55713333Y-65922295D01*
X55713333Y-65922295D02*
X55713333Y-66065152D01*
X55713333Y-66065152D02*
X55665714Y-66160390D01*
X55665714Y-66160390D02*
X55618095Y-66208009D01*
X55618095Y-66208009D02*
X55522857Y-66255628D01*
X55522857Y-66255628D02*
X55141905Y-66255628D01*
X56665714Y-66731819D02*
X56094286Y-66731819D01*
X56380000Y-66731819D02*
X56380000Y-65731819D01*
X56380000Y-65731819D02*
X56284762Y-65874676D01*
X56284762Y-65874676D02*
X56189524Y-65969914D01*
X56189524Y-65969914D02*
X56094286Y-66017533D01*
X133881905Y-59724819D02*
X133881905Y-58724819D01*
X133881905Y-58724819D02*
X134120000Y-58724819D01*
X134120000Y-58724819D02*
X134262857Y-58772438D01*
X134262857Y-58772438D02*
X134358095Y-58867676D01*
X134358095Y-58867676D02*
X134405714Y-58962914D01*
X134405714Y-58962914D02*
X134453333Y-59153390D01*
X134453333Y-59153390D02*
X134453333Y-59296247D01*
X134453333Y-59296247D02*
X134405714Y-59486723D01*
X134405714Y-59486723D02*
X134358095Y-59581961D01*
X134358095Y-59581961D02*
X134262857Y-59677200D01*
X134262857Y-59677200D02*
X134120000Y-59724819D01*
X134120000Y-59724819D02*
X133881905Y-59724819D01*
X134786667Y-58724819D02*
X135405714Y-58724819D01*
X135405714Y-58724819D02*
X135072381Y-59105771D01*
X135072381Y-59105771D02*
X135215238Y-59105771D01*
X135215238Y-59105771D02*
X135310476Y-59153390D01*
X135310476Y-59153390D02*
X135358095Y-59201009D01*
X135358095Y-59201009D02*
X135405714Y-59296247D01*
X135405714Y-59296247D02*
X135405714Y-59534342D01*
X135405714Y-59534342D02*
X135358095Y-59629580D01*
X135358095Y-59629580D02*
X135310476Y-59677200D01*
X135310476Y-59677200D02*
X135215238Y-59724819D01*
X135215238Y-59724819D02*
X134929524Y-59724819D01*
X134929524Y-59724819D02*
X134834286Y-59677200D01*
X134834286Y-59677200D02*
X134786667Y-59629580D01*
D11*
%TO.C,R2*%
X64540000Y-64770000D02*
X65310000Y-64770000D01*
X65310000Y-63400000D02*
X65310000Y-66140000D01*
X65310000Y-66140000D02*
X71850000Y-66140000D01*
X71850000Y-63400000D02*
X65310000Y-63400000D01*
X71850000Y-66140000D02*
X71850000Y-63400000D01*
X72620000Y-64770000D02*
X71850000Y-64770000D01*
%TO.C,J3*%
X135990000Y-88960000D02*
X134660000Y-88960000D01*
X135990000Y-87630000D02*
X135990000Y-88960000D01*
X135990000Y-86360000D02*
X135990000Y-86300000D01*
X135990000Y-86360000D02*
X133330000Y-86360000D01*
X135990000Y-86300000D02*
X133330000Y-86300000D01*
X133330000Y-86360000D02*
X133330000Y-86300000D01*
%TO.C,R3*%
X55880000Y-96290000D02*
X55880000Y-97060000D01*
X57250000Y-97060000D02*
X54510000Y-97060000D01*
X54510000Y-97060000D02*
X54510000Y-103600000D01*
X57250000Y-103600000D02*
X57250000Y-97060000D01*
X54510000Y-103600000D02*
X57250000Y-103600000D01*
X55880000Y-104370000D02*
X55880000Y-103600000D01*
%TO.C,C6*%
X115220000Y-102730000D02*
X118460000Y-102730000D01*
X115220000Y-102730000D02*
X115220000Y-97890000D01*
X118460000Y-102730000D02*
X118460000Y-97890000D01*
X115220000Y-97890000D02*
X118460000Y-97890000D01*
%TO.C,J1*%
X89503500Y-102870000D02*
X89503500Y-100330000D01*
X90523500Y-90940000D02*
X90523500Y-92800000D01*
X90523500Y-97700000D02*
X90523500Y-136440000D01*
X90523500Y-136440000D02*
X113623500Y-136440000D01*
X92803500Y-90940000D02*
X92803500Y-93200000D01*
X113623500Y-90940000D02*
X90523500Y-90940000D01*
X113623500Y-136440000D02*
X113623500Y-90940000D01*
X92153500Y-95250000D02*
G75*
G03*
X92153500Y-95250000I-900000J0D01*
G01*
X93803500Y-95250000D02*
G75*
G03*
X93803500Y-95250000I-2550000J0D01*
G01*
%TO.C,R5*%
X128270000Y-68350000D02*
X128270000Y-69120000D01*
X129640000Y-69120000D02*
X126900000Y-69120000D01*
X126900000Y-69120000D02*
X126900000Y-75660000D01*
X129640000Y-75660000D02*
X129640000Y-69120000D01*
X126900000Y-75660000D02*
X129640000Y-75660000D01*
X128270000Y-76430000D02*
X128270000Y-75660000D01*
%TO.C,U3*%
X119370000Y-91330000D02*
X119370000Y-101730000D01*
X119370000Y-101730000D02*
X129650000Y-101730000D01*
X121860000Y-91390000D02*
X121860000Y-101670000D01*
X121860000Y-101670000D02*
X127160000Y-101670000D01*
X123510000Y-91390000D02*
X121860000Y-91390000D01*
X127160000Y-91390000D02*
X125510000Y-91390000D01*
X127160000Y-101670000D02*
X127160000Y-91390000D01*
X129650000Y-91330000D02*
X119370000Y-91330000D01*
X129650000Y-101730000D02*
X129650000Y-91330000D01*
X123510000Y-91390000D02*
G75*
G03*
X125510000Y-91390000I1000000J0D01*
G01*
%TO.C,C1*%
X49880000Y-118250000D02*
X46640000Y-118250000D01*
X49880000Y-118250000D02*
X49880000Y-123090000D01*
X46640000Y-118250000D02*
X46640000Y-123090000D01*
X49880000Y-123090000D02*
X46640000Y-123090000D01*
%TO.C,R4*%
X121920000Y-68350000D02*
X121920000Y-69120000D01*
X123290000Y-69120000D02*
X120550000Y-69120000D01*
X120550000Y-69120000D02*
X120550000Y-75660000D01*
X123290000Y-75660000D02*
X123290000Y-69120000D01*
X120550000Y-75660000D02*
X123290000Y-75660000D01*
X121920000Y-76430000D02*
X121920000Y-75660000D01*
%TO.C,R7*%
X134620000Y-68350000D02*
X134620000Y-69120000D01*
X135990000Y-69120000D02*
X133250000Y-69120000D01*
X133250000Y-69120000D02*
X133250000Y-75660000D01*
X135990000Y-75660000D02*
X135990000Y-69120000D01*
X133250000Y-75660000D02*
X135990000Y-75660000D01*
X134620000Y-76430000D02*
X134620000Y-75660000D01*
%TO.C,R6*%
X118110000Y-112800000D02*
X118110000Y-113570000D01*
X119480000Y-113570000D02*
X116740000Y-113570000D01*
X116740000Y-113570000D02*
X116740000Y-120110000D01*
X119480000Y-120110000D02*
X119480000Y-113570000D01*
X116740000Y-120110000D02*
X119480000Y-120110000D01*
X118110000Y-120880000D02*
X118110000Y-120110000D01*
%TO.C,TP1*%
X135860000Y-93910000D02*
X133460000Y-93910000D01*
X135860000Y-91510000D02*
X135860000Y-93910000D01*
X133460000Y-93910000D02*
X133460000Y-91510000D01*
X133460000Y-91510000D02*
X135860000Y-91510000D01*
%TO.C,C2*%
X46640000Y-115430000D02*
X49880000Y-115430000D01*
X46640000Y-115430000D02*
X46640000Y-110590000D01*
X49880000Y-115430000D02*
X49880000Y-110590000D01*
X46640000Y-110590000D02*
X49880000Y-110590000D01*
%TO.C,TP3*%
X133420000Y-118180000D02*
X135820000Y-118180000D01*
X133420000Y-120580000D02*
X133420000Y-118180000D01*
X135820000Y-118180000D02*
X135820000Y-120580000D01*
X135820000Y-120580000D02*
X133420000Y-120580000D01*
%TO.C,C3*%
X55530000Y-81220000D02*
X58770000Y-81220000D01*
X55530000Y-81220000D02*
X55530000Y-76380000D01*
X58770000Y-81220000D02*
X58770000Y-76380000D01*
X55530000Y-76380000D02*
X58770000Y-76380000D01*
%TO.C,J2*%
X88130000Y-60090000D02*
X87130000Y-60090000D01*
X87130000Y-60090000D02*
X87630000Y-61090000D01*
X87630000Y-61090000D02*
X88130000Y-60090000D01*
X92840000Y-61480000D02*
X92840000Y-70600000D01*
X87140000Y-61480000D02*
X87140000Y-62790000D01*
X77340000Y-61480000D02*
X92840000Y-61480000D01*
X91540000Y-62790000D02*
X91540000Y-69290000D01*
X87140000Y-62790000D02*
X91540000Y-62790000D01*
X83040000Y-62790000D02*
X83040000Y-61480000D01*
X83040000Y-62790000D02*
X83040000Y-62790000D01*
X78640000Y-62790000D02*
X83040000Y-62790000D01*
X91540000Y-69290000D02*
X78640000Y-69290000D01*
X78640000Y-69290000D02*
X78640000Y-62790000D01*
X92840000Y-70600000D02*
X77340000Y-70600000D01*
X77340000Y-70600000D02*
X77340000Y-61480000D01*
%TO.C,R8*%
X116840000Y-78510000D02*
X116840000Y-79280000D01*
X118210000Y-79280000D02*
X115470000Y-79280000D01*
X115470000Y-79280000D02*
X115470000Y-85820000D01*
X118210000Y-85820000D02*
X118210000Y-79280000D01*
X115470000Y-85820000D02*
X118210000Y-85820000D01*
X116840000Y-86590000D02*
X116840000Y-85820000D01*
%TO.C,R1*%
X64540000Y-60960000D02*
X65310000Y-60960000D01*
X65310000Y-59590000D02*
X65310000Y-62330000D01*
X65310000Y-62330000D02*
X71850000Y-62330000D01*
X71850000Y-59590000D02*
X65310000Y-59590000D01*
X71850000Y-62330000D02*
X71850000Y-59590000D01*
X72620000Y-60960000D02*
X71850000Y-60960000D01*
%TO.C,C4*%
X61310000Y-109360000D02*
X58070000Y-109360000D01*
X61310000Y-109360000D02*
X61310000Y-114200000D01*
X58070000Y-109360000D02*
X58070000Y-114200000D01*
X61310000Y-114200000D02*
X58070000Y-114200000D01*
%TO.C,J5*%
X133290000Y-123130000D02*
X134620000Y-123130000D01*
X133290000Y-124460000D02*
X133290000Y-123130000D01*
X133290000Y-125730000D02*
X133290000Y-125790000D01*
X133290000Y-125730000D02*
X135950000Y-125730000D01*
X133290000Y-125790000D02*
X135950000Y-125790000D01*
X135950000Y-125730000D02*
X135950000Y-125790000D01*
%TO.C,J4*%
X133330000Y-101540000D02*
X134660000Y-101540000D01*
X133330000Y-102870000D02*
X133330000Y-101540000D01*
X133330000Y-104140000D02*
X133330000Y-104200000D01*
X133330000Y-104140000D02*
X135990000Y-104140000D01*
X133330000Y-104200000D02*
X135990000Y-104200000D01*
X135990000Y-104140000D02*
X135990000Y-104200000D01*
%TO.C,SW1*%
X44760000Y-102120000D02*
X44760000Y-103620000D01*
X46010000Y-106120000D02*
X50510000Y-106120000D01*
X50510000Y-99620000D02*
X46010000Y-99620000D01*
X51760000Y-103620000D02*
X51760000Y-102120000D01*
%TO.C,C9*%
X122060000Y-80930000D02*
X122060000Y-84170000D01*
X122060000Y-80930000D02*
X126900000Y-80930000D01*
X122060000Y-84170000D02*
X126900000Y-84170000D01*
X126900000Y-80930000D02*
X126900000Y-84170000D01*
%TO.C,C8*%
X122100000Y-86010000D02*
X122100000Y-89250000D01*
X122100000Y-86010000D02*
X126940000Y-86010000D01*
X122100000Y-89250000D02*
X126940000Y-89250000D01*
X126940000Y-86010000D02*
X126940000Y-89250000D01*
%TO.C,Y1*%
X51323000Y-119975000D02*
X51323000Y-113725000D01*
X56373000Y-119975000D02*
X56373000Y-113725000D01*
X51323000Y-119975000D02*
G75*
G03*
X56373000Y-119975000I2525000J0D01*
G01*
X56373000Y-113725000D02*
G75*
G03*
X51323000Y-113725000I-2525000J0D01*
G01*
%TO.C,D2*%
X126710000Y-60994000D02*
X126710000Y-61150000D01*
X126710000Y-63310000D02*
X126710000Y-63466000D01*
X129942334Y-61151392D02*
G75*
G03*
X126710001Y-60994485I-1672334J-1078608D01*
G01*
X129311129Y-61150164D02*
G75*
G03*
X127229040Y-61150001I-1041129J-1079836D01*
G01*
X127229040Y-63309999D02*
G75*
G03*
X129311129Y-63309836I1040960J1079999D01*
G01*
X126710001Y-63465515D02*
G75*
G03*
X129942334Y-63308608I1559999J1235515D01*
G01*
%TO.C,U1*%
X63440000Y-86240000D02*
X63440000Y-137280000D01*
X63440000Y-137280000D02*
X81340000Y-137280000D01*
X65930000Y-86300000D02*
X65930000Y-137220000D01*
X65930000Y-137220000D02*
X78850000Y-137220000D01*
X71390000Y-86300000D02*
X65930000Y-86300000D01*
X78850000Y-86300000D02*
X73390000Y-86300000D01*
X78850000Y-137220000D02*
X78850000Y-86300000D01*
X81340000Y-86240000D02*
X63440000Y-86240000D01*
X81340000Y-137280000D02*
X81340000Y-86240000D01*
X71390000Y-86300000D02*
G75*
G03*
X73390000Y-86300000I1000000J0D01*
G01*
%TO.C,C7*%
X57479759Y-70551000D02*
X58109759Y-70551000D01*
X57794759Y-70236000D02*
X57794759Y-70866000D01*
X60980000Y-69160000D02*
X60980000Y-75620000D01*
X61020000Y-69160000D02*
X61020000Y-75620000D01*
X61060000Y-69160000D02*
X61060000Y-75620000D01*
X61100000Y-69162000D02*
X61100000Y-75618000D01*
X61140000Y-69163000D02*
X61140000Y-75617000D01*
X61180000Y-69166000D02*
X61180000Y-75614000D01*
X61220000Y-69168000D02*
X61220000Y-71350000D01*
X61220000Y-73430000D02*
X61220000Y-75612000D01*
X61260000Y-69172000D02*
X61260000Y-71350000D01*
X61260000Y-73430000D02*
X61260000Y-75608000D01*
X61300000Y-69175000D02*
X61300000Y-71350000D01*
X61300000Y-73430000D02*
X61300000Y-75605000D01*
X61340000Y-69179000D02*
X61340000Y-71350000D01*
X61340000Y-73430000D02*
X61340000Y-75601000D01*
X61380000Y-69184000D02*
X61380000Y-71350000D01*
X61380000Y-73430000D02*
X61380000Y-75596000D01*
X61420000Y-69189000D02*
X61420000Y-71350000D01*
X61420000Y-73430000D02*
X61420000Y-75591000D01*
X61460000Y-69195000D02*
X61460000Y-71350000D01*
X61460000Y-73430000D02*
X61460000Y-75585000D01*
X61500000Y-69201000D02*
X61500000Y-71350000D01*
X61500000Y-73430000D02*
X61500000Y-75579000D01*
X61540000Y-69208000D02*
X61540000Y-71350000D01*
X61540000Y-73430000D02*
X61540000Y-75572000D01*
X61580000Y-69215000D02*
X61580000Y-71350000D01*
X61580000Y-73430000D02*
X61580000Y-75565000D01*
X61620000Y-69223000D02*
X61620000Y-71350000D01*
X61620000Y-73430000D02*
X61620000Y-75557000D01*
X61660000Y-69231000D02*
X61660000Y-71350000D01*
X61660000Y-73430000D02*
X61660000Y-75549000D01*
X61701000Y-69240000D02*
X61701000Y-71350000D01*
X61701000Y-73430000D02*
X61701000Y-75540000D01*
X61741000Y-69249000D02*
X61741000Y-71350000D01*
X61741000Y-73430000D02*
X61741000Y-75531000D01*
X61781000Y-69259000D02*
X61781000Y-71350000D01*
X61781000Y-73430000D02*
X61781000Y-75521000D01*
X61821000Y-69269000D02*
X61821000Y-71350000D01*
X61821000Y-73430000D02*
X61821000Y-75511000D01*
X61861000Y-69280000D02*
X61861000Y-71350000D01*
X61861000Y-73430000D02*
X61861000Y-75500000D01*
X61901000Y-69292000D02*
X61901000Y-71350000D01*
X61901000Y-73430000D02*
X61901000Y-75488000D01*
X61941000Y-69304000D02*
X61941000Y-71350000D01*
X61941000Y-73430000D02*
X61941000Y-75476000D01*
X61981000Y-69316000D02*
X61981000Y-71350000D01*
X61981000Y-73430000D02*
X61981000Y-75464000D01*
X62021000Y-69329000D02*
X62021000Y-71350000D01*
X62021000Y-73430000D02*
X62021000Y-75451000D01*
X62061000Y-69343000D02*
X62061000Y-71350000D01*
X62061000Y-73430000D02*
X62061000Y-75437000D01*
X62101000Y-69357000D02*
X62101000Y-71350000D01*
X62101000Y-73430000D02*
X62101000Y-75423000D01*
X62141000Y-69372000D02*
X62141000Y-71350000D01*
X62141000Y-73430000D02*
X62141000Y-75408000D01*
X62181000Y-69388000D02*
X62181000Y-71350000D01*
X62181000Y-73430000D02*
X62181000Y-75392000D01*
X62221000Y-69404000D02*
X62221000Y-71350000D01*
X62221000Y-73430000D02*
X62221000Y-75376000D01*
X62261000Y-69420000D02*
X62261000Y-71350000D01*
X62261000Y-73430000D02*
X62261000Y-75360000D01*
X62301000Y-69438000D02*
X62301000Y-71350000D01*
X62301000Y-73430000D02*
X62301000Y-75342000D01*
X62341000Y-69456000D02*
X62341000Y-71350000D01*
X62341000Y-73430000D02*
X62341000Y-75324000D01*
X62381000Y-69474000D02*
X62381000Y-71350000D01*
X62381000Y-73430000D02*
X62381000Y-75306000D01*
X62421000Y-69494000D02*
X62421000Y-71350000D01*
X62421000Y-73430000D02*
X62421000Y-75286000D01*
X62461000Y-69514000D02*
X62461000Y-71350000D01*
X62461000Y-73430000D02*
X62461000Y-75266000D01*
X62501000Y-69534000D02*
X62501000Y-71350000D01*
X62501000Y-73430000D02*
X62501000Y-75246000D01*
X62541000Y-69556000D02*
X62541000Y-71350000D01*
X62541000Y-73430000D02*
X62541000Y-75224000D01*
X62581000Y-69578000D02*
X62581000Y-71350000D01*
X62581000Y-73430000D02*
X62581000Y-75202000D01*
X62621000Y-69600000D02*
X62621000Y-71350000D01*
X62621000Y-73430000D02*
X62621000Y-75180000D01*
X62661000Y-69624000D02*
X62661000Y-71350000D01*
X62661000Y-73430000D02*
X62661000Y-75156000D01*
X62701000Y-69648000D02*
X62701000Y-71350000D01*
X62701000Y-73430000D02*
X62701000Y-75132000D01*
X62741000Y-69674000D02*
X62741000Y-71350000D01*
X62741000Y-73430000D02*
X62741000Y-75106000D01*
X62781000Y-69700000D02*
X62781000Y-71350000D01*
X62781000Y-73430000D02*
X62781000Y-75080000D01*
X62821000Y-69726000D02*
X62821000Y-71350000D01*
X62821000Y-73430000D02*
X62821000Y-75054000D01*
X62861000Y-69754000D02*
X62861000Y-71350000D01*
X62861000Y-73430000D02*
X62861000Y-75026000D01*
X62901000Y-69783000D02*
X62901000Y-71350000D01*
X62901000Y-73430000D02*
X62901000Y-74997000D01*
X62941000Y-69812000D02*
X62941000Y-71350000D01*
X62941000Y-73430000D02*
X62941000Y-74968000D01*
X62981000Y-69842000D02*
X62981000Y-71350000D01*
X62981000Y-73430000D02*
X62981000Y-74938000D01*
X63021000Y-69874000D02*
X63021000Y-71350000D01*
X63021000Y-73430000D02*
X63021000Y-74906000D01*
X63061000Y-69906000D02*
X63061000Y-71350000D01*
X63061000Y-73430000D02*
X63061000Y-74874000D01*
X63101000Y-69940000D02*
X63101000Y-71350000D01*
X63101000Y-73430000D02*
X63101000Y-74840000D01*
X63141000Y-69974000D02*
X63141000Y-71350000D01*
X63141000Y-73430000D02*
X63141000Y-74806000D01*
X63181000Y-70010000D02*
X63181000Y-71350000D01*
X63181000Y-73430000D02*
X63181000Y-74770000D01*
X63221000Y-70047000D02*
X63221000Y-71350000D01*
X63221000Y-73430000D02*
X63221000Y-74733000D01*
X63261000Y-70085000D02*
X63261000Y-71350000D01*
X63261000Y-73430000D02*
X63261000Y-74695000D01*
X63301000Y-70125000D02*
X63301000Y-74655000D01*
X63341000Y-70166000D02*
X63341000Y-74614000D01*
X63381000Y-70208000D02*
X63381000Y-74572000D01*
X63421000Y-70253000D02*
X63421000Y-74527000D01*
X63461000Y-70298000D02*
X63461000Y-74482000D01*
X63501000Y-70346000D02*
X63501000Y-74434000D01*
X63541000Y-70395000D02*
X63541000Y-74385000D01*
X63581000Y-70446000D02*
X63581000Y-74334000D01*
X63621000Y-70500000D02*
X63621000Y-74280000D01*
X63661000Y-70556000D02*
X63661000Y-74224000D01*
X63701000Y-70614000D02*
X63701000Y-74166000D01*
X63741000Y-70676000D02*
X63741000Y-74104000D01*
X63781000Y-70740000D02*
X63781000Y-74040000D01*
X63821000Y-70809000D02*
X63821000Y-73971000D01*
X63861000Y-70881000D02*
X63861000Y-73899000D01*
X63901000Y-70958000D02*
X63901000Y-73822000D01*
X63941000Y-71040000D02*
X63941000Y-73740000D01*
X63981000Y-71128000D02*
X63981000Y-73652000D01*
X64021000Y-71225000D02*
X64021000Y-73555000D01*
X64061000Y-71331000D02*
X64061000Y-73449000D01*
X64101000Y-71450000D02*
X64101000Y-73330000D01*
X64141000Y-71588000D02*
X64141000Y-73192000D01*
X64181000Y-71757000D02*
X64181000Y-73023000D01*
X64221000Y-71988000D02*
X64221000Y-72792000D01*
X64250000Y-72390000D02*
G75*
G03*
X64250000Y-72390000I-3270000J0D01*
G01*
%TO.C,U2*%
X43120000Y-71000000D02*
X43120000Y-89020000D01*
X43120000Y-89020000D02*
X53400000Y-89020000D01*
X45610000Y-71060000D02*
X45610000Y-88960000D01*
X45610000Y-88960000D02*
X50910000Y-88960000D01*
X47260000Y-71060000D02*
X45610000Y-71060000D01*
X50910000Y-71060000D02*
X49260000Y-71060000D01*
X50910000Y-88960000D02*
X50910000Y-71060000D01*
X53400000Y-71000000D02*
X43120000Y-71000000D01*
X53400000Y-89020000D02*
X53400000Y-71000000D01*
X47260000Y-71060000D02*
G75*
G03*
X49260000Y-71060000I1000000J0D01*
G01*
%TO.C,TP2*%
X133460000Y-96590000D02*
X135860000Y-96590000D01*
X133460000Y-98990000D02*
X133460000Y-96590000D01*
X135860000Y-96590000D02*
X135860000Y-98990000D01*
X135860000Y-98990000D02*
X133460000Y-98990000D01*
%TO.C,C5*%
X45810000Y-66965000D02*
X45810000Y-70205000D01*
X45810000Y-66965000D02*
X50650000Y-66965000D01*
X45810000Y-70205000D02*
X50650000Y-70205000D01*
X50650000Y-66965000D02*
X50650000Y-70205000D01*
%TO.C,D1*%
X120360000Y-60994000D02*
X120360000Y-61150000D01*
X120360000Y-63310000D02*
X120360000Y-63466000D01*
X123592334Y-61151392D02*
G75*
G03*
X120360001Y-60994485I-1672334J-1078608D01*
G01*
X122961129Y-61150164D02*
G75*
G03*
X120879040Y-61150001I-1041129J-1079836D01*
G01*
X120879040Y-63309999D02*
G75*
G03*
X122961129Y-63309836I1040960J1079999D01*
G01*
X120360001Y-63465515D02*
G75*
G03*
X123592334Y-63308608I1559999J1235515D01*
G01*
%TO.C,P1*%
X60475000Y-62077000D02*
X60475000Y-61177000D01*
X60475000Y-58477000D02*
X60475000Y-55747000D01*
X60475000Y-55747000D02*
X51285000Y-55747000D01*
X60355000Y-65157000D02*
X51405000Y-65157000D01*
X51285000Y-62077000D02*
X51285000Y-61177000D01*
X51285000Y-58477000D02*
X51285000Y-55747000D01*
%TO.C,D3*%
X133060000Y-60994000D02*
X133060000Y-61150000D01*
X133060000Y-63310000D02*
X133060000Y-63466000D01*
X136292334Y-61151392D02*
G75*
G03*
X133060001Y-60994485I-1672334J-1078608D01*
G01*
X135661129Y-61150164D02*
G75*
G03*
X133579040Y-61150001I-1041129J-1079836D01*
G01*
X133579040Y-63309999D02*
G75*
G03*
X135661129Y-63309836I1040960J1079999D01*
G01*
X133060001Y-63465515D02*
G75*
G03*
X136292334Y-63308608I1559999J1235515D01*
G01*
%TD*%
%LPC*%
D12*
%TO.C,R2*%
X63500000Y-64770000D03*
D13*
X73660000Y-64770000D03*
%TD*%
D14*
%TO.C,J3*%
X134660000Y-87630000D03*
%TD*%
D12*
%TO.C,R3*%
X55880000Y-95250000D03*
D13*
X55880000Y-105410000D03*
%TD*%
D15*
%TO.C,C6*%
X116840000Y-101560000D03*
X116840000Y-99060000D03*
%TD*%
D16*
%TO.C,J1*%
X94453500Y-101600000D03*
D17*
X94453500Y-104140000D03*
X94453500Y-106680000D03*
X94453500Y-109220000D03*
X94453500Y-111760000D03*
X94453500Y-114300000D03*
X94453500Y-116840000D03*
X94453500Y-119380000D03*
X94453500Y-121920000D03*
X94453500Y-124460000D03*
X94453500Y-127000000D03*
X94453500Y-129540000D03*
X109693500Y-129540000D03*
X109693500Y-127000000D03*
X109693500Y-124460000D03*
X109693500Y-121920000D03*
X109693500Y-119380000D03*
X109693500Y-116840000D03*
X109693500Y-114300000D03*
X109693500Y-111760000D03*
X109693500Y-109220000D03*
X109693500Y-106680000D03*
X109693500Y-104140000D03*
X109693500Y-101600000D03*
%TD*%
D12*
%TO.C,R5*%
X128270000Y-67310000D03*
D13*
X128270000Y-77470000D03*
%TD*%
D18*
%TO.C,U3*%
X120700000Y-92720000D03*
D13*
X120700000Y-95260000D03*
X120700000Y-97800000D03*
X120700000Y-100340000D03*
X128320000Y-100340000D03*
X128320000Y-97800000D03*
X128320000Y-95260000D03*
X128320000Y-92720000D03*
%TD*%
D15*
%TO.C,C1*%
X48260000Y-119420000D03*
X48260000Y-121920000D03*
%TD*%
D12*
%TO.C,R4*%
X121920000Y-67310000D03*
D13*
X121920000Y-77470000D03*
%TD*%
D12*
%TO.C,R7*%
X134620000Y-67310000D03*
D13*
X134620000Y-77470000D03*
%TD*%
D12*
%TO.C,R6*%
X118110000Y-111760000D03*
D13*
X118110000Y-121920000D03*
%TD*%
D19*
%TO.C,TP1*%
X134660000Y-92710000D03*
%TD*%
D15*
%TO.C,C2*%
X48260000Y-114260000D03*
X48260000Y-111760000D03*
%TD*%
D19*
%TO.C,TP3*%
X134620000Y-119380000D03*
%TD*%
D15*
%TO.C,C3*%
X57150000Y-80050000D03*
X57150000Y-77550000D03*
%TD*%
D20*
%TO.C,J2*%
X87630000Y-64770000D03*
D21*
X87630000Y-67310000D03*
X85090000Y-64770000D03*
X85090000Y-67310000D03*
X82550000Y-64770000D03*
X82550000Y-67310000D03*
%TD*%
D12*
%TO.C,R8*%
X116840000Y-77470000D03*
D13*
X116840000Y-87630000D03*
%TD*%
D12*
%TO.C,R1*%
X63500000Y-60960000D03*
D13*
X73660000Y-60960000D03*
%TD*%
D15*
%TO.C,C4*%
X59690000Y-110530000D03*
X59690000Y-113030000D03*
%TD*%
D14*
%TO.C,J5*%
X134620000Y-124460000D03*
%TD*%
%TO.C,J4*%
X134660000Y-102870000D03*
%TD*%
D22*
%TO.C,SW1*%
X45010000Y-100620000D03*
X51510000Y-100620000D03*
X45010000Y-105120000D03*
X51510000Y-105120000D03*
%TD*%
D15*
%TO.C,C9*%
X123230000Y-82550000D03*
X125730000Y-82550000D03*
%TD*%
%TO.C,C8*%
X123270000Y-87630000D03*
X125770000Y-87630000D03*
%TD*%
D23*
%TO.C,Y1*%
X53848000Y-119290000D03*
X53848000Y-114410000D03*
%TD*%
D24*
%TO.C,D2*%
X127000000Y-62230000D03*
D25*
X129540000Y-62230000D03*
%TD*%
D18*
%TO.C,U1*%
X64770000Y-87630000D03*
D13*
X64770000Y-90170000D03*
X64770000Y-92710000D03*
X64770000Y-95250000D03*
X64770000Y-97790000D03*
X64770000Y-100330000D03*
X64770000Y-102870000D03*
X64770000Y-105410000D03*
X64770000Y-107950000D03*
X64770000Y-110490000D03*
X64770000Y-113030000D03*
X64770000Y-115570000D03*
X64770000Y-118110000D03*
X64770000Y-120650000D03*
X64770000Y-123190000D03*
X64770000Y-125730000D03*
X64770000Y-128270000D03*
X64770000Y-130810000D03*
X64770000Y-133350000D03*
X64770000Y-135890000D03*
X80010000Y-135890000D03*
X80010000Y-133350000D03*
X80010000Y-130810000D03*
X80010000Y-128270000D03*
X80010000Y-125730000D03*
X80010000Y-123190000D03*
X80010000Y-120650000D03*
X80010000Y-118110000D03*
X80010000Y-115570000D03*
X80010000Y-113030000D03*
X80010000Y-110490000D03*
X80010000Y-107950000D03*
X80010000Y-105410000D03*
X80010000Y-102870000D03*
X80010000Y-100330000D03*
X80010000Y-97790000D03*
X80010000Y-95250000D03*
X80010000Y-92710000D03*
X80010000Y-90170000D03*
X80010000Y-87630000D03*
%TD*%
D18*
%TO.C,C7*%
X59730000Y-72390000D03*
D12*
X62230000Y-72390000D03*
%TD*%
D18*
%TO.C,U2*%
X44450000Y-72390000D03*
D13*
X44450000Y-74930000D03*
X44450000Y-77470000D03*
X44450000Y-80010000D03*
X44450000Y-82550000D03*
X44450000Y-85090000D03*
X44450000Y-87630000D03*
X52070000Y-87630000D03*
X52070000Y-85090000D03*
X52070000Y-82550000D03*
X52070000Y-80010000D03*
X52070000Y-77470000D03*
X52070000Y-74930000D03*
X52070000Y-72390000D03*
%TD*%
D19*
%TO.C,TP2*%
X134660000Y-97790000D03*
%TD*%
D15*
%TO.C,C5*%
X46980000Y-68585000D03*
X49480000Y-68585000D03*
%TD*%
D24*
%TO.C,D1*%
X120650000Y-62230000D03*
D25*
X123190000Y-62230000D03*
%TD*%
D26*
%TO.C,P1*%
X58855000Y-64477000D03*
X58005000Y-64477000D03*
X57155000Y-64477000D03*
X56305000Y-64477000D03*
X55455000Y-64477000D03*
X54605000Y-64477000D03*
X53755000Y-64477000D03*
X52905000Y-64477000D03*
X52905000Y-63127000D03*
X53755000Y-63127000D03*
X54605000Y-63127000D03*
X55455000Y-63127000D03*
X56305000Y-63127000D03*
X57155000Y-63127000D03*
X58005000Y-63127000D03*
X58855000Y-63127000D03*
D27*
X60205000Y-63497000D03*
D28*
X60205000Y-60117000D03*
D27*
X51555000Y-63497000D03*
D28*
X51555000Y-60117000D03*
%TD*%
D24*
%TO.C,D3*%
X133350000Y-62230000D03*
D25*
X135890000Y-62230000D03*
%TD*%
%LPD*%
M02*
