G04 #@! TF.GenerationSoftware,KiCad,Pcbnew,9.0.4*
G04 #@! TF.CreationDate,2025-09-11T22:57:18+02:00*
G04 #@! TF.ProjectId,EPROM-programmer,4550524f-4d2d-4707-926f-6772616d6d65,rev?*
G04 #@! TF.SameCoordinates,Original*
G04 #@! TF.FileFunction,Soldermask,Top*
G04 #@! TF.FilePolarity,Negative*
%FSLAX46Y46*%
G04 Gerber Fmt 4.6, Leading zero omitted, Abs format (unit mm)*
G04 Created by KiCad (PCBNEW 9.0.4) date 2025-09-11 22:57:18*
%MOMM*%
%LPD*%
G01*
G04 APERTURE LIST*
G04 Aperture macros list*
%AMRoundRect*
0 Rectangle with rounded corners*
0 $1 Rounding radius*
0 $2 $3 $4 $5 $6 $7 $8 $9 X,Y pos of 4 corners*
0 Add a 4 corners polygon primitive as box body*
4,1,4,$2,$3,$4,$5,$6,$7,$8,$9,$2,$3,0*
0 Add four circle primitives for the rounded corners*
1,1,$1+$1,$2,$3*
1,1,$1+$1,$4,$5*
1,1,$1+$1,$6,$7*
1,1,$1+$1,$8,$9*
0 Add four rect primitives between the rounded corners*
20,1,$1+$1,$2,$3,$4,$5,0*
20,1,$1+$1,$4,$5,$6,$7,0*
20,1,$1+$1,$6,$7,$8,$9,0*
20,1,$1+$1,$8,$9,$2,$3,0*%
G04 Aperture macros list end*
%ADD10R,1.700000X1.700000*%
%ADD11C,1.600000*%
%ADD12R,2.000000X2.000000*%
%ADD13C,3.500000*%
%ADD14R,2.000000X1.905000*%
%ADD15O,2.000000X1.905000*%
%ADD16RoundRect,0.250000X1.350000X1.350000X-1.350000X1.350000X-1.350000X-1.350000X1.350000X-1.350000X0*%
%ADD17C,3.200000*%
%ADD18RoundRect,0.250000X-0.550000X-0.550000X0.550000X-0.550000X0.550000X0.550000X-0.550000X0.550000X0*%
%ADD19RoundRect,0.250000X-0.550000X0.550000X-0.550000X-0.550000X0.550000X-0.550000X0.550000X0.550000X0*%
%ADD20C,1.400000*%
%ADD21R,1.500000X1.500000*%
%ADD22C,1.500000*%
%ADD23R,1.600000X1.600000*%
%ADD24R,2.000000X1.440000*%
%ADD25O,2.000000X1.440000*%
%ADD26RoundRect,0.250000X0.550000X0.550000X-0.550000X0.550000X-0.550000X-0.550000X0.550000X-0.550000X0*%
%ADD27RoundRect,0.250000X0.550000X-0.550000X0.550000X0.550000X-0.550000X0.550000X-0.550000X-0.550000X0*%
%ADD28C,2.400000*%
%ADD29RoundRect,0.250000X0.750000X-0.750000X0.750000X0.750000X-0.750000X0.750000X-0.750000X-0.750000X0*%
%ADD30C,2.000000*%
%ADD31R,1.905000X2.000000*%
%ADD32O,1.905000X2.000000*%
%ADD33C,2.600000*%
%ADD34RoundRect,0.250000X0.600000X-0.600000X0.600000X0.600000X-0.600000X0.600000X-0.600000X-0.600000X0*%
%ADD35C,1.700000*%
%ADD36R,3.500000X3.500000*%
%ADD37RoundRect,0.750000X-1.000000X0.750000X-1.000000X-0.750000X1.000000X-0.750000X1.000000X0.750000X0*%
%ADD38RoundRect,0.875000X-0.875000X0.875000X-0.875000X-0.875000X0.875000X-0.875000X0.875000X0.875000X0*%
%ADD39RoundRect,0.250000X1.350000X-1.350000X1.350000X1.350000X-1.350000X1.350000X-1.350000X-1.350000X0*%
%ADD40RoundRect,0.250000X0.750000X0.750000X-0.750000X0.750000X-0.750000X-0.750000X0.750000X-0.750000X0*%
%ADD41R,1.800000X1.800000*%
%ADD42C,1.800000*%
%ADD43RoundRect,0.250000X-1.350000X-1.350000X1.350000X-1.350000X1.350000X1.350000X-1.350000X1.350000X0*%
%ADD44C,0.700000*%
%ADD45O,0.900000X2.400000*%
%ADD46O,0.900000X1.700000*%
G04 APERTURE END LIST*
D10*
X21544000Y-175292000D03*
D11*
X50292000Y-130556000D03*
X60452000Y-130556000D03*
D12*
X27178000Y-92202000D03*
D13*
X101790000Y-144780000D03*
D14*
X118450000Y-147320000D03*
D15*
X118450000Y-144780000D03*
X118450000Y-142240000D03*
D11*
X127508000Y-171704000D03*
X117348000Y-171704000D03*
D16*
X88318000Y-137795000D03*
D17*
X83238000Y-137795000D03*
D12*
X21463000Y-171704000D03*
D18*
X55636000Y-142409000D03*
D11*
X55636000Y-144949000D03*
X55636000Y-147489000D03*
X55636000Y-150029000D03*
X63256000Y-150029000D03*
X63256000Y-147489000D03*
X63256000Y-144949000D03*
X63256000Y-142409000D03*
X58420000Y-43688000D03*
X68580000Y-43688000D03*
D19*
X149352000Y-170379621D03*
D11*
X149352000Y-172879621D03*
D20*
X82994500Y-145915000D03*
X82994500Y-143415000D03*
D18*
X136408000Y-165222000D03*
D11*
X136408000Y-167762000D03*
X136408000Y-170302000D03*
X136408000Y-172842000D03*
X144028000Y-172842000D03*
X144028000Y-170302000D03*
X144028000Y-167762000D03*
X144028000Y-165222000D03*
X29210000Y-72136000D03*
X39370000Y-72136000D03*
D21*
X66294000Y-135636000D03*
D22*
X66294000Y-133096000D03*
X66294000Y-130556000D03*
D20*
X129701500Y-68667000D03*
X129701500Y-71167000D03*
D12*
X105918000Y-40386000D03*
D16*
X152392000Y-43027600D03*
D17*
X147312000Y-43027600D03*
D23*
X142430500Y-87645000D03*
D11*
X142430500Y-85105000D03*
X142430500Y-82565000D03*
X142430500Y-80025000D03*
D10*
X102108000Y-175768000D03*
D24*
X107950000Y-68707000D03*
D25*
X107950000Y-71247000D03*
X107950000Y-73787000D03*
X107950000Y-76327000D03*
X107950000Y-78867000D03*
X107950000Y-81407000D03*
X107950000Y-83947000D03*
X107950000Y-86487000D03*
X107950000Y-89027000D03*
X107950000Y-91567000D03*
X107950000Y-94107000D03*
X107950000Y-96647000D03*
X123190000Y-96647000D03*
X123190000Y-94107000D03*
X123190000Y-91567000D03*
X123190000Y-89027000D03*
X123190000Y-86487000D03*
X123190000Y-83947000D03*
X123190000Y-81407000D03*
X123190000Y-78867000D03*
X123190000Y-76327000D03*
X123190000Y-73787000D03*
X123190000Y-71247000D03*
X123190000Y-68707000D03*
D11*
X29464000Y-46736000D03*
X29464000Y-56896000D03*
X113919000Y-118364000D03*
X124079000Y-118364000D03*
D18*
X30426500Y-140367000D03*
D11*
X30426500Y-142907000D03*
X30426500Y-145447000D03*
X30426500Y-147987000D03*
X38046500Y-147987000D03*
X38046500Y-145447000D03*
X38046500Y-142907000D03*
X38046500Y-140367000D03*
D26*
X110744000Y-118364000D03*
D11*
X103124000Y-118364000D03*
D20*
X39873000Y-100477000D03*
X39873000Y-102977000D03*
D11*
X33020000Y-46736000D03*
X33020000Y-56896000D03*
D20*
X87310000Y-145923000D03*
X87310000Y-143423000D03*
X118110000Y-138168000D03*
X118110000Y-135668000D03*
X60706000Y-138589000D03*
X58206000Y-138589000D03*
D19*
X93345000Y-88265000D03*
D11*
X93345000Y-95885000D03*
X25908000Y-46736000D03*
X25908000Y-56896000D03*
D27*
X96012000Y-44196000D03*
D11*
X96012000Y-41696000D03*
D19*
X98806000Y-169505621D03*
D11*
X98806000Y-172005621D03*
D12*
X107396000Y-135890000D03*
X83373000Y-158115000D03*
D11*
X44704000Y-158401000D03*
X54864000Y-158401000D03*
D28*
X141731999Y-155956001D03*
X135328875Y-155957097D03*
X139233754Y-159079904D03*
X137827121Y-152833194D03*
D19*
X82296000Y-99568000D03*
D11*
X82296000Y-107188000D03*
X113919000Y-114554000D03*
X124079000Y-114554000D03*
X78166000Y-136017000D03*
X78166000Y-146177000D03*
D29*
X118364000Y-167213677D03*
D30*
X118364000Y-162213677D03*
D31*
X82230000Y-153126500D03*
D32*
X84770000Y-153126500D03*
X87310000Y-153126500D03*
D11*
X144526000Y-121666000D03*
X144526000Y-131826000D03*
D10*
X111760000Y-135890000D03*
D21*
X131762500Y-82027000D03*
D22*
X134302500Y-82027000D03*
X136842500Y-82027000D03*
D11*
X108204000Y-152400000D03*
X118364000Y-152400000D03*
X151384000Y-155306000D03*
X151384000Y-165466000D03*
D33*
X110958000Y-169545000D03*
X105958000Y-169545000D03*
D20*
X39873000Y-95427000D03*
X39873000Y-92927000D03*
D12*
X156210000Y-171958000D03*
D21*
X131762500Y-88377000D03*
D22*
X134302500Y-88377000D03*
X136842500Y-88377000D03*
D26*
X110744000Y-114554000D03*
D11*
X103124000Y-114554000D03*
D19*
X90170000Y-88265000D03*
D11*
X90170000Y-95885000D03*
D20*
X75941000Y-94087000D03*
X75941000Y-91587000D03*
D11*
X117348000Y-175260000D03*
X127508000Y-175260000D03*
D13*
X73850000Y-46736000D03*
D14*
X90510000Y-49276000D03*
D15*
X90510000Y-46736000D03*
X90510000Y-44196000D03*
D21*
X131762500Y-76185000D03*
D22*
X134302500Y-76185000D03*
X136842500Y-76185000D03*
D23*
X97282000Y-88392000D03*
D11*
X97282000Y-90932000D03*
X97282000Y-93472000D03*
X97282000Y-96012000D03*
X97282000Y-98552000D03*
X97282000Y-101092000D03*
X97282000Y-103632000D03*
X97282000Y-106172000D03*
D20*
X49794000Y-59979000D03*
X49794000Y-57479000D03*
D11*
X144526000Y-107442000D03*
X144526000Y-117602000D03*
D34*
X62098000Y-59436000D03*
D35*
X62098000Y-56896000D03*
X64638000Y-59436000D03*
X64638000Y-56896000D03*
X67178000Y-59436000D03*
X67178000Y-56896000D03*
D11*
X26670000Y-124619000D03*
X26670000Y-134779000D03*
X113919000Y-110744000D03*
X124079000Y-110744000D03*
X58420000Y-47244000D03*
X68580000Y-47244000D03*
D20*
X53081000Y-91587000D03*
X53081000Y-94087000D03*
D19*
X86995000Y-88265000D03*
D11*
X86995000Y-95885000D03*
D20*
X132080000Y-170312000D03*
X132080000Y-172812000D03*
D10*
X156210000Y-175514000D03*
D30*
X43890000Y-80990000D03*
X37390000Y-80990000D03*
X43890000Y-76490000D03*
X37390000Y-76490000D03*
D36*
X135128000Y-48364000D03*
D37*
X135128000Y-42364000D03*
D38*
X130428000Y-45364000D03*
D20*
X42100500Y-145457000D03*
X42100500Y-147957000D03*
X32956500Y-133120500D03*
X35456500Y-133120500D03*
D39*
X129540000Y-142740000D03*
D17*
X129540000Y-137660000D03*
D11*
X44704000Y-154845000D03*
X54864000Y-154845000D03*
D20*
X123190000Y-142240000D03*
X123190000Y-144740000D03*
D12*
X156210000Y-64770000D03*
D40*
X152400000Y-52324000D03*
D30*
X147400000Y-52324000D03*
D21*
X61616000Y-156972000D03*
D22*
X61616000Y-159512000D03*
X61616000Y-162052000D03*
D11*
X148082000Y-107442000D03*
X148082000Y-117602000D03*
D20*
X32936500Y-136801000D03*
X35436500Y-136801000D03*
D22*
X45461000Y-100367000D03*
X45461000Y-95487000D03*
D41*
X27173000Y-41148000D03*
D42*
X29713000Y-41148000D03*
D26*
X110744000Y-110744000D03*
D11*
X103124000Y-110744000D03*
D18*
X56891000Y-68707000D03*
D11*
X56891000Y-71247000D03*
X56891000Y-73787000D03*
X56891000Y-76327000D03*
X56891000Y-78867000D03*
X56891000Y-81407000D03*
X56891000Y-83947000D03*
X56891000Y-86487000D03*
X56891000Y-89027000D03*
X56891000Y-91567000D03*
X56891000Y-94107000D03*
X56891000Y-96647000D03*
X56891000Y-99187000D03*
X56891000Y-101727000D03*
X56891000Y-104267000D03*
X56891000Y-106807000D03*
X56891000Y-109347000D03*
X56891000Y-111887000D03*
X56891000Y-114427000D03*
X56891000Y-116967000D03*
X72131000Y-116967000D03*
X72131000Y-114427000D03*
X72131000Y-111887000D03*
X72131000Y-109347000D03*
X72131000Y-106807000D03*
X72131000Y-104267000D03*
X72131000Y-101727000D03*
X72131000Y-99187000D03*
X72131000Y-96647000D03*
X72131000Y-94107000D03*
X72131000Y-91567000D03*
X72131000Y-89027000D03*
X72131000Y-86487000D03*
X72131000Y-83947000D03*
X72131000Y-81407000D03*
X72131000Y-78867000D03*
X72131000Y-76327000D03*
X72131000Y-73787000D03*
X72131000Y-71247000D03*
X72131000Y-68707000D03*
D43*
X126500000Y-165100000D03*
D17*
X131580000Y-165100000D03*
D10*
X138366500Y-68834000D03*
D18*
X38364000Y-52319000D03*
D11*
X38364000Y-54859000D03*
X38364000Y-57399000D03*
X38364000Y-59939000D03*
X38364000Y-62479000D03*
X38364000Y-65019000D03*
X38364000Y-67559000D03*
X45984000Y-67559000D03*
X45984000Y-65019000D03*
X45984000Y-62479000D03*
X45984000Y-59939000D03*
X45984000Y-57399000D03*
X45984000Y-54859000D03*
X45984000Y-52319000D03*
D12*
X105918000Y-175768000D03*
D20*
X136819000Y-92456000D03*
X139319000Y-92456000D03*
D10*
X156210000Y-60960000D03*
D20*
X42100500Y-140317000D03*
X42100500Y-137817000D03*
D11*
X50292000Y-126905000D03*
X60452000Y-126905000D03*
D18*
X129042000Y-106426000D03*
D11*
X129042000Y-108966000D03*
X129042000Y-111506000D03*
X129042000Y-114046000D03*
X129042000Y-116586000D03*
X129042000Y-119126000D03*
X129042000Y-121666000D03*
X129042000Y-124206000D03*
X136662000Y-124206000D03*
X136662000Y-121666000D03*
X136662000Y-119126000D03*
X136662000Y-116586000D03*
X136662000Y-114046000D03*
X136662000Y-111506000D03*
X136662000Y-108966000D03*
X136662000Y-106426000D03*
D10*
X102108000Y-40386000D03*
D23*
X101092000Y-88392000D03*
D11*
X101092000Y-90932000D03*
X101092000Y-93472000D03*
X101092000Y-96012000D03*
X101092000Y-98552000D03*
X101092000Y-101092000D03*
X101092000Y-103632000D03*
X101092000Y-106172000D03*
D10*
X27178000Y-95758000D03*
D19*
X88646000Y-99568000D03*
D11*
X88646000Y-107188000D03*
D19*
X85471000Y-99568000D03*
D11*
X85471000Y-107188000D03*
D20*
X40894000Y-48514000D03*
X43394000Y-48514000D03*
D41*
X33020000Y-41148000D03*
D42*
X35560000Y-41148000D03*
D44*
X54283000Y-44207000D03*
X53433000Y-44207000D03*
X52583000Y-44207000D03*
X51733000Y-44207000D03*
X50883000Y-44207000D03*
X50033000Y-44207000D03*
X49183000Y-44207000D03*
X48333000Y-44207000D03*
X48333000Y-42857000D03*
X49183000Y-42857000D03*
X50033000Y-42857000D03*
X50883000Y-42857000D03*
X51733000Y-42857000D03*
X52583000Y-42857000D03*
X53433000Y-42857000D03*
X54283000Y-42857000D03*
D45*
X55633000Y-43227000D03*
D46*
X55633000Y-39847000D03*
D45*
X46983000Y-43227000D03*
D46*
X46983000Y-39847000D03*
D21*
X145288000Y-137160000D03*
D22*
X142748000Y-137160000D03*
X140208000Y-137160000D03*
D11*
X140970000Y-107442000D03*
X140970000Y-117602000D03*
X140970000Y-131826000D03*
X140970000Y-121666000D03*
D10*
X87818000Y-158115000D03*
D11*
X147828000Y-155306000D03*
X147828000Y-165466000D03*
D19*
X79121000Y-99568000D03*
D11*
X79121000Y-107188000D03*
D41*
X21336000Y-41148000D03*
D42*
X23876000Y-41148000D03*
D19*
X96012000Y-49276000D03*
D11*
X96012000Y-51776000D03*
D19*
X83820000Y-88265000D03*
D11*
X83820000Y-95885000D03*
G36*
X86693039Y-41709685D02*
G01*
X86738794Y-41762489D01*
X86750000Y-41814000D01*
X86750000Y-51656000D01*
X86730315Y-51723039D01*
X86677511Y-51768794D01*
X86626000Y-51780000D01*
X71124000Y-51780000D01*
X71056961Y-51760315D01*
X71011206Y-51707511D01*
X71000000Y-51656000D01*
X71000000Y-41814000D01*
X71019685Y-41746961D01*
X71072489Y-41701206D01*
X71124000Y-41690000D01*
X86626000Y-41690000D01*
X86693039Y-41709685D01*
G37*
G36*
X114633039Y-139749685D02*
G01*
X114678794Y-139802489D01*
X114690000Y-139854000D01*
X114690000Y-149706000D01*
X114670315Y-149773039D01*
X114617511Y-149818794D01*
X114566000Y-149830000D01*
X99064000Y-149830000D01*
X98996961Y-149810315D01*
X98951206Y-149757511D01*
X98940000Y-149706000D01*
X98940000Y-139854000D01*
X98959685Y-139786961D01*
X99012489Y-139741206D01*
X99064000Y-139730000D01*
X114566000Y-139730000D01*
X114633039Y-139749685D01*
G37*
M02*
